<svg width="16" height="17" viewBox="0 0 16 17" fill="none" xmlns="http://www.w3.org/2000/svg">
<path d="M1.5 8.65774C1.51177 6.93838 2.20001 5.29278 3.41583 4.07699C4.63164 2.8612 6.27725 2.17299 7.99662 2.16125C9.71669 2.17271 11.3632 2.86063 12.5801 4.07628C13.7971 5.29194 14.4867 6.93768 14.5 8.65774C14.4897 10.3782 13.8021 12.0254 12.5862 13.2426C11.3703 14.4598 9.72384 15.1491 8.00338 15.1613C6.28221 15.1494 4.63491 14.4604 3.41785 13.2433C2.20078 12.0262 1.51182 10.3789 1.5 8.65774V8.65774ZM9.4649 12.1376C9.52731 12.1403 9.58962 12.1303 9.64807 12.1082C9.70651 12.0862 9.75989 12.0525 9.805 12.0093C9.8501 11.9661 9.88599 11.9142 9.91051 11.8568C9.93503 11.7993 9.94767 11.7375 9.94767 11.675C9.94767 11.6125 9.93503 11.5507 9.91051 11.4933C9.88599 11.4358 9.8501 11.3839 9.805 11.3407C9.75989 11.2975 9.70651 11.2638 9.64807 11.2418C9.58962 11.2198 9.52731 11.2098 9.4649 11.2124H8.70733V8.06104C8.70733 7.70575 8.5263 7.4711 8.19779 7.4711H6.9977C6.93592 7.46947 6.87444 7.48022 6.81689 7.50273C6.75933 7.52524 6.70687 7.55905 6.6626 7.60217C6.61832 7.64528 6.58314 7.69683 6.55911 7.75377C6.53508 7.8107 6.5227 7.87188 6.5227 7.93368C6.5227 7.99548 6.53508 8.05665 6.55911 8.11359C6.58314 8.17052 6.61832 8.22207 6.6626 8.26519C6.70687 8.3083 6.75933 8.34211 6.81689 8.36462C6.87444 8.38713 6.93592 8.39789 6.9977 8.39625H7.66141V11.2124H6.88369C6.82191 11.2108 6.76043 11.2216 6.70288 11.2441C6.64532 11.2666 6.59286 11.3004 6.54859 11.3435C6.50432 11.3866 6.46913 11.4382 6.4451 11.4951C6.42107 11.552 6.40869 11.6132 6.40869 11.675C6.40869 11.7368 6.42107 11.798 6.4451 11.8549C6.46913 11.9119 6.50432 11.9634 6.54859 12.0065C6.59286 12.0496 6.64532 12.0834 6.70288 12.106C6.76043 12.1285 6.82191 12.1392 6.88369 12.1376H9.4649ZM8.7878 5.6006C8.78783 5.43483 8.73869 5.27278 8.64662 5.13494C8.55454 4.99709 8.42365 4.88965 8.27051 4.82619C8.11737 4.76274 7.94885 4.74612 7.78626 4.77845C7.62368 4.81077 7.47433 4.89058 7.3571 5.00779C7.23988 5.125 7.16004 5.27433 7.12769 5.43691C7.09534 5.5995 7.11193 5.76802 7.17536 5.92117C7.2388 6.07432 7.34622 6.20523 7.48405 6.29732C7.62188 6.38942 7.78392 6.43858 7.94969 6.43858C8.05999 6.43947 8.16936 6.41841 8.27144 6.37661C8.37352 6.33482 8.46626 6.27313 8.54426 6.19514C8.62227 6.11715 8.68397 6.02441 8.72578 5.92234C8.76759 5.82027 8.78867 5.7109 8.7878 5.6006V5.6006Z" fill="#22313F"/>
</svg>
