<svg width="16" height="17" viewBox="0 0 16 17" fill="none" xmlns="http://www.w3.org/2000/svg">
<path fill-rule="evenodd" clip-rule="evenodd" d="M8 5.24468C8.41421 5.24468 8.75 5.58047 8.75 5.99468V11.328C8.75 11.7422 8.41421 12.078 8 12.078C7.58579 12.078 7.25 11.7422 7.25 11.328V5.99468C7.25 5.58047 7.58579 5.24468 8 5.24468Z" fill="#22313F"/>
<path fill-rule="evenodd" clip-rule="evenodd" d="M4.58342 8.66125C4.58342 8.24704 4.91921 7.91125 5.33342 7.91125H10.6668C11.081 7.91125 11.4168 8.24704 11.4168 8.66125C11.4168 9.07547 11.081 9.41125 10.6668 9.41125H5.33342C4.91921 9.41125 4.58342 9.07547 4.58342 8.66125Z" fill="#22313F"/>
<path fill-rule="evenodd" clip-rule="evenodd" d="M8 3.41125C6.60761 3.41125 5.27226 3.96438 4.28769 4.94894C3.30312 5.93351 2.75 7.26887 2.75 8.66125C2.75 10.0536 3.30312 11.389 4.28769 12.3736C5.27226 13.3581 6.60761 13.9113 8 13.9113C9.39239 13.9113 10.7277 13.3581 11.7123 12.3736C12.6969 11.389 13.25 10.0536 13.25 8.66125C13.25 7.26887 12.6969 5.93351 11.7123 4.94894C10.7277 3.96438 9.39239 3.41125 8 3.41125ZM3.22703 3.88828C4.4929 2.62241 6.20979 1.91125 8 1.91125C9.79021 1.91125 11.5071 2.62241 12.773 3.88828C14.0388 5.15415 14.75 6.87104 14.75 8.66125C14.75 10.4515 14.0388 12.1684 12.773 13.4342C11.5071 14.7001 9.79021 15.4113 8 15.4113C6.20979 15.4113 4.4929 14.7001 3.22703 13.4342C1.96116 12.1684 1.25 10.4515 1.25 8.66125C1.25 6.87104 1.96116 5.15415 3.22703 3.88828Z" fill="#22313F"/>
</svg>
