<svg width="16" height="17" viewBox="0 0 16 17" fill="none" xmlns="http://www.w3.org/2000/svg">
<path fill-rule="evenodd" clip-rule="evenodd" d="M8.723 4.4376C9.0159 4.14471 9.49077 4.14471 9.78366 4.4376L12.2237 6.8776C12.5166 7.17049 12.5166 7.64537 12.2237 7.93826C11.9308 8.23115 11.4559 8.23115 11.163 7.93826L8.723 5.49826C8.43011 5.20537 8.43011 4.73049 8.723 4.4376Z" fill="#22313F"/>
<path fill-rule="evenodd" clip-rule="evenodd" d="M11.556 3.72191L2.75 12.5286V13.9112H4.13267L12.9387 5.10458L11.556 3.72191ZM4.16656 15.4112C4.35265 15.4113 4.53771 15.3747 4.70963 15.3035C4.88155 15.2322 5.03774 15.1277 5.16922 14.996L14.0579 6.10669C14.1894 5.97527 14.2942 5.81877 14.3655 5.64701C14.4368 5.47506 14.4735 5.29073 14.4735 5.10458C14.4735 4.91843 14.4368 4.7341 14.3655 4.56214C14.2942 4.39025 14.1897 4.2341 14.058 4.10262L12.5581 2.6027C12.4266 2.47096 12.2704 2.36644 12.0984 2.29513C11.9265 2.22382 11.7422 2.18711 11.556 2.18711C11.3698 2.18711 11.1855 2.22382 11.0136 2.29513C10.8416 2.36643 10.6855 2.47092 10.554 2.60262L1.66642 11.4908L1.66538 11.4919C1.39784 11.7585 1.25 12.12 1.25 12.4939V14.6612C1.25 15.0755 1.58579 15.4112 2 15.4112L4.16656 15.4112Z" fill="#22313F"/>
</svg>
