<svg width="16" height="17" viewBox="0 0 16 17" fill="none" xmlns="http://www.w3.org/2000/svg">
<path d="M8.19477 14.3472C7.96459 14.3472 7.7344 14.2941 7.52192 14.1937C7.25632 14.0639 7.03794 13.8691 6.88449 13.6212C6.73103 13.3733 6.6484 13.09 6.6484 12.8008V11.4669C5.93423 11.5614 5.24368 11.762 4.58853 12.0808C3.71501 12.4998 2.92411 13.1136 2.31029 13.8632C2.10961 14.1052 1.78499 14.1937 1.48988 14.0875C1.19477 13.9813 1 13.7039 1 13.391V12.9897C1 11.2426 1.64334 9.56052 2.80607 8.25613C3.82125 7.11111 5.16695 6.33202 6.6484 6.0251V4.52595C6.6484 4.23674 6.73103 3.95343 6.88449 3.70554C7.03794 3.45765 7.26223 3.25698 7.52192 3.13303C7.78162 3.00908 8.07083 2.95006 8.36594 2.98547C8.65514 3.01499 8.92664 3.12713 9.15683 3.3101L14.4216 7.46524C14.5987 7.60689 14.7462 7.78986 14.8465 7.99644C14.9469 8.19711 15 8.4273 15 8.65748C15 8.88767 14.9469 9.11785 14.8465 9.31853C14.7462 9.5251 14.5987 9.70807 14.4157 9.84972L9.15683 14.0049C8.92664 14.1819 8.65514 14.2941 8.36594 14.3295C8.30691 14.3413 8.24789 14.3472 8.19477 14.3472ZM7.39207 9.93235C7.58685 9.93235 7.77572 10.0091 7.91147 10.1448C8.05312 10.2865 8.12985 10.4754 8.12985 10.6701V12.7949L13.4949 8.68699L8.12395 4.52595V6.65664C8.12395 7.03438 7.84064 7.3531 7.4629 7.39441C6.09949 7.54787 4.83052 8.20301 3.90978 9.2359C3.32546 9.89104 2.90641 10.6701 2.67622 11.5023C3.07757 11.2131 3.50253 10.9593 3.94519 10.7469C5.0253 10.2275 6.18212 9.95596 7.38027 9.93826C7.38027 9.93235 7.38617 9.93235 7.39207 9.93235Z" fill="#22313F"/>
</svg>
