<svg id="Layer_1" data-name="Layer 1" xmlns="http://www.w3.org/2000/svg" xmlns:xlink="http://www.w3.org/1999/xlink" viewBox="0 0 16 16"><defs><style>.cls-1{fill:url(#linear-gradient);}.cls-2{fill:#fff;fill-rule:evenodd;}</style><linearGradient id="linear-gradient" x1="8" y1="0.04304" x2="8" y2="15.47769" gradientUnits="userSpaceOnUse"><stop offset="0" stop-color="#f14747"/><stop offset="1" stop-color="#c02222"/></linearGradient></defs><circle class="cls-1" cx="8" cy="8" r="8"/><path class="cls-2" d="M11.951,9.53375v1.9246A1.48107,1.48107,0,0,1,10.4694,12.9388h-1.778a.1975.1975,0,0,1-.19755-.19741V9.53375a.19749.19749,0,0,1,.19755-.1974h3.062A.19749.19749,0,0,1,11.951,9.53375Zm-4.44491,0v3.20764a.1975.1975,0,0,1-.19755.19741H5.5306A1.48107,1.48107,0,0,1,4.049,11.45835V9.53375a.19749.19749,0,0,1,.19755-.1974h3.062A.19749.19749,0,0,1,7.50612,9.53375ZM10.2633,6.03714a2.38823,2.38823,0,0,1-1.28942.32353c-.04317,0-.08243-.00079-.117-.002a.13686.13686,0,0,1-.12831-.16793,2.8421,2.8421,0,0,1,.66308-1.38753.75656.75656,0,0,1,1.06742.11059A.77713.77713,0,0,1,10.2633,6.03714Zm-2.98372.27339a2.82165,2.82165,0,0,1-1.46865-.75206.914.914,0,0,1,.1-1.32091.89513.89513,0,0,1,1.25776.15688,3.20415,3.20415,0,0,1,.39609,1.68179A.2355.2355,0,0,1,7.27958,6.31053Zm4.96778.06495H11.307A1.74235,1.74235,0,0,0,9.87,3.64549H9.86988a1.74885,1.74885,0,0,0-1.10358.3937,2.1436,2.1436,0,0,0-.43565.4955,2.4328,2.4328,0,0,0-.38132-.745A1.8713,1.8713,0,0,0,6.46092,3.0612,1.88122,1.88122,0,0,0,4.97381,6.09478a2.49059,2.49059,0,0,0,.25543.2807H3.75264a.69114.69114,0,0,0-.69143.69085v.59221a.69116.69116,0,0,0,.69143.69089h8.49472a.69116.69116,0,0,0,.69143-.69089V7.06633A.69114.69114,0,0,0,12.24736,6.37548Z"/></svg>