<svg width="16" height="17" viewBox="0 0 16 17" fill="none" xmlns="http://www.w3.org/2000/svg">
<path d="M14.7355 12.0944L9.74612 3.19472C9.57036 2.88081 9.31626 2.61986 9.00961 2.43836C8.70295 2.25686 8.35465 2.16125 8.00004 2.16125C7.64543 2.16125 7.29713 2.25686 6.99048 2.43836C6.68382 2.61986 6.42973 2.88081 6.25397 3.19472L1.26533 12.0944C1.09042 12.4061 0.998923 12.7592 1.00001 13.1182C1.0011 13.4773 1.09473 13.8298 1.27153 14.1404C1.44832 14.451 1.70208 14.7087 2.00738 14.8879C2.31269 15.0671 2.65882 15.1613 3.01111 15.1613H12.9892C13.3414 15.1611 13.6874 15.0667 13.9925 14.8875C14.2977 14.7083 14.5514 14.4505 14.7282 14.14C14.905 13.8296 14.9987 13.4772 15 13.1182C15.0013 12.7592 14.91 12.4062 14.7355 12.0944V12.0944ZM7.51165 6.92131C7.51165 6.78924 7.56312 6.66258 7.65474 6.5692C7.74636 6.47581 7.87063 6.42335 8.0002 6.42335C8.12978 6.42335 8.25405 6.47581 8.34567 6.5692C8.43729 6.66258 8.48876 6.78924 8.48876 6.92131V9.40486C8.48876 9.53692 8.43729 9.66358 8.34567 9.75697C8.25405 9.85035 8.12978 9.90282 8.0002 9.90282C7.87063 9.90282 7.74636 9.85035 7.65474 9.75697C7.56312 9.66358 7.51165 9.53692 7.51165 9.40486V6.92131ZM7.99988 12.3129C7.87104 12.3129 7.7451 12.274 7.63797 12.201C7.53085 12.1281 7.44736 12.0244 7.39805 11.9031C7.34875 11.7817 7.33585 11.6483 7.36098 11.5195C7.38612 11.3907 7.44816 11.2724 7.53926 11.1795C7.63036 11.0867 7.74643 11.0234 7.87279 10.9978C7.99916 10.9722 8.13013 10.9853 8.24916 11.0356C8.36819 11.0858 8.46993 11.1709 8.54151 11.2801C8.61309 11.3893 8.65129 11.5177 8.65129 11.649C8.65129 11.8251 8.58266 11.994 8.4605 12.1185C8.33833 12.243 8.17264 12.3129 7.99988 12.3129Z" fill="#22313F"/>
</svg>
