<svg width="16" height="17" viewBox="0 0 16 17" fill="none" xmlns="http://www.w3.org/2000/svg">
<path d="M8 2.16125C6.71442 2.16125 5.45771 2.54247 4.3888 3.2567C3.31988 3.97093 2.48676 4.98609 1.99479 6.17381C1.50282 7.36153 1.37409 8.66846 1.6249 9.92934C1.8757 11.1902 2.49477 12.3484 3.40381 13.2574C4.31285 14.1665 5.47104 14.7856 6.73192 15.0364C7.99279 15.2872 9.29972 15.1584 10.4874 14.6665C11.6752 14.1745 12.6903 13.3414 13.4046 12.2725C14.1188 11.2035 14.5 9.94683 14.5 8.66125C14.498 6.93795 13.8126 5.2858 12.594 4.06725C11.3755 2.84869 9.7233 2.16323 8 2.16125V2.16125ZM10.9445 7.38075L7.6945 10.6308C7.60308 10.7222 7.47909 10.7735 7.34981 10.7735C7.22052 10.7735 7.09653 10.7222 7.00511 10.6308L5.05511 8.68075C4.96764 8.58855 4.91964 8.46583 4.92133 8.33875C4.92302 8.21167 4.97428 8.09027 5.06417 8.00043C5.15406 7.91058 5.27549 7.8594 5.40257 7.85778C5.52966 7.85616 5.65235 7.90423 5.7445 7.99175L7.35 9.59725L10.2555 6.69175C10.3479 6.60564 10.4701 6.55876 10.5964 6.56099C10.7227 6.56322 10.8432 6.61438 10.9326 6.7037C11.0219 6.79302 11.073 6.91352 11.0753 7.03981C11.0775 7.16611 11.0306 7.28834 10.9445 7.38075V7.38075Z" fill="#22313F"/>
</svg>
