<svg width="16" height="17" viewBox="0 0 16 17" fill="none" xmlns="http://www.w3.org/2000/svg">
<path d="M8 15.1613C11.5899 15.1613 14.5 12.2511 14.5 8.66125C14.5 5.0714 11.5899 2.16125 8 2.16125C4.41015 2.16125 1.5 5.0714 1.5 8.66125C1.5 12.2511 4.41015 15.1613 8 15.1613Z" fill="#E80C31"/>
<path d="M8.00003 11.9113C8.3314 11.9113 8.60003 11.6426 8.60003 11.3113C8.60003 10.9799 8.3314 10.7113 8.00003 10.7113C7.66866 10.7113 7.40003 10.9799 7.40003 11.3113C7.40003 11.6426 7.66866 11.9113 8.00003 11.9113Z" fill="white"/>
<path fill-rule="evenodd" clip-rule="evenodd" d="M8.70003 9.31125C8.70003 9.71125 8.40003 9.91125 8.00003 9.91125C7.60003 9.91125 7.40003 9.71125 7.30003 9.31125L7.10003 6.41125C7.00003 5.91125 7.50003 5.41125 8.00003 5.41125C8.50003 5.41125 9.00003 5.91125 8.90003 6.41125L8.70003 9.31125Z" fill="white"/>
</svg>
