<svg width="16" height="16" viewBox="0 0 16 16" fill="none" xmlns="http://www.w3.org/2000/svg">
<path d="M4.2153 6.62438L7.48081 3.36374C7.61891 3.22683 7.8056 3.15 8.00017 3.15C8.19474 3.15 8.38143 3.22683 8.51953 3.36374L11.7847 6.62438C11.9226 6.76201 12 6.94868 12 7.14334C12 7.33799 11.9226 7.52468 11.7848 7.66234C11.6471 7.79999 11.4602 7.87734 11.2653 7.87736C11.0704 7.87737 10.8835 7.80007 10.7457 7.66244L8.7344 5.65362L8.7344 12.1163C8.7344 12.3109 8.65701 12.4975 8.51926 12.6351C8.38151 12.7727 8.19468 12.85 7.99987 12.85C7.80507 12.85 7.61824 12.7727 7.48049 12.6351C7.34274 12.4975 7.26535 12.3109 7.26535 12.1163L7.26535 5.65362L5.25402 7.66244C5.11621 7.80003 4.92933 7.8773 4.73449 7.87725C4.53964 7.87721 4.3528 7.79985 4.21506 7.66219C4.07731 7.52454 3.99995 7.33786 4 7.14323C4.00005 6.9486 4.07749 6.76197 4.2153 6.62438Z" fill="#333333"/>
</svg>
