<svg width="16" height="17" viewBox="0 0 16 17" fill="none" xmlns="http://www.w3.org/2000/svg">
<path fill-rule="evenodd" clip-rule="evenodd" d="M2.58325 5.32792C2.58325 4.91371 2.91904 4.57792 3.33325 4.57792H12.6666C13.0808 4.57792 13.4166 4.91371 13.4166 5.32792C13.4166 5.74214 13.0808 6.07792 12.6666 6.07792H3.33325C2.91904 6.07792 2.58325 5.74214 2.58325 5.32792Z" fill="#22313F"/>
<path fill-rule="evenodd" clip-rule="evenodd" d="M3.99992 4.57792C4.41413 4.57792 4.74992 4.91371 4.74992 5.32792V12.6613C4.74992 12.816 4.81138 12.9643 4.92077 13.0737C5.03017 13.1831 5.17854 13.2446 5.33325 13.2446H10.6666C10.8213 13.2446 10.9697 13.1831 11.0791 13.0737C11.1885 12.9643 11.2499 12.816 11.2499 12.6613V5.32792C11.2499 4.91371 11.5857 4.57792 11.9999 4.57792C12.4141 4.57792 12.7499 4.91371 12.7499 5.32792V12.6613C12.7499 13.2138 12.5304 13.7437 12.1397 14.1344C11.749 14.5251 11.2191 14.7446 10.6666 14.7446H5.33325C4.78072 14.7446 4.25081 14.5251 3.86011 14.1344C3.46941 13.7437 3.24992 13.2138 3.24992 12.6613V5.32792C3.24992 4.91371 3.58571 4.57792 3.99992 4.57792Z" fill="#22313F"/>
<path fill-rule="evenodd" clip-rule="evenodd" d="M5.39992 3.16126C5.39992 2.82989 5.66855 2.56126 5.99992 2.56126H9.99992C10.3313 2.56126 10.5999 2.82989 10.5999 3.16126C10.5999 3.49263 10.3313 3.76126 9.99992 3.76126H5.99992C5.66855 3.76126 5.39992 3.49263 5.39992 3.16126Z" fill="#22313F"/>
<path fill-rule="evenodd" clip-rule="evenodd" d="M6.66658 7.24459C7.0808 7.24459 7.41658 7.58038 7.41658 7.99459V11.3279C7.41658 11.7421 7.0808 12.0779 6.66658 12.0779C6.25237 12.0779 5.91659 11.7421 5.91659 11.3279V7.99459C5.91659 7.58038 6.25237 7.24459 6.66658 7.24459Z" fill="#22313F"/>
<path fill-rule="evenodd" clip-rule="evenodd" d="M9.33325 7.24459C9.74747 7.24459 10.0833 7.58038 10.0833 7.99459V11.3279C10.0833 11.7421 9.74747 12.0779 9.33325 12.0779C8.91904 12.0779 8.58325 11.7421 8.58325 11.3279V7.99459C8.58325 7.58038 8.91904 7.24459 9.33325 7.24459Z" fill="#22313F"/>
</svg>
