<svg id="Layer_1" data-name="Layer 1" xmlns="http://www.w3.org/2000/svg" xmlns:xlink="http://www.w3.org/1999/xlink" viewBox="0 0 16 16"><defs><style>.cls-1{fill:url(#linear-gradient);}.cls-2{fill:#ffedec;fill-rule:evenodd;}.cls-3{fill:#fff;}</style><linearGradient id="linear-gradient" x1="8" y1="0.2065" x2="8" y2="15.687" gradientUnits="userSpaceOnUse"><stop offset="0" stop-color="#f14747"/><stop offset="1" stop-color="#c02222"/></linearGradient></defs><circle class="cls-1" cx="8" cy="8" r="8"/><path class="cls-2" d="M12.15068,5.95937c-.39941-.05416-1.205-.10831-1.60377-.16883a.96456.96456,0,0,1-.8441-.59091c-.13539-.39264-.49939-1.1427-.67526-1.51929a1.08313,1.08313,0,0,0-2.02579,0,10.6474,10.6474,0,0,1-.67525,1.51929,1.24608,1.24608,0,0,1-.84429.59091c-.40462.03175-1.2016.19787-1.60371.25318a1.12063,1.12063,0,0,0-.67533,1.857c.30693.32724,1.023.87524,1.35059,1.18169a.99513.99513,0,0,1,.3376.92851c-.09477.41971-.23511,1.27017-.3376,1.68819a1.10554,1.10554,0,0,0,1.60371,1.18169c.36554-.19868,1.07039-.6431,1.43513-.84409a.86113.86113,0,0,1,.92851,0c.36555.19868,1.08353.6211,1.43514.84409a1.09428,1.09428,0,0,0,1.60357-1.18135c-.0876-.4214-.29522-1.25988-.33766-1.68819a1.35819,1.35819,0,0,1,.33766-.92851c.29543-.29542.89629-.87659,1.18176-1.18169a1.146,1.146,0,0,0-.59091-1.94171Z"/><path class="cls-3" d="M12.15156,5.95936c-.39941-.05415-1.205-.10831-1.60377-.16883a.9643.9643,0,0,1-.844-.59091C9.56837,4.807,9.2043,4.05692,9.0285,3.68026a1.08313,1.08313,0,0,0-2.02586,0,10.64616,10.64616,0,0,1-.67526,1.51936,1.24605,1.24605,0,0,1-.8443.59091c-.40468.03168-1.20159.19788-1.6037.25318a1.10648,1.10648,0,0,0-.95823,1.029,10.50775,10.50775,0,0,0,5.07343,1.2217,10.50717,10.50717,0,0,0,5.07269-1.22156A1.06388,1.06388,0,0,0,12.15156,5.95936Z"/></svg>