<svg width="16" height="16" viewBox="0 0 16 16" fill="none" xmlns="http://www.w3.org/2000/svg">
<path d="M11.7847 9.37563L8.51919 12.6363C8.38109 12.7732 8.1944 12.85 7.99983 12.85C7.80526 12.85 7.61857 12.7732 7.48047 12.6363L4.21526 9.37563C4.07745 9.238 4.00002 9.05132 4 8.85666C3.99998 8.66201 4.07738 8.47532 4.21516 8.33766C4.35294 8.20001 4.53982 8.12266 4.73469 8.12265C4.92956 8.12263 5.11646 8.19994 5.25427 8.33757L7.2656 10.3464V3.88372C7.2656 3.68912 7.34299 3.5025 7.48074 3.3649C7.61849 3.2273 7.80532 3.15 8.00013 3.15C8.19493 3.15 8.38176 3.2273 8.51951 3.3649C8.65726 3.5025 8.73465 3.68912 8.73465 3.88372V10.3464L10.746 8.33757C10.8838 8.19997 11.0707 8.1227 11.2655 8.12275C11.4604 8.12279 11.6472 8.20015 11.7849 8.33781C11.9227 8.47547 12 8.66214 12 8.85677C12 9.0514 11.9225 9.23804 11.7847 9.37563Z" fill="#333333"/>
</svg>
