<svg width="16" height="17" viewBox="0 0 16 17" fill="none" xmlns="http://www.w3.org/2000/svg">
<path fill-rule="evenodd" clip-rule="evenodd" d="M8 15.1613C11.5899 15.1613 14.5 12.2511 14.5 8.66125C14.5 5.0714 11.5899 2.16125 8 2.16125C4.41015 2.16125 1.5 5.0714 1.5 8.66125C1.5 12.2511 4.41015 15.1613 8 15.1613ZM6.06952 6.04153C5.87914 5.85115 5.57047 5.85115 5.38009 6.04153C5.18971 6.23191 5.18971 6.54058 5.38009 6.73096L7.31038 8.66124L5.38009 10.5915C5.18971 10.7819 5.18971 11.0906 5.38009 11.281C5.57047 11.4713 5.87914 11.4713 6.06952 11.281L7.9998 9.35067L9.93009 11.281C10.1205 11.4713 10.4291 11.4713 10.6195 11.281C10.8099 11.0906 10.8099 10.7819 10.6195 10.5915L8.68923 8.66124L10.6195 6.73096C10.8099 6.54058 10.8099 6.23191 10.6195 6.04153C10.4291 5.85115 10.1205 5.85115 9.93009 6.04153L7.9998 7.97181L6.06952 6.04153Z" fill="#22313F"/>
</svg>
