<svg width="16" height="16" viewBox="0 0 16 16" fill="none" xmlns="http://www.w3.org/2000/svg">
<path fill-rule="evenodd" clip-rule="evenodd" d="M4.80265 6.80298C5.09554 6.51009 5.57041 6.51009 5.86331 6.80298L7.99998 8.93965L10.1366 6.80298C10.4295 6.51009 10.9044 6.51009 11.1973 6.80298C11.4902 7.09588 11.4902 7.57075 11.1973 7.86364L8.53031 10.5306C8.23741 10.8235 7.76254 10.8235 7.46965 10.5306L4.80265 7.86364C4.50975 7.57075 4.50975 7.09588 4.80265 6.80298Z" fill="#22313F"/>
<path fill-rule="evenodd" clip-rule="evenodd" d="M8.00005 1.25C8.41426 1.25 8.75005 1.58579 8.75005 2V10.0025C8.75005 10.4167 8.41426 10.7525 8.00005 10.7525C7.58583 10.7525 7.25005 10.4167 7.25005 10.0025V2C7.25005 1.58579 7.58583 1.25 8.00005 1.25Z" fill="#22313F"/>
<path fill-rule="evenodd" clip-rule="evenodd" d="M2 10.583C2.41421 10.583 2.75 10.9188 2.75 11.333C2.75 11.8414 2.95197 12.329 3.31148 12.6885C3.67098 13.0481 4.15858 13.25 4.667 13.25H11.333C11.8414 13.25 12.329 13.0481 12.6885 12.6885C13.048 12.329 13.25 11.8414 13.25 11.333C13.25 10.9188 13.5858 10.583 14 10.583C14.4142 10.583 14.75 10.9188 14.75 11.333C14.75 12.2393 14.39 13.1084 13.7492 13.7492C13.1084 14.39 12.2392 14.75 11.333 14.75H4.667C3.76076 14.75 2.89163 14.39 2.25082 13.7492C1.61 13.1084 1.25 12.2393 1.25 11.333C1.25 10.9188 1.58579 10.583 2 10.583Z" fill="#22313F"/>
</svg>
