<svg id="Layer_1" data-name="Layer 1" xmlns="http://www.w3.org/2000/svg" xmlns:xlink="http://www.w3.org/1999/xlink" viewBox="0 0 16 16"><defs><style>.cls-1{fill:url(#linear-gradient);}.cls-2{fill:#fff;fill-rule:evenodd;}</style><linearGradient id="linear-gradient" x1="8" y1="-0.07495" x2="8" y2="16.15608" gradientUnits="userSpaceOnUse"><stop offset="0" stop-color="#f14747"/><stop offset="1" stop-color="#c02222"/></linearGradient></defs><circle class="cls-1" cx="8" cy="8" r="8"/><path class="cls-2" d="M12.91161,6.19659a.48862.48862,0,0,1,.09966.39413l-.4207,2.38663a.449.449,0,0,1-.17161.30654.52407.52407,0,0,1-.33771.12043H5.94764l-.12179.67877h5.84579a.5121.5121,0,0,1,.36536.14783.51152.51152,0,0,1,0,.73351.5123.5123,0,0,1-.36536.14778H5.20585a.51622.51622,0,0,1-.39858-.18607.52745.52745,0,0,1-.12178-.427l.27679-1.48891L4.54156,4.82815,3.34584,4.45592a.48848.48848,0,0,1-.30447-.2518A.53849.53849,0,0,1,3.00262,3.81a.48305.48305,0,0,1,.26018-.30107.54655.54655,0,0,1,.393-.03832l1.52786.48171a.469.469,0,0,1,.238.16422.56887.56887,0,0,1,.11625.27371l.08858.832,6.93078.76635A.49376.49376,0,0,1,12.91161,6.19659ZM5.992,11.39687a.77308.77308,0,0,1,.56464.22992.75574.75574,0,0,1,.2325.55834.774.774,0,0,1-.2325.56381.79492.79492,0,0,1-1.12929,0,.77389.77389,0,0,1-.23251-.56381.75583.75583,0,0,1,.23251-.55834A.773.773,0,0,1,5.992,11.39687Zm4.7275,0a.77319.77319,0,0,1,.56466.22992.756.756,0,0,1,.23253.55834.77407.77407,0,0,1-.23253.56381.7949.7949,0,0,1-1.12927,0,.77392.77392,0,0,1-.23258-.56381.75566.75566,0,0,1,.23258-.55834A.773.773,0,0,1,10.71945,11.39687Z"/></svg>