<svg id="Layer_1" data-name="Layer 1" xmlns="http://www.w3.org/2000/svg" xmlns:xlink="http://www.w3.org/1999/xlink" viewBox="0 0 16 16"><defs><style>.cls-1{fill:url(#linear-gradient);}.cls-2{fill:#fff;}.cls-2,.cls-3{fill-rule:evenodd;}.cls-3{fill:#ffedec;}</style><linearGradient id="linear-gradient" x1="8" y1="-0.45023" x2="8" y2="15.59975" gradientUnits="userSpaceOnUse"><stop offset="0" stop-color="#f14747"/><stop offset="1" stop-color="#c02222"/></linearGradient></defs><circle class="cls-1" cx="8" cy="8" r="8"/><path class="cls-2" d="M7.99342,2.85413A3.95118,3.95118,0,0,0,4.07887,6.841a3.91518,3.91518,0,1,0,7.829,0A3.9512,3.9512,0,0,0,7.99342,2.85413Zm1.95594,3.513L9.119,7.19965a.11533.11533,0,0,0-.02411.12664l.46076,1.07483A.27679.27679,0,0,1,9.483,8.707a.26459.26459,0,0,1-.30719.03363l-1.12738-.647a.11068.11068,0,0,0-.11005,0L6.811,8.7406A.26457.26457,0,0,1,6.5038,8.707a.27688.27688,0,0,1-.07263-.30585l.459-1.07483A.11625.11625,0,0,0,6.866,7.19965l-.82849-.832a.25744.25744,0,0,1-.06567-.28375.2495.2495,0,0,1,.23925-.16h.94751a.11169.11169,0,0,0,.10065-.06427l.49213-1.03339a.26623.26623,0,0,1,.47912,0l.49482,1.033a.11171.11171,0,0,0,.10064.06421h.94757a.24954.24954,0,0,1,.24115.15894A.25749.25749,0,0,1,9.94936,6.36713Z"/><path class="cls-3" d="M13.08539,11.31134l-1.079-1.89821a.1108.1108,0,0,0-.19016-.00547,4.62274,4.62274,0,0,1-2.26773,1.82256.11221.11221,0,0,0-.06713.06835.11621.11621,0,0,0,.009.0966l.8862,1.5278a.44409.44409,0,0,0,.80528-.07794l.37223-1.042,1.07015.1845a.44382.44382,0,0,0,.442-.18979.46262.46262,0,0,0,.01922-.48819ZM4.17818,9.42a.11133.11133,0,0,0-.09663-.05239.11339.11339,0,0,0-.0935.05651l-1.0737,1.88637a.46268.46268,0,0,0,.01965.488.44383.44383,0,0,0,.442.18951l1.06967-.18455L4.81838,12.846a.44407.44407,0,0,0,.80527.07653l.88312-1.52186a.11581.11581,0,0,0,.009-.09679.113.113,0,0,0-.06762-.06862A4.61445,4.61445,0,0,1,4.17818,9.42Z"/></svg>