<svg id="Layer_1" data-name="Layer 1" xmlns="http://www.w3.org/2000/svg" xmlns:xlink="http://www.w3.org/1999/xlink" viewBox="0 0 16 16"><defs><style>.cls-1{fill:url(#linear-gradient);}.cls-2{fill:#fff;fill-rule:evenodd;}</style><linearGradient id="linear-gradient" x1="8" y1="0.04304" x2="8" y2="15.47769" gradientUnits="userSpaceOnUse"><stop offset="0" stop-color="#f14747"/><stop offset="1" stop-color="#c02222"/></linearGradient></defs><circle class="cls-1" cx="8" cy="8" r="8"/><path class="cls-2" d="M12.13267,11.0995a.51611.51611,0,0,1,.51658.51658,1.03355,1.03355,0,0,1-1.03317,1.03317H4.38392a1.03355,1.03355,0,0,1-1.03317-1.03317.51644.51644,0,0,1,.51658-.51658ZM8.43806,3.35075a.59526.59526,0,0,1,.59511.5951V6.44973l1.725.00047a.51669.51669,0,0,1,.33991.90557L8.51049,9.87463a.775.775,0,0,1-1.02077,0L4.90215,7.35577a.5167.5167,0,0,1,.33992-.90557l1.72476-.00047V3.94585a.59526.59526,0,0,1,.59511-.5951Z"/></svg>