<svg width="16" height="17" viewBox="0 0 16 17" fill="none" xmlns="http://www.w3.org/2000/svg">
<path fill-rule="evenodd" clip-rule="evenodd" d="M5.86358 3.46426C6.15648 3.75715 6.15648 4.23203 5.86358 4.52492L4.39391 5.99459L5.86358 7.46426C6.15648 7.75715 6.15648 8.23203 5.86358 8.52492C5.57069 8.81781 5.09582 8.81781 4.80292 8.52492L2.80292 6.52492C2.66227 6.38427 2.58325 6.1935 2.58325 5.99459C2.58325 5.79568 2.66227 5.60491 2.80292 5.46426L4.80292 3.46426C5.09582 3.17137 5.57069 3.17137 5.86358 3.46426Z" fill="#22313F"/>
<path fill-rule="evenodd" clip-rule="evenodd" d="M2.58325 5.99459C2.58325 5.58038 2.91904 5.24459 3.33325 5.24459H9.33325C11.894 5.24459 14.0833 7.1616 14.0833 9.66126C14.0833 12.1609 11.894 14.0779 9.33325 14.0779H3.99992C3.58571 14.0779 3.24992 13.7421 3.24992 13.3279C3.24992 12.9137 3.58571 12.5779 3.99992 12.5779H9.33325C11.1912 12.5779 12.5833 11.2123 12.5833 9.66126C12.5833 8.11025 11.1912 6.74459 9.33325 6.74459H3.33325C2.91904 6.74459 2.58325 6.4088 2.58325 5.99459Z" fill="#22313F"/>
</svg>
