<svg width="16" height="17" viewBox="0 0 16 17" fill="none" xmlns="http://www.w3.org/2000/svg">
<circle cx="8" cy="8.66125" r="6.5" fill="#B3B8BD"/>
<path fill-rule="evenodd" clip-rule="evenodd" d="M5.38009 6.04153C5.57047 5.85115 5.87914 5.85115 6.06952 6.04153L10.6195 10.5915C10.8099 10.7819 10.8099 11.0906 10.6195 11.281C10.4291 11.4713 10.1205 11.4713 9.93009 11.281L5.38009 6.73096C5.18971 6.54058 5.18971 6.23191 5.38009 6.04153Z" fill="white"/>
<path fill-rule="evenodd" clip-rule="evenodd" d="M10.6195 6.04153C10.8099 6.23191 10.8099 6.54058 10.6195 6.73096L6.06952 11.281C5.87914 11.4713 5.57047 11.4713 5.38009 11.281C5.18971 11.0906 5.18971 10.7819 5.38009 10.5915L9.93009 6.04153C10.1205 5.85115 10.4291 5.85115 10.6195 6.04153Z" fill="white"/>
</svg>
