<svg id="Layer_1" data-name="Layer 1" xmlns="http://www.w3.org/2000/svg" xmlns:xlink="http://www.w3.org/1999/xlink" viewBox="0 0 16 16"><defs><style>.cls-1{fill:url(#linear-gradient);}.cls-2{fill:#fff;fill-rule:evenodd;}</style><linearGradient id="linear-gradient" x1="8" y1="-0.22336" x2="8" y2="16.53402" gradientUnits="userSpaceOnUse"><stop offset="0" stop-color="#f14747"/><stop offset="1" stop-color="#c02222"/></linearGradient></defs><circle class="cls-1" cx="8" cy="8" r="8"/><path class="cls-2" d="M8,3.9477A6.39013,6.39013,0,0,0,2.05662,8,6.38463,6.38463,0,0,0,13.94338,8,6.39013,6.39013,0,0,0,8,3.9477Zm0,6.75384A2.70154,2.70154,0,1,1,10.70153,8,2.70252,2.70252,0,0,1,8,10.70154ZM8,6.37908A1.62092,1.62092,0,1,0,9.62092,8,1.61875,1.61875,0,0,0,8,6.37908Z"/></svg>