<svg width="24" height="25" viewBox="0 0 24 25" fill="none" xmlns="http://www.w3.org/2000/svg">
<path fill-rule="evenodd" clip-rule="evenodd" d="M4.25 11.8506C4.25 11.4364 4.58579 11.1006 5 11.1006H19C19.4142 11.1006 19.75 11.4364 19.75 11.8506C19.75 12.2648 19.4142 12.6006 19 12.6006H5C4.58579 12.6006 4.25 12.2648 4.25 11.8506Z" fill="#22313F"/>
<path fill-rule="evenodd" clip-rule="evenodd" d="M11.0303 5.82026C11.3232 6.11315 11.3232 6.58802 11.0303 6.88092L5.53033 12.3809C5.23744 12.6738 4.76256 12.6738 4.46967 12.3809C4.17678 12.088 4.17678 11.6131 4.46967 11.3203L9.96967 5.82026C10.2626 5.52736 10.7374 5.52736 11.0303 5.82026Z" fill="#22313F"/>
<path fill-rule="evenodd" clip-rule="evenodd" d="M4.46967 11.3203C4.76256 11.0274 5.23744 11.0274 5.53033 11.3203L11.5303 17.3203C11.8232 17.6131 11.8232 18.088 11.5303 18.3809C11.2374 18.6738 10.7626 18.6738 10.4697 18.3809L4.46967 12.3809C4.17678 12.088 4.17678 11.6131 4.46967 11.3203Z" fill="#22313F"/>
</svg>
