<svg id="Layer_1" data-name="Layer 1" xmlns="http://www.w3.org/2000/svg" viewBox="0 0 20 20"><defs><style>.cls-1{fill:#22313f;}</style></defs><path class="cls-1" d="M6.6665,18.25H5a2.4191,2.4191,0,0,1-2.4165-2.416V4.1667A2.4193,2.4193,0,0,1,5,1.75h7.6436a2.4315,2.4315,0,0,1,1.708.708L16.709,4.8151a2.4315,2.4315,0,0,1,.708,1.708V10a.75.75,0,0,1-1.5,0V6.5231a.9208.9208,0,0,0-.2686-.6474L13.291,3.5182a.9207.9207,0,0,0-.6474-.2685H5a.9176.9176,0,0,0-.9165.917v11.667A.9174.9174,0,0,0,5,16.75H6.6665a.75.75,0,0,1,0,1.5Z"/><path class="cls-1" d="M11.667,18.25H9.1665a.75.75,0,0,1-.75-.75v-3.125a.75.75,0,0,1,.75-.75H11.667a.75.75,0,0,1,.75.75V17.5A.75.75,0,0,1,11.667,18.25Zm-1.7505-1.5H10.917v-1.625H9.9165Z"/><path class="cls-1" d="M14.167,18.25h-2.5a.75.75,0,0,1-.75-.75v-6.666a.75.75,0,0,1,.75-.75h2.5a.75.75,0,0,1,.75.75V17.5A.75.75,0,0,1,14.167,18.25Zm-1.75-1.5h1v-5.166h-1Z"/><path class="cls-1" d="M16.667,18.25h-2.5a.75.75,0,0,1-.75-.75v-4.791a.75.75,0,0,1,.75-.75h2.5a.75.75,0,0,1,.75.75V17.5A.75.75,0,0,1,16.667,18.25Zm-1.75-1.5h1v-3.291h-1Z"/><path class="cls-1" d="M12.5,7.4167H6.6665a.75.75,0,0,1,0-1.5H12.5a.75.75,0,0,1,0,1.5Z"/><path class="cls-1" d="M8.75,10.3337H6.6665a.75.75,0,1,1,0-1.5H8.75a.75.75,0,0,1,0,1.5Z"/></svg>