<svg id="Layer_1" data-name="Layer 1" xmlns="http://www.w3.org/2000/svg" viewBox="0 0 20 20"><defs><style>.cls-1{fill:#22313f;}</style></defs><path class="cls-1" d="M10.2534,16.9982A1.77,1.77,0,0,1,8.4849,15.23V13.3371a8.7328,8.7328,0,0,0-5.8242,3.1142.75.75,0,0,1-1.3272-.4794v-.51A8.7991,8.7991,0,0,1,8.4849,6.8176V4.77A1.7691,1.7691,0,0,1,11.3491,3.382L18.0074,8.64a1.7327,1.7327,0,0,1,0,2.7207l-6.6583,5.2578A1.778,1.778,0,0,1,10.2534,16.9982Zm-1.0185-5.207a.7483.7483,0,0,1,.75.75V15.23a.2784.2784,0,0,0,.4355.2109l6.6573-5.2578a.234.234,0,0,0,.039-.3272L10.42,4.56a.2686.2686,0,0,0-.4346.21V7.4621a.75.75,0,0,1-.666.7451A7.3008,7.3008,0,0,0,2.97,14.051a10.2364,10.2364,0,0,1,6.252-2.26Zm0-4.3291h0Z"/></svg>