<?xml version="1.0" encoding="utf-8"?>
<!-- Generator: Adobe Illustrator 24.2.0, SVG Export Plug-In . SVG Version: 6.00 Build 0)  -->
<svg version="1.1" id="Layer_1" xmlns="http://www.w3.org/2000/svg" xmlns:xlink="http://www.w3.org/1999/xlink" x="0px" y="0px"
	 viewBox="0 0 24 24" style="enable-background:new 0 0 24 24;" xml:space="preserve">
<style type="text/css">
	.st0{fill:#323232;}
</style>
<path class="st0" d="M18,2.2H6C4.5,2.2,3.2,3.5,3.2,5v10.7c0,1,0.5,1.9,1.4,2.4l6,3.3c0.4,0.2,0.9,0.3,1.3,0.3s0.9-0.1,1.3-0.3
	l6-3.3c0.9-0.5,1.4-1.4,1.4-2.4V5C20.8,3.5,19.5,2.2,18,2.2z M19.2,15.7c0,0.5-0.2,0.9-0.6,1.1l-6,3.3c-0.4,0.2-0.8,0.2-1.2,0
	l-6-3.3c-0.4-0.2-0.6-0.6-0.6-1.1V5c0-0.7,0.6-1.2,1.2-1.2h12c0.7,0,1.2,0.6,1.2,1.2V15.7z M16.2,9.2c-0.2-0.6-0.7-1-1.2-1L14,8
	l-0.4-0.8c-0.3-0.5-0.8-0.9-1.4-0.9h-0.4c-0.6,0-1.1,0.3-1.4,0.9L10,8L9,8.1C8.5,8.2,8,8.6,7.8,9.2L7.7,9.5c-0.2,0.6,0,1.2,0.4,1.6
	l0.7,0.7l-0.2,0.9c-0.1,0.6,0.1,1.2,0.6,1.5l0.3,0.2c0.5,0.3,1.1,0.4,1.6,0.1c0,0,0,0,0,0l0.9-0.4l0.8,0.4c0.2,0.1,0.5,0.2,0.7,0.2
	c0.3,0,0.6-0.1,0.9-0.3l0.3-0.2c0.5-0.3,0.7-0.9,0.6-1.5l-0.1-1l0.7-0.7c0.4-0.4,0.6-1,0.4-1.6L16.2,9.2z M10.4,13.2L10.1,13
	l0.2-0.9c0.1-0.5-0.1-1-0.4-1.4L9.1,10l0.2-0.4l0.9-0.1c0.5-0.1,0.9-0.4,1.2-0.8l0.5-0.9l0.4,0l0.4,0.8c0.2,0.5,0.7,0.8,1.2,0.8
	l1,0.2l0.1,0.4l-0.7,0.7c-0.4,0.4-0.5,0.9-0.4,1.4l0.1,1l-0.4,0.2l-0.8-0.4c-0.4-0.2-1-0.2-1.4,0L10.4,13.2"/>
</svg>
