<svg id="Layer_1" data-name="Layer 1" xmlns="http://www.w3.org/2000/svg" viewBox="0 0 20 20"><defs><style>.cls-1{fill:#22313f;}</style></defs><path class="cls-1" d="M10,16.5831a.75.75,0,0,1-.75-.75V10a.75.75,0,0,1,1.5,0v5.833A.75.75,0,0,1,10,16.5831Z"/><path class="cls-1" d="M8.1939,12.4171a.75.75,0,0,1-.53-1.28L9.4693,9.33a.7718.7718,0,0,1,1.06,0l1.8067,1.8066a.75.75,0,1,1-1.0606,1.0606L10,10.921,8.7242,12.1974A.7471.7471,0,0,1,8.1939,12.4171Z"/><path class="cls-1" d="M15.4663,16.5831H13.3335a.75.75,0,0,1,0-1.5h2.1328a2.1665,2.1665,0,1,0,0-4.333H15.104a.75.75,0,0,1-.75-.75v-.833a4.2469,4.2469,0,0,0-8.4375-.6924.75.75,0,0,1-.7021.627,2.9925,2.9925,0,0,0,.1523,5.9814h1.3a.75.75,0,0,1,0,1.5h-1.3A4.4921,4.4921,0,0,1,4.5572,7.671,5.7471,5.7471,0,0,1,15.854,9.1671v.1035a3.6665,3.6665,0,0,1-.3877,7.3125Z"/></svg>