<?xml version="1.0" encoding="utf-8"?>
<!-- Generator: Adobe Illustrator 24.2.0, SVG Export Plug-In . SVG Version: 6.00 Build 0)  -->
<svg version="1.1" id="Layer_1" xmlns="http://www.w3.org/2000/svg" xmlns:xlink="http://www.w3.org/1999/xlink" x="0px" y="0px"
	 viewBox="0 0 24 24" style="enable-background:new 0 0 24 24;" xml:space="preserve">
<style type="text/css">
	.st0{clip-path:url(#SVGID_2_);fill:#FFFFFF;}
	.st1{clip-path:url(#SVGID_2_);fill:#FEFEFE;}
	.st2{clip-path:url(#SVGID_2_);fill:#FDFDFD;}
	.st3{clip-path:url(#SVGID_2_);fill:#FCFCFC;}
	.st4{clip-path:url(#SVGID_2_);fill:#FBFBFB;}
	.st5{clip-path:url(#SVGID_2_);fill:#FAFAFA;}
	.st6{clip-path:url(#SVGID_2_);fill:#F9F9F9;}
	.st7{clip-path:url(#SVGID_2_);fill:#F8F8F8;}
	.st8{clip-path:url(#SVGID_2_);fill:#F7F7F7;}
	.st9{clip-path:url(#SVGID_2_);fill:#F6F6F6;}
	.st10{clip-path:url(#SVGID_2_);fill:#F5F5F5;}
	.st11{clip-path:url(#SVGID_2_);fill:#F4F4F4;}
	.st12{clip-path:url(#SVGID_2_);fill:#F3F3F3;}
	.st13{clip-path:url(#SVGID_2_);fill:#F2F2F2;}
	.st14{clip-path:url(#SVGID_2_);fill:#F1F1F1;}
	.st15{clip-path:url(#SVGID_2_);fill:#F0F0F0;}
	.st16{clip-path:url(#SVGID_2_);fill:#EFEFEF;}
	.st17{clip-path:url(#SVGID_2_);fill:#EEEEEE;}
	.st18{clip-path:url(#SVGID_2_);fill:#EDEDED;}
	.st19{clip-path:url(#SVGID_2_);fill:#ECECEC;}
	.st20{clip-path:url(#SVGID_2_);fill:#EBEBEB;}
	.st21{clip-path:url(#SVGID_2_);fill:#EAEAEA;}
	.st22{clip-path:url(#SVGID_2_);fill:#E9E9E9;}
	.st23{clip-path:url(#SVGID_2_);fill:#E8E8E8;}
	.st24{clip-path:url(#SVGID_2_);fill:#E7E7E7;}
	.st25{clip-path:url(#SVGID_2_);fill:#E6E6E6;}
	.st26{clip-path:url(#SVGID_2_);fill:#E5E5E5;}
	.st27{clip-path:url(#SVGID_2_);fill:#E4E4E4;}
	.st28{clip-path:url(#SVGID_2_);fill:#E3E3E3;}
	.st29{clip-path:url(#SVGID_2_);fill:#E2E2E2;}
	.st30{clip-path:url(#SVGID_2_);fill:#E1E1E1;}
	.st31{clip-path:url(#SVGID_2_);fill:#E0E0E0;}
	.st32{clip-path:url(#SVGID_2_);fill:#DFDFDF;}
	.st33{clip-path:url(#SVGID_2_);fill:#DEDEDE;}
	.st34{clip-path:url(#SVGID_2_);fill:#DDDDDD;}
	.st35{clip-path:url(#SVGID_2_);fill:#DCDCDC;}
	.st36{clip-path:url(#SVGID_2_);fill:#DBDBDB;}
	.st37{clip-path:url(#SVGID_2_);fill:#DADADA;}
	.st38{clip-path:url(#SVGID_2_);fill:#DAD9D9;}
	.st39{clip-path:url(#SVGID_2_);fill:#D9D8D8;}
	.st40{clip-path:url(#SVGID_2_);fill:#D8D7D7;}
	.st41{clip-path:url(#SVGID_2_);fill:#D7D6D6;}
	.st42{clip-path:url(#SVGID_2_);fill:#D6D5D5;}
	.st43{clip-path:url(#SVGID_2_);fill:#D5D4D4;}
	.st44{clip-path:url(#SVGID_2_);fill:#D4D3D3;}
	.st45{clip-path:url(#SVGID_2_);fill:#D3D2D2;}
	.st46{clip-path:url(#SVGID_2_);fill:#D2D1D1;}
	.st47{clip-path:url(#SVGID_2_);fill:#D1D0D0;}
	.st48{clip-path:url(#SVGID_2_);fill:#D0CFCF;}
	.st49{clip-path:url(#SVGID_2_);fill:#CFCECE;}
	.st50{clip-path:url(#SVGID_2_);fill:#CECDCD;}
	.st51{clip-path:url(#SVGID_2_);fill:#CDCCCC;}
	.st52{clip-path:url(#SVGID_2_);fill:#CCCBCB;}
	.st53{clip-path:url(#SVGID_2_);fill:#CBCACA;}
	.st54{clip-path:url(#SVGID_2_);fill:#CAC9C9;}
	.st55{clip-path:url(#SVGID_2_);fill:#C9C8C8;}
	.st56{clip-path:url(#SVGID_2_);fill:#C8C7C7;}
	.st57{clip-path:url(#SVGID_2_);fill:#C7C6C6;}
	.st58{clip-path:url(#SVGID_2_);fill:#C6C5C5;}
	.st59{clip-path:url(#SVGID_2_);fill:#C5C4C4;}
	.st60{clip-path:url(#SVGID_2_);fill:#C4C3C3;}
	.st61{clip-path:url(#SVGID_2_);fill:#C3C2C2;}
	.st62{clip-path:url(#SVGID_2_);fill:#C2C1C1;}
	.st63{clip-path:url(#SVGID_2_);fill:#C1C0C0;}
	.st64{clip-path:url(#SVGID_2_);fill:#C0BFBF;}
	.st65{clip-path:url(#SVGID_2_);fill:#BFBEBE;}
	.st66{clip-path:url(#SVGID_2_);fill:#BEBDBD;}
	.st67{clip-path:url(#SVGID_2_);fill:#BDBCBC;}
	.st68{clip-path:url(#SVGID_2_);fill:#BCBBBB;}
	.st69{clip-path:url(#SVGID_2_);fill:#BBBABA;}
	.st70{clip-path:url(#SVGID_2_);fill:#BAB9B9;}
	.st71{clip-path:url(#SVGID_2_);fill:#B9B8B8;}
	.st72{clip-path:url(#SVGID_2_);fill:#B8B7B7;}
	.st73{clip-path:url(#SVGID_2_);fill:#B7B6B6;}
	.st74{clip-path:url(#SVGID_2_);fill:#B6B5B5;}
	.st75{clip-path:url(#SVGID_2_);fill:#B5B4B4;}
	.st76{clip-path:url(#SVGID_2_);fill:#B4B3B3;}
	.st77{clip-path:url(#SVGID_2_);fill:#B3B2B2;}
	.st78{clip-path:url(#SVGID_2_);fill:#B2B1B1;}
	.st79{clip-path:url(#SVGID_2_);fill:#B1B0B0;}
	.st80{clip-path:url(#SVGID_2_);fill:#B0AFAF;}
	.st81{clip-path:url(#SVGID_2_);fill:#AFAEAE;}
	.st82{clip-path:url(#SVGID_2_);fill:#AEADAD;}
	.st83{clip-path:url(#SVGID_2_);fill:#ADACAC;}
	.st84{clip-path:url(#SVGID_2_);fill:#ACABAB;}
	.st85{clip-path:url(#SVGID_2_);fill:#ABAAAA;}
	.st86{clip-path:url(#SVGID_2_);fill:#AAA9A9;}
	.st87{clip-path:url(#SVGID_2_);fill:#A9A8A8;}
	.st88{clip-path:url(#SVGID_2_);fill:#A8A7A7;}
	.st89{clip-path:url(#SVGID_2_);fill:#A7A6A6;}
	.st90{clip-path:url(#SVGID_2_);fill:#A6A5A5;}
	.st91{clip-path:url(#SVGID_2_);fill:#A5A4A4;}
	.st92{clip-path:url(#SVGID_2_);fill:#A4A3A3;}
	.st93{clip-path:url(#SVGID_2_);fill:#A3A2A2;}
	.st94{clip-path:url(#SVGID_2_);fill:#A2A1A1;}
	.st95{clip-path:url(#SVGID_2_);fill:#A1A0A0;}
	.st96{clip-path:url(#SVGID_2_);fill:#A09F9F;}
	.st97{clip-path:url(#SVGID_2_);fill:#9F9E9E;}
	.st98{clip-path:url(#SVGID_2_);fill:#9E9D9D;}
	.st99{clip-path:url(#SVGID_2_);fill:#9D9C9C;}
	.st100{clip-path:url(#SVGID_2_);fill:#9C9B9B;}
	.st101{clip-path:url(#SVGID_2_);fill:#9B9A9A;}
	.st102{clip-path:url(#SVGID_2_);fill:#9A9999;}
	.st103{clip-path:url(#SVGID_2_);fill:#999898;}
	.st104{clip-path:url(#SVGID_2_);fill:#989797;}
	.st105{clip-path:url(#SVGID_2_);fill:#979696;}
	.st106{clip-path:url(#SVGID_2_);fill:#969595;}
	.st107{clip-path:url(#SVGID_2_);fill:#959494;}
	.st108{clip-path:url(#SVGID_2_);fill:#949393;}
	.st109{clip-path:url(#SVGID_2_);fill:#939292;}
	.st110{clip-path:url(#SVGID_2_);fill:#929191;}
	.st111{clip-path:url(#SVGID_2_);fill:#919090;}
	.st112{clip-path:url(#SVGID_2_);fill:#918E8F;}
	.st113{clip-path:url(#SVGID_2_);fill:#908D8E;}
	.st114{clip-path:url(#SVGID_2_);fill:#8F8C8D;}
	.st115{clip-path:url(#SVGID_2_);fill:#8E8B8C;}
	.st116{clip-path:url(#SVGID_2_);fill:#8D8A8B;}
	.st117{clip-path:url(#SVGID_2_);fill:#8C898A;}
	.st118{clip-path:url(#SVGID_2_);fill:#8B8889;}
	.st119{clip-path:url(#SVGID_2_);fill:#8A8788;}
	.st120{clip-path:url(#SVGID_2_);fill:#898687;}
	.st121{clip-path:url(#SVGID_2_);fill:#888586;}
	.st122{clip-path:url(#SVGID_2_);fill:#878485;}
	.st123{clip-path:url(#SVGID_2_);fill:#868384;}
	.st124{clip-path:url(#SVGID_2_);fill:#858283;}
	.st125{clip-path:url(#SVGID_2_);fill:#848182;}
	.st126{clip-path:url(#SVGID_2_);fill:#838081;}
	.st127{clip-path:url(#SVGID_2_);fill:#827F80;}
	.st128{clip-path:url(#SVGID_2_);fill:#817E7F;}
	.st129{clip-path:url(#SVGID_2_);fill:#807D7E;}
	.st130{clip-path:url(#SVGID_2_);fill:#7F7C7D;}
	.st131{clip-path:url(#SVGID_2_);fill:#7E7B7C;}
	.st132{clip-path:url(#SVGID_2_);fill:#7D7A7B;}
	.st133{clip-path:url(#SVGID_2_);fill:#7C797A;}
	.st134{clip-path:url(#SVGID_2_);fill:#7B7879;}
	.st135{clip-path:url(#SVGID_2_);fill:#7A7778;}
	.st136{clip-path:url(#SVGID_2_);fill:#797677;}
	.st137{clip-path:url(#SVGID_2_);fill:#787576;}
	.st138{clip-path:url(#SVGID_2_);fill:#777475;}
	.st139{clip-path:url(#SVGID_2_);fill:#767374;}
	.st140{clip-path:url(#SVGID_2_);fill:#757273;}
	.st141{clip-path:url(#SVGID_2_);fill:#747172;}
	.st142{clip-path:url(#SVGID_2_);fill:#737071;}
	.st143{clip-path:url(#SVGID_2_);fill:#726F70;}
	.st144{clip-path:url(#SVGID_2_);fill:#716E6F;}
	.st145{clip-path:url(#SVGID_2_);fill:#706D6E;}
	.st146{clip-path:url(#SVGID_2_);fill:#6F6C6D;}
	.st147{clip-path:url(#SVGID_2_);fill:#6E6B6C;}
	.st148{clip-path:url(#SVGID_2_);fill:#6D6A6B;}
	.st149{clip-path:url(#SVGID_2_);fill:#6C696A;}
	.st150{clip-path:url(#SVGID_2_);fill:#6B6869;}
	.st151{clip-path:url(#SVGID_2_);fill:#6A6768;}
	.st152{clip-path:url(#SVGID_2_);fill:#696667;}
	.st153{clip-path:url(#SVGID_2_);fill:#686566;}
	.st154{clip-path:url(#SVGID_2_);fill:#676465;}
	.st155{clip-path:url(#SVGID_2_);fill:#666364;}
	.st156{clip-path:url(#SVGID_2_);fill:#656263;}
	.st157{clip-path:url(#SVGID_2_);fill:#646162;}
	.st158{clip-path:url(#SVGID_2_);fill:#636061;}
	.st159{clip-path:url(#SVGID_2_);fill:#625F60;}
	.st160{clip-path:url(#SVGID_2_);fill:#615E5F;}
	.st161{clip-path:url(#SVGID_2_);fill:#605D5E;}
	.st162{clip-path:url(#SVGID_2_);fill:#5F5C5D;}
	.st163{clip-path:url(#SVGID_2_);fill:#5E5B5C;}
	.st164{clip-path:url(#SVGID_2_);fill:#5D5A5B;}
	.st165{clip-path:url(#SVGID_2_);fill:#5C595A;}
	.st166{clip-path:url(#SVGID_2_);fill:#5B5859;}
	.st167{clip-path:url(#SVGID_2_);fill:#5A5758;}
	.st168{clip-path:url(#SVGID_2_);fill:#595657;}
	.st169{clip-path:url(#SVGID_2_);fill:#585556;}
	.st170{clip-path:url(#SVGID_2_);fill:#575455;}
	.st171{clip-path:url(#SVGID_2_);fill:#565354;}
	.st172{clip-path:url(#SVGID_2_);fill:#555253;}
	.st173{clip-path:url(#SVGID_2_);fill:#545152;}
	.st174{clip-path:url(#SVGID_2_);fill:#535051;}
	.st175{clip-path:url(#SVGID_2_);fill:#524F50;}
	.st176{clip-path:url(#SVGID_2_);fill:#514E4F;}
	.st177{clip-path:url(#SVGID_2_);fill:#504D4E;}
	.st178{clip-path:url(#SVGID_2_);fill:#4F4C4D;}
	.st179{clip-path:url(#SVGID_2_);fill:#4E4B4C;}
	.st180{clip-path:url(#SVGID_2_);fill:#4D4A4B;}
	.st181{clip-path:url(#SVGID_2_);fill:#4C494A;}
	.st182{clip-path:url(#SVGID_2_);fill:#4B4849;}
	.st183{clip-path:url(#SVGID_2_);fill:#4A4748;}
	.st184{clip-path:url(#SVGID_2_);fill:#494647;}
	.st185{clip-path:url(#SVGID_2_);fill:#484546;}
	.st186{clip-path:url(#SVGID_2_);fill:#484445;}
	.st187{clip-path:url(#SVGID_2_);fill:#474344;}
	.st188{clip-path:url(#SVGID_2_);fill:#464243;}
	.st189{clip-path:url(#SVGID_2_);fill:#454142;}
	.st190{clip-path:url(#SVGID_2_);fill:#444041;}
	.st191{clip-path:url(#SVGID_2_);fill:#433F40;}
	.st192{clip-path:url(#SVGID_2_);fill:#423E3F;}
	.st193{clip-path:url(#SVGID_2_);fill:#413D3E;}
	.st194{clip-path:url(#SVGID_2_);fill:#403C3D;}
	.st195{clip-path:url(#SVGID_2_);fill:#3F3B3C;}
	.st196{clip-path:url(#SVGID_2_);fill:#3E3A3B;}
	.st197{clip-path:url(#SVGID_2_);fill:#3D393A;}
	.st198{clip-path:url(#SVGID_2_);fill:#3C3839;}
	.st199{clip-path:url(#SVGID_2_);fill:#3B3738;}
	.st200{clip-path:url(#SVGID_2_);fill:#3A3637;}
	.st201{clip-path:url(#SVGID_2_);fill:#393536;}
	.st202{clip-path:url(#SVGID_2_);fill:#383435;}
	.st203{clip-path:url(#SVGID_2_);fill:#373334;}
	.st204{clip-path:url(#SVGID_2_);fill:#363233;}
	.st205{clip-path:url(#SVGID_2_);fill:#353132;}
	.st206{clip-path:url(#SVGID_2_);fill:#343031;}
	.st207{clip-path:url(#SVGID_2_);fill:#332F30;}
	.st208{clip-path:url(#SVGID_2_);fill:#322E2F;}
	.st209{clip-path:url(#SVGID_2_);fill:#312D2E;}
	.st210{clip-path:url(#SVGID_2_);fill:#302C2D;}
	.st211{clip-path:url(#SVGID_2_);fill:#2F2B2C;}
	.st212{clip-path:url(#SVGID_2_);fill:#2E2A2B;}
	.st213{clip-path:url(#SVGID_2_);fill:#2D292A;}
	.st214{clip-path:url(#SVGID_2_);fill:#2C2829;}
	.st215{clip-path:url(#SVGID_2_);fill:#2B2728;}
	.st216{clip-path:url(#SVGID_2_);fill:#2A2627;}
	.st217{clip-path:url(#SVGID_2_);fill:#292526;}
	.st218{clip-path:url(#SVGID_2_);fill:#282425;}
	.st219{clip-path:url(#SVGID_2_);fill:#272324;}
	.st220{clip-path:url(#SVGID_2_);fill:#262223;}
	.st221{clip-path:url(#SVGID_2_);fill:#252122;}
	.st222{clip-path:url(#SVGID_2_);fill:#242021;}
	.st223{clip-path:url(#SVGID_2_);fill:#231F20;}
	.st224{fill:#323232;}
</style>
<g>
	<g>
		<g>
			<defs>
				<path id="SVGID_1_" d="M18,12H6"/>
			</defs>
			<clipPath id="SVGID_2_">
				<use xlink:href="#SVGID_1_"  style="overflow:visible;"/>
			</clipPath>
			<path class="st0" d="M6,12L6,12L6,12z"/>
			<path class="st0" d="M6.1,12L6.1,12L6.1,12z"/>
			<path class="st1" d="M6.1,12L6.1,12L6.1,12z"/>
			<path class="st2" d="M6.2,12L6.2,12L6.2,12z"/>
			<path class="st3" d="M6.2,12L6.2,12L6.2,12z"/>
			<path class="st4" d="M6.3,12L6.3,12L6.3,12z"/>
			<path class="st5" d="M6.3,12L6.3,12L6.3,12z"/>
			<path class="st6" d="M6.4,12L6.4,12L6.4,12z"/>
			<path class="st7" d="M6.4,12L6.4,12L6.4,12z"/>
			<path class="st8" d="M6.5,12L6.5,12L6.5,12z"/>
			<path class="st9" d="M6.5,12L6.5,12L6.5,12z"/>
			<path class="st10" d="M6.6,12L6.6,12L6.6,12z"/>
			<path class="st11" d="M6.6,12L6.6,12L6.6,12z"/>
			<path class="st12" d="M6.7,12L6.7,12L6.7,12z"/>
			<path class="st13" d="M6.8,12L6.8,12L6.8,12z"/>
			<path class="st14" d="M6.8,12L6.8,12L6.8,12z"/>
			<path class="st15" d="M6.9,12L6.9,12L6.9,12z"/>
			<path class="st16" d="M6.9,12L6.9,12L6.9,12z"/>
			<path class="st17" d="M7,12L7,12L7,12z"/>
			<path class="st18" d="M7,12L7,12L7,12z"/>
			<path class="st19" d="M7.1,12L7.1,12L7.1,12z"/>
			<path class="st20" d="M7.1,12L7.1,12L7.1,12z"/>
			<path class="st21" d="M7.2,12L7.2,12L7.2,12z"/>
			<path class="st22" d="M7.2,12L7.2,12L7.2,12z"/>
			<path class="st23" d="M7.3,12L7.3,12L7.3,12z"/>
			<path class="st24" d="M7.3,12L7.3,12L7.3,12z"/>
			<path class="st25" d="M7.4,12L7.4,12L7.4,12z"/>
			<path class="st26" d="M7.4,12L7.4,12L7.4,12z"/>
			<path class="st27" d="M7.5,12L7.5,12L7.5,12z"/>
			<path class="st28" d="M7.6,12L7.6,12L7.6,12z"/>
			<path class="st29" d="M7.6,12L7.6,12L7.6,12z"/>
			<path class="st30" d="M7.7,12L7.7,12L7.7,12z"/>
			<path class="st31" d="M7.7,12L7.7,12L7.7,12z"/>
			<path class="st32" d="M7.8,12L7.8,12L7.8,12z"/>
			<path class="st33" d="M7.8,12L7.8,12L7.8,12z"/>
			<path class="st34" d="M7.9,12L7.9,12L7.9,12z"/>
			<path class="st35" d="M7.9,12L7.9,12L7.9,12z"/>
			<path class="st36" d="M8,12L8,12L8,12z"/>
			<path class="st37" d="M8,12L8,12L8,12z"/>
			<path class="st38" d="M8.1,12L8.1,12L8.1,12z"/>
			<path class="st39" d="M8.1,12L8.1,12L8.1,12z"/>
			<path class="st40" d="M8.2,12L8.2,12L8.2,12z"/>
			<path class="st41" d="M8.2,12L8.2,12L8.2,12z"/>
			<path class="st42" d="M8.3,12L8.3,12L8.3,12z"/>
			<path class="st43" d="M8.4,12L8.4,12L8.4,12z"/>
			<path class="st44" d="M8.4,12L8.4,12L8.4,12z"/>
			<path class="st45" d="M8.5,12L8.5,12L8.5,12z"/>
			<path class="st46" d="M8.5,12L8.5,12L8.5,12z"/>
			<path class="st47" d="M8.6,12L8.6,12L8.6,12z"/>
			<path class="st48" d="M8.6,12L8.6,12L8.6,12z"/>
			<path class="st49" d="M8.7,12L8.7,12L8.7,12z"/>
			<path class="st50" d="M8.7,12L8.7,12L8.7,12z"/>
			<path class="st51" d="M8.8,12L8.8,12L8.8,12z"/>
			<path class="st52" d="M8.8,12L8.8,12L8.8,12z"/>
			<path class="st53" d="M8.9,12L8.9,12L8.9,12z"/>
			<path class="st54" d="M8.9,12L8.9,12L8.9,12z"/>
			<path class="st55" d="M9,12L9,12L9,12z"/>
			<path class="st56" d="M9.1,12L9.1,12L9.1,12z"/>
			<path class="st57" d="M9.1,12L9.1,12L9.1,12z"/>
			<path class="st58" d="M9.2,12L9.2,12L9.2,12z"/>
			<path class="st59" d="M9.2,12L9.2,12L9.2,12z"/>
			<path class="st60" d="M9.3,12L9.3,12L9.3,12z"/>
			<path class="st61" d="M9.3,12L9.3,12L9.3,12z"/>
			<path class="st62" d="M9.4,12L9.4,12L9.4,12z"/>
			<path class="st63" d="M9.4,12L9.4,12L9.4,12z"/>
			<path class="st64" d="M9.5,12L9.5,12L9.5,12z"/>
			<path class="st65" d="M9.5,12L9.5,12L9.5,12z"/>
			<path class="st66" d="M9.6,12L9.6,12L9.6,12z"/>
			<path class="st67" d="M9.6,12L9.6,12L9.6,12z"/>
			<path class="st68" d="M9.7,12L9.7,12L9.7,12z"/>
			<path class="st69" d="M9.8,12L9.8,12L9.8,12z"/>
			<path class="st70" d="M9.8,12L9.8,12L9.8,12z"/>
			<path class="st71" d="M9.9,12L9.9,12L9.9,12z"/>
			<path class="st72" d="M9.9,12L9.9,12L9.9,12z"/>
			<path class="st73" d="M10,12L10,12L10,12z"/>
			<path class="st74" d="M10,12L10,12L10,12z"/>
			<path class="st75" d="M10.1,12L10.1,12L10.1,12z"/>
			<path class="st76" d="M10.1,12L10.1,12L10.1,12z"/>
			<path class="st77" d="M10.2,12L10.2,12L10.2,12z"/>
			<path class="st78" d="M10.2,12L10.2,12L10.2,12z"/>
			<path class="st79" d="M10.3,12L10.3,12L10.3,12z"/>
			<path class="st80" d="M10.3,12L10.3,12L10.3,12z"/>
			<path class="st81" d="M10.4,12L10.4,12L10.4,12z"/>
			<path class="st82" d="M10.4,12L10.4,12L10.4,12z"/>
			<path class="st83" d="M10.5,12L10.5,12L10.5,12z"/>
			<path class="st84" d="M10.6,12L10.6,12L10.6,12z"/>
			<path class="st85" d="M10.6,12L10.6,12L10.6,12z"/>
			<path class="st86" d="M10.7,12L10.7,12L10.7,12z"/>
			<path class="st87" d="M10.7,12L10.7,12L10.7,12z"/>
			<path class="st88" d="M10.8,12L10.8,12L10.8,12z"/>
			<path class="st89" d="M10.8,12L10.8,12L10.8,12z"/>
			<path class="st90" d="M10.9,12L10.9,12L10.9,12z"/>
			<path class="st91" d="M10.9,12L10.9,12L10.9,12z"/>
			<path class="st92" d="M11,12L11,12L11,12z"/>
			<path class="st93" d="M11,12L11,12L11,12z"/>
			<path class="st94" d="M11.1,12L11.1,12L11.1,12z"/>
			<path class="st95" d="M11.1,12L11.1,12L11.1,12z"/>
			<path class="st96" d="M11.2,12L11.2,12L11.2,12z"/>
			<path class="st97" d="M11.2,12L11.2,12L11.2,12z"/>
			<path class="st98" d="M11.3,12L11.3,12L11.3,12z"/>
			<path class="st99" d="M11.4,12L11.4,12L11.4,12z"/>
			<path class="st100" d="M11.4,12L11.4,12L11.4,12z"/>
			<path class="st101" d="M11.5,12L11.5,12L11.5,12z"/>
			<path class="st102" d="M11.5,12L11.5,12L11.5,12z"/>
			<path class="st103" d="M11.6,12L11.6,12L11.6,12z"/>
			<path class="st104" d="M11.6,12L11.6,12L11.6,12z"/>
			<path class="st105" d="M11.7,12L11.7,12L11.7,12z"/>
			<path class="st106" d="M11.7,12L11.7,12L11.7,12z"/>
			<path class="st107" d="M11.8,12L11.8,12L11.8,12z"/>
			<path class="st108" d="M11.8,12L11.8,12L11.8,12z"/>
			<path class="st109" d="M11.9,12L11.9,12L11.9,12z"/>
			<path class="st110" d="M11.9,12L11.9,12L11.9,12z"/>
			<path class="st111" d="M12,12L12,12L12,12z"/>
			<path class="st112" d="M12.1,12L12.1,12L12.1,12z"/>
			<path class="st113" d="M12.1,12L12.1,12L12.1,12z"/>
			<path class="st114" d="M12.2,12L12.2,12L12.2,12z"/>
			<path class="st115" d="M12.2,12L12.2,12L12.2,12z"/>
			<path class="st116" d="M12.3,12L12.3,12L12.3,12z"/>
			<path class="st117" d="M12.3,12L12.3,12L12.3,12z"/>
			<path class="st118" d="M12.4,12L12.4,12L12.4,12z"/>
			<path class="st119" d="M12.4,12L12.4,12L12.4,12z"/>
			<path class="st120" d="M12.5,12L12.5,12L12.5,12z"/>
			<path class="st121" d="M12.5,12L12.5,12L12.5,12z"/>
			<path class="st122" d="M12.6,12L12.6,12L12.6,12z"/>
			<path class="st123" d="M12.6,12L12.6,12L12.6,12z"/>
			<path class="st124" d="M12.7,12L12.7,12L12.7,12z"/>
			<path class="st125" d="M12.8,12L12.8,12L12.8,12z"/>
			<path class="st126" d="M12.8,12L12.8,12L12.8,12z"/>
			<path class="st127" d="M12.9,12L12.9,12L12.9,12z"/>
			<path class="st128" d="M12.9,12L12.9,12L12.9,12z"/>
			<path class="st129" d="M13,12L13,12L13,12z"/>
			<path class="st130" d="M13,12L13,12L13,12z"/>
			<path class="st131" d="M13.1,12L13.1,12L13.1,12z"/>
			<path class="st132" d="M13.1,12L13.1,12L13.1,12z"/>
			<path class="st133" d="M13.2,12L13.2,12L13.2,12z"/>
			<path class="st134" d="M13.2,12L13.2,12L13.2,12z"/>
			<path class="st135" d="M13.3,12L13.3,12L13.3,12z"/>
			<path class="st136" d="M13.3,12L13.3,12L13.3,12z"/>
			<path class="st137" d="M13.4,12L13.4,12L13.4,12z"/>
			<path class="st138" d="M13.4,12L13.4,12L13.4,12z"/>
			<path class="st139" d="M13.5,12L13.5,12L13.5,12z"/>
			<path class="st140" d="M13.6,12L13.6,12L13.6,12z"/>
			<path class="st141" d="M13.6,12L13.6,12L13.6,12z"/>
			<path class="st142" d="M13.7,12L13.7,12L13.7,12z"/>
			<path class="st143" d="M13.7,12L13.7,12L13.7,12z"/>
			<path class="st144" d="M13.8,12L13.8,12L13.8,12z"/>
			<path class="st145" d="M13.8,12L13.8,12L13.8,12z"/>
			<path class="st146" d="M13.9,12L13.9,12L13.9,12z"/>
			<path class="st147" d="M13.9,12L13.9,12L13.9,12z"/>
			<path class="st148" d="M14,12L14,12L14,12z"/>
			<path class="st149" d="M14,12L14,12L14,12z"/>
			<path class="st150" d="M14.1,12L14.1,12L14.1,12z"/>
			<path class="st151" d="M14.1,12L14.1,12L14.1,12z"/>
			<path class="st152" d="M14.2,12L14.2,12L14.2,12z"/>
			<path class="st153" d="M14.2,12L14.2,12L14.2,12z"/>
			<path class="st154" d="M14.3,12L14.3,12L14.3,12z"/>
			<path class="st155" d="M14.4,12L14.4,12L14.4,12z"/>
			<path class="st156" d="M14.4,12L14.4,12L14.4,12z"/>
			<path class="st157" d="M14.5,12L14.5,12L14.5,12z"/>
			<path class="st158" d="M14.5,12L14.5,12L14.5,12z"/>
			<path class="st159" d="M14.6,12L14.6,12L14.6,12z"/>
			<path class="st160" d="M14.6,12L14.6,12L14.6,12z"/>
			<path class="st161" d="M14.7,12L14.7,12L14.7,12z"/>
			<path class="st162" d="M14.7,12L14.7,12L14.7,12z"/>
			<path class="st163" d="M14.8,12L14.8,12L14.8,12z"/>
			<path class="st164" d="M14.8,12L14.8,12L14.8,12z"/>
			<path class="st165" d="M14.9,12L14.9,12L14.9,12z"/>
			<path class="st166" d="M14.9,12L14.9,12L14.9,12z"/>
			<path class="st167" d="M15,12L15,12L15,12z"/>
			<path class="st168" d="M15.1,12L15.1,12L15.1,12z"/>
			<path class="st169" d="M15.1,12L15.1,12L15.1,12z"/>
			<path class="st170" d="M15.2,12L15.2,12L15.2,12z"/>
			<path class="st171" d="M15.2,12L15.2,12L15.2,12z"/>
			<path class="st172" d="M15.3,12L15.3,12L15.3,12z"/>
			<path class="st173" d="M15.3,12L15.3,12L15.3,12z"/>
			<path class="st174" d="M15.4,12L15.4,12L15.4,12z"/>
			<path class="st175" d="M15.4,12L15.4,12L15.4,12z"/>
			<path class="st176" d="M15.5,12L15.5,12L15.5,12z"/>
			<path class="st177" d="M15.5,12L15.5,12L15.5,12z"/>
			<path class="st178" d="M15.6,12L15.6,12L15.6,12z"/>
			<path class="st179" d="M15.6,12L15.6,12L15.6,12z"/>
			<path class="st180" d="M15.7,12L15.7,12L15.7,12z"/>
			<path class="st181" d="M15.8,12L15.8,12L15.8,12z"/>
			<path class="st182" d="M15.8,12L15.8,12L15.8,12z"/>
			<path class="st183" d="M15.9,12L15.9,12L15.9,12z"/>
			<path class="st184" d="M15.9,12L15.9,12L15.9,12z"/>
			<path class="st185" d="M16,12L16,12L16,12z"/>
			<path class="st186" d="M16,12L16,12L16,12z"/>
			<path class="st187" d="M16.1,12L16.1,12L16.1,12z"/>
			<path class="st188" d="M16.1,12L16.1,12L16.1,12z"/>
			<path class="st189" d="M16.2,12L16.2,12L16.2,12z"/>
			<path class="st190" d="M16.2,12L16.2,12L16.2,12z"/>
			<path class="st191" d="M16.3,12L16.3,12L16.3,12z"/>
			<path class="st192" d="M16.3,12L16.3,12L16.3,12z"/>
			<path class="st193" d="M16.4,12L16.4,12L16.4,12z"/>
			<path class="st194" d="M16.4,12L16.4,12L16.4,12z"/>
			<path class="st195" d="M16.5,12L16.5,12L16.5,12z"/>
			<path class="st196" d="M16.6,12L16.6,12L16.6,12z"/>
			<path class="st197" d="M16.6,12L16.6,12L16.6,12z"/>
			<path class="st198" d="M16.7,12L16.7,12L16.7,12z"/>
			<path class="st199" d="M16.7,12L16.7,12L16.7,12z"/>
			<path class="st200" d="M16.8,12L16.8,12L16.8,12z"/>
			<path class="st201" d="M16.8,12L16.8,12L16.8,12z"/>
			<path class="st202" d="M16.9,12L16.9,12L16.9,12z"/>
			<path class="st203" d="M16.9,12L16.9,12L16.9,12z"/>
			<path class="st204" d="M17,12L17,12L17,12z"/>
			<path class="st205" d="M17,12L17,12L17,12z"/>
			<path class="st206" d="M17.1,12L17.1,12L17.1,12z"/>
			<path class="st207" d="M17.1,12L17.1,12L17.1,12z"/>
			<path class="st208" d="M17.2,12L17.2,12L17.2,12z"/>
			<path class="st209" d="M17.2,12L17.2,12L17.2,12z"/>
			<path class="st210" d="M17.3,12L17.3,12L17.3,12z"/>
			<path class="st211" d="M17.4,12L17.4,12L17.4,12z"/>
			<path class="st212" d="M17.4,12L17.4,12L17.4,12z"/>
			<path class="st213" d="M17.5,12L17.5,12L17.5,12z"/>
			<path class="st214" d="M17.5,12L17.5,12L17.5,12z"/>
			<path class="st215" d="M17.6,12L17.6,12L17.6,12z"/>
			<path class="st216" d="M17.6,12L17.6,12L17.6,12z"/>
			<path class="st217" d="M17.7,12L17.7,12L17.7,12z"/>
			<path class="st218" d="M17.7,12L17.7,12L17.7,12z"/>
			<path class="st219" d="M17.8,12L17.8,12L17.8,12z"/>
			<path class="st220" d="M17.8,12L17.8,12L17.8,12z"/>
			<path class="st221" d="M17.9,12L17.9,12L17.9,12z"/>
			<path class="st222" d="M17.9,12L17.9,12L17.9,12z"/>
			<path class="st223" d="M18,12L18,12L18,12z"/>
			<path class="st223" d="M18,12L18,12L18,12z"/>
		</g>
	</g>
	<g>
		<path class="st224" d="M18,12.8H6c-0.4,0-0.8-0.3-0.8-0.8s0.3-0.8,0.8-0.8h12c0.4,0,0.8,0.3,0.8,0.8S18.4,12.8,18,12.8z"/>
	</g>
</g>
</svg>
