<?xml version="1.0" encoding="utf-8"?>
<!-- Generator: Adobe Illustrator 24.2.0, SVG Export Plug-In . SVG Version: 6.00 Build 0)  -->
<svg version="1.1" id="Layer_1" xmlns="http://www.w3.org/2000/svg" xmlns:xlink="http://www.w3.org/1999/xlink" x="0px" y="0px"
	 viewBox="0 0 24 24" style="enable-background:new 0 0 24 24;" xml:space="preserve">
<style type="text/css">
	.st0{fill:#323232;}
</style>
<path class="st0" d="M12,8.5c-1.9,0-3.5,1.5-3.5,3.5s1.5,3.5,3.5,3.5s3.5-1.5,3.5-3.5S13.9,8.5,12,8.5z M12,14c-1.1,0-2-0.9-2-2
	s0.9-2,2-2s2,0.9,2,2S13.1,14,12,14z M19.5,12.5c0-0.2,0-0.4,0-0.6c0-0.2,0-0.4,0-0.5l1.3-1c0.6-0.5,0.8-1.4,0.4-2.1l-1.4-2.4
	c-0.4-0.7-1.3-1-2-0.7l-1.4,0.6c-0.1,0-0.1,0-0.2,0c-0.2-0.2-0.5-0.3-0.8-0.4c0,0-0.1-0.1-0.1-0.1L15,3.7c-0.1-0.8-0.8-1.4-1.6-1.4
	h-2.8C9.8,2.2,9.1,2.9,9,3.7L8.7,5.2c0,0.1,0,0.1-0.1,0.1C8.4,5.4,8.1,5.6,7.9,5.7c0,0-0.1,0-0.1,0L6.3,5.2c-0.8-0.3-1.6,0-2,0.7
	L2.9,8.3C2.4,9.1,2.6,10,3.3,10.5l1.3,1c0,0.2,0,0.4,0,0.5c0,0,0,0,0,0c0,0.2,0,0.4,0,0.5l-1.3,1c-0.6,0.5-0.8,1.4-0.4,2.1l1.4,2.4
	c0.4,0.7,1.3,1,2,0.7l1.4-0.6c0.1,0,0.1,0,0.2,0c0.2,0.2,0.5,0.3,0.8,0.5c0.1,0,0.1,0.1,0.1,0.1L9,20.3c0.1,0.8,0.8,1.4,1.6,1.4h2.8
	c0.8,0,1.5-0.6,1.6-1.4l0.2-1.5c0-0.1,0-0.1,0.1-0.1c0.3-0.1,0.5-0.3,0.8-0.4c0,0,0.1,0,0.1,0l1.4,0.6c0.8,0.3,1.6,0,2-0.7l1.4-2.4
	c0.4-0.7,0.2-1.6-0.4-2.1L19.5,12.5z M19.8,14.9l-1.4,2.4c0,0.1-0.1,0.1-0.2,0.1l-1.4-0.6c-0.5-0.2-1.1-0.1-1.5,0.2
	c-0.2,0.1-0.4,0.2-0.6,0.3c-0.5,0.2-0.8,0.7-0.9,1.3l-0.2,1.5c0,0.1-0.1,0.1-0.1,0.1h-2.8c-0.1,0-0.1-0.1-0.1-0.1l-0.2-1.5
	c-0.1-0.5-0.4-1-0.9-1.2c-0.2-0.1-0.4-0.2-0.6-0.3c-0.3-0.2-0.6-0.3-0.9-0.3c-0.2,0-0.4,0-0.6,0.1l-1.4,0.6c-0.1,0-0.1,0-0.2-0.1
	l-1.4-2.4c0-0.1,0-0.1,0-0.2l1.6-1.2C6,13.3,6.1,13,6.1,12.8C6,12.5,6,12.3,6,12c0-0.3,0-0.5,0.1-0.8c0-0.3-0.1-0.5-0.3-0.7L4.2,9.3
	c-0.1,0-0.1-0.1,0-0.2l1.4-2.4c0-0.1,0.1-0.1,0.2-0.1l1.4,0.6C7.7,7.4,8.3,7.3,8.7,7c0.2-0.1,0.4-0.2,0.6-0.3
	c0.5-0.2,0.8-0.7,0.9-1.3l0.2-1.5c0-0.1,0.1-0.1,0.1-0.1h2.8c0.1,0,0.1,0.1,0.1,0.1l0.2,1.5c0.1,0.5,0.4,1,0.9,1.2
	c0.2,0.1,0.4,0.2,0.6,0.3c0.5,0.3,1,0.4,1.6,0.2l1.4-0.6c0.1,0,0.1,0,0.2,0.1l1.4,2.4c0,0.1,0,0.1,0,0.2l-1.6,1.2
	c-0.2,0.2-0.3,0.4-0.3,0.7c0,0.3,0.1,0.5,0.1,0.8c0,0.3,0,0.5-0.1,0.8c0,0.3,0.1,0.5,0.3,0.7l1.6,1.2C19.9,14.8,19.9,14.8,19.8,14.9
	z"/>
</svg>
