<svg id="Layer_1" data-name="Layer 1" xmlns="http://www.w3.org/2000/svg" viewBox="0 0 20 20"><defs><style>.cls-1{fill:#22313f;}</style></defs><path class="cls-1" d="M10,18.252a2.4089,2.4089,0,0,1-1.1748-.3067L3.8262,15.168A2.4192,2.4192,0,0,1,2.583,13.0557V4.1665A2.4193,2.4193,0,0,1,5,1.75H15a2.4193,2.4193,0,0,1,2.417,2.4165v8.8892a2.4191,2.4191,0,0,1-1.2431,2.1123l-5,2.7773A2.4028,2.4028,0,0,1,10,18.252ZM5,3.25a.9177.9177,0,0,0-.917.9165v8.8892a.9191.9191,0,0,0,.4717.8017l5,2.7774a.9172.9172,0,0,0,.8906,0l5-2.7774a.9189.9189,0,0,0,.4717-.8017V4.1665A.9176.9176,0,0,0,15,3.25Z"/><path class="cls-1" d="M11.3086,12.418a1.4067,1.4067,0,0,1-.6562-.1631L9.96,11.8916l-.6094.3633-.0029.001a1.4012,1.4012,0,0,1-1.4824-.1094l-.2588-.1875a1.4,1.4,0,0,1-.5615-1.38l.1328-.7695-.5342-.4653a1.4026,1.4026,0,0,1-.3574-1.4449l.1-.3047a1.4,1.4,0,0,1,1.1367-.96l.7744-.1118L8.5742,5.87A1.403,1.403,0,0,1,9.84,5.0835h.3193a1.4069,1.4069,0,0,1,1.2647.7817l.3476.7041.707.0645a1.4016,1.4016,0,0,1,1.1387.9619l.0977.3022a1.4035,1.4035,0,0,1-.3565,1.4449l-.5595.5454.1582.6909a1.4071,1.4071,0,0,1-.5625,1.38l-.2569.1875A1.41,1.41,0,0,1,11.3086,12.418ZM9.002,11.5908h0Zm.999-1.1885a1.41,1.41,0,0,1,.6553.1607l.6924.3638.164-.1807-.167-.6821a1.409,1.409,0,0,1,.4073-1.25l.5576-.544-.12-.2129-.7022-.0517a1.4111,1.4111,0,0,1-1.0605-.77l-.3467-.7022-.2412.05-.2657.6509a1.41,1.41,0,0,1-1.0634.7719l-.7715.1119-.0264.2426.5371.4537a1.4075,1.4075,0,0,1,.4063,1.247l-.1328.7725.166.0737.6553-.3442A1.42,1.42,0,0,1,10.001,10.4023Z"/></svg>