<svg id="Layer_1" data-name="Layer 1" xmlns="http://www.w3.org/2000/svg" viewBox="0 0 20 20"><defs><style>.cls-1{fill:#22313f;}</style></defs><path class="cls-1" d="M14.167,19.0832a4.9165,4.9165,0,1,1,4.916-4.916A4.9221,4.9221,0,0,1,14.167,19.0832Zm0-8.333a3.4165,3.4165,0,1,0,3.416,3.417A3.4213,3.4213,0,0,0,14.167,10.75Z"/><path class="cls-1" d="M15.833,14.9172H12.5a.75.75,0,0,1,0-1.5h3.333a.75.75,0,1,1,0,1.5Z"/><path class="cls-1" d="M14.167,16.5832a.75.75,0,0,1-.53-1.28l1.1357-1.1357L13.6367,13.03a.75.75,0,0,1,1.0605-1.06l1.666,1.667a.75.75,0,0,1,0,1.06l-1.666,1.666A.7468.7468,0,0,1,14.167,16.5832Z"/><path class="cls-1" d="M11.667,18.25h-7.5a2.4193,2.4193,0,0,1-2.417-2.417V4.1662A2.4191,2.4191,0,0,1,4.167,1.75H11.81a2.3979,2.3979,0,0,1,1.709.708L15.875,4.8146a2.3985,2.3985,0,0,1,.708,1.709v3.8242a.75.75,0,0,1-1.5,0V6.5236a.9113.9113,0,0,0-.2686-.6484L12.458,3.5187A.912.912,0,0,0,11.81,3.25H4.167a.9175.9175,0,0,0-.917.916v11.667a.9178.9178,0,0,0,.917.917h7.5a.75.75,0,1,1,0,1.5Z"/><path class="cls-1" d="M15.833,7.4172H12.5a1.5854,1.5854,0,0,1-1.583-1.584V2.5a.75.75,0,1,1,1.5,0v3.333a.0838.0838,0,0,0,.083.084h3.333a.75.75,0,1,1,0,1.5Z"/></svg>