<svg width="24" height="24" viewBox="0 0 24 24" fill="none" xmlns="http://www.w3.org/2000/svg">
<path fill-rule="evenodd" clip-rule="evenodd" d="M8.53033 5.53033C8.82322 5.23744 8.82322 4.76256 8.53033 4.46967C8.23744 4.17678 7.76256 4.17678 7.46967 4.46967L4.46967 7.46967C4.32322 7.61612 4.25 7.80806 4.25 8C4.25 8.10169 4.27024 8.19866 4.30691 8.28709C4.34351 8.37555 4.39776 8.45842 4.46967 8.53033L7.46967 11.5303C7.76256 11.8232 8.23744 11.8232 8.53033 11.5303C8.82322 11.2374 8.82322 10.7626 8.53033 10.4697L6.81066 8.75H14C16.9626 8.75 19.25 10.9363 19.25 13.5C19.25 16.0637 16.9626 18.25 14 18.25H6C5.58579 18.25 5.25 18.5858 5.25 19C5.25 19.4142 5.58579 19.75 6 19.75H14C17.6654 19.75 20.75 17.0123 20.75 13.5C20.75 9.98768 17.6654 7.25 14 7.25H6.81066L8.53033 5.53033Z" fill="#22313F"/>
</svg>
