<?xml version="1.0" encoding="utf-8"?>
<!-- Generator: Adobe Illustrator 24.2.0, SVG Export Plug-In . SVG Version: 6.00 Build 0)  -->
<svg version="1.1" id="Layer_1" xmlns="http://www.w3.org/2000/svg" xmlns:xlink="http://www.w3.org/1999/xlink" x="0px" y="0px"
	 viewBox="0 0 24 24" style="enable-background:new 0 0 24 24;" xml:space="preserve">
<style type="text/css">
	.st0{fill:#323232;}
</style>
<path class="st0" d="M18.2,3.2H5.8c-1.4,0-2.5,1.1-2.5,2.5v2.7c0,0.3,0.1,0.5,0.1,0.7c0,0,0,0.1,0,0.1c0.2,0.4,0.4,0.8,0.8,1.1
	L8,13.4v5.8c0,0.4,0.1,0.8,0.3,1.1c0.4,0.9,1.3,1.4,2.3,1.4c0.4,0,0.8-0.1,1.1-0.3l2.8-1.4c0.9-0.4,1.4-1.3,1.4-2.3v-4.4l3.8-2.9
	c0.4-0.3,0.6-0.7,0.8-1.1c0,0,0-0.1,0-0.1c0.1-0.2,0.1-0.5,0.1-0.8V5.8C20.8,4.4,19.6,3.3,18.2,3.2z M14.7,12.4
	c-0.2,0.1-0.3,0.4-0.3,0.6v4.8c0,0.4-0.2,0.7-0.6,0.9L11,20.1c-0.5,0.3-1.1,0-1.4-0.5c-0.1-0.1-0.1-0.3-0.1-0.5V13
	c0-0.2-0.1-0.5-0.3-0.6L5.8,9.8h12.5L14.7,12.4z M19.2,8.2H4.8V5.8c0-0.6,0.5-1,1-1h12.4c0.6,0,1,0.5,1,1V8.2z"/>
</svg>
