<svg width="24" height="24" viewBox="0 0 24 24" fill="none" xmlns="http://www.w3.org/2000/svg">
<path d="M21.8369 10.8037C21.743 10.6842 21.6351 10.5763 21.5156 10.4824L13.5256 4.1738C13.115 3.84979 12.5926 3.70214 12.0732 3.76331C11.5538 3.82449 11.0799 4.08948 10.7559 4.5C10.4821 4.84846 10.3327 5.27852 10.3315 5.7217L10.332 8.3032C7.92611 8.7321 5.74784 9.99387 4.17877 11.8675C2.60971 13.741 1.74992 16.107 1.75 18.5508V19.1631C1.75011 19.3173 1.79775 19.4677 1.88643 19.5939C1.97512 19.7201 2.10054 19.8158 2.24561 19.8681C2.39068 19.9204 2.54835 19.9267 2.69714 19.8862C2.84593 19.8457 2.97861 19.7603 3.0771 19.6416C3.9748 18.5592 5.0782 17.6655 6.32348 17.0123C7.56876 16.3591 8.9312 15.9592 10.332 15.8359V18.2725C10.3319 18.6429 10.4361 19.0058 10.6326 19.3197C10.8292 19.6336 11.1102 19.8858 11.4434 20.0474C11.7767 20.209 12.1487 20.2735 12.5169 20.2336C12.8851 20.1936 13.2346 20.0507 13.5254 19.8213L21.5146 13.5127C21.9164 13.1961 22.176 12.7329 22.2364 12.2249C22.2968 11.7169 22.1532 11.2058 21.8369 10.8037V10.8037ZM20.5859 12.3337L12.5967 18.6437C12.5256 18.6925 12.4428 18.7216 12.3568 18.7281C12.2708 18.7345 12.1846 18.7182 12.107 18.6806C12.0293 18.643 11.963 18.5856 11.9147 18.5142C11.8664 18.4427 11.8379 18.3597 11.832 18.2737V15.0459C11.8321 14.9474 11.8128 14.8498 11.7751 14.7588C11.7375 14.6677 11.6822 14.585 11.6126 14.5153C11.5429 14.4457 11.4602 14.3904 11.3691 14.3528C11.2781 14.3151 11.1805 14.2958 11.082 14.2959H11.0693C8.23107 14.3417 5.49873 15.3812 3.3477 17.2334C3.63805 15.2911 4.56199 13.4991 5.97587 12.1361C7.38976 10.7731 9.21435 9.91534 11.166 9.6963C11.3492 9.67565 11.5183 9.58827 11.6412 9.45084C11.764 9.3134 11.832 9.13554 11.832 8.9512L11.8315 5.7227C11.8316 5.61602 11.8676 5.51248 11.9336 5.4287C12.0112 5.3307 12.1245 5.2675 12.2486 5.25295C12.3727 5.2384 12.4976 5.2737 12.5957 5.3511L20.5857 11.6597L20.658 11.7319C20.6929 11.7761 20.7187 11.8268 20.734 11.8811C20.7492 11.9353 20.7536 11.992 20.7469 12.048C20.7402 12.1039 20.7225 12.158 20.6948 12.2071C20.6671 12.2561 20.6301 12.2993 20.5857 12.334L20.5859 12.3337Z" fill="#22313F"/>
</svg>
