<svg width="24" height="25" viewBox="0 0 24 25" fill="none" xmlns="http://www.w3.org/2000/svg">
<circle cx="12" cy="12.1006" r="10" fill="white"/>
<path fill-rule="evenodd" clip-rule="evenodd" d="M7.96967 8.07026C8.26256 7.77736 8.73744 7.77736 9.03033 8.07026L16.0303 15.0703C16.3232 15.3631 16.3232 15.838 16.0303 16.1309C15.7374 16.4238 15.2626 16.4238 14.9697 16.1309L7.96967 9.13092C7.67678 8.83802 7.67678 8.36315 7.96967 8.07026Z" fill="#808890"/>
<path fill-rule="evenodd" clip-rule="evenodd" d="M16.0303 8.07026C16.3232 8.36315 16.3232 8.83802 16.0303 9.13092L9.03033 16.1309C8.73744 16.4238 8.26256 16.4238 7.96967 16.1309C7.67678 15.838 7.67678 15.3631 7.96967 15.0703L14.9697 8.07026C15.2626 7.77736 15.7374 7.77736 16.0303 8.07026Z" fill="#808890"/>
</svg>
