<?xml version="1.0" encoding="utf-8"?>
<!-- Generator: Adobe Illustrator 24.2.0, SVG Export Plug-In . SVG Version: 6.00 Build 0)  -->
<svg version="1.1" id="Layer_1" xmlns="http://www.w3.org/2000/svg" xmlns:xlink="http://www.w3.org/1999/xlink" x="0px" y="0px"
	 viewBox="0 0 24 24" style="enable-background:new 0 0 24 24;" xml:space="preserve">
<style type="text/css">
	.st0{fill:#323232;}
</style>
<path class="st0" d="M12,2.2c-5.4,0-9.8,4.4-9.8,9.8s4.4,9.8,9.8,9.8s9.8-4.4,9.8-9.8S17.4,2.2,12,2.2z M12,20.2
	c-4.5,0-8.2-3.7-8.2-8.2S7.5,3.8,12,3.8s8.2,3.7,8.2,8.2S16.5,20.2,12,20.2z M16.5,9.5c0.3,0.3,0.3,0.8,0,1.1l-5,5
	c-0.1,0.1-0.3,0.2-0.5,0.2s-0.4-0.1-0.5-0.2l-3-3c-0.3-0.3-0.3-0.8,0-1.1s0.8-0.3,1.1,0l2.5,2.5l4.5-4.5C15.8,9.2,16.2,9.2,16.5,9.5
	z"/>
</svg>
