<svg id="Layer_1" data-name="Layer 1" xmlns="http://www.w3.org/2000/svg" viewBox="0 0 24 24"><defs><style>.cls-1{fill:#22313f;}</style></defs><path class="cls-1" d="M17,2.25H7A4.7555,4.7555,0,0,0,2.25,7V17a4.7129,4.7129,0,0,0,.4031,1.9009.7487.7487,0,0,0,.0525.0965A4.7456,4.7456,0,0,0,7,21.75H17A4.7555,4.7555,0,0,0,21.75,17V7A4.7555,4.7555,0,0,0,17,2.25Zm-10,18a3.2457,3.2457,0,0,1-2.7169-1.476l3.83-3.83a1.281,1.281,0,0,1,1.7676,0L15.1865,20.25ZM20.25,17a3.2433,3.2433,0,0,1-2.9706,3.2217l-4.22-4.22,4.0571-4.0572a1.2532,1.2532,0,0,1,1.7676,0L20.25,13.3105Zm0-5.81-.3057-.3057a2.7533,2.7533,0,0,0-3.8886,0l-4.0572,4.0571-1.0571-1.0571a2.8161,2.8161,0,0,0-3.8887,0L3.7671,17.1691C3.7641,17.1119,3.75,17.0579,3.75,17V7A3.2538,3.2538,0,0,1,7,3.75H17A3.2538,3.2538,0,0,1,20.25,7Z"/><path class="cls-1" d="M7.5,5.25A2.25,2.25,0,1,0,9.75,7.5,2.2525,2.2525,0,0,0,7.5,5.25Zm0,3a.75.75,0,1,1,.75-.75A.7508.7508,0,0,1,7.5,8.25Z"/></svg>