<svg id="Layer_1" data-name="Layer 1" xmlns="http://www.w3.org/2000/svg" viewBox="0 0 20 20"><defs><style>.cls-1{fill:#22313f;}</style></defs><path class="cls-1" d="M6.6665,10.75a3.6582,3.6582,0,1,1,3.6582-3.6582A3.6617,3.6617,0,0,1,6.6665,10.75Zm0-5.8164A2.1582,2.1582,0,1,0,8.8247,7.0919,2.16,2.16,0,0,0,6.6665,4.9337Z"/><path class="cls-1" d="M14.1665,10.75A2.8335,2.8335,0,1,1,17,7.9171,2.8357,2.8357,0,0,1,14.1665,10.75Zm0-4.167A1.3335,1.3335,0,1,0,15.5,7.9171,1.3349,1.3349,0,0,0,14.1665,6.5831Z"/><path class="cls-1" d="M11.6665,17.4171a.75.75,0,0,1-.75-.75v-.8477A2.5718,2.5718,0,0,0,8.3472,13.25H4.9858a2.5719,2.5719,0,0,0-2.5693,2.5693v.8477a.75.75,0,0,1-1.5,0v-.8477A4.0735,4.0735,0,0,1,4.9858,11.75H8.3472a4.0735,4.0735,0,0,1,4.0693,4.0693v.8477A.75.75,0,0,1,11.6665,17.4171Z"/><path class="cls-1" d="M18.4038,17.4171a.75.75,0,0,1-.75-.75v-.8477A2.5716,2.5716,0,0,0,15.0855,13.25h-.919a.75.75,0,0,1,0-1.5h.919a4.0733,4.0733,0,0,1,4.0683,4.0693v.8477A.75.75,0,0,1,18.4038,17.4171Z"/></svg>