<svg id="Layer_1" data-name="Layer 1" xmlns="http://www.w3.org/2000/svg" viewBox="0 0 20 20"><defs><style>.cls-1{fill:#22313f;}</style></defs><path class="cls-1" d="M17,5.3443H14.6665a.75.75,0,0,1,0-1.5H17a.75.75,0,1,1,0,1.5Z"/><path class="cls-1" d="M11.5552,5.3443H3a.75.75,0,1,1,0-1.5h8.5556a.75.75,0,1,1,0,1.5Z"/><path class="cls-1" d="M17,10.75H8.4449a.75.75,0,0,1,0-1.5H17a.75.75,0,0,1,0,1.5Z"/><path class="cls-1" d="M5.3335,10.75H3a.75.75,0,1,1,0-1.5H5.3335a.75.75,0,0,1,0,1.5Z"/><path class="cls-1" d="M17,16.1558H14.6665a.75.75,0,0,1,0-1.5H17a.75.75,0,0,1,0,1.5Z"/><path class="cls-1" d="M11.5552,16.1558H3a.75.75,0,0,1,0-1.5h8.5556a.75.75,0,0,1,0,1.5Z"/><path class="cls-1" d="M13.1119,6.8873a2.3035,2.3035,0,0,1-1.6289-.669,2.2844,2.2844,0,0,1,0-3.248,2.3152,2.3152,0,0,1,3.2568,0h0a2.2871,2.2871,0,0,1,0,3.248A2.3014,2.3014,0,0,1,13.1119,6.8873Zm-.001-3.0879a.8122.8122,0,0,0-.5713.2354.7851.7851,0,0,0,0,1.1191.8147.8147,0,0,0,1.1436,0,.7877.7877,0,0,0,0-1.1191h0A.8131.8131,0,0,0,13.1109,3.7994Z"/><path class="cls-1" d="M6.8882,12.2926a2.3046,2.3046,0,0,1-1.6279-.668,2.2859,2.2859,0,0,1,0-3.249,2.3187,2.3187,0,0,1,3.2568,0h0a2.288,2.288,0,0,1,0,3.249A2.3067,2.3067,0,0,1,6.8882,12.2926Zm.001-3.0869a.809.809,0,0,0-.5723.2343.7865.7865,0,0,0,0,1.12.8147.8147,0,0,0,1.1436,0,.7886.7886,0,0,0,0-1.12h0A.8082.8082,0,0,0,6.8892,9.2057Z"/><path class="cls-1" d="M13.1119,17.6988A2.3034,2.3034,0,0,1,11.483,17.03a2.2858,2.2858,0,0,1,0-3.2491,2.3189,2.3189,0,0,1,3.2568,0h0a2.2884,2.2884,0,0,1,0,3.2491A2.303,2.303,0,0,1,13.1119,17.6988Zm0-3.0879a.8089.8089,0,0,0-.5723.2344.7863.7863,0,0,0,0,1.12.8147.8147,0,0,0,1.1436,0,.7889.7889,0,0,0,0-1.12h0A.8085.8085,0,0,0,13.1119,14.6109Z"/></svg>