<svg width="24" height="24" viewBox="0 0 24 24" fill="none" xmlns="http://www.w3.org/2000/svg">
<path fill-rule="evenodd" clip-rule="evenodd" d="M16.1493 5.82333C16.2464 5.72622 16.4046 5.72622 16.5017 5.82333L18.1777 7.49933C18.2748 7.59642 18.2748 7.75451 18.1777 7.85162L18.1777 7.85167L16.8399 9.18921L14.8117 7.161L16.1493 5.82333ZM13.2535 6.59782C13.242 6.60802 13.2307 6.61864 13.2197 6.62967C13.2086 6.6407 13.198 6.65199 13.1878 6.66352L4.76409 15.0873L4.7633 15.088C4.4335 15.4165 4.25 15.8619 4.25 16.325V19C4.25 19.4142 4.58579 19.75 5 19.75H7.675C8.13818 19.75 8.58359 19.5665 8.91206 19.2366L8.91274 19.2359L17.3561 10.7942C17.3609 10.7897 17.3656 10.785 17.3703 10.7803C17.375 10.7757 17.3796 10.7709 17.3841 10.7662L19.2383 8.91238L19.2383 8.91233C19.9212 8.22944 19.9212 7.12156 19.2383 6.43867L17.5623 4.76267C16.8794 4.07978 15.7716 4.07978 15.0887 4.76267L13.2535 6.59782ZM15.7791 10.2498L7.85072 18.1766L7.84926 18.1781C7.8038 18.2238 7.7415 18.25 7.675 18.25H5.75V16.325C5.75 16.2585 5.77621 16.1962 5.82191 16.1507L5.293 15.619L5.82333 16.1493L13.751 8.22166L15.7791 10.2498Z" fill="#22313F"/>
</svg>
