<svg width="20" height="20" viewBox="0 0 20 20" fill="none" xmlns="http://www.w3.org/2000/svg">
<path d="M6.5063 9.79C6.3656 9.64936 6.28653 9.45858 6.2865 9.25964C6.28646 9.0607 6.36545 8.8699 6.5061 8.7292C6.64674 8.5885 6.83752 8.50944 7.03645 8.5094C7.23539 8.50936 7.4262 8.58836 7.5669 8.729L9.25 10.4121V3.3335C9.25 3.13459 9.32901 2.94382 9.46967 2.80317C9.61032 2.66252 9.80108 2.5835 10 2.5835C10.1989 2.5835 10.3897 2.66252 10.5303 2.80317C10.671 2.94382 10.75 3.13459 10.75 3.3335V10.412L12.4326 8.729C12.5023 8.65936 12.585 8.60412 12.676 8.56645C12.767 8.52877 12.8645 8.50938 12.963 8.5094C13.0615 8.50942 13.1591 8.52884 13.2501 8.56655C13.3411 8.60427 13.4238 8.65953 13.4934 8.7292C13.563 8.79887 13.6183 8.88157 13.656 8.97258C13.6936 9.06359 13.713 9.16114 13.713 9.25964C13.713 9.35815 13.6936 9.45568 13.6558 9.54668C13.6181 9.63768 13.5629 9.72036 13.4932 9.79L10.53 12.7529C10.3892 12.8932 10.1985 12.972 9.9997 12.972C9.80091 12.972 9.61023 12.8932 9.4694 12.7529L6.5063 9.79ZM16.667 12.9531C16.4681 12.9531 16.2773 13.0321 16.1367 13.1728C15.996 13.3134 15.917 13.5042 15.917 13.7031C15.9163 14.2901 15.6828 14.8528 15.2678 15.2678C14.8528 15.6828 14.29 15.9163 13.7031 15.917H6.2969C5.70999 15.9163 5.14733 15.6828 4.73237 15.2678C4.31741 14.8527 4.08405 14.29 4.0835 13.7031C4.0835 13.5042 4.00448 13.3134 3.86383 13.1728C3.72317 13.0321 3.53241 12.9531 3.3335 12.9531C3.13458 12.9531 2.94382 13.0321 2.80317 13.1728C2.66251 13.3134 2.5835 13.5042 2.5835 13.7031C2.58455 14.6877 2.97611 15.6316 3.67226 16.3279C4.36842 17.0241 5.31232 17.4158 6.2969 17.417H13.7031C14.6878 17.4159 15.6318 17.0243 16.328 16.328C17.0243 15.6318 17.4159 14.6878 17.417 13.7031C17.417 13.5042 17.338 13.3134 17.1973 13.1728C17.0567 13.0321 16.8659 12.9531 16.667 12.9531V12.9531Z" fill="#22313F"/>
</svg>
