<svg width="24" height="24" viewBox="0 0 24 24" fill="none" xmlns="http://www.w3.org/2000/svg">
<path fill-rule="evenodd" clip-rule="evenodd" d="M19.75 12.25C19.75 12.6642 19.4142 13 19 13L5 13C4.58579 13 4.25 12.6642 4.25 12.25C4.25 11.8358 4.58579 11.5 5 11.5L19 11.5C19.4142 11.5 19.75 11.8358 19.75 12.25Z" fill="#22313F"/>
<path fill-rule="evenodd" clip-rule="evenodd" d="M12.9697 18.2803C12.6768 17.9874 12.6768 17.5126 12.9697 17.2197L18.4697 11.7197C18.7626 11.4268 19.2374 11.4268 19.5303 11.7197C19.8232 12.0126 19.8232 12.4874 19.5303 12.7803L14.0303 18.2803C13.7374 18.5732 13.2626 18.5732 12.9697 18.2803Z" fill="#22313F"/>
<path fill-rule="evenodd" clip-rule="evenodd" d="M19.5303 12.7803C19.2374 13.0732 18.7626 13.0732 18.4697 12.7803L12.4697 6.78033C12.1768 6.48744 12.1768 6.01256 12.4697 5.71967C12.7626 5.42678 13.2374 5.42678 13.5303 5.71967L19.5303 11.7197C19.8232 12.0126 19.8232 12.4874 19.5303 12.7803Z" fill="#22313F"/>
</svg>
