<svg width="24" height="24" viewBox="0 0 24 24" fill="none" xmlns="http://www.w3.org/2000/svg">
<path d="M22.34 17.1709L14.6807 3.76661C14.4109 3.2938 14.0208 2.90078 13.5501 2.62741C13.0793 2.35404 12.5446 2.21005 12.0002 2.21005C11.4559 2.21005 10.9212 2.35404 10.4504 2.62741C9.97968 2.90078 9.58961 3.2938 9.31979 3.76661L1.66159 17.1709C1.39308 17.6404 1.25262 18.1721 1.25429 18.7129C1.25596 19.2537 1.39969 19.7846 1.6711 20.2524C1.94251 20.7202 2.33206 21.1085 2.80074 21.3783C3.26942 21.6482 3.80078 21.7901 4.34159 21.79H19.6592C20.1999 21.7898 20.731 21.6476 21.1995 21.3776C21.668 21.1077 22.0574 20.7195 22.3288 20.2519C22.6002 19.7843 22.7441 19.2536 22.7461 18.7129C22.748 18.1722 22.608 17.6405 22.34 17.1709ZM11.2505 9.37941C11.2505 9.18049 11.3295 8.98973 11.4702 8.84908C11.6108 8.70842 11.8016 8.62941 12.0005 8.62941C12.1994 8.62941 12.3902 8.70842 12.5308 8.84908C12.6715 8.98973 12.7505 9.18049 12.7505 9.37941V13.12C12.7505 13.3189 12.6715 13.5097 12.5308 13.6503C12.3902 13.791 12.1994 13.87 12.0005 13.87C11.8016 13.87 11.6108 13.791 11.4702 13.6503C11.3295 13.5097 11.2505 13.3189 11.2505 13.12V9.37941ZM12 17.5C11.8022 17.5 11.6089 17.4414 11.4444 17.3315C11.28 17.2216 11.1518 17.0654 11.0761 16.8827C11.0004 16.7 10.9806 16.4989 11.0192 16.3049C11.0578 16.1109 11.153 15.9328 11.2929 15.7929C11.4327 15.653 11.6109 15.5578 11.8049 15.5192C11.9989 15.4806 12.2 15.5004 12.3827 15.5761C12.5654 15.6518 12.7216 15.78 12.8315 15.9444C12.9413 16.1089 13 16.3022 13 16.5C13 16.7652 12.8946 17.0196 12.7071 17.2071C12.5196 17.3946 12.2652 17.5 12 17.5Z" fill="#22313F"/>
</svg>
