<?xml version="1.0" encoding="utf-8"?>
<!-- Generator: Adobe Illustrator 24.2.0, SVG Export Plug-In . SVG Version: 6.00 Build 0)  -->
<svg version="1.1" id="Layer_1" xmlns="http://www.w3.org/2000/svg" xmlns:xlink="http://www.w3.org/1999/xlink" x="0px" y="0px"
	 viewBox="0 0 24 24" style="enable-background:new 0 0 24 24;" xml:space="preserve">
<style type="text/css">
	.st0{fill:#22313F;}
	.st1{fill:none;}
</style>
<path class="st0" d="M7.3,12c0,0.9-0.8,1.7-1.7,1.7S3.9,12.9,3.9,12s0.8-1.7,1.7-1.7S7.3,11.1,7.3,12z M12,10.3
	c-0.9,0-1.7,0.8-1.7,1.7s0.8,1.7,1.7,1.7c0.9,0,1.7-0.8,1.7-1.7S12.9,10.3,12,10.3z M18.4,10.3c-0.9,0-1.7,0.8-1.7,1.7
	s0.8,1.7,1.7,1.7s1.7-0.8,1.7-1.7S19.3,10.3,18.4,10.3z"/>
<rect class="st1" width="24" height="24"/>
</svg>
