<svg xmlns="http://www.w3.org/2000/svg" width="24" height="24" fill="none" viewBox="0 0 24 24">
  <path fill="#22313F" fill-rule="evenodd" d="M4.116 4.716A1.25 1.25 0 015 4.35h4.75v6h-6V5.6c0-.331.132-.65.366-.884zM5 2.85h11a2.75 2.75 0 012.75 2.75v5.5a.75.75 0 01-.75.75h-6.75v6.75a.75.75 0 01-.75.75H5a2.75 2.75 0 01-2.75-2.75v-11A2.75 2.75 0 015 2.85zm6.25 7.5v-6H16a1.25 1.25 0 011.25 1.25v4.75h-6zm-7.5 1.5h6v6H5a1.25 1.25 0 01-1.25-1.25v-4.75zm15.664 2c-.464 0-.91.185-1.237.513l-3.414 3.414a1.75 1.75 0 00-.513 1.237V21.6c0 .415.336.75.75.75h2.586c.464 0 .91-.184 1.237-.513l3.414-3.413a1.75 1.75 0 000-2.475l-1.586-1.586a1.75 1.75 0 00-1.237-.512zm1.763 3.513l-3.414 3.414a.25.25 0 01-.177.073H15.75v-1.836a.25.25 0 01.073-.176l3.414-3.414a.25.25 0 01.354 0l1.586 1.585a.25.25 0 010 .354z" clip-rule="evenodd"/>
</svg>
