<svg id="Layer_1" data-name="Layer 1" xmlns="http://www.w3.org/2000/svg" viewBox="0 0 20 20"><defs><style>.cls-1{fill:#22313f;}</style></defs><path class="cls-1" d="M10,18.25A8.25,8.25,0,1,1,18.25,10,8.26,8.26,0,0,1,10,18.25Zm0-15A6.75,6.75,0,1,0,16.75,10,6.7577,6.7577,0,0,0,10,3.25Z"/><path class="cls-1" d="M8.8716,12.7926a.7481.7481,0,0,1-.5078-.1983h0l-.002-.0019h0l-.0014-.001H8.36L8.3584,12.59l-.0015-.002h0l-.0014-.001-.0005-.0009-.001-.001c-.0005,0-.0005.0029-.0019-.002l-.002-.001-.0005-.0009-.0019-.002-.001-.001s.0049.001-.0015-.0009l-.0019-.002-.0015-.0019L6.5356,10.7672A.75.75,0,1,1,7.5962,9.7066L8.86,10.97l3.5444-3.5439a.75.75,0,1,1,1.0605,1.0605L9.5015,12.45a.751.751,0,0,1-.63.3428Z"/></svg>