<svg width="24" height="25" viewBox="0 0 24 25" fill="none" xmlns="http://www.w3.org/2000/svg">
<path d="M20 7.35059H15.416V3.10059C15.416 2.90167 15.337 2.71091 15.1963 2.57026C15.0557 2.4296 14.8649 2.35059 14.666 2.35059H9.333C9.13409 2.35059 8.94332 2.4296 8.80267 2.57026C8.66202 2.71091 8.583 2.90167 8.583 3.10059V12.3506H4C3.80109 12.3506 3.61032 12.4296 3.46967 12.5703C3.32902 12.7109 3.25 12.9017 3.25 13.1006V21.1006C3.25 21.2995 3.32902 21.4903 3.46967 21.6309C3.61032 21.7716 3.80109 21.8506 4 21.8506H14.666H14.6665H20C20.1989 21.8506 20.3897 21.7716 20.5303 21.6309C20.671 21.4903 20.75 21.2995 20.75 21.1006V8.10059C20.75 7.90167 20.671 7.71091 20.5303 7.57026C20.3897 7.4296 20.1989 7.35059 20 7.35059ZM4.75 13.8506H8.583V20.3506H4.75V13.8506ZM13.916 20.3506H10.083V3.85059H13.916V20.3506ZM19.25 20.3506H15.416V8.85059H19.25V20.3506Z" fill="#22313F"/>
</svg>
