<svg id="Layer_1" data-name="Layer 1" xmlns="http://www.w3.org/2000/svg" viewBox="0 0 20 20"><defs><style>.cls-1{fill:#22313f;}</style></defs><path class="cls-1" d="M16.5914,8.25H3.4087a.75.75,0,1,1,0-1.5H16.5914a.75.75,0,0,1,0,1.5Z"/><path class="cls-1" d="M8.8121,18.25a2.2358,2.2358,0,0,1-2.2295-2.2334V11.2326L3.4517,8.8175A2.2213,2.2213,0,0,1,2.5835,7.05V4.8146A2.2339,2.2339,0,0,1,4.815,2.5832h10.37a2.2338,2.2338,0,0,1,2.2314,2.2314V7.05A2.22,2.22,0,0,1,16.55,8.8156l-3.1318,2.417V14.83a2.2159,2.2159,0,0,1-1.2353,1.9961L9.8111,18.0119A2.2265,2.2265,0,0,1,8.8121,18.25ZM4.815,4.0832a.7323.7323,0,0,0-.7315.7314V7.05a.73.73,0,0,0,.2852.581L7.7906,10.27a.7481.7481,0,0,1,.292.5937v5.1534A.73.73,0,0,0,9.14,16.67l2.374-1.1865a.7341.7341,0,0,0,.4043-.6534V10.8634a.7479.7479,0,0,1,.292-.5937l3.4219-2.64a.7311.7311,0,0,0,.2841-.58V4.8146a.7322.7322,0,0,0-.7314-.7314Z"/></svg>