<svg width="24" height="24" viewBox="0 0 24 24" fill="none" xmlns="http://www.w3.org/2000/svg">
<path d="M2 11.9946C2.0181 9.34942 3.07694 6.81773 4.94742 4.94728C6.81791 3.07684 9.34962 2.01805 11.9948 2C14.6411 2.01763 17.1741 3.07596 19.0463 4.9462C20.9186 6.81644 21.9796 9.34835 22 11.9946C21.9842 14.6415 20.9264 17.1756 19.0557 19.0482C17.1851 20.9209 14.6521 21.9814 12.0052 22C9.35725 21.9818 6.82294 20.9218 4.95053 19.0493C3.07812 17.1769 2.01818 14.6425 2 11.9946ZM14.2537 17.3482C14.3497 17.3523 14.4456 17.3369 14.5355 17.303C14.6254 17.2691 14.7075 17.2174 14.7769 17.1509C14.8463 17.0844 14.9015 17.0045 14.9393 16.9161C14.977 16.8278 14.9964 16.7327 14.9964 16.6366C14.9964 16.5404 14.977 16.4453 14.9393 16.357C14.9015 16.2686 14.8463 16.1887 14.7769 16.1222C14.7075 16.0557 14.6254 16.004 14.5355 15.9701C14.4456 15.9362 14.3497 15.9208 14.2537 15.9249H13.0882V11.0766C13.0882 10.53 12.8097 10.169 12.3043 10.169H10.458C10.363 10.1665 10.2684 10.183 10.1798 10.2177C10.0913 10.2523 10.0106 10.3043 9.94246 10.3706C9.87435 10.437 9.82021 10.5163 9.78325 10.6039C9.74628 10.6915 9.72723 10.7856 9.72723 10.8806C9.72723 10.9757 9.74628 11.0698 9.78325 11.1574C9.82021 11.245 9.87435 11.3243 9.94246 11.3907C10.0106 11.457 10.0913 11.509 10.1798 11.5436C10.2684 11.5783 10.363 11.5948 10.458 11.5923H11.4791V15.9249H10.2826C10.1876 15.9224 10.093 15.9389 10.0044 15.9736C9.91588 16.0082 9.83517 16.0602 9.76706 16.1265C9.69895 16.1929 9.64481 16.2722 9.60784 16.3598C9.57088 16.4474 9.55184 16.5415 9.55184 16.6366C9.55184 16.7316 9.57088 16.8257 9.60784 16.9133C9.64481 17.0009 9.69895 17.0802 9.76706 17.1466C9.83517 17.2129 9.91588 17.2649 10.0044 17.2995C10.093 17.3342 10.1876 17.3507 10.2826 17.3482H14.2537ZM13.212 7.2913C13.212 7.03627 13.1365 6.78696 12.9948 6.57489C12.8531 6.36283 12.6518 6.19753 12.4162 6.09991C12.1806 6.00228 11.9213 5.97672 11.6712 6.02645C11.421 6.07618 11.1913 6.19897 11.0109 6.37929C10.8306 6.5596 10.7078 6.78935 10.658 7.03948C10.6082 7.2896 10.6337 7.54887 10.7313 7.78449C10.8289 8.0201 10.9942 8.22149 11.2062 8.36318C11.4183 8.50487 11.6676 8.5805 11.9226 8.5805C12.0923 8.58187 12.2606 8.54946 12.4176 8.48516C12.5746 8.42086 12.7173 8.32596 12.8373 8.20597C12.9573 8.08599 13.0523 7.94332 13.1166 7.78629C13.1809 7.62926 13.2133 7.46099 13.212 7.2913Z" fill="#22313F"/>
</svg>
