<svg id="Layer_1" data-name="Layer 1" xmlns="http://www.w3.org/2000/svg" viewBox="0 0 20 20"><defs><style>.cls-1{fill:#22313f;}</style></defs><path class="cls-1" d="M12.356,18.25H7.6441a5.7561,5.7561,0,0,1-5.75-5.75v-5a5.7561,5.7561,0,0,1,5.75-5.75H12.355a5.7561,5.7561,0,0,1,5.75,5.75v5a5.7482,5.7482,0,0,1-5.749,5.75Zm-4.7119-15a4.2544,4.2544,0,0,0-4.25,4.25v5a4.2544,4.2544,0,0,0,4.25,4.25H12.356a4.2493,4.2493,0,0,0,4.249-4.25v-5a4.2544,4.2544,0,0,0-4.25-4.25Z"/><path class="cls-1" d="M8.3335,9.5a.75.75,0,0,1-.75-.75v-.833a.75.75,0,0,1,1.5,0V8.75A.75.75,0,0,1,8.3335,9.5Z"/><path class="cls-1" d="M11.6665,9.5a.75.75,0,0,1-.75-.75v-.833a.75.75,0,1,1,1.5,0V8.75A.75.75,0,0,1,11.6665,9.5Z"/><path class="cls-1" d="M10,13.6666a5.1277,5.1277,0,0,1-3.4463-1.3125.75.75,0,0,1,1.0606-1.0606A3.6013,3.6013,0,0,0,10,12.1666a.75.75,0,0,1,0,1.5Z"/><path class="cls-1" d="M10,13.6666a.75.75,0,0,1,0-1.5A3.6008,3.6008,0,0,0,12.39,11.29a.75.75,0,0,1,1.0566,1.0645A5.1282,5.1282,0,0,1,10,13.6666Z"/></svg>