<?xml version="1.0" encoding="utf-8"?>
<!-- Generator: Adobe Illustrator 24.2.0, SVG Export Plug-In . SVG Version: 6.00 Build 0)  -->
<svg version="1.1" id="Layer_1" xmlns="http://www.w3.org/2000/svg" xmlns:xlink="http://www.w3.org/1999/xlink" x="0px" y="0px"
	 viewBox="0 0 24 24" style="enable-background:new 0 0 24 24;" xml:space="preserve">
<style type="text/css">
	.st0{fill:#323232;}
</style>
<path class="st0" d="M21.5,11.2C19.7,7.7,16,4.2,12,4.2s-7.7,3.5-9.5,6.9c-0.3,0.5-0.3,1.1,0,1.6c1.9,3.4,5.5,6.9,9.5,6.9
	c4,0,7.7-3.5,9.5-6.9C21.8,12.3,21.8,11.7,21.5,11.2z M20.2,12.1c-2,3.6-5.3,6.1-8.2,6.1c-2.9,0-6.3-2.5-8.2-6.1c0-0.1,0-0.2,0-0.2
	c2-3.6,5.3-6.1,8.2-6.1c2.9,0,6.3,2.5,8.2,6.1C20.3,12,20.3,12,20.2,12.1z M14.6,9.4C13.2,8,10.8,8,9.4,9.4c-1.4,1.4-1.4,3.8,0,5.3
	c0.7,0.7,1.6,1.1,2.6,1.1s1.9-0.4,2.6-1.1c0.7-0.7,1.1-1.6,1.1-2.6S15.3,10.1,14.6,9.4C14.6,9.4,14.6,9.4,14.6,9.4z M13.6,13.6
	c-0.9,0.9-2.4,0.9-3.2,0c-0.9-0.9-0.9-2.3,0-3.2c0.4-0.4,1-0.7,1.6-0.7s1.2,0.2,1.6,0.7c0,0,0,0,0,0c0.4,0.4,0.7,1,0.7,1.6
	S14,13.2,13.6,13.6z"/>
</svg>
