<svg width="24" height="24" viewBox="0 0 24 24" fill="none" xmlns="http://www.w3.org/2000/svg">
<path fill-rule="evenodd" clip-rule="evenodd" d="M4.75 5C4.75 4.30921 5.30921 3.75 6 3.75H14.25V7C14.25 7.96621 15.0338 8.75 16 8.75H19.25V19C19.25 19.6908 18.6908 20.25 18 20.25H6C5.30921 20.25 4.75 19.6908 4.75 19V5ZM6 2.25H15H15.172C15.9011 2.25 16.6008 2.54018 17.1163 3.05567L19.9443 5.88367C20.4598 6.39916 20.75 7.09886 20.75 7.828V8V19C20.75 20.5192 19.5192 21.75 18 21.75H6C4.48079 21.75 3.25 20.5192 3.25 19V5C3.25 3.48079 4.48079 2.25 6 2.25ZM15.75 7V3.89195C15.8617 3.95025 15.9649 4.02561 16.0557 4.11633L18.8837 6.94433C18.9744 7.03505 19.0497 7.13832 19.108 7.25H16C15.8622 7.25 15.75 7.13779 15.75 7ZM7.25 13C7.25 12.5858 7.58579 12.25 8 12.25H16C16.4142 12.25 16.75 12.5858 16.75 13C16.75 13.4142 16.4142 13.75 16 13.75H8C7.58579 13.75 7.25 13.4142 7.25 13ZM7.25 17C7.25 16.5858 7.58579 16.25 8 16.25H16C16.4142 16.25 16.75 16.5858 16.75 17C16.75 17.4142 16.4142 17.75 16 17.75H8C7.58579 17.75 7.25 17.4142 7.25 17ZM8 8.25C7.58579 8.25 7.25 8.58579 7.25 9C7.25 9.41421 7.58579 9.75 8 9.75H11C11.4142 9.75 11.75 9.41421 11.75 9C11.75 8.58579 11.4142 8.25 11 8.25H8Z" fill="#22313F"/>
</svg>
