<svg width="24" height="24" viewBox="0 0 24 24" fill="none" xmlns="http://www.w3.org/2000/svg">
<path fill-rule="evenodd" clip-rule="evenodd" d="M10 2.25C9.58579 2.25 9.25 2.58579 9.25 3C9.25 3.41421 9.58579 3.75 10 3.75H14C14.4142 3.75 14.75 3.41421 14.75 3C14.75 2.58579 14.4142 2.25 14 2.25H10ZM3.75 6C3.75 5.58579 4.08579 5.25 4.5 5.25H6H18H19.5C19.9142 5.25 20.25 5.58579 20.25 6C20.25 6.41421 19.9142 6.75 19.5 6.75H18.75V18.75C18.75 20.4156 17.3788 21.75 15.731 21.75H8.231C6.56551 21.75 5.25 20.3989 5.25 18.75V6.75H4.5C4.08579 6.75 3.75 6.41421 3.75 6ZM6.75 18.75V6.75H17.25V18.75C17.25 19.5704 16.5672 20.25 15.731 20.25H8.231C7.41049 20.25 6.75 19.5871 6.75 18.75ZM14 9.25C14.4142 9.25 14.75 9.58579 14.75 10V17C14.75 17.4142 14.4142 17.75 14 17.75C13.5858 17.75 13.25 17.4142 13.25 17V10C13.25 9.58579 13.5858 9.25 14 9.25ZM10.75 10C10.75 9.58579 10.4142 9.25 10 9.25C9.58579 9.25 9.25 9.58579 9.25 10V17C9.25 17.4142 9.58579 17.75 10 17.75C10.4142 17.75 10.75 17.4142 10.75 17V10Z" fill="#22313F"/>
</svg>
