<?xml version="1.0" encoding="utf-8"?>
<!-- Generator: Adobe Illustrator 24.2.0, SVG Export Plug-In . SVG Version: 6.00 Build 0)  -->
<svg version="1.1" id="Layer_1" xmlns="http://www.w3.org/2000/svg" xmlns:xlink="http://www.w3.org/1999/xlink" x="0px" y="0px"
	 viewBox="0 0 24 24" style="enable-background:new 0 0 24 24;" xml:space="preserve">
<style type="text/css">
	.st0{fill:#323232;}
</style>
<path class="st0" d="M22.9,12c0,5.4-4.4,9.8-9.8,9.8c-3.2,0-6.2-1.6-8-4.2c-0.2-0.3-0.2-0.8,0.2-1c0.3-0.2,0.8-0.2,1,0.2
	c1.5,2.2,4.1,3.5,6.8,3.5c4.5,0,8.2-3.7,8.2-8.2s-3.7-8.2-8.2-8.2S4.9,7.5,4.9,12c0,0.1,0,0.3,0,0.4l0.9-0.9c0.3-0.3,0.8-0.3,1.1,0
	s0.3,0.8,0,1.1l-2.2,2.2C4.5,14.9,4.3,15,4.1,15s-0.4-0.1-0.5-0.2l-2.2-2.2c-0.3-0.3-0.3-0.8,0-1.1s0.8-0.3,1.1,0l1,1
	c0-0.2,0-0.3,0-0.5c0-5.4,4.4-9.8,9.8-9.8S22.9,6.6,22.9,12z M12.8,7.2c-0.4,0-0.8,0.3-0.8,0.8v4.7c0,0.3,0.1,0.5,0.4,0.6l3.7,2.2
	c0.1,0.1,0.3,0.1,0.4,0.1c0.3,0,0.5-0.1,0.6-0.4c0.2-0.4,0.1-0.8-0.3-1l-3.3-2V8C13.6,7.6,13.3,7.2,12.8,7.2z"/>
</svg>
