<?xml version="1.0" encoding="utf-8"?>
<!-- Generator: Adobe Illustrator 24.2.0, SVG Export Plug-In . SVG Version: 6.00 Build 0)  -->
<svg version="1.1" id="Layer_1" xmlns="http://www.w3.org/2000/svg" xmlns:xlink="http://www.w3.org/1999/xlink" x="0px" y="0px"
	 viewBox="0 0 24 24" style="enable-background:new 0 0 24 24;" xml:space="preserve">
<style type="text/css">
	.st0{fill:#22313F;}
</style>
<path class="st0" d="M19.9,5.9l-2.8-2.8c-0.5-0.5-1.2-0.8-1.9-0.8H6C4.5,2.2,3.2,3.5,3.2,5v14c0,1.5,1.2,2.8,2.8,2.8h12
	c1.5,0,2.8-1.2,2.8-2.8V7.8C20.8,7.1,20.5,6.4,19.9,5.9z M15.8,3.9C15.9,4,16,4,16.1,4.1l2.8,2.8C19,7,19,7.1,19.1,7.2H16
	c-0.1,0-0.2-0.1-0.2-0.2V3.9z M19.2,19c0,0.7-0.6,1.2-1.2,1.2H6c-0.7,0-1.2-0.6-1.2-1.2V5c0-0.7,0.6-1.2,1.2-1.2h8.2V7
	c0,1,0.8,1.8,1.8,1.8h3.2V19z M14.1,11.5l2.4,2.4c0.1,0.1,0.2,0.3,0.2,0.5s-0.1,0.4-0.2,0.5l-2.4,2.4c-0.1,0.1-0.3,0.2-0.5,0.2
	c-0.2,0-0.4-0.1-0.5-0.2c-0.3-0.3-0.3-0.8,0-1.1l1.9-1.9l-1.9-1.9c-0.3-0.3-0.3-0.8,0-1.1S13.8,11.2,14.1,11.5z M10.9,12.5l-1.9,1.9
	l1.9,1.9c0.3,0.3,0.3,0.8,0,1.1c-0.1,0.1-0.3,0.2-0.5,0.2s-0.4-0.1-0.5-0.2l-2.4-2.4c-0.1-0.1-0.2-0.3-0.2-0.5s0.1-0.4,0.2-0.5
	l2.4-2.4c0.3-0.3,0.8-0.3,1.1,0S11.2,12.2,10.9,12.5z"/>
</svg>
