<svg width="21" height="20" viewBox="0 0 21 20" fill="none" xmlns="http://www.w3.org/2000/svg">
<path d="M15.2412 16C15.2412 16.2963 15.1535 16.586 14.989 16.8324C14.8246 17.0789 14.5909 17.2712 14.3173 17.385C14.0437 17.4988 13.7426 17.529 13.4519 17.4718C13.1611 17.4147 12.8939 17.2727 12.6837 17.0638C12.4736 16.8549 12.33 16.5885 12.2711 16.2981C12.2122 16.0078 12.2407 15.7064 12.3528 15.4322C12.465 15.158 12.6558 14.9231 12.9013 14.7572C13.1468 14.5913 13.4359 14.5018 13.7322 14.5C13.9298 14.4994 14.1256 14.5377 14.3083 14.6128C14.4911 14.6878 14.6573 14.7981 14.7974 14.9374C14.9376 15.0767 15.0489 15.2423 15.125 15.4246C15.2012 15.6069 15.2406 15.8024 15.2412 16V16ZM6.73221 14.5C6.43593 14.5018 6.14681 14.5913 5.90132 14.7572C5.65584 14.9231 5.46498 15.158 5.35283 15.4322C5.24067 15.7064 5.21225 16.0078 5.27114 16.2981C5.33003 16.5885 5.4736 16.8549 5.68373 17.0638C5.89386 17.2727 6.16115 17.4147 6.45187 17.4718C6.74259 17.529 7.04373 17.4988 7.3173 17.385C7.59086 17.2712 7.8246 17.0789 7.98903 16.8324C8.15346 16.586 8.24121 16.2963 8.24121 16C8.23954 15.6012 8.07974 15.2192 7.79685 14.938C7.51396 14.6568 7.13109 14.4993 6.73221 14.5V14.5ZM13.7322 8.50001C13.4359 8.50179 13.1468 8.59127 12.9013 8.75717C12.6558 8.92307 12.465 9.15796 12.3528 9.4322C12.2407 9.70644 12.2122 10.0078 12.2711 10.2981C12.33 10.5885 12.4736 10.8549 12.6837 11.0638C12.8939 11.2727 13.1611 11.4147 13.4519 11.4718C13.7426 11.529 14.0437 11.4987 14.3173 11.385C14.5909 11.2712 14.8246 11.0789 14.989 10.8324C15.1535 10.586 15.2412 10.2963 15.2412 10C15.2395 9.60114 15.0797 9.21922 14.7968 8.93801C14.514 8.65681 14.1311 8.49929 13.7322 8.50001ZM6.73221 8.50001C6.43593 8.50179 6.14681 8.59127 5.90132 8.75717C5.65584 8.92307 5.46498 9.15796 5.35283 9.4322C5.24067 9.70644 5.21225 10.0078 5.27114 10.2981C5.33003 10.5885 5.4736 10.8549 5.68373 11.0638C5.89386 11.2727 6.16115 11.4147 6.45187 11.4718C6.74259 11.529 7.04373 11.4987 7.3173 11.385C7.59086 11.2712 7.8246 11.0789 7.98903 10.8324C8.15346 10.586 8.24121 10.2963 8.24121 10C8.23954 9.60114 8.07974 9.21922 7.79685 8.93801C7.51396 8.65681 7.13109 8.49929 6.73221 8.50001V8.50001ZM13.7412 5.50001C14.0379 5.50001 14.3279 5.41203 14.5746 5.24721C14.8212 5.08239 15.0135 4.84812 15.127 4.57403C15.2406 4.29994 15.2703 3.99834 15.2124 3.70737C15.1545 3.4164 15.0116 3.14912 14.8019 2.93934C14.5921 2.72956 14.3248 2.5867 14.0338 2.52882C13.7429 2.47095 13.4413 2.50065 13.1672 2.61418C12.8931 2.72771 12.6588 2.91997 12.494 3.16665C12.3292 3.41332 12.2412 3.70333 12.2412 4C12.2423 4.39748 12.4007 4.77835 12.6818 5.05941C12.9629 5.34047 13.3437 5.49887 13.7412 5.50001V5.50001ZM6.73221 2.5C6.43593 2.50178 6.14681 2.59126 5.90132 2.75716C5.65584 2.92306 5.46498 3.15795 5.35283 3.43219C5.24067 3.70643 5.21225 4.00774 5.27114 4.29812C5.33003 4.5885 5.4736 4.85493 5.68373 5.06381C5.89386 5.27269 6.16115 5.41466 6.45187 5.47181C6.74259 5.52896 7.04373 5.49874 7.3173 5.38494C7.59086 5.27115 7.8246 5.07889 7.98903 4.83242C8.15346 4.58594 8.24121 4.29629 8.24121 4C8.23957 3.60113 8.07977 3.21918 7.79688 2.93798C7.51398 2.65677 7.13109 2.49926 6.73221 2.5V2.5Z" fill="#22313F"/>
</svg>
