<svg id="Layer_1" data-name="Layer 1" xmlns="http://www.w3.org/2000/svg" viewBox="0 0 20 20"><defs><style>.cls-1{fill:#22313f;}</style></defs><path class="cls-1" d="M10,18.25A2.6628,2.6628,0,0,1,7.34,15.5908v-.3037a.75.75,0,0,1,1.5,0v.3037A1.16,1.16,0,1,0,11.16,15.59v-.3037a.75.75,0,1,1,1.5,0V15.59A2.6632,2.6632,0,0,1,10,18.25Z"/><path class="cls-1" d="M11.5279,5.5425a.75.75,0,0,1-.75-.75V4.0273a.7779.7779,0,0,0-1.5557,0v.7652a.75.75,0,0,1-1.5,0V4.0273a2.2779,2.2779,0,0,1,4.5557,0v.7652A.75.75,0,0,1,11.5279,5.5425Z"/><path class="cls-1" d="M14.4673,16.0371H5.5337a2.3277,2.3277,0,0,1-2.3252-2.3252,2.3985,2.3985,0,0,1,.708-1.709l.5342-.5341a.9114.9114,0,0,0,.2686-.648V8.49A4.5308,4.5308,0,0,1,9.2447,3.9644h1.5107A4.531,4.531,0,0,1,15.2818,8.49v2.3306a.9117.9117,0,0,0,.2685.648l.5342.5341a2.3985,2.3985,0,0,1,.708,1.709A2.3277,2.3277,0,0,1,14.4673,16.0371ZM9.2447,5.4644A3.0292,3.0292,0,0,0,6.2193,8.49v2.3306a2.3982,2.3982,0,0,1-.708,1.7085l-.5342.5342a.9113.9113,0,0,0-.2686.6484.8261.8261,0,0,0,.8252.8252h8.9336a.826.826,0,0,0,.8252-.8252.9116.9116,0,0,0-.2685-.6484l-.5342-.5342a2.3982,2.3982,0,0,1-.708-1.7085V8.49a3.0294,3.0294,0,0,0-3.0264-3.0258Z"/></svg>