<?xml version="1.0" encoding="utf-8"?>
<!-- Generator: Adobe Illustrator 24.2.0, SVG Export Plug-In . SVG Version: 6.00 Build 0)  -->
<svg version="1.1" id="Layer_1" xmlns="http://www.w3.org/2000/svg" xmlns:xlink="http://www.w3.org/1999/xlink" x="0px" y="0px"
	 viewBox="0 0 24 24" style="enable-background:new 0 0 24 24;" xml:space="preserve">
<style type="text/css">
	.st0{fill:#22313F;}
</style>
<path class="st0" d="M19.7,16.7c0,0-1.9,5.3-4.4,5.3c-1.2,0-2.1-0.8-3.3-0.8c-1.3,0-2.5,0.8-3.3,0.8c-2.3,0-5.3-5-5.3-9.1
	c0-4,2.5-6.1,4.8-6.1c1.5,0,2.7,0.9,3.5,0.9c0.7,0,1.9-0.9,3.6-0.9c1.6-0.1,3.1,0.7,3.9,2C17.8,9.6,17,11,17,12.6
	C17,14.4,18,16,19.7,16.7z M14.5,5.2c0.8-0.9,1.1-2,1-3.2c-1.3,0.1-2.4,0.7-3.1,1.7c-0.7,0.8-1,1.8-0.9,2.9
	C12.7,6.7,13.8,6.1,14.5,5.2z"/>
</svg>
