<?xml version="1.0" encoding="utf-8"?>
<!-- Generator: Adobe Illustrator 24.2.0, SVG Export Plug-In . SVG Version: 6.00 Build 0)  -->
<svg version="1.1" id="Layer_1" xmlns="http://www.w3.org/2000/svg" xmlns:xlink="http://www.w3.org/1999/xlink" x="0px" y="0px"
	 viewBox="0 0 24 24" style="enable-background:new 0 0 24 24;" xml:space="preserve">
<style type="text/css">
	.st0{fill:#323232;}
</style>
<g>
	<g>
		<path class="st0" d="M12,13.9c-0.4,0-0.8-0.3-0.8-0.8V9.4c0-0.4,0.3-0.8,0.8-0.8s0.8,0.3,0.8,0.8v3.7C12.8,13.5,12.4,13.9,12,13.9
			z"/>
	</g>
	<g>
		<path class="st0" d="M12,17c-0.6,0-1-0.4-1-1c0-0.3,0.1-0.5,0.3-0.7S11.7,15,12,15c0.6,0,1,0.4,1,1S12.6,17,12,17z"/>
	</g>
	<g>
		<path class="st0" d="M19.7,21.8H4.3c-1.1,0-2.1-0.6-2.7-1.5s-0.6-2.1,0-3.1L9.3,3.8c0.6-1,1.6-1.6,2.7-1.6s2.1,0.6,2.7,1.6
			l7.7,13.4c0.6,1,0.5,2.1,0,3.1C21.8,21.2,20.8,21.8,19.7,21.8z M12,3.7c-0.6,0-1.1,0.3-1.4,0.8L3,17.9c-0.3,0.5-0.3,1.1,0,1.6
			s0.8,0.8,1.4,0.8h15.3c0.6,0,1.1-0.3,1.4-0.8s0.3-1.1,0-1.6L13.4,4.5l0,0C13.1,4,12.6,3.7,12,3.7z"/>
	</g>
</g>
</svg>
