<svg width="20" height="21" viewBox="0 0 20 21" fill="none" xmlns="http://www.w3.org/2000/svg">
<path d="M18.0622 11.4567L18.0615 11.459C16.49 14.3638 13.3887 17.2954 9.99997 17.2954C9.19244 17.2883 8.39326 17.1313 7.64307 16.8324C7.54856 16.7989 7.46174 16.7467 7.38773 16.6791C7.31372 16.6114 7.25404 16.5296 7.2122 16.4384C7.17036 16.3473 7.14722 16.2487 7.14415 16.1485C7.14108 16.0483 7.15814 15.9484 7.19432 15.8549C7.2305 15.7614 7.28507 15.6761 7.35479 15.604C7.42452 15.532 7.50799 15.4746 7.60027 15.4354C7.69254 15.3961 7.79175 15.3758 7.89203 15.3755C7.9923 15.3753 8.09161 15.3952 8.18407 15.434C8.76199 15.6651 9.37759 15.7876 9.99997 15.7954C12.3622 15.7954 15.1347 13.7194 16.7411 10.7463C16.3606 9.98566 15.8862 9.27578 15.3291 8.63328C15.2635 8.5586 15.2134 8.47163 15.1817 8.37743C15.1501 8.28323 15.1374 8.18367 15.1446 8.08454C15.1517 7.98541 15.1785 7.88869 15.2233 7.8C15.2682 7.71131 15.3302 7.63241 15.4058 7.5679C15.4814 7.50338 15.569 7.45454 15.6637 7.4242C15.7583 7.39386 15.8581 7.38264 15.9571 7.39118C16.0561 7.39972 16.1524 7.42785 16.2405 7.47395C16.3285 7.52004 16.4065 7.58317 16.47 7.65968C17.0799 8.37069 17.6134 9.1438 18.0618 9.96628C18.1856 10.1951 18.2504 10.4512 18.2505 10.7114C18.2505 10.9716 18.1858 11.2277 18.0622 11.4567ZM4.69677 17.0757C4.55561 17.2139 4.36565 17.2908 4.16812 17.2897C3.97059 17.2887 3.78146 17.2097 3.64178 17.0701C3.50211 16.9304 3.42318 16.7412 3.42213 16.5437C3.42107 16.3462 3.49799 16.1562 3.63617 16.0151L4.69797 14.9534C3.58738 13.9529 2.65419 12.7715 1.93797 11.4595C1.81381 11.2304 1.74878 10.9739 1.74878 10.7134C1.74878 10.4528 1.81381 10.1964 1.93797 9.96728C3.50927 7.06098 6.61127 4.12888 9.99997 4.12888C11.4836 4.17187 12.9202 4.65901 14.124 5.52728L15.3027 4.34858C15.4438 4.2104 15.6338 4.13348 15.8313 4.13454C16.0288 4.13559 16.218 4.21452 16.3576 4.35419C16.4973 4.49387 16.5763 4.683 16.5773 4.88053C16.5784 5.07806 16.5014 5.26802 16.3633 5.40918L12.3877 9.38478L12.3867 9.38618L12.3853 9.38718L4.69677 17.0757ZM8.25677 11.3948L10.675 8.97668C10.3368 8.84995 9.9698 8.82115 9.61603 8.89358C9.26226 8.96602 8.93609 9.13675 8.67497 9.38618C8.41672 9.64355 8.23952 9.97095 8.16527 10.3279C8.09102 10.6849 8.12297 11.0558 8.25717 11.3948H8.25677ZM5.75997 13.8916L7.14797 12.5036C6.73858 11.8581 6.56163 11.0923 6.64636 10.3327C6.73109 9.57306 7.07242 8.86507 7.61397 8.32568C8.16344 7.80331 8.869 7.47548 9.62258 7.39239C10.3762 7.30931 11.1362 7.47556 11.7863 7.86568L13.0314 6.62068C12.1336 6.01299 11.0833 5.66937 9.99997 5.62888C7.63817 5.62888 4.86567 7.70608 3.25777 10.6797C3.88862 11.8942 4.73669 12.9828 5.75997 13.8916V13.8916Z" fill="#22313F"/>
</svg>
