<?xml version="1.0" encoding="utf-8"?>
<!-- Generator: Adobe Illustrator 24.2.0, SVG Export Plug-In . SVG Version: 6.00 Build 0)  -->
<svg version="1.1" id="Layer_1" xmlns="http://www.w3.org/2000/svg" xmlns:xlink="http://www.w3.org/1999/xlink" x="0px" y="0px"
	 viewBox="0 0 24 24" style="enable-background:new 0 0 24 24;" xml:space="preserve">
<style type="text/css">
	.st0{fill:#00254B;}
</style>
<path class="st0" d="M22.8,5c0,0.4-0.3,0.8-0.8,0.8h-1.2V7c0,0.4-0.3,0.8-0.8,0.8S19.3,7.4,19.3,7V5.8H18c-0.4,0-0.8-0.3-0.8-0.8
	s0.3-0.8,0.8-0.8h1.2V3c0-0.4,0.3-0.8,0.8-0.8s0.8,0.3,0.8,0.8v1.2H22C22.4,4.2,22.8,4.6,22.8,5z M20,10.2c-0.4,0-0.8,0.3-0.8,0.8v6
	c0,1.8-1.5,3.2-3.2,3.2H7c-1.8,0-3.2-1.5-3.2-3.2V9c0-1.8,1.5-3.2,3.2-3.2h7c0.4,0,0.8-0.3,0.8-0.8S14.4,4.2,14,4.2H7
	C4.4,4.2,2.2,6.4,2.2,9v8c0,2.6,2.1,4.8,4.8,4.8h9c2.6,0,4.8-2.1,4.8-4.8v-6C20.8,10.6,20.4,10.2,20,10.2z M14.7,10.3l2.2,3.9
	c0.3,0.5,0.3,1.2,0,1.7c-0.3,0.5-0.9,0.9-1.5,0.9H7.8c-0.6,0-1.2-0.3-1.5-0.9C6,15.3,6,14.6,6.3,14.1l1.5-2.4
	c0.3-0.5,0.8-0.8,1.3-0.8c0.5-0.1,1.1,0.1,1.4,0.5l0.3,0.3l0.7-1.4c0.3-0.6,0.9-1,1.5-1C13.8,9.3,14.4,9.7,14.7,10.3z M15.5,14.9
	L13.4,11c-0.1-0.1-0.2-0.1-0.2-0.1c-0.1,0-0.2,0-0.2,0.1l-1.1,2.4c-0.1,0.2-0.3,0.4-0.6,0.4c-0.2,0-0.5,0-0.7-0.2l-1.1-1.1
	c-0.1-0.1-0.1-0.1-0.2-0.1c0,0,0,0,0,0c0,0-0.1,0-0.2,0.1l-1.5,2.4c-0.1,0.1,0,0.2,0,0.3c0,0,0.1,0.1,0.2,0.1h7.5
	c0.1,0,0.2-0.1,0.2-0.1C15.5,15.1,15.6,15,15.5,14.9z"/>
</svg>
