<?xml version="1.0" encoding="utf-8"?>
<!-- Generator: Adobe Illustrator 24.2.0, SVG Export Plug-In . SVG Version: 6.00 Build 0)  -->
<svg version="1.1" id="Layer_1" xmlns="http://www.w3.org/2000/svg" xmlns:xlink="http://www.w3.org/1999/xlink" x="0px" y="0px"
	 viewBox="0 0 24 24" style="enable-background:new 0 0 24 24;" xml:space="preserve">
<style type="text/css">
	.st0{fill:#323232;}
</style>
<path class="st0" d="M19,7.1h-2.2V3.4c0-0.6-0.3-1-0.7-1.4c-0.5-0.3-1.1-0.4-1.6-0.2L4,5.7C3.2,6,2.6,6.7,2.4,7.5
	C2.3,7.6,2.2,7.8,2.2,7.9c0,0,0,0.1,0,0.1c0,0.1,0,0.2,0,0.3V19c0,1.5,1.2,2.8,2.8,2.8h14c1.5,0,2.8-1.2,2.8-2.8V9.9
	C21.8,8.4,20.5,7.1,19,7.1z M4.6,7.1l10.4-3.9c0.1,0,0.2,0,0.2,0c0.1,0,0.1,0.1,0.1,0.2v3.8H4.5C4.5,7.1,4.5,7.1,4.6,7.1z M20.2,19
	c0,0.7-0.6,1.2-1.2,1.2H5c-0.7,0-1.2-0.6-1.2-1.2V8.6H19c0.7,0,1.2,0.6,1.2,1.2V19z M17.1,14.5c0,0.6-0.5,1.1-1.1,1.1
	c-0.3,0-0.6-0.1-0.8-0.3s-0.3-0.5-0.3-0.8c0-0.6,0.5-1.1,1.1-1.1S17.1,13.9,17.1,14.5z"/>
</svg>
