<svg id="Layer_1" data-name="Layer 1" xmlns="http://www.w3.org/2000/svg" viewBox="0 0 20 20"><defs><style>.cls-1{fill:#22313f;}</style></defs><path class="cls-1" d="M12.8105,13.1378a.7478.7478,0,0,1-.39-.1094L9.374,11.171a.7521.7521,0,0,1-.3594-.6406V6.6544a.75.75,0,0,1,1.5,0V10.11l2.6875,1.6377a.75.75,0,0,1-.3916,1.3906Z"/><path class="cls-1" d="M10.0019,18.25H10a.75.75,0,0,1,0-1.5h.0019a6.75,6.75,0,1,0-6.708-7.5.75.75,0,1,1-1.49-.166,8.25,8.25,0,1,1,8.1982,9.166Z"/><path class="cls-1" d="M6.333,17.9171h-3.5A1.9188,1.9188,0,0,1,.917,16v-2.333A1.9187,1.9187,0,0,1,2.833,11.75h3.5a1.92,1.92,0,0,1,1.917,1.917V16A1.92,1.92,0,0,1,6.333,17.9171Zm-3.5-4.667a.4172.4172,0,0,0-.416.417V16a.4172.4172,0,0,0,.416.417h3.5A.418.418,0,0,0,6.75,16v-2.333a.418.418,0,0,0-.417-.417Z"/><path class="cls-1" d="M7.5,15.4171H1.667a.75.75,0,0,1,0-1.5H7.5a.75.75,0,0,1,0,1.5Z"/></svg>