<svg id="Layer_1" data-name="Layer 1" xmlns="http://www.w3.org/2000/svg" viewBox="0 0 20 20"><defs><style>.cls-1{fill:#22313f;}</style></defs><path class="cls-1" d="M9.1868,10.8633V7.96a.82.82,0,0,1,.8271-.8277.776.776,0,0,1,.8281.8277v2.9038a.8721.8721,0,0,1-.8281.8281A.82.82,0,0,1,9.1868,10.8633Zm.8271,1.291a1.0061,1.0061,0,0,0-.9844.9844.9849.9849,0,1,0,.9844-.9844Zm8.3408,4.4482a2.7747,2.7747,0,0,1-2.2978,1.2881H3.9719A2.7655,2.7655,0,0,1,1.6868,16.625a2.456,2.456,0,0,1-.0059-2.6465L7.7219,3.4653a2.6159,2.6159,0,0,1,4.583-.0034l6.045,10.52A2.6234,2.6234,0,0,1,18.3547,16.6025Zm-1.371-1.87L10.9387,4.2139a1.0758,1.0758,0,0,0-1.8525.0034L3.1253,14.7285a1.0093,1.0093,0,0,0-.002,1.0547,1.0481,1.0481,0,0,0,.9268.53H16.0569a1.0481,1.0481,0,0,0,.9268-.53A1.0072,1.0072,0,0,0,16.9837,14.7324Z"/></svg>