<svg id="Layer_1" data-name="Layer 1" xmlns="http://www.w3.org/2000/svg" viewBox="0 0 20 20"><defs><style>.cls-1{fill:#22313f;}</style></defs><path class="cls-1" d="M14.1665,18.25H5.8335A4.0884,4.0884,0,0,1,1.75,14.1668V5.8338A4.0885,4.0885,0,0,1,5.8335,1.75h8.333A4.0884,4.0884,0,0,1,18.25,5.8338v8.333A4.0883,4.0883,0,0,1,14.1665,18.25Zm-8.333-15A2.5869,2.5869,0,0,0,3.25,5.8338v8.333A2.5867,2.5867,0,0,0,5.8335,16.75h8.333a2.5866,2.5866,0,0,0,2.5831-2.583V5.8338A2.5868,2.5868,0,0,0,14.1665,3.25Z"/><path class="cls-1" d="M10,14.0838a.75.75,0,0,1-.53-1.28l3.8222-3.8223a2.4737,2.4737,0,0,1,3.417,0L18.03,10.3035a.75.75,0,0,1-1.0605,1.0605L15.648,10.0418a.9171.9171,0,0,0-1.2959,0L10.53,13.864A.7468.7468,0,0,1,10,14.0838Z"/><path class="cls-1" d="M6.25,8.25a2,2,0,1,1,2-2A2.0026,2.0026,0,0,1,6.25,8.25Zm0-2.5a.5.5,0,1,0,.5.5A.501.501,0,0,0,6.25,5.75Z"/><path class="cls-1" d="M14.023,18.1092a.7468.7468,0,0,1-.53-.22L8.146,12.5418a.92.92,0,0,0-1.2968,0L3.3247,16.0672a.75.75,0,0,1-1.06-1.0606l3.5244-3.5254a2.4213,2.4213,0,0,1,3.418,0l5.3467,5.3477a.75.75,0,0,1-.53,1.28Z"/></svg>