<?xml version="1.0" encoding="utf-8"?>
<!-- Generator: Adobe Illustrator 24.2.0, SVG Export Plug-In . SVG Version: 6.00 Build 0)  -->
<svg version="1.1" id="Layer_1" xmlns="http://www.w3.org/2000/svg" xmlns:xlink="http://www.w3.org/1999/xlink" x="0px" y="0px"
	 viewBox="0 0 24 24" style="enable-background:new 0 0 24 24;" xml:space="preserve">
<style type="text/css">
	.st0{fill:#22313F;}
</style>
<path class="st0" d="M18.5,9.3c-0.4-0.8-0.9-1.6-1.5-2.3s-1.4-1.2-2.3-1.5C13.8,5.2,12.9,5,12,5c-1.4,0-2.7,0.4-3.9,1.2
	C7,6.9,6.1,8,5.5,9.3c-0.5,1.3-0.7,2.7-0.4,4c0.3,1.4,0.9,2.6,1.9,3.6c1,1,2.2,1.6,3.6,1.9c1.4,0.3,2.8,0.1,4-0.4
	c1.3-0.5,2.4-1.4,3.1-2.6c0.8-1.2,1.2-2.5,1.2-3.9C19,11.1,18.8,10.2,18.5,9.3z M15,14.7c0,0.1-0.1,0.1-0.1,0.2
	c-0.1,0.1-0.1,0.1-0.2,0.1c-0.1,0-0.1,0-0.2,0s-0.2,0-0.2,0c-0.1,0-0.1-0.1-0.2-0.1l-2-2l-2,2C9.9,14.9,9.7,15,9.6,15
	c-0.1,0-0.3-0.1-0.4-0.2C9.1,14.7,9,14.6,9,14.4c0-0.1,0.1-0.3,0.2-0.4l2-2l-2-2C9.1,9.9,9,9.7,9,9.6c0-0.1,0.1-0.3,0.2-0.4
	C9.3,9.1,9.4,9,9.6,9C9.7,9,9.9,9.1,10,9.2l2,2l2-2C14.2,9.1,14.3,9,14.4,9c0.1,0,0.3,0.1,0.4,0.2C14.9,9.3,15,9.4,15,9.6
	c0,0.1-0.1,0.3-0.2,0.4l-2,2l2,2c0.1,0.1,0.1,0.1,0.1,0.2c0,0.1,0,0.1,0,0.2S15,14.6,15,14.7z"/>
</svg>
