<svg width="20" height="20" viewBox="0 0 20 20" fill="none" xmlns="http://www.w3.org/2000/svg">
<path d="M18.1917 9.4552C18.1541 9.54545 18.0993 9.62752 18.0303 9.6968L16.3633 11.3643C16.2937 11.4339 16.211 11.4892 16.1199 11.5269C16.0289 11.5645 15.9314 11.5839 15.8329 11.5839C15.7343 11.5839 15.6368 11.5644 15.5458 11.5267C15.4548 11.489 15.3721 11.4337 15.3025 11.364C15.2328 11.2944 15.1776 11.2117 15.1399 11.1207C15.1023 11.0296 15.0829 10.9321 15.0829 10.8336C15.0829 10.7351 15.1023 10.6375 15.1401 10.5465C15.1778 10.4555 15.2331 10.3728 15.3027 10.3032L15.6895 9.9165H12.5C12.3011 9.9165 12.1104 9.83748 11.9697 9.69683C11.8291 9.55618 11.75 9.36541 11.75 9.1665C11.75 8.96759 11.8291 8.77682 11.9697 8.63617C12.1104 8.49552 12.3011 8.4165 12.5 8.4165H15.6891L15.3027 8.03C15.2301 7.96104 15.1721 7.87824 15.132 7.78648C15.0919 7.69472 15.0706 7.59587 15.0693 7.49574C15.068 7.39561 15.0868 7.29624 15.1245 7.20349C15.1623 7.11074 15.2182 7.02648 15.289 6.9557C15.3599 6.88491 15.4442 6.82902 15.5369 6.79133C15.6297 6.75364 15.7291 6.73491 15.8292 6.73624C15.9293 6.73758 16.0282 6.75895 16.1199 6.79909C16.2116 6.83924 16.2944 6.89735 16.3633 6.97L18.03 8.6362C18.1353 8.74121 18.2069 8.87521 18.2356 9.02109C18.2644 9.16697 18.249 9.31811 18.1914 9.4552H18.1917ZM14.917 13.333V14.167C14.9162 14.8077 14.6612 15.4219 14.2081 15.8748C13.755 16.3277 13.1407 16.5824 12.5 16.583H9.86093C9.80341 16.9364 9.66642 17.2721 9.46029 17.5648C9.25415 17.8576 8.98425 18.0997 8.67094 18.273C8.29455 18.4853 7.86756 18.5914 7.43558 18.5799C7.0036 18.5683 6.58287 18.4397 6.21833 18.2076L2.88573 16.125C2.53724 15.9089 2.24989 15.6071 2.05109 15.2485C1.85228 14.8898 1.74864 14.4863 1.75003 14.0762V4.1689C1.74664 3.5379 1.99246 2.93107 2.43405 2.48032C2.87564 2.02958 3.4773 1.77136 4.10823 1.7618C4.12823 1.7601 4.14583 1.75 4.16653 1.75H4.21653C4.22413 1.75 4.23153 1.75 4.23903 1.75H12.5C13.1408 1.75061 13.7551 2.00538 14.2083 2.45842C14.6614 2.91145 14.9163 3.52575 14.917 4.1665V5C14.917 5.19891 14.838 5.38968 14.6974 5.53033C14.5567 5.67098 14.3659 5.75 14.167 5.75C13.9681 5.75 13.7774 5.67098 13.6367 5.53033C13.4961 5.38968 13.417 5.19891 13.417 5V4.1665C13.4167 3.92343 13.32 3.69041 13.1481 3.51858C12.9762 3.34675 12.7431 3.25016 12.5 3.25H7.25583L8.78083 4.2031C9.12935 4.41931 9.4167 4.72115 9.6155 5.07988C9.81431 5.43861 9.91794 5.84227 9.91653 6.2524V15.083H12.5C12.743 15.0829 12.976 14.9864 13.148 14.8146C13.3199 14.6429 13.4166 14.41 13.417 14.167V13.333C13.417 13.1341 13.4961 12.9433 13.6367 12.8027C13.7774 12.662 13.9681 12.583 14.167 12.583C14.3659 12.583 14.5567 12.662 14.6974 12.8027C14.838 12.9433 14.917 13.1341 14.917 13.333V13.333ZM8.41653 6.2524C8.41722 6.09696 8.37806 5.94395 8.30278 5.80796C8.2275 5.67197 8.11862 5.55754 7.98653 5.4756L4.65233 3.3921C4.51363 3.3054 4.35425 3.25739 4.19073 3.25307C4.02721 3.24876 3.86552 3.28828 3.72243 3.36754C3.57934 3.44681 3.46007 3.56292 3.37701 3.70383C3.29394 3.84475 3.2501 4.00532 3.25003 4.1689V14.0762C3.24957 14.2317 3.28889 14.3848 3.36428 14.5209C3.43967 14.6569 3.54861 14.7714 3.68073 14.8535L7.01424 16.9365C7.15292 17.0232 7.31227 17.0712 7.47577 17.0755C7.63926 17.0799 7.80093 17.0404 7.94401 16.9611C8.08709 16.8819 8.20636 16.7658 8.28945 16.625C8.37254 16.4841 8.41642 16.3235 8.41653 16.16V6.2524Z" fill="#22313F"/>
</svg>
