<svg id="Layer_1" data-name="Layer 1" xmlns="http://www.w3.org/2000/svg" viewBox="0 0 20 20"><defs><style>.cls-1{fill:#22313f;}</style></defs><path class="cls-1" d="M10,16.5832c-3.3887,0-6.4913-2.9317-8.0625-5.8379h0a1.5652,1.5652,0,0,1,0-1.4912C3.51,6.3478,6.6126,3.4171,10,3.4171c3.39,0,6.4912,2.9317,8.0615,5.837a1.5675,1.5675,0,0,1,0,1.4921C16.4915,13.6515,13.39,16.5832,10,16.5832ZM3.2581,10.0324C4.8655,13.006,7.6379,15.0832,10,15.0832s5.1347-2.0762,6.7412-5.05C15.135,6.9933,12.3626,4.9171,10,4.9171S4.8665,6.9933,3.2571,9.966Z"/><path class="cls-1" d="M10,13.214A3.2137,3.2137,0,0,1,7.7278,7.7277a3.2893,3.2893,0,0,1,4.5449,0h0A3.2139,3.2139,0,0,1,10,13.214Zm0-5a1.7857,1.7857,0,0,0-1.2627,3.0488,1.83,1.83,0,0,0,2.5253,0,1.7845,1.7845,0,0,0,0-2.5253h0A1.7771,1.7771,0,0,0,10,8.214Z"/></svg>