<svg id="Layer_1" data-name="Layer 1" xmlns="http://www.w3.org/2000/svg" viewBox="0 0 20 20"><defs><style>.cls-1{fill:#22313f;}</style></defs><path class="cls-1" d="M15.7451,6.1853H13.94V3.1486A1.5676,1.5676,0,0,0,13.365,2a1.5092,1.5092,0,0,0-1.3132-.1641L3.4342,5.0362A2.0633,2.0633,0,0,0,1.9568,6.8419v9.11A2.294,2.294,0,0,0,4.2549,18.25h11.49a2.2941,2.2941,0,0,0,2.2981-2.298V8.4833A2.3486,2.3486,0,0,0,15.7451,6.1853Zm-11.8185,0,8.5356-3.2009h.1641c.0821,0,.0821.0821.0821.1642V6.2673H3.8445C3.8445,6.1853,3.8445,6.1853,3.9266,6.1853ZM16.73,15.952a.998.998,0,0,1-.9849.9848H4.2549A.998.998,0,0,1,3.27,15.952V7.4164H15.7451a.998.998,0,0,1,.9849.9848Zm-2.5443-3.6933a.9108.9108,0,0,1-.9028.9028.8472.8472,0,0,1-.9028-.9028.9028.9028,0,1,1,1.8056,0Z"/></svg>