<?xml version="1.0" encoding="utf-8"?>
<!-- Generator: Adobe Illustrator 24.2.0, SVG Export Plug-In . SVG Version: 6.00 Build 0)  -->
<svg version="1.1" id="Layer_1" xmlns="http://www.w3.org/2000/svg" xmlns:xlink="http://www.w3.org/1999/xlink" x="0px" y="0px"
	 viewBox="0 0 24 24" style="enable-background:new 0 0 24 24;" xml:space="preserve">
<style type="text/css">
	.st0{fill:#323232;}
</style>
<path class="st0" d="M10.5,16c0,0.5-0.5,0.9-1,0.9S8.6,16.5,8.6,16c0-0.2,0.1-0.5,0.3-0.6c0.2-0.2,0.4-0.3,0.7-0.3
	C10.1,15.1,10.5,15.5,10.5,16z M21.8,10v9c0,1.5-1.2,2.8-2.8,2.8h-4.1c-1.3,0-2.3-0.8-2.6-2H5c-1.5,0-2.8-1.2-2.8-2.8V5
	c0-1.5,1.2-2.8,2.8-2.8h9c1.5,0,2.8,1.2,2.8,2.8v2.2H19C20.5,7.2,21.8,8.5,21.8,10z M14.9,7.2h0.3V5c0-0.7-0.6-1.2-1.2-1.2H5
	C4.3,3.8,3.8,4.3,3.8,5v12c0,0.7,0.6,1.2,1.2,1.2h7.1V10C12.1,8.5,13.4,7.2,14.9,7.2z M20.2,10c0-0.7-0.6-1.2-1.2-1.2h-4.1
	c-0.7,0-1.2,0.6-1.2,1.2v9c0,0.7,0.6,1.2,1.2,1.2H19c0.7,0,1.2-0.6,1.2-1.2V10z M17.9,18h-1.8c-0.4,0-0.8,0.3-0.8,0.8
	s0.3,0.8,0.8,0.8h1.8c0.4,0,0.8-0.3,0.8-0.8S18.3,18,17.9,18z"/>
</svg>
