<svg xmlns="http://www.w3.org/2000/svg" width="20" height="20" fill="none" viewBox="0 0 20 20">
  <path fill="#22313F" fill-rule="evenodd" d="M3.43 3.93c.195-.195.46-.305.737-.305h3.958v5h-5V4.667c0-.277.11-.542.305-.737zm.737-1.555h9.166a2.292 2.292 0 012.292 2.292V9.25c0 .345-.28.625-.625.625H9.375V15.5c0 .345-.28.625-.625.625H4.167a2.292 2.292 0 01-2.292-2.292V4.667a2.292 2.292 0 012.292-2.292zm5.208 6.25v-5h3.958a1.042 1.042 0 011.042 1.042v3.958h-5zm-6.25 1.25h5v5H4.167a1.041 1.041 0 01-1.042-1.042V9.875zm13.053 1.667c-.386 0-.757.153-1.03.427l-2.846 2.845a1.459 1.459 0 00-.427 1.031V18c0 .345.28.625.625.625h2.155c.387 0 .758-.154 1.031-.427l2.845-2.845a1.458 1.458 0 000-2.062l-1.322-1.322a1.459 1.459 0 00-1.03-.427zm1.47 2.927l-2.846 2.845a.209.209 0 01-.147.061h-1.53v-1.53c0-.055.022-.108.061-.147l2.845-2.845a.208.208 0 01.295 0l1.321 1.321a.208.208 0 010 .295z" clip-rule="evenodd"/>
</svg>
