<svg id="Layer_1" data-name="Layer 1" xmlns="http://www.w3.org/2000/svg" viewBox="0 0 24 24"><defs><style>.cls-1{fill:#323232;}</style></defs><path class="cls-1" d="M18,6.25h-.4033V5.8467a3.7544,3.7544,0,0,0-3.75-3.75h-8a3.7541,3.7541,0,0,0-3.75,3.75v8a3.7544,3.7544,0,0,0,3.75,3.75H6.25V18A3.7544,3.7544,0,0,0,10,21.75h8A3.7547,3.7547,0,0,0,21.75,18V10A3.7544,3.7544,0,0,0,18,6.25ZM6.25,10v6.0967H5.8467a2.2528,2.2528,0,0,1-2.25-2.25v-8a2.2525,2.2525,0,0,1,2.25-2.25h8a2.2528,2.2528,0,0,1,2.25,2.25V6.25H10A3.7541,3.7541,0,0,0,6.25,10Zm14,8A2.2531,2.2531,0,0,1,18,20.25H10A2.2528,2.2528,0,0,1,7.75,18V10A2.2525,2.2525,0,0,1,10,7.75h8A2.2528,2.2528,0,0,1,20.25,10Z"/></svg>