<svg id="Layer_1" data-name="Layer 1" xmlns="http://www.w3.org/2000/svg" viewBox="0 0 20 20"><defs><style>.cls-1{fill:#22313f;}</style></defs><path class="cls-1" d="M13.1089,18.25h-6.25A2.62,2.62,0,0,1,4.25,15.6246V5a.75.75,0,0,1,1.5,0v10.625A1.1054,1.1054,0,0,0,6.8589,16.75h6.25a1.1343,1.1343,0,0,0,1.1406-1.125V5a.75.75,0,1,1,1.5,0v10.625A2.6359,2.6359,0,0,1,13.1089,18.25Z"/><path class="cls-1" d="M16.25,5.75H3.75a.75.75,0,0,1,0-1.5h12.5a.75.75,0,0,1,0,1.5Z"/><path class="cls-1" d="M11.6665,3.25H8.3335a.75.75,0,1,1,0-1.5h3.333a.75.75,0,0,1,0,1.5Z"/><path class="cls-1" d="M11.6665,14.9166a.75.75,0,0,1-.75-.75V8.3336a.75.75,0,1,1,1.5,0v5.833A.75.75,0,0,1,11.6665,14.9166Z"/><path class="cls-1" d="M8.3335,14.9166a.75.75,0,0,1-.75-.75V8.3336a.75.75,0,0,1,1.5,0v5.833A.75.75,0,0,1,8.3335,14.9166Z"/></svg>