<?xml version="1.0" encoding="utf-8"?>
<!-- Generator: Adobe Illustrator 24.2.0, SVG Export Plug-In . SVG Version: 6.00 Build 0)  -->
<svg version="1.1" id="Layer_1" xmlns="http://www.w3.org/2000/svg" xmlns:xlink="http://www.w3.org/1999/xlink" x="0px" y="0px"
	 viewBox="0 0 24 24" style="enable-background:new 0 0 24 24;" xml:space="preserve">
<style type="text/css">
	.st0{fill:#323232;}
</style>
<path class="st0" d="M8,12.8c2.3,0,4.2-1.9,4.2-4.2S10.3,4.3,8,4.3S3.8,6.2,3.8,8.5S5.7,12.8,8,12.8z M8,5.8c1.5,0,2.7,1.2,2.7,2.7
	S9.5,11.2,8,11.2S5.3,10,5.3,8.5S6.5,5.8,8,5.8z M17,12.8c1.8,0,3.2-1.5,3.2-3.2S18.8,6.2,17,6.2s-3.2,1.5-3.2,3.2
	S15.2,12.8,17,12.8z M17,7.8c1,0,1.8,0.8,1.8,1.8S18,11.2,17,11.2s-1.8-0.8-1.8-1.8S16,7.8,17,7.8z M14.8,19v1
	c0,0.4-0.3,0.8-0.8,0.8s-0.8-0.3-0.8-0.8v-1c0-1.8-1.5-3.2-3.2-3.2H6c-1.8,0-3.2,1.5-3.2,3.2v1c0,0.4-0.3,0.8-0.8,0.8
	S1.2,20.4,1.2,20v-1c0-2.6,2.1-4.7,4.7-4.7h4C12.6,14.2,14.8,16.4,14.8,19z M22.8,19v1c0,0.4-0.3,0.8-0.8,0.8s-0.8-0.3-0.8-0.8v-1
	c0-1.8-1.5-3.2-3.2-3.2H17c-0.4,0-0.8-0.3-0.8-0.8s0.3-0.8,0.8-0.8h1.1C20.7,14.2,22.8,16.4,22.8,19z"/>
</svg>
