<?xml version="1.0" encoding="utf-8"?>
<!-- Generator: Adobe Illustrator 24.2.0, SVG Export Plug-In . SVG Version: 6.00 Build 0)  -->
<svg version="1.1" id="sticker_1_" xmlns="http://www.w3.org/2000/svg" xmlns:xlink="http://www.w3.org/1999/xlink" x="0px" y="0px"
	 viewBox="0 0 24 24" style="enable-background:new 0 0 24 24;" xml:space="preserve">
<style type="text/css">
	.st0{fill:#22313F;}
</style>
<path id="sticker" class="st0" d="M14.8,2.2H9.2c-3.7,0-6.8,3-6.8,6.8v6c0,3.7,3,6.8,6.8,6.8h5.7c1.8,0,3.5-0.7,4.8-2
	c1.3-1.3,2-3,2-4.8V9C21.6,5.3,18.5,2.2,14.8,2.2z M20.1,15c0,1.4-0.5,2.7-1.5,3.7c-1,1-2.3,1.5-3.7,1.5H9.2c-2.9,0-5.2-2.4-5.2-5.2
	V9c0-2.9,2.4-5.2,5.2-5.2h5.7c2.9,0,5.2,2.4,5.2,5.2V15z M9.2,10.5v-1c0-0.4,0.3-0.8,0.8-0.8s0.8,0.3,0.8,0.8v1
	c0,0.4-0.3,0.8-0.8,0.8S9.2,10.9,9.2,10.5z M13.2,10.5v-1c0-0.4,0.3-0.8,0.8-0.8s0.8,0.3,0.8,0.8v1c0,0.4-0.3,0.8-0.8,0.8
	S13.2,10.9,13.2,10.5z M16,13.7c0.3,0.3,0.3,0.8,0,1.1c-0.1,0.1-1.6,1.5-4,1.5c-2.5,0-4-1.5-4-1.5c-0.3-0.3-0.3-0.8,0-1.1
	s0.8-0.3,1.1,0c0,0,1.1,1.1,3,1.1c1.8,0,2.9-1.1,3-1.1C15.3,13.4,15.7,13.4,16,13.7z"/>
</svg>
