<svg id="Layer_1" data-name="Layer 1" xmlns="http://www.w3.org/2000/svg" viewBox="0 0 20 20"><defs><style>.cls-1{fill:#22313f;}</style></defs><path class="cls-1" d="M16.25,6.5832a.75.75,0,0,1-.75-.75V2.5a.75.75,0,1,1,1.5,0v3.333A.75.75,0,0,1,16.25,6.5832Z"/><path class="cls-1" d="M17.9165,4.9162h-3.333a.75.75,0,0,1,0-1.5h3.333a.75.75,0,0,1,0,1.5Z"/><path class="cls-1" d="M13.25,18.25H5.0835a3.7547,3.7547,0,0,1-3.75-3.75V7.1662a3.7547,3.7547,0,0,1,3.75-3.75H11.25a.75.75,0,0,1,0,1.5H5.0835a2.2531,2.2531,0,0,0-2.25,2.25V14.5a2.2531,2.2531,0,0,0,2.25,2.25H13.25A2.2531,2.2531,0,0,0,15.5,14.5V9.1662a.75.75,0,0,1,1.5,0V14.5A3.7547,3.7547,0,0,1,13.25,18.25Z"/><path class="cls-1" d="M12.3374,14.0832H6.0942a1.5829,1.5829,0,0,1-1.34-2.4268L6.0073,9.6681A1.5841,1.5841,0,0,1,8.5005,9.426l.1406.1494.47-.9981a1.5752,1.5752,0,0,1,1.379-.9082,1.5441,1.5441,0,0,1,1.4394.8164l1.7949,3.249a1.5836,1.5836,0,0,1-1.3867,2.3487ZM6.0239,12.4553v.0009a.0746.0746,0,0,0-.0029.084l6.3164.043L10.6167,9.2111l-.1484.0049-.9395,1.9961a.7466.7466,0,0,1-.5615.4209.7355.7355,0,0,1-.6631-.2266l-.8955-.9521Zm-.6347-.3995h0Z"/></svg>