<?xml version="1.0" encoding="utf-8"?>
<!-- Generator: Adobe Illustrator 24.2.0, SVG Export Plug-In . SVG Version: 6.00 Build 0)  -->
<svg version="1.1" id="Layer_1" xmlns="http://www.w3.org/2000/svg" xmlns:xlink="http://www.w3.org/1999/xlink" x="0px" y="0px"
	 viewBox="0 0 24 24" style="enable-background:new 0 0 24 24;" xml:space="preserve">
<style type="text/css">
	.st0{fill:#323232;}
</style>
<path class="st0" d="M12.5,8v4.2l3.3,2c0.4,0.2,0.5,0.7,0.2,1c-0.1,0.2-0.4,0.4-0.6,0.4c-0.1,0-0.3,0-0.4-0.1l-3.7-2.2
	c-0.2-0.1-0.4-0.4-0.4-0.6V8c0-0.4,0.3-0.8,0.8-0.8S12.5,7.6,12.5,8z M19.6,5.9c-1.6-2-3.9-3.3-6.5-3.6C10.5,2,8,2.8,5.9,4.4
	c-2,1.6-3.3,3.9-3.6,6.5c0,0.4,0.2,0.8,0.7,0.8c0.4,0,0.8-0.2,0.8-0.7c0.2-2.2,1.3-4.2,3-5.5c1.7-1.4,3.9-2,6.1-1.8
	c2.2,0.2,4.2,1.3,5.5,3c1.4,1.7,2,3.9,1.8,6.1c-0.5,4.2-4,7.3-8.2,7.3c0,0,0,0,0,0c-0.4,0-0.8,0.3-0.8,0.8c0,0.4,0.3,0.7,0.8,0.8
	c5,0,9.1-3.7,9.7-8.7C22,10.5,21.2,7.9,19.6,5.9z M9.8,16.4v2.8c0,1.2-1,2.1-2.1,2.1H3.4c-1.2,0-2.1-1-2.1-2.1v-2.8
	c0-1.2,1-2.2,2.1-2.2h4.2C8.8,14.2,9.8,15.2,9.8,16.4z M8.2,18.3H2.8v0.9c0,0.4,0.3,0.6,0.6,0.6h4.2c0.4,0,0.6-0.3,0.6-0.6V18.3z
	 M8.2,16.4c0-0.4-0.3-0.7-0.6-0.7H3.4c-0.4,0-0.6,0.3-0.6,0.7v0.4h5.5V16.4z"/>
</svg>
