<svg id="Layer_1" data-name="Layer 1" xmlns="http://www.w3.org/2000/svg" viewBox="0 0 20 20"><defs><style>.cls-1{fill:#22313f;}</style></defs><path class="cls-1" d="M6.25,9.9162a.7471.7471,0,0,1-.53-.22l-2.5-2.5a.75.75,0,0,1,0-1.0606l2.5-2.5A.75.75,0,0,1,6.78,4.6965l-1.97,1.97,1.97,1.97a.75.75,0,0,1-.53,1.28Z"/><path class="cls-1" d="M11.25,16.5832H4.5835a.75.75,0,0,1,0-1.5H11.25A4.0623,4.0623,0,0,0,15.5,11.25a4.0624,4.0624,0,0,0-4.25-3.834H3.75a.75.75,0,0,1,0-1.5h7.5A5.56,5.56,0,0,1,17,11.25,5.56,5.56,0,0,1,11.25,16.5832Z"/></svg>