<svg id="Layer_1" data-name="Layer 1" xmlns="http://www.w3.org/2000/svg" viewBox="0 0 20 20"><defs><style>.cls-1{fill:#22313f;}</style></defs><path class="cls-1" d="M14.6171,9.1834a.7468.7468,0,0,1-.53-.22l-3.0508-3.05a.75.75,0,1,1,1.0605-1.0605l3.0508,3.05a.75.75,0,0,1-.53,1.28Z"/><path class="cls-1" d="M5.2089,18.25H2.5a.75.75,0,0,1-.75-.75v-2.709A1.5913,1.5913,0,0,1,2.2158,13.67l11.1094-11.11a1.5724,1.5724,0,0,1,1.12-.4638h.0009a1.57,1.57,0,0,1,1.1192.4648l1.875,1.874a1.5831,1.5831,0,0,1-.001,2.24L6.3291,17.7859A1.59,1.59,0,0,1,5.2089,18.25Zm-1.9521-1.5H5.2089a.0848.0848,0,0,0,.0577-.0225L16.38,5.6131V5.4949L14.5039,3.62h-.1182L3.2744,14.7322Z"/></svg>