<svg id="Layer_1" data-name="Layer 1" xmlns="http://www.w3.org/2000/svg" viewBox="0 0 20 20"><defs><style>.cls-1{fill:#22313f;}</style></defs><path class="cls-1" d="M10,14.0837a.75.75,0,0,1-.75-.75V6.6667a.75.75,0,1,1,1.5,0v6.667A.75.75,0,0,1,10,14.0837Z"/><path class="cls-1" d="M12.5,9.9167a.7468.7468,0,0,1-.53-.22L10,7.7272l-1.97,1.97A.75.75,0,1,1,6.97,8.6364l2.5-2.5a.75.75,0,0,1,1.0606,0l2.5,2.5a.75.75,0,0,1-.53,1.28Z"/><path class="cls-1" d="M9.94,18.25a.75.75,0,1,1,0-1.5,6.75,6.75,0,1,0,0-13.5.75.75,0,0,1,0-1.5,8.25,8.25,0,1,1,0,16.5Z"/><path class="cls-1" d="M7.3774,17.7907a.7563.7563,0,0,1-.2553-.0449A8.2311,8.2311,0,0,1,4.64,16.319a.75.75,0,1,1,.962-1.15,6.7514,6.7514,0,0,0,2.0312,1.167.75.75,0,0,1-.2554,1.4551Z"/><path class="cls-1" d="M5.1211,5.0065a.75.75,0,0,1-.4819-1.3252A8.1736,8.1736,0,0,1,7.1226,2.2546a.75.75,0,1,1,.51,1.41,6.7066,6.7066,0,0,0-2.03,1.167A.7491.7491,0,0,1,5.1211,5.0065Z"/><path class="cls-1" d="M2.561,9.4479a.8406.8406,0,0,1-.13-.0107.75.75,0,0,1-.61-.8682A8.1821,8.1821,0,0,1,2.8,5.8747a.75.75,0,0,1,1.2988.75,6.6974,6.6974,0,0,0-.8,2.2021A.75.75,0,0,1,2.561,9.4479Z"/><path class="cls-1" d="M3.45,14.5a.7487.7487,0,0,1-.65-.375,8.1728,8.1728,0,0,1-.9785-2.6953.75.75,0,1,1,1.4775-.2579,6.6869,6.6869,0,0,0,.8,2.2032A.75.75,0,0,1,3.45,14.5Z"/></svg>