<svg id="Layer_1" data-name="Layer 1" xmlns="http://www.w3.org/2000/svg" viewBox="0 0 20 20"><defs><style>.cls-1{fill:#22313f;}</style></defs><path class="cls-1" d="M9.3584,15.5763a6.3117,6.3117,0,1,1,4.4628-1.8486A6.27,6.27,0,0,1,9.3584,15.5763Zm0-11.12a4.8091,4.8091,0,1,0,3.4023,1.4072A4.7994,4.7994,0,0,0,9.3584,4.4562Z"/><path class="cls-1" d="M16.2031,16.86a.7467.7467,0,0,1-.53-.22l-2.916-2.915a.75.75,0,0,1,1.06-1.0606l2.9161,2.915a.75.75,0,0,1-.53,1.28Z"/><path class="cls-1" d="M9.4375,12.57a.75.75,0,0,1-.75-.75V6.7755a.75.75,0,0,1,1.5,0V11.82A.75.75,0,0,1,9.4375,12.57Z"/><path class="cls-1" d="M11.8007,10.047H7.0732a.75.75,0,0,1,0-1.5h4.7275a.75.75,0,1,1,0,1.5Z"/></svg>