<svg width="24" height="24" viewBox="0 0 24 24" fill="none" xmlns="http://www.w3.org/2000/svg">
<path fill-rule="evenodd" clip-rule="evenodd" d="M4.25 11.75C4.25 11.3358 4.58579 11 5 11H19C19.4142 11 19.75 11.3358 19.75 11.75C19.75 12.1642 19.4142 12.5 19 12.5H5C4.58579 12.5 4.25 12.1642 4.25 11.75Z" fill="#22313F"/>
<path fill-rule="evenodd" clip-rule="evenodd" d="M11.0303 5.71967C11.3232 6.01256 11.3232 6.48744 11.0303 6.78033L5.53033 12.2803C5.23744 12.5732 4.76256 12.5732 4.46967 12.2803C4.17678 11.9874 4.17678 11.5126 4.46967 11.2197L9.96967 5.71967C10.2626 5.42678 10.7374 5.42678 11.0303 5.71967Z" fill="#22313F"/>
<path fill-rule="evenodd" clip-rule="evenodd" d="M4.46967 11.2197C4.76256 10.9268 5.23744 10.9268 5.53033 11.2197L11.5303 17.2197C11.8232 17.5126 11.8232 17.9874 11.5303 18.2803C11.2374 18.5732 10.7626 18.5732 10.4697 18.2803L4.46967 12.2803C4.17678 11.9874 4.17678 11.5126 4.46967 11.2197Z" fill="#22313F"/>
</svg>
