<svg id="Layer_1" data-name="Layer 1" xmlns="http://www.w3.org/2000/svg" viewBox="0 0 20 20"><defs><style>.cls-1{fill:#22313f;}</style></defs><path class="cls-1" d="M9.92,14.9473H9.9146l-4.0869-.03a.75.75,0,0,1-.7442-.7559.74.74,0,0,1,.7559-.7441l4.0869.03a.75.75,0,0,1-.0059,1.5Z"/><path class="cls-1" d="M14.1665,11.584H10a.75.75,0,0,1,0-1.5h4.167a.75.75,0,0,1,0,1.5Z"/><path class="cls-1" d="M17.5,8.25H2.5a.75.75,0,1,1,0-1.5h15a.75.75,0,0,1,0,1.5Z"/><path class="cls-1" d="M6.6665,5.3335a.75.75,0,0,1-.75-.75v-2.5a.75.75,0,0,1,1.5,0v2.5A.75.75,0,0,1,6.6665,5.3335Z"/><path class="cls-1" d="M13.3335,5.3335a.75.75,0,0,1-.75-.75v-2.5a.75.75,0,0,1,1.5,0v2.5A.75.75,0,0,1,13.3335,5.3335Z"/><path class="cls-1" d="M15,18.25H5A3.2538,3.2538,0,0,1,1.75,15V5.8335A3.2538,3.2538,0,0,1,5,2.5835H15a3.2538,3.2538,0,0,1,3.25,3.25V15A3.2538,3.2538,0,0,1,15,18.25ZM5,4.0835a1.7522,1.7522,0,0,0-1.75,1.75V15A1.7522,1.7522,0,0,0,5,16.75H15A1.7521,1.7521,0,0,0,16.75,15V5.8335A1.7521,1.7521,0,0,0,15,4.0835Z"/></svg>