<?xml version="1.0" encoding="utf-8"?>
<!-- Generator: Adobe Illustrator 24.2.0, SVG Export Plug-In . SVG Version: 6.00 Build 0)  -->
<svg version="1.1" id="Layer_1" xmlns="http://www.w3.org/2000/svg" xmlns:xlink="http://www.w3.org/1999/xlink" x="0px" y="0px"
	 viewBox="0 0 24 24" style="enable-background:new 0 0 24 24;" xml:space="preserve">
<style type="text/css">
	.st0{fill:#323232;}
</style>
<path class="st0" d="M21,8.3c-2.1-5-7.8-7.3-12.7-5.3c-5,2.1-7.3,7.8-5.3,12.7c1.6,3.8,5.2,6,9,6c1.2,0,2.5-0.2,3.7-0.7
	C20.7,18.9,23.1,13.2,21,8.3z M15.2,19.6c-4.2,1.7-9-0.3-10.8-4.5C2.6,11,4.6,6.1,8.8,4.4c1-0.4,2.1-0.6,3.1-0.6
	c3.2,0,6.3,1.9,7.6,5.1C21.4,13,19.4,17.9,15.2,19.6z M16,15.3c-0.1,0.2-0.4,0.4-0.6,0.4c-0.1,0-0.3,0-0.4-0.1l-3.7-2.2
	c-0.2-0.1-0.4-0.4-0.4-0.6V8c0-0.4,0.3-0.8,0.8-0.8s0.8,0.3,0.8,0.8v4.2l3.3,2C16.1,14.4,16.2,14.9,16,15.3z"/>
</svg>
