<svg id="Layer_1" data-name="Layer 1" xmlns="http://www.w3.org/2000/svg" viewBox="0 0 20 20"><defs><style>.cls-1{fill:#22313f;}</style></defs><path class="cls-1" d="M16.2173,18.0568H3.7818A2.0351,2.0351,0,0,1,1.75,16.0246V6.2814A2.0342,2.0342,0,0,1,3.7818,4.25H5.8335a.75.75,0,0,1,0,1.5H3.7818a.5319.5319,0,0,0-.5322.5312v9.7432a.5322.5322,0,0,0,.5322.5322H16.2173a.5323.5323,0,0,0,.5323-.5322V6.2814a.5318.5318,0,0,0-.5313-.5312H14.1665a.75.75,0,0,1,0-1.5h2.0518A2.0335,2.0335,0,0,1,18.25,6.2814v9.7432A2.0352,2.0352,0,0,1,16.2173,18.0568Z"/><path class="cls-1" d="M10,11.5832a.7468.7468,0,0,1-.53-.22l-2.5-2.5A.75.75,0,1,1,8.03,7.8029L10,9.7726l1.97-1.97a.75.75,0,0,1,1.06,1.0605l-2.5,2.5A.7468.7468,0,0,1,10,11.5832Z"/><path class="cls-1" d="M10,11.5832a.75.75,0,0,1-.75-.75V2.5a.75.75,0,1,1,1.5,0v8.333A.75.75,0,0,1,10,11.5832Z"/><path class="cls-1" d="M13.3335,14.0832H6.6665a.75.75,0,0,1,0-1.5h6.667a.75.75,0,0,1,0,1.5Z"/></svg>