<svg width="21" height="21" viewBox="0 0 21 21" fill="none" xmlns="http://www.w3.org/2000/svg">
<path d="M17.2412 13.5888C17.2412 13.5888 15.6093 17.9613 13.4621 17.9613C12.4314 17.9613 11.6584 17.3013 10.6277 17.3013C9.51115 17.3013 8.48047 17.9613 7.79336 17.9613C5.8179 17.9613 3.24121 13.8363 3.24121 10.4538C3.24121 7.15375 5.38845 5.42125 7.36391 5.42125C8.65225 5.42125 9.68293 6.16375 10.37 6.16375C10.9713 6.16375 12.0019 5.42125 13.4621 5.42125C14.8363 5.33875 16.1246 5.99875 16.8118 7.07125C15.6093 7.73125 14.9222 8.88625 14.9222 10.2063C14.9222 11.6913 15.7811 13.0113 17.2412 13.5888ZM12.775 4.10125C13.4621 3.35875 13.7197 2.45125 13.6338 1.46125C12.5173 1.54375 11.5725 2.03875 10.9713 2.86375C10.37 3.52375 10.1124 4.34875 10.1983 5.25625C11.2289 5.33875 12.1737 4.84375 12.775 4.10125Z" fill="#22313F"/>
</svg>
