<?xml version="1.0" encoding="utf-8"?>
<!-- Generator: Adobe Illustrator 24.2.0, SVG Export Plug-In . SVG Version: 6.00 Build 0)  -->
<svg version="1.1" id="Layer_1" xmlns="http://www.w3.org/2000/svg" xmlns:xlink="http://www.w3.org/1999/xlink" x="0px" y="0px"
	 viewBox="0 0 24 24" style="enable-background:new 0 0 24 24;" xml:space="preserve">
<style type="text/css">
	.st0{fill:#323232;}
</style>
<path class="st0" d="M11.2,16V9.8l-1.7,1.7c-0.3,0.3-0.8,0.3-1.1,0s-0.3-0.8,0-1.1l3-3c0.1-0.1,0.2-0.1,0.2-0.2
	c0.2-0.1,0.4-0.1,0.6,0c0.1,0,0.2,0.1,0.2,0.2l3,3c0.3,0.3,0.3,0.8,0,1.1c-0.1,0.1-0.3,0.2-0.5,0.2s-0.4-0.1-0.5-0.2l-1.7-1.7V16
	c0,0.4-0.3,0.8-0.8,0.8S11.2,16.4,11.2,16z M11.9,2.2c-0.4,0-0.8,0.3-0.8,0.8s0.3,0.8,0.8,0.8c4.5,0,8.3,3.7,8.3,8.2
	s-3.7,8.2-8.3,8.2c-0.4,0-0.8,0.3-0.8,0.8s0.3,0.8,0.8,0.8c5.4,0,9.8-4.4,9.8-9.8S17.3,2.2,11.9,2.2z M9.2,19.7
	c-1-0.4-1.8-0.9-2.5-1.5C6.4,18,5.9,18,5.6,18.3c-0.3,0.3-0.2,0.8,0.1,1.1c0.8,0.7,1.8,1.3,2.9,1.7c0.1,0,0.2,0.1,0.3,0.1
	c0.3,0,0.6-0.2,0.7-0.5C9.8,20.3,9.6,19.9,9.2,19.7z M6.1,5.9c0.2,0,0.4-0.1,0.5-0.2c0.7-0.6,1.5-1.1,2.5-1.5c0.4-0.2,0.6-0.6,0.4-1
	c-0.2-0.4-0.6-0.6-1-0.4c-1.2,0.5-2.1,1-2.9,1.7C5.3,4.8,5.3,5.3,5.5,5.6C5.7,5.8,5.9,5.9,6.1,5.9z M3.6,7.1C3,7.9,2.6,8.9,2.4,10.3
	c-0.1,0.4,0.2,0.8,0.6,0.9c0,0,0.1,0,0.1,0c0.4,0,0.7-0.2,0.7-0.6c0.2-1.1,0.5-1.9,1-2.6c0.2-0.3,0.1-0.8-0.2-1
	C4.3,6.6,3.8,6.7,3.6,7.1z M3.8,13.5C3.8,13,3.4,12.8,3,12.9c-0.4,0.1-0.7,0.5-0.6,0.9c0.3,1.3,0.6,2.3,1.2,3.2
	c0.1,0.2,0.4,0.3,0.6,0.3c0.1,0,0.3,0,0.4-0.1c0.3-0.2,0.4-0.7,0.2-1C4.4,15.4,4.1,14.6,3.8,13.5z"/>
</svg>
