<svg id="Layer_1" data-name="Layer 1" xmlns="http://www.w3.org/2000/svg" viewBox="0 0 20 20"><defs><style>.cls-1{fill:#22313f;}</style></defs><path class="cls-1" d="M15.833,18.25H4.1665A2.4193,2.4193,0,0,1,1.75,15.8331V4.1671A2.4193,2.4193,0,0,1,4.1665,1.75H15.833a2.4194,2.4194,0,0,1,2.417,2.417v11.666A2.4194,2.4194,0,0,1,15.833,18.25ZM4.1665,3.25a.9176.9176,0,0,0-.9165.917v11.666a.9176.9176,0,0,0,.9165.917H15.833a.9177.9177,0,0,0,.917-.917V4.1671a.9177.9177,0,0,0-.917-.917Z"/><path class="cls-1" d="M15,13.25H5a.75.75,0,0,1-.75-.75V5A.75.75,0,0,1,5,4.25H15a.75.75,0,0,1,.75.75v7.5A.75.75,0,0,1,15,13.25Zm-9.25-1.5h8.5v-6H5.75Z"/><path class="cls-1" d="M10.8335,15.75H5a.75.75,0,0,1,0-1.5h5.8335a.75.75,0,0,1,0,1.5Z"/><path class="cls-1" d="M15,15.75H13.333a.75.75,0,0,1,0-1.5H15a.75.75,0,0,1,0,1.5Z"/></svg>