<?xml version="1.0" encoding="utf-8"?>
<!-- Generator: Adobe Illustrator 24.2.0, SVG Export Plug-In . SVG Version: 6.00 Build 0)  -->
<svg version="1.1" id="Layer_1" xmlns="http://www.w3.org/2000/svg" xmlns:xlink="http://www.w3.org/1999/xlink" x="0px" y="0px"
	 viewBox="0 0 24 24" style="enable-background:new 0 0 24 24;" xml:space="preserve">
<style type="text/css">
	.st0{fill:#323232;}
</style>
<path class="st0" d="M21.7,7.5v11.7c0,1.3-1,2.3-2.3,2.3H4.5c-1.3,0-2.3-1-2.3-2.3V7.5c0-1.3,1-2.3,2.3-2.3H7c0.4,0,0.8,0.3,0.8,0.8
	S7.4,6.8,7,6.8H4.5c-0.4,0-0.8,0.4-0.8,0.8v11.7c0,0.4,0.4,0.8,0.8,0.8h14.9c0.4,0,0.8-0.4,0.8-0.8V7.5c0-0.2-0.1-0.4-0.2-0.6
	c-0.1-0.1-0.3-0.2-0.6-0.2H17c-0.4,0-0.8-0.3-0.8-0.8s0.3-0.8,0.8-0.8h2.5c0.6,0,1.2,0.2,1.6,0.7S21.8,6.9,21.7,7.5z M11.5,13.5
	c0.1,0.1,0.2,0.1,0.2,0.2c0.1,0,0.2,0.1,0.3,0.1s0.2,0,0.3-0.1c0.1,0,0.2-0.1,0.2-0.2l3-3c0.3-0.3,0.3-0.8,0-1.1s-0.8-0.3-1.1,0
	l-1.7,1.7V3c0-0.4-0.3-0.8-0.8-0.8S11.2,2.6,11.2,3v8.2L9.5,9.5c-0.3-0.3-0.8-0.3-1.1,0s-0.3,0.8,0,1.1L11.5,13.5z M7.2,16
	c0,0.4,0.3,0.8,0.8,0.8h8c0.4,0,0.8-0.3,0.8-0.8s-0.3-0.8-0.8-0.8H8C7.6,15.2,7.2,15.6,7.2,16z"/>
</svg>
