<svg id="Layer_1" data-name="Layer 1" xmlns="http://www.w3.org/2000/svg" viewBox="0 0 20 20"><defs><style>.cls-1{fill:#22313f;}</style></defs><path class="cls-1" d="M10.7288,16.5838H4.1663a2.4191,2.4191,0,0,1-2.416-2.417v-10A2.4191,2.4191,0,0,1,4.1663,1.75h7.5a2.4194,2.4194,0,0,1,2.417,2.417.75.75,0,0,1-1.5,0,.9178.9178,0,0,0-.917-.917h-7.5a.9175.9175,0,0,0-.916.917v10a.9176.9176,0,0,0,.916.917h6.5625a.75.75,0,0,1,0,1.5Z"/><path class="cls-1" d="M13.3333,7.4168a.75.75,0,0,1-.75-.75v-2.5a.75.75,0,0,1,1.5,0v2.5A.75.75,0,0,1,13.3333,7.4168Z"/><path class="cls-1" d="M7.9163,14.2224a.8893.8893,0,0,1-.8887-.8886.875.875,0,0,1,.2559-.625.8892.8892,0,1,1,.6328,1.5136Z"/><path class="cls-1" d="M15.8333,18.25H12.3958a2.4192,2.4192,0,0,1-2.417-2.416v-7.5a2.4194,2.4194,0,0,1,2.417-2.417h3.4375a2.4194,2.4194,0,0,1,2.417,2.417v7.5A2.4192,2.4192,0,0,1,15.8333,18.25ZM12.3958,7.4168a.9177.9177,0,0,0-.917.917v7.5a.9176.9176,0,0,0,.917.916h3.4375a.9176.9176,0,0,0,.917-.916v-7.5a.9178.9178,0,0,0-.917-.917Z"/><path class="cls-1" d="M14.842,16.3748H13.3831a.75.75,0,1,1,0-1.5H14.842a.75.75,0,0,1,0,1.5Z"/></svg>