<svg width="24" height="24" viewBox="0 0 24 24" fill="none" xmlns="http://www.w3.org/2000/svg">
<path d="M12 2C10.0222 2 8.08879 2.58649 6.4443 3.6853C4.79981 4.78412 3.51809 6.3459 2.76121 8.17317C2.00433 10.0004 1.8063 12.0111 2.19215 13.9509C2.578 15.8907 3.53041 17.6725 4.92894 19.0711C6.32746 20.4696 8.10929 21.422 10.0491 21.8079C11.9889 22.1937 13.9996 21.9957 15.8268 21.2388C17.6541 20.4819 19.2159 19.2002 20.3147 17.5557C21.4135 15.9112 22 13.9778 22 12C22 10.6868 21.7413 9.38642 21.2388 8.17317C20.7363 6.95991 19.9997 5.85752 19.0711 4.92893C18.1425 4.00035 17.0401 3.26375 15.8268 2.7612C14.6136 2.25866 13.3132 2 12 2ZM11.25 8.3149C11.25 8.11599 11.329 7.92522 11.4697 7.78457C11.6103 7.64392 11.8011 7.5649 12 7.5649C12.1989 7.5649 12.3897 7.64392 12.5303 7.78457C12.671 7.92522 12.75 8.11599 12.75 8.3149V12.0556C12.75 12.2545 12.671 12.4453 12.5303 12.5859C12.3897 12.7266 12.1989 12.8056 12 12.8056C11.8011 12.8056 11.6103 12.7266 11.4697 12.5859C11.329 12.4453 11.25 12.2545 11.25 12.0556V8.3149ZM12 16.4349C11.8022 16.4349 11.6089 16.3763 11.4444 16.2664C11.28 16.1565 11.1518 16.0003 11.0761 15.8176C11.0004 15.6349 10.9806 15.4338 11.0192 15.2398C11.0578 15.0458 11.153 14.8676 11.2929 14.7278C11.4328 14.5879 11.6109 14.4927 11.8049 14.4541C11.9989 14.4155 12.2 14.4353 12.3827 14.511C12.5654 14.5867 12.7216 14.7149 12.8315 14.8793C12.9414 15.0438 13 15.2371 13 15.4349C13 15.5662 12.9742 15.6963 12.9239 15.8176C12.8737 15.939 12.8 16.0493 12.7072 16.1421C12.6143 16.235 12.5041 16.3087 12.3827 16.359C12.2614 16.4092 12.1313 16.4351 12 16.4351V16.4349Z" fill="#22313F"/>
</svg>
