<?xml version="1.0" encoding="utf-8"?>
<!-- Generator: Adobe Illustrator 24.2.0, SVG Export Plug-In . SVG Version: 6.00 Build 0)  -->
<svg version="1.1" id="Layer_1" xmlns="http://www.w3.org/2000/svg" xmlns:xlink="http://www.w3.org/1999/xlink" x="0px" y="0px"
	 viewBox="0 0 24 24" style="enable-background:new 0 0 24 24;" xml:space="preserve">
<style type="text/css">
	.st0{fill:#323232;}
</style>
<path class="st0" d="M20.2,19.1l-3.4-3.4c1-1.2,1.6-2.8,1.6-4.4c0-1.9-0.7-3.6-2.1-5c-1.3-1.3-3.1-2.1-5-2.1S7.6,5,6.3,6.3
	c-1.3,1.3-2.1,3.1-2.1,5s0.7,3.6,2.1,5c1.3,1.3,3.1,2.1,5,2.1c1.6,0,3.2-0.5,4.4-1.6l3.4,3.4c0.1,0.1,0.3,0.2,0.5,0.2
	s0.4-0.1,0.5-0.2C20.5,19.9,20.5,19.4,20.2,19.1z M7.4,15.2c-1-1-1.6-2.4-1.6-3.9s0.6-2.9,1.6-3.9s2.4-1.6,3.9-1.6s2.9,0.6,3.9,1.6
	s1.6,2.4,1.6,3.9c0,1.5-0.6,2.9-1.6,3.9c0,0,0,0,0,0s0,0,0,0c-1,1-2.4,1.6-3.9,1.6C9.8,16.8,8.4,16.2,7.4,15.2z"/>
</svg>
