<?xml version="1.0" encoding="utf-8"?>
<!-- Generator: Adobe Illustrator 24.2.0, SVG Export Plug-In . SVG Version: 6.00 Build 0)  -->
<svg version="1.1" id="Layer_1" xmlns="http://www.w3.org/2000/svg" xmlns:xlink="http://www.w3.org/1999/xlink" x="0px" y="0px"
	 viewBox="0 0 24 24" style="enable-background:new 0 0 24 24;" xml:space="preserve">
<style type="text/css">
	.st0{fill:#323232;}
</style>
<path class="st0" d="M14.7,13.5c0.3,0.3,0.3,0.8,0,1.1c-0.1,0.1-0.3,0.2-0.5,0.2s-0.4-0.1-0.5-0.2l-0.9-0.9V19
	c0,0.4-0.3,0.8-0.8,0.8s-0.8-0.3-0.8-0.8v-5.4l-0.9,0.9c-0.3,0.3-0.8,0.3-1.1,0s-0.3-0.8,0-1.1l2.2-2.2c0.3-0.3,0.8-0.3,1.1,0
	L14.7,13.5z M18.9,11.3V11c0-3.7-3-6.8-6.8-6.8C9,4.2,6.3,6.4,5.6,9.3c-2.5,0.4-4.4,2.6-4.4,5.2c0,2.9,2.4,5.2,5.2,5.2H8
	c0.4,0,0.8-0.3,0.8-0.8S8.4,18.2,8,18.2H6.4c-2.1,0-3.8-1.7-3.8-3.8c0-2,1.6-3.6,3.6-3.7c0.4,0,0.6-0.3,0.7-0.6
	c0.4-2.5,2.6-4.4,5.2-4.4c2.9,0,5.2,2.4,5.2,5.2v1c0,0.4,0.3,0.8,0.8,0.8h0.4c1.5,0,2.8,1.2,2.8,2.8s-1.2,2.8-2.8,2.8H16
	c-0.4,0-0.8,0.3-0.8,0.8s0.3,0.8,0.8,0.8h2.6c2.3,0,4.2-1.9,4.2-4.2C22.8,13.3,21.1,11.4,18.9,11.3z"/>
</svg>
