<?xml version="1.0" encoding="utf-8"?>
<!-- Generator: Adobe Illustrator 24.2.0, SVG Export Plug-In . SVG Version: 6.00 Build 0)  -->
<svg version="1.1" id="Layer_1" xmlns="http://www.w3.org/2000/svg" xmlns:xlink="http://www.w3.org/1999/xlink" x="0px" y="0px"
	 viewBox="0 0 24 24" style="enable-background:new 0 0 24 24;" xml:space="preserve">
<style type="text/css">
	.st0{fill:#323232;}
</style>
<path class="st0" d="M19.2,14.5l-0.6-0.6c-0.2-0.2-0.4-0.6-0.4-0.9v-2.8c0-2.3-1.5-4.3-3.6-5V4.8c0-1.4-1.2-2.6-2.6-2.6
	c-1.4,0-2.6,1.2-2.6,2.6v0.4c-2.1,0.7-3.6,2.7-3.6,5V13c0,0.3-0.1,0.7-0.4,0.9l-0.6,0.6C4.3,15,4,15.7,4,16.5c0,1.5,1.2,2.6,2.6,2.6
	H9c0.2,1.5,1.5,2.7,3,2.7c1.5,0,2.8-1.2,3-2.7h2.4c1.5,0,2.6-1.2,2.6-2.6C20,15.7,19.7,15,19.2,14.5z M10.9,4.8
	c0-0.6,0.5-1.1,1.1-1.1s1.1,0.5,1.1,1.1v0.1c-0.1,0-0.1,0-0.2,0h-1.8C11,4.9,11,4.9,10.9,4.8L10.9,4.8z M12,20.2
	c-0.7,0-1.3-0.5-1.5-1.2h3C13.3,19.8,12.7,20.2,12,20.2z M17.4,17.6h-3.1c0,0,0,0,0,0s0,0,0,0H6.6c-0.6,0-1.1-0.5-1.1-1.1
	c0-0.3,0.1-0.7,0.4-0.9l0.6-0.6C7,14.4,7.3,13.7,7.3,13v-2.8c0-2.1,1.7-3.8,3.8-3.8h1.8c2.1,0,3.8,1.7,3.8,3.8V13
	c0,0.7,0.3,1.4,0.8,1.9l0.6,0.6c0.2,0.2,0.4,0.6,0.4,0.9C18.5,17.1,18,17.6,17.4,17.6z"/>
</svg>
