<svg width="20" height="20" viewBox="0 0 20 20" fill="none" xmlns="http://www.w3.org/2000/svg">
<path d="M15.8492 4.19C15.8428 4.183 15.8408 4.17379 15.834 4.16699C15.8272 4.16019 15.8181 4.15829 15.8112 4.15189C14.265 2.60568 12.1679 1.73703 9.98119 1.73703C7.79452 1.73703 5.69741 2.60568 4.15119 4.1519C2.60498 5.69811 1.73633 7.79522 1.73633 9.9819C1.73633 12.1686 2.60498 14.2657 4.15119 15.8119C4.15759 15.8188 4.15959 15.828 4.16629 15.8347C4.17299 15.8414 4.18229 15.8435 4.18929 15.8499C5.73551 17.3961 7.83262 18.2648 10.0193 18.2648C12.206 18.2648 14.3031 17.3961 15.8493 15.8499C17.3955 14.3037 18.2642 12.2066 18.2642 10.0199C18.2642 7.83322 17.3955 5.73611 15.8493 4.18989L15.8492 4.19ZM3.24999 10C3.24844 8.72881 3.60631 7.48308 4.28231 6.40654C4.95831 5.32999 5.9249 4.46651 7.07056 3.9157C8.21622 3.36489 9.49426 3.14921 10.7572 3.29354C12.0202 3.43787 13.2166 3.93632 14.2085 4.7314L4.73139 14.2085C3.77228 13.0156 3.2496 11.5307 3.24999 10V10ZM9.99999 16.75C8.46954 16.7504 6.98489 16.2279 5.79209 15.269L15.269 5.7921C16.0639 6.78399 16.5622 7.9804 16.7064 9.24331C16.8506 10.5062 16.6349 11.7842 16.0841 12.9297C15.5332 14.0753 14.6698 15.0418 13.5933 15.7177C12.5168 16.3937 11.2711 16.7515 9.99999 16.75Z" fill="#22313F"/>
</svg>
