<svg id="Layer_1" data-name="Layer 1" xmlns="http://www.w3.org/2000/svg" viewBox="0 0 24 24"><defs><style>.cls-1{fill:#22313f;}</style></defs><path class="cls-1" d="M17,18a1.5,1.5,0,1,1-1.509-1.5A1.5043,1.5043,0,0,1,17,18ZM8.491,16.5A1.5,1.5,0,1,0,10,18,1.5063,1.5063,0,0,0,8.491,16.5Zm7-6A1.5,1.5,0,1,0,17,12,1.5063,1.5063,0,0,0,15.491,10.5Zm-7,0A1.5,1.5,0,1,0,10,12,1.5063,1.5063,0,0,0,8.491,10.5Zm7.009-3A1.5,1.5,0,1,0,14,6,1.5043,1.5043,0,0,0,15.5,7.5Zm-7.009-3A1.5,1.5,0,1,0,10,6,1.5062,1.5062,0,0,0,8.491,4.5Z"/></svg>