<svg width="20" height="21" viewBox="0 0 20 21" fill="none" xmlns="http://www.w3.org/2000/svg">
<path d="M14.167 9.3938H10.22C10.0384 8.7324 9.62312 8.15932 9.0511 7.78089C8.47908 7.40246 7.7892 7.24438 7.10948 7.33598C6.42976 7.42758 5.80634 7.76265 5.35491 8.279C4.90347 8.79535 4.65467 9.45793 4.65467 10.1438C4.65467 10.8297 4.90347 11.4922 5.35491 12.0086C5.80634 12.525 6.42976 12.86 7.10948 12.9516C7.7892 13.0432 8.47908 12.8851 9.0511 12.5067C9.62312 12.1283 10.0384 11.5552 10.22 10.8938H13.417V12.0188C13.417 12.2177 13.496 12.4085 13.6367 12.5491C13.7773 12.6898 13.9681 12.7688 14.167 12.7688C14.3659 12.7688 14.5567 12.6898 14.6973 12.5491C14.838 12.4085 14.917 12.2177 14.917 12.0188V10.1438C14.917 9.94489 14.838 9.75412 14.6973 9.61347C14.5567 9.47282 14.3659 9.3938 14.167 9.3938ZM7.5 11.4768C7.23629 11.4768 6.97852 11.3985 6.75928 11.252C6.54004 11.1054 6.36918 10.8972 6.26831 10.6535C6.16743 10.4099 6.14107 10.1418 6.19257 9.88315C6.24406 9.62452 6.37109 9.38697 6.55759 9.20054C6.74409 9.0141 6.98169 8.88716 7.24034 8.83577C7.49899 8.78437 7.76707 8.81083 8.01069 8.9118C8.2543 9.01276 8.4625 9.1837 8.60896 9.403C8.75542 9.62229 8.83356 9.88009 8.8335 10.1438C8.83302 10.4973 8.69236 10.8361 8.44237 11.086C8.19238 11.3359 7.85347 11.4765 7.5 11.4768V11.4768ZM13.333 1.8938H6.6665C5.36303 1.89531 4.11337 2.41378 3.19168 3.33547C2.26998 4.25717 1.75151 5.50683 1.75 6.8103V13.4768C1.75148 14.7803 2.26993 16.03 3.19162 16.9518C4.1133 17.8736 5.36297 18.3922 6.6665 18.3938H13.333C14.6366 18.3922 15.8863 17.8737 16.8081 16.9519C17.7299 16.0301 18.2484 14.7804 18.25 13.4768V6.8103C18.2484 5.50677 17.7298 4.2571 16.808 3.33541C15.8863 2.41373 14.6365 1.89528 13.333 1.8938V1.8938ZM16.75 13.4768C16.7489 14.3827 16.3885 15.2512 15.7479 15.8917C15.1074 16.5323 14.2389 16.8927 13.333 16.8938H6.6665C5.76066 16.8926 4.89226 16.5322 4.25178 15.8917C3.6113 15.2511 3.25103 14.3826 3.25 13.4768V6.8103C3.25093 5.90447 3.61118 5.03601 4.25169 4.39549C4.89221 3.75497 5.76067 3.39473 6.6665 3.3938H13.333C14.2388 3.39483 15.1073 3.7551 15.7479 4.39558C16.3884 5.03606 16.7488 5.90446 16.75 6.8103V13.4768Z" fill="#22313F"/>
</svg>
