<svg id="Layer_1" data-name="Layer 1" xmlns="http://www.w3.org/2000/svg" viewBox="0 0 20 20"><defs><style>.cls-1{fill:#22313f;}</style></defs><path class="cls-1" d="M12.7759,18.2383H7.2241A5.48,5.48,0,0,1,1.75,12.7646V7.2124A5.4806,5.4806,0,0,1,7.2241,1.7383H10a.75.75,0,0,1,0,1.5H7.2241A3.9789,3.9789,0,0,0,3.25,7.2124v5.5522a3.9785,3.9785,0,0,0,3.9746,3.9737h5.5518A3.9777,3.9777,0,0,0,16.75,12.7646V10a.75.75,0,0,1,1.5,0v2.7646A5.4794,5.4794,0,0,1,12.7759,18.2383Z"/><path class="cls-1" d="M18.3335,6.1665a4.505,4.505,0,0,1-4.5-4.5.75.75,0,0,1,1.5,0,3.0033,3.0033,0,0,0,3,3,.75.75,0,0,1,0,1.5Z"/><path class="cls-1" d="M14.5835,9.9165a.75.75,0,0,1-.75-.75,4.505,4.505,0,0,1,4.5-4.5.75.75,0,0,1,0,1.5,3.0033,3.0033,0,0,0-3,3A.75.75,0,0,1,14.5835,9.9165Z"/><path class="cls-1" d="M14.5835,9.9165a.75.75,0,0,1-.75-.75,3.0033,3.0033,0,0,0-3-3,.75.75,0,0,1,0-1.5,4.5049,4.5049,0,0,1,4.5,4.5A.75.75,0,0,1,14.5835,9.9165Z"/><path class="cls-1" d="M10.8335,6.1665a.75.75,0,0,1,0-1.5,3.0033,3.0033,0,0,0,3-3,.75.75,0,0,1,1.5,0A4.5049,4.5049,0,0,1,10.8335,6.1665Z"/></svg>