<svg id="Layer_1" data-name="Layer 1" xmlns="http://www.w3.org/2000/svg" viewBox="0 0 24 24"><defs><style>.cls-1{fill:#323232;}</style></defs><path class="cls-1" d="M20.5352,19.4648,16.51,15.3668A7.7481,7.7481,0,0,0,5.0864,4.9194,7.7489,7.7489,0,0,0,15.443,16.4205l4.0218,4.0951a.75.75,0,0,0,1.07-1.0508ZM6.147,14.8184a6.2485,6.2485,0,1,1,4.4194,1.831A6.2083,6.2083,0,0,1,6.147,14.8184Z"/><path class="cls-1" d="M12.9448,9.8789H11.35V8.2842a.75.75,0,0,0-1.5,0V9.8789H8.2554a.75.75,0,0,0,0,1.5H9.85v1.5947a.75.75,0,0,0,1.5,0V11.3789h1.5947a.75.75,0,1,0,0-1.5Z"/></svg>