<svg id="Layer_1" data-name="Layer 1" xmlns="http://www.w3.org/2000/svg" viewBox="0 0 20 20"><defs><style>.cls-1{fill:#22313f;}</style></defs><path class="cls-1" d="M10,18.253a8.257,8.257,0,1,1,3.1562-.6318A8.2373,8.2373,0,0,1,10,18.253ZM10,3.2481a6.7193,6.7193,0,0,0-2.5821.5176h0A6.6991,6.6991,0,1,0,10,3.2481ZM7.1311,3.0724h0Z"/><path class="cls-1" d="M12.8108,13.1378a.7478.7478,0,0,1-.39-.1094L9.3743,11.171a.7521.7521,0,0,1-.3594-.6406V6.6544a.75.75,0,1,1,1.5,0V10.11l2.6875,1.6377a.75.75,0,0,1-.3916,1.3906Z"/></svg>