<svg id="Layer_1" data-name="Layer 1" xmlns="http://www.w3.org/2000/svg" viewBox="0 0 20 20"><defs><style>.cls-1{fill:#22313f;}</style></defs><path class="cls-1" d="M10,12.9986a3,3,0,1,1,2.122-5.12h0A2.9985,2.9985,0,0,1,10,12.9986Zm.0009-4.498a1.5,1.5,0,1,0,1.0606.4385A1.4989,1.4989,0,0,0,10.0005,8.5006Z"/><path class="cls-1" d="M11.1734,18.25H8.8257a1.5048,1.5048,0,0,1-1.4824-1.2852l-.1807-1.2607a5.7459,5.7459,0,0,1-.667-.3828l-1.1943.4648a1.5109,1.5109,0,0,1-1.8574-.6425L2.2681,13.108a1.505,1.505,0,0,1,.3731-1.9287l.999-.78c-.01-.1328-.0156-.2656-.0156-.3994s.0058-.2656.0146-.3984l-.9971-.78a1.5063,1.5063,0,0,1-.374-1.93L3.4449,4.856A1.5045,1.5045,0,0,1,5.3,4.2144L6.4839,4.69A6.4757,6.4757,0,0,1,7.14,4.3033l.2041-1.2685A1.5048,1.5048,0,0,1,8.8267,1.75h2.3477a1.5048,1.5048,0,0,1,1.4824,1.2852l.18,1.2617a5.6026,5.6026,0,0,1,.664.3769l1.1983-.459a1.5046,1.5046,0,0,1,1.8574.6426L17.732,6.8912A1.5082,1.5082,0,0,1,17.36,8.82l-1,.7822c.0088.1319.0147.2647.0147.3975s-.0059.2666-.0147.3984l.9981.7813a1.5053,1.5053,0,0,1,.374,1.93l-1.1768,2.0351a1.5055,1.5055,0,0,1-1.8545.6416L13.5162,15.31a5.5954,5.5954,0,0,1-.66.39l-.2,1.2646A1.5048,1.5048,0,0,1,11.1734,18.25ZM6.4742,13.8121a1.5356,1.5356,0,0,1,.8515.26,4.7966,4.7966,0,0,0,.4932.2871A1.5242,1.5242,0,0,1,8.647,15.49l.1807,1.2618,2.3457-.002.1787-1.2578a1.5182,1.5182,0,0,1,.832-1.1328,4.6287,4.6287,0,0,0,.49-.2852,1.5191,1.5191,0,0,1,1.4033-.1553l1.1816.4747,1.1738-2.0352-1.3222-1.0322a.7493.7493,0,0,1-.2822-.6817A5.414,5.414,0,0,0,14.8746,10a5.4154,5.4154,0,0,0-.0459-.6436.7492.7492,0,0,1,.2822-.6816l1.3232-1.0352L15.2564,5.606l-1.18.4766a1.523,1.523,0,0,1-1.4033-.1572,4.6251,4.6251,0,0,0-.4873-.2832,1.5239,1.5239,0,0,1-.834-1.1328l-.18-1.2627L8.8267,3.25l-.18,1.26a1.5218,1.5218,0,0,1-.8252,1.13,5.1661,5.1661,0,0,0-.498.292,1.5172,1.5172,0,0,1-1.4.15L4.7417,5.607,3.5669,7.6412,4.8892,8.6744a.75.75,0,0,1,.2822.6846A5.1632,5.1632,0,0,0,5.1246,10a5.1666,5.1666,0,0,0,.0468.6416.75.75,0,0,1-.2822.6846L3.566,12.3609l1.1777,2.0332,1.1816-.4775A1.4851,1.4851,0,0,1,6.4742,13.8121Z"/></svg>