<svg id="Layer_1" data-name="Layer 1" xmlns="http://www.w3.org/2000/svg" viewBox="0 0 20 20"><defs><style>.cls-1{fill:#22313f;}</style></defs><path class="cls-1" d="M3.437,12.6248a.7471.7471,0,0,1-.53-.22L1.0317,10.53A.75.75,0,0,1,2.0923,9.47L3.437,10.8142,4.7817,9.47A.75.75,0,0,1,5.8423,10.53l-1.875,1.875A.7471.7471,0,0,1,3.437,12.6248Z"/><path class="cls-1" d="M3.6323,12.43a.7509.7509,0,0,1-.73-.5821A8.3047,8.3047,0,0,1,2.687,10a.75.75,0,0,1,1.5,0,6.7488,6.7488,0,0,0,.1778,1.5117.7516.7516,0,0,1-.5635.8994A.7722.7722,0,0,1,3.6323,12.43Z"/><path class="cls-1" d="M18.437,10.75a.75.75,0,0,1-.75-.75,6.75,6.75,0,0,0-13.5,0,.75.75,0,0,1-1.5,0,8.25,8.25,0,0,1,16.5,0A.75.75,0,0,1,18.437,10.75Z"/><path class="cls-1" d="M10.937,18.25a.75.75,0,1,1,0-1.5A6.758,6.758,0,0,0,17.687,10a.75.75,0,0,1,1.5,0A8.26,8.26,0,0,1,10.937,18.25Z"/><path class="cls-1" d="M10.937,18.25a8.2579,8.2579,0,0,1-6.7558-3.5235A.75.75,0,0,1,5.41,13.865,6.7556,6.7556,0,0,0,10.937,16.75a.75.75,0,0,1,0,1.5Z"/><path class="cls-1" d="M13.7456,13.1424a.75.75,0,0,1-.3828-.1055L10.32,11.2263a.75.75,0,0,1-.3662-.6445V6.6541a.75.75,0,0,1,1.5,0v3.501L14.13,11.7478a.75.75,0,0,1-.3848,1.3946Z"/></svg>