<?xml version="1.0" encoding="utf-8"?>
<!-- Generator: Adobe Illustrator 24.2.0, SVG Export Plug-In . SVG Version: 6.00 Build 0)  -->
<svg version="1.1" id="Layer_1" xmlns="http://www.w3.org/2000/svg" xmlns:xlink="http://www.w3.org/1999/xlink" x="0px" y="0px"
	 viewBox="0 0 24 24" style="enable-background:new 0 0 24 24;" xml:space="preserve">
<style type="text/css">
	.st0{fill:#22313F;}
</style>
<path class="st0" d="M13.1,12l4.5-4.5c0.3-0.3,0.3-0.8,0-1.1c-0.3-0.3-0.7-0.3-1,0L12,10.9L7.5,6.5c-0.3-0.3-0.8-0.3-1.1,0
	c-0.3,0.3-0.3,0.7,0,1l4.5,4.5l-4.5,4.5c-0.3,0.3-0.3,0.8,0,1.1c0.3,0.3,0.8,0.3,1.1,0c0,0,0,0,0,0l4.5-4.5l4.5,4.5
	c0.3,0.3,0.8,0.3,1.1,0c0.3-0.3,0.3-0.7,0-1L13.1,12z"/>
</svg>
