<?xml version="1.0" encoding="utf-8"?>
<!-- Generator: Adobe Illustrator 24.2.0, SVG Export Plug-In . SVG Version: 6.00 Build 0)  -->
<svg version="1.1" id="Layer_1" xmlns="http://www.w3.org/2000/svg" xmlns:xlink="http://www.w3.org/1999/xlink" x="0px" y="0px"
	 viewBox="0 0 24 24" style="enable-background:new 0 0 24 24;" xml:space="preserve">
<style type="text/css">
	.st0{fill:#323232;}
</style>
<path class="st0" d="M13,8.2c0,0.6-0.4,1-1,1s-1-0.4-1-1c0-0.3,0.1-0.5,0.3-0.7c0.2-0.2,0.4-0.3,0.7-0.3C12.6,7.2,13,7.7,13,8.2z
	 M21.8,12c0,5.4-4.4,9.8-9.8,9.8S2.2,17.4,2.2,12S6.6,2.2,12,2.2S21.8,6.6,21.8,12z M20.2,12c0-4.5-3.7-8.2-8.2-8.2S3.8,7.5,3.8,12
	s3.7,8.2,8.2,8.2S20.2,16.5,20.2,12z M12,10.8c-0.4,0-0.8,0.3-0.8,0.8v5c0,0.4,0.3,0.8,0.8,0.8s0.8-0.3,0.8-0.8v-5
	C12.8,11.2,12.4,10.8,12,10.8z"/>
</svg>
