<?xml version="1.0" encoding="utf-8"?>
<!-- Generator: Adobe Illustrator 24.2.0, SVG Export Plug-In . SVG Version: 6.00 Build 0)  -->
<svg version="1.1" id="Layer_1" xmlns="http://www.w3.org/2000/svg" xmlns:xlink="http://www.w3.org/1999/xlink" x="0px" y="0px"
	 viewBox="0 0 24 24" style="enable-background:new 0 0 24 24;" xml:space="preserve">
<style type="text/css">
	.st0{fill:#323232;}
</style>
<path class="st0" d="M19,2.2H5C3.5,2.2,2.2,3.5,2.2,5v14c0,1.5,1.2,2.8,2.8,2.8h14c1.5,0,2.8-1.2,2.8-2.8V5
	C21.8,3.5,20.5,2.2,19,2.2z M20.2,19c0,0.7-0.6,1.2-1.2,1.2H5c-0.7,0-1.2-0.6-1.2-1.2V5c0-0.7,0.6-1.2,1.2-1.2h14
	c0.7,0,1.2,0.6,1.2,1.2V19z M18,5.2H6C5.6,5.2,5.2,5.6,5.2,6v9c0,0.4,0.3,0.8,0.8,0.8h12c0.4,0,0.8-0.3,0.8-0.8V6
	C18.8,5.6,18.4,5.2,18,5.2z M17.2,14.2H6.8V6.8h10.5V14.2z M13.8,18c0,0.4-0.3,0.8-0.8,0.8H6c-0.4,0-0.8-0.3-0.8-0.8
	s0.3-0.8,0.8-0.8h7C13.4,17.2,13.8,17.6,13.8,18z M18.8,18c0,0.4-0.3,0.8-0.8,0.8h-2c-0.4,0-0.8-0.3-0.8-0.8s0.3-0.8,0.8-0.8h2
	C18.4,17.2,18.8,17.6,18.8,18z"/>
</svg>
