<svg id="Layer_1" data-name="Layer 1" xmlns="http://www.w3.org/2000/svg" viewBox="0 0 20 20"><defs><style>.cls-1{fill:#22313f;}</style></defs><path class="cls-1" d="M15,18.25H8.3335A3.2538,3.2538,0,0,1,5.0835,15V8.3331a3.2538,3.2538,0,0,1,3.25-3.25H15a3.2538,3.2538,0,0,1,3.25,3.25V15A3.2538,3.2538,0,0,1,15,18.25ZM8.3335,6.5831a1.7522,1.7522,0,0,0-1.75,1.75V15a1.7522,1.7522,0,0,0,1.75,1.75H15A1.7521,1.7521,0,0,0,16.75,15V8.3331A1.7521,1.7521,0,0,0,15,6.5831Z"/><path class="cls-1" d="M5.8335,14.9171H4.5a2.7528,2.7528,0,0,1-2.75-2.75V4.5A2.7528,2.7528,0,0,1,4.5,1.75h7.667a2.7528,2.7528,0,0,1,2.75,2.75v1.333a.75.75,0,1,1-1.5,0V4.5a1.2511,1.2511,0,0,0-1.25-1.25H4.5A1.2512,1.2512,0,0,0,3.25,4.5v7.667a1.2512,1.2512,0,0,0,1.25,1.25h1.334a.75.75,0,0,1,0,1.5Z"/></svg>