<svg width="24" height="25" viewBox="0 0 24 25" fill="none" xmlns="http://www.w3.org/2000/svg">
<g clip-path="url(#clip0)">
<path d="M21.834 5.92954L19.3906 4.70834L18.1699 2.26504C18.1167 2.15882 18.0391 2.06675 17.9433 1.99641C17.8476 1.92608 17.7365 1.87949 17.6193 1.86049C17.502 1.84148 17.3819 1.85061 17.2689 1.88711C17.1558 1.92361 17.053 1.98645 16.969 2.07044L12.969 6.07044C12.8284 6.21099 12.7493 6.40161 12.749 6.60044V10.2904L10.499 12.5404C10.3623 12.6818 10.2867 12.8712 10.2883 13.0679C10.2899 13.2645 10.3687 13.4527 10.5077 13.5918C10.6467 13.7309 10.8347 13.8099 11.0314 13.8117C11.228 13.8135 11.4175 13.738 11.559 13.6014L13.8095 11.3504H17.499C17.6979 11.3503 17.8885 11.2711 18.029 11.1304L22.029 7.13044C22.1131 7.04638 22.1759 6.94356 22.2124 6.83044C22.2489 6.71733 22.258 6.59716 22.2389 6.47984C22.2198 6.36253 22.1731 6.25143 22.1027 6.1557C22.0322 6.05997 21.9401 5.98235 21.8337 5.92924L21.834 5.92954ZM17.189 9.85044H14.249V6.91094L17.2929 3.86654L18.1611 5.60284C18.2338 5.7481 18.3517 5.86583 18.497 5.93834L20.2324 6.80604L17.189 9.85044ZM20.2749 13.6463C20.1338 15.9038 19.1734 18.0321 17.574 19.6315C15.9747 21.231 13.8465 22.1915 11.589 22.3328C11.3971 22.3445 11.2053 22.3504 11.0153 22.3504C8.60415 22.3524 6.28708 21.4148 4.55578 19.7366C2.82447 18.0584 1.81518 15.7716 1.74206 13.3616C1.66894 10.9515 2.53774 8.60776 4.16412 6.82768C5.7905 5.0476 8.04647 3.97126 10.4533 3.82704C10.65 3.8181 10.8423 3.88684 10.9887 4.01842C11.1351 4.15 11.2239 4.33387 11.236 4.53036C11.248 4.72685 11.1823 4.9202 11.0531 5.06868C10.9238 5.21716 10.7414 5.30888 10.5451 5.32404C9.05168 5.41569 7.61646 5.9366 6.41189 6.82419C5.20732 7.71177 4.28464 8.92828 3.75471 10.3276C3.22478 11.7268 3.11014 13.2493 3.42456 14.7122C3.73897 16.1751 4.46908 17.516 5.52715 18.574C6.58522 19.6319 7.92626 20.3619 9.38915 20.6761C10.852 20.9904 12.3745 20.8756 13.7738 20.3455C15.173 19.8154 16.3894 18.8926 17.2768 17.6879C18.1643 16.4833 18.685 15.048 18.7765 13.5545C18.7887 13.3559 18.8793 13.1702 19.0284 13.0383C19.1775 12.9065 19.3728 12.8392 19.5715 12.8514C19.7701 12.8636 19.9558 12.9542 20.0877 13.1032C20.2196 13.2523 20.2868 13.4477 20.2746 13.6463H20.2749ZM7.06103 12.6563C6.94662 13.7044 7.25322 14.755 7.9134 15.5769C8.57357 16.3989 9.53324 16.925 10.5813 17.0394C11.6293 17.1538 12.6799 16.8472 13.5019 16.187C14.3239 15.5268 14.8499 14.5672 14.9643 13.5191C14.9713 13.4184 14.9986 13.3201 15.0445 13.2302C15.0904 13.1403 15.154 13.0606 15.2315 12.9958C15.3089 12.931 15.3987 12.8826 15.4953 12.8533C15.592 12.8241 15.6935 12.8147 15.7939 12.8256C15.8943 12.8366 15.9914 12.8677 16.0794 12.9171C16.1675 12.9665 16.2447 13.0331 16.3064 13.1131C16.368 13.193 16.4129 13.2846 16.4383 13.3823C16.4638 13.48 16.4692 13.5819 16.4543 13.6817C16.3082 15.0213 15.6733 16.26 14.6711 17.1607C13.6688 18.0614 12.3696 18.5608 11.0221 18.5635C10.2524 18.5638 9.49133 18.402 8.78832 18.0886C8.08531 17.7753 7.45616 17.3174 6.94181 16.7448C6.42746 16.1723 6.03944 15.4978 5.80301 14.7653C5.56657 14.0328 5.48702 13.2588 5.56953 12.4935C5.69903 11.252 6.25143 10.0926 7.13413 9.20993C8.01682 8.32724 9.17615 7.77484 10.4177 7.64534C10.6155 7.62372 10.8137 7.68155 10.9688 7.80609C11.1239 7.93063 11.2232 8.11169 11.2448 8.30944C11.2664 8.50719 11.2086 8.70542 11.0841 8.86053C10.9595 9.01564 10.7785 9.11493 10.5807 9.13654C9.67923 9.23028 8.83739 9.63121 8.19644 10.272C7.55549 10.9129 7.15443 11.7547 7.06053 12.6561L7.06103 12.6563Z" fill="#22313F"/>
</g>
<defs>
<clipPath id="clip0">
<rect width="20.4985" height="20.4997" fill="white" transform="translate(1.75073 1.85074)"/>
</clipPath>
</defs>
</svg>
