<svg width="21" height="21" viewBox="0 0 21 21" fill="none" xmlns="http://www.w3.org/2000/svg">
<path d="M2.24121 10.6569C2.25569 8.5408 3.10276 6.51544 4.59915 5.01909C6.09554 3.52273 8.12091 2.6757 10.2371 2.66126C12.3541 2.67536 14.3805 3.52202 15.8783 5.01822C17.3761 6.51441 18.2249 8.53994 18.2412 10.6569C18.2285 12.7744 17.3823 14.8017 15.8858 16.2999C14.3893 17.798 12.3629 18.6463 10.2454 18.6613C8.12701 18.6467 6.09956 17.7987 4.60164 16.3007C3.10371 14.8028 2.25575 12.7753 2.24121 10.6569V10.6569ZM12.0442 14.9398C12.121 14.9431 12.1977 14.9308 12.2696 14.9037C12.3415 14.8765 12.4072 14.8351 12.4627 14.782C12.5183 14.7288 12.5624 14.6649 12.5926 14.5942C12.6228 14.5235 12.6383 14.4474 12.6383 14.3705C12.6383 14.2936 12.6228 14.2175 12.5926 14.1468C12.5624 14.0761 12.5183 14.0122 12.4627 13.959C12.4072 13.9059 12.3415 13.8644 12.2696 13.8373C12.1977 13.8102 12.121 13.7979 12.0442 13.8012H11.1118V9.92254C11.1118 9.48526 10.889 9.19646 10.4847 9.19646H9.00761C8.93158 9.19444 8.85591 9.20768 8.78507 9.23538C8.71424 9.26309 8.64967 9.3047 8.59518 9.35777C8.54069 9.41083 8.49738 9.47427 8.46781 9.54435C8.43823 9.61443 8.423 9.68972 8.423 9.76578C8.423 9.84184 8.43823 9.91713 8.46781 9.98721C8.49738 10.0573 8.54069 10.1207 8.59518 10.1738C8.64967 10.2269 8.71424 10.2685 8.78507 10.2962C8.85591 10.3239 8.93158 10.3371 9.00761 10.3351H9.82449V13.8012H8.86729C8.79126 13.7992 8.71559 13.8124 8.64475 13.8401C8.57392 13.8678 8.50935 13.9094 8.45486 13.9625C8.40037 14.0156 8.35706 14.079 8.32749 14.1491C8.29791 14.2191 8.28268 14.2944 8.28268 14.3705C8.28268 14.4466 8.29791 14.5218 8.32749 14.5919C8.35706 14.662 8.40037 14.7254 8.45486 14.7785C8.50935 14.8316 8.57392 14.8732 8.64475 14.9009C8.71559 14.9286 8.79126 14.9418 8.86729 14.9398H12.0442ZM11.2108 6.8943C11.2108 6.69028 11.1504 6.49083 11.037 6.32117C10.9237 6.15152 10.7626 6.01928 10.5741 5.94118C10.3857 5.86309 10.1783 5.84264 9.97815 5.88242C9.77804 5.9222 9.59423 6.02043 9.44995 6.16469C9.30568 6.30894 9.20742 6.49274 9.1676 6.69284C9.12779 6.89294 9.14821 7.10035 9.22628 7.28885C9.30434 7.47734 9.43656 7.63845 9.60619 7.75181C9.77583 7.86516 9.97527 7.92566 10.1793 7.92566C10.315 7.92676 10.4497 7.90083 10.5753 7.84939C10.7009 7.79795 10.8151 7.72202 10.9111 7.62604C11.0071 7.53005 11.083 7.41592 11.1345 7.29029C11.1859 7.16466 11.2119 7.03005 11.2108 6.8943V6.8943Z" fill="#22313F"/>
</svg>
