<?xml version="1.0" encoding="utf-8"?>
<!-- Generator: Adobe Illustrator 24.2.0, SVG Export Plug-In . SVG Version: 6.00 Build 0)  -->
<svg version="1.1" id="Layer_1" xmlns="http://www.w3.org/2000/svg" xmlns:xlink="http://www.w3.org/1999/xlink" x="0px" y="0px"
	 viewBox="0 0 24 24" style="enable-background:new 0 0 24 24;" xml:space="preserve">
<style type="text/css">
	.st0{fill:#323232;}
</style>
<path class="st0" d="M3,5.8h10.4c0.3,1.2,1.4,2,2.6,2s2.3-0.8,2.6-2H21c0.4,0,0.8-0.3,0.8-0.8S21.4,4.2,21,4.2h-2.4
	c-0.3-1.2-1.4-2-2.6-2s-2.3,0.8-2.6,2H3C2.6,4.2,2.2,4.6,2.2,5S2.6,5.8,3,5.8z M16,3.8c0.7,0,1.2,0.6,1.2,1.2S16.7,6.2,16,6.2
	S14.8,5.7,14.8,5S15.3,3.8,16,3.8z M21,11.2H10.6c-0.3-1.2-1.4-2-2.6-2s-2.3,0.8-2.6,2H3c-0.4,0-0.8,0.3-0.8,0.8s0.3,0.8,0.8,0.8
	h2.4c0.3,1.2,1.4,2,2.6,2s2.3-0.8,2.6-2H21c0.4,0,0.8-0.3,0.8-0.8S21.4,11.2,21,11.2z M8,13.2c-0.7,0-1.2-0.6-1.2-1.2
	s0.6-1.2,1.2-1.2s1.2,0.6,1.2,1.2S8.7,13.2,8,13.2z M21,18.2h-2.4c-0.3-1.2-1.4-2-2.6-2s-2.3,0.8-2.6,2H3c-0.4,0-0.8,0.3-0.8,0.8
	s0.3,0.8,0.8,0.8h10.4c0.3,1.2,1.4,2,2.6,2s2.3-0.8,2.6-2H21c0.4,0,0.8-0.3,0.8-0.8S21.4,18.2,21,18.2z M16,20.2
	c-0.7,0-1.2-0.6-1.2-1.2s0.6-1.2,1.2-1.2s1.2,0.6,1.2,1.2S16.7,20.2,16,20.2z"/>
</svg>
