<svg width="24" height="24" viewBox="0 0 24 24" fill="none" xmlns="http://www.w3.org/2000/svg">
<path d="M12 2C10.0222 2 8.08879 2.58649 6.4443 3.6853C4.79981 4.78412 3.51809 6.3459 2.76121 8.17317C2.00433 10.0004 1.8063 12.0111 2.19215 13.9509C2.578 15.8907 3.53041 17.6725 4.92894 19.0711C6.32746 20.4696 8.10929 21.422 10.0491 21.8079C11.9889 22.1937 13.9996 21.9957 15.8268 21.2388C17.6541 20.4819 19.2159 19.2002 20.3147 17.5557C21.4135 15.9112 22 13.9778 22 12C21.997 9.34877 20.9424 6.807 19.0677 4.93229C17.193 3.05759 14.6512 2.00304 12 2ZM16.53 10.03L11.53 15.03C11.3894 15.1706 11.1986 15.2496 10.9997 15.2496C10.8008 15.2496 10.6101 15.1706 10.4694 15.03L7.4694 12.03C7.33483 11.8881 7.26098 11.6993 7.26359 11.5038C7.26619 11.3083 7.34504 11.1216 7.48334 10.9833C7.62164 10.8451 7.80845 10.7664 8.00396 10.7639C8.19947 10.7614 8.38823 10.8354 8.53 10.97L11 13.44L15.47 8.97C15.6122 8.83752 15.8002 8.7654 15.9945 8.76882C16.1888 8.77225 16.3742 8.85097 16.5116 8.98838C16.649 9.12579 16.7278 9.31118 16.7312 9.50548C16.7346 9.69978 16.6625 9.88783 16.53 10.03Z" fill="#22313F"/>
</svg>
