<svg id="Layer_1" data-name="Layer 1" xmlns="http://www.w3.org/2000/svg" viewBox="0 0 24 24"><defs><style>.cls-1{fill:#22313f;}</style></defs><path class="cls-1" d="M6.4767,8.7117H17.5214v8.1964a1.097,1.097,0,0,1-1.0949,1.094H15.2548V20.806A1.1956,1.1956,0,0,1,14.0616,22h-.05a1.1973,1.1973,0,0,1-1.1939-1.194V18.0021H11.1809V20.806A1.1963,1.1963,0,0,1,9.9869,22H9.9357a1.196,1.196,0,0,1-1.1924-1.194V18.0021H7.5724a1.0971,1.0971,0,0,1-1.0957-1.094Zm-1.7631-.19H4.6623A1.1956,1.1956,0,0,0,3.47,9.7136v5.1909a1.1947,1.1947,0,0,0,1.1923,1.1932h.0521a1.1958,1.1958,0,0,0,1.1923-1.1932V9.7135A1.1974,1.1974,0,0,0,4.7136,8.5213Zm14.6233,0h-.0495a1.1971,1.1971,0,0,0-1.1941,1.1923v5.1909a1.1967,1.1967,0,0,0,1.1941,1.1932h.05A1.1953,1.1953,0,0,0,20.53,14.9045V9.7135A1.1963,1.1963,0,0,0,19.3369,8.5213Zm-1.7763-.6291c0,.1093-.006.2169-.0154.3236H6.457c-.0094-.1067-.0163-.2143-.0163-.3236a4.7086,4.7086,0,0,1,2.81-4.1508L8.32,2.3057a.1983.1983,0,0,1,.3331-.2152l.9625,1.4852a6.3766,6.3766,0,0,1,4.77,0l.9642-1.4852a.1976.1976,0,0,1,.3314.2152l-.93,1.4357A4.71,4.71,0,0,1,17.5606,7.8922ZM9.9637,5.7792a.5338.5338,0,1,0-.5338.5329A.5309.5309,0,0,0,9.9637,5.7792Zm5.14,0a.5334.5334,0,1,0-.5329.5329A.5307.5307,0,0,0,15.1035,5.7792Z"/></svg>