<svg width="21" height="21" viewBox="0 0 21 21" fill="none" xmlns="http://www.w3.org/2000/svg">
<path d="M5.70861 7.69737H14.7723V14.46C14.7716 14.6994 14.6767 14.9287 14.5083 15.0978C14.3399 15.267 14.1118 15.3622 13.8737 15.3627H12.9122V17.6761C12.9119 17.9372 12.8086 18.1874 12.6251 18.3721C12.4415 18.5568 12.1927 18.6607 11.933 18.6613H11.892C11.6324 18.6605 11.3836 18.5565 11.2 18.3719C11.0164 18.1873 10.913 17.9372 10.9122 17.6761V15.3627H9.56903V17.6761C9.56853 17.9372 9.46514 18.1875 9.28149 18.3722C9.09784 18.5568 8.84891 18.6608 8.58919 18.6613H8.54718C8.28767 18.6605 8.03903 18.5564 7.85566 18.3718C7.67228 18.1872 7.56909 17.937 7.56866 17.6761V15.3627H6.60778C6.36964 15.3624 6.14132 15.2672 5.9728 15.0981C5.80427 14.9289 5.70928 14.6995 5.70861 14.46V7.69737ZM4.26175 7.54061H4.21965C3.96043 7.54133 3.71202 7.64515 3.52869 7.82941C3.34537 8.01368 3.24201 8.26339 3.24121 8.52402V12.8069C3.24154 13.0678 3.3447 13.3179 3.5281 13.5024C3.71151 13.687 3.96019 13.7909 4.21965 13.7914H4.26241C4.5218 13.7906 4.77034 13.6866 4.95369 13.5022C5.13704 13.3177 5.24028 13.0677 5.24085 12.8069V8.52394C5.23972 8.26327 5.13618 8.01362 4.95279 7.82937C4.7694 7.64512 4.52101 7.54121 4.26175 7.54028V7.54061ZM16.2621 7.54061H16.2215C15.9621 7.54126 15.7134 7.64506 15.5298 7.82937C15.3462 8.01367 15.2426 8.26351 15.2416 8.52435V12.8072C15.2423 13.0682 15.3458 13.3183 15.5295 13.5028C15.7131 13.6873 15.9619 13.7912 16.2215 13.7917H16.2625C16.522 13.7911 16.7708 13.6872 16.9542 13.5026C17.1376 13.318 17.2408 13.0678 17.2412 12.8069V8.52394C17.2403 8.2632 17.1369 8.01341 16.9534 7.82911C16.77 7.64481 16.5214 7.54097 16.2621 7.54028V7.54061ZM14.8044 7.02155C14.8044 7.11173 14.7995 7.20051 14.7918 7.28855H5.69244C5.68473 7.20051 5.67907 7.11173 5.67907 7.02155C5.70368 6.29031 5.93317 5.58092 6.34113 4.97504C6.74908 4.36916 7.31892 3.89142 7.98504 3.59682L7.22128 2.41192C7.19851 2.37548 7.19093 2.33149 7.20019 2.28947C7.20945 2.24745 7.23481 2.2108 7.27076 2.18744C7.30672 2.16409 7.35037 2.15592 7.39228 2.1647C7.43418 2.17348 7.47095 2.19851 7.49463 2.23436L8.28449 3.45977C9.54016 2.95062 10.9432 2.95062 12.1989 3.45977L12.9902 2.23436C13.0139 2.19891 13.0506 2.17426 13.0923 2.16573C13.1339 2.1572 13.1773 2.16547 13.2129 2.18875C13.2486 2.21204 13.2737 2.24848 13.2829 2.29022C13.2921 2.33196 13.2847 2.37567 13.2621 2.41192L12.4989 3.59649C13.1649 3.89127 13.7345 4.36907 14.1424 4.97492C14.5502 5.58077 14.7797 6.29007 14.8044 7.02122V7.02155ZM8.57016 5.27783C8.5703 5.19069 8.54473 5.10547 8.49669 5.03294C8.44864 4.96041 8.38028 4.90385 8.30025 4.8704C8.22022 4.83695 8.13212 4.82812 8.0471 4.84503C7.96207 4.86194 7.88395 4.90383 7.82261 4.9654C7.76128 5.02696 7.71948 5.10544 7.70252 5.19089C7.68556 5.27635 7.69419 5.36494 7.72732 5.44546C7.76046 5.52598 7.8166 5.59481 7.88866 5.64324C7.96071 5.69166 8.04543 5.71751 8.1321 5.71751C8.18965 5.71783 8.2467 5.70668 8.29994 5.6847C8.35318 5.66273 8.40156 5.63037 8.44229 5.58949C8.48302 5.5486 8.51529 5.50001 8.53724 5.44652C8.55919 5.39303 8.57037 5.33569 8.57016 5.27783V5.27783ZM12.7882 5.27783C12.7883 5.19075 12.7627 5.10561 12.7146 5.03317C12.6665 4.96073 12.5982 4.90426 12.5182 4.8709C12.4382 4.83754 12.3501 4.82879 12.2652 4.84576C12.1802 4.86273 12.1022 4.90465 12.041 4.96622C11.9797 5.0278 11.938 5.10625 11.9211 5.19166C11.9043 5.27707 11.913 5.36559 11.9462 5.44603C11.9793 5.52646 12.0355 5.59519 12.1076 5.64352C12.1796 5.69184 12.2643 5.7176 12.3509 5.71751C12.4084 5.71773 12.4653 5.70651 12.5185 5.68449C12.5716 5.66247 12.6199 5.63008 12.6605 5.58921C12.7012 5.54834 12.7334 5.49978 12.7553 5.44634C12.7771 5.39289 12.7883 5.33562 12.788 5.27783H12.7882Z" fill="#22313F"/>
</svg>
