<svg width="24" height="25" viewBox="0 0 24 25" fill="none" xmlns="http://www.w3.org/2000/svg">
<path d="M19 3.70768H16.75V2.74348C16.75 2.54457 16.671 2.35381 16.5303 2.21315C16.3897 2.0725 16.1989 1.99348 16 1.99348C15.8011 1.99348 15.6103 2.0725 15.4697 2.21315C15.329 2.35381 15.25 2.54457 15.25 2.74348V3.70768H8.75V2.74348C8.75 2.54457 8.67098 2.35381 8.53033 2.21315C8.38968 2.0725 8.19891 1.99348 8 1.99348C7.80109 1.99348 7.61032 2.0725 7.46967 2.21315C7.32902 2.35381 7.25 2.54457 7.25 2.74348V3.70768H5C4.27088 3.70843 3.57184 3.99839 3.05628 4.51396C2.54071 5.02952 2.25074 5.72857 2.25 6.45768V19.4577C2.25074 20.1868 2.54071 20.8858 3.05628 21.4014C3.57184 21.917 4.27088 22.2069 5 22.2077H19C19.7291 22.2069 20.4282 21.917 20.9437 21.4014C21.4593 20.8858 21.7493 20.1868 21.75 19.4577V6.45768C21.7493 5.72857 21.4593 5.02952 20.9437 4.51396C20.4282 3.99839 19.7291 3.70843 19 3.70768V3.70768ZM5 5.20768H7.25V5.95278C7.25 6.1517 7.32902 6.34246 7.46967 6.48311C7.61032 6.62377 7.80109 6.70278 8 6.70278C8.19891 6.70278 8.38968 6.62377 8.53033 6.48311C8.67098 6.34246 8.75 6.1517 8.75 5.95278V5.20768H15.25V5.95278C15.25 6.1517 15.329 6.34246 15.4697 6.48311C15.6103 6.62377 15.8011 6.70278 16 6.70278C16.1989 6.70278 16.3897 6.62377 16.5303 6.48311C16.671 6.34246 16.75 6.1517 16.75 5.95278V5.20768H19C19.3314 5.20798 19.6492 5.33977 19.8836 5.57412C20.1179 5.80848 20.2497 6.12625 20.25 6.45768V8.70768H3.75V6.45768C3.75029 6.12625 3.88208 5.80848 4.11644 5.57412C4.3508 5.33977 4.66857 5.20798 5 5.20768ZM19 20.7077H5C4.66857 20.7074 4.3508 20.5756 4.11644 20.3412C3.88208 20.1069 3.75029 19.7891 3.75 19.4577V10.2077H20.25V19.4577C20.2497 19.7891 20.1179 20.1069 19.8836 20.3412C19.6492 20.5756 19.3314 20.7074 19 20.7077ZM13.0146 13.4367C13.0146 13.7019 12.9092 13.9563 12.7217 14.1438C12.5342 14.3313 12.2798 14.4367 12.0146 14.4367C11.7494 14.4367 11.495 14.3313 11.3075 14.1438C11.12 13.9563 11.0146 13.7019 11.0146 13.4367C11.0143 13.3054 11.0399 13.1753 11.09 13.0539C11.1401 12.9325 11.2136 12.8221 11.3064 12.7292C11.3993 12.6363 11.5095 12.5626 11.6308 12.5124C11.7522 12.4622 11.8823 12.4365 12.0136 12.4367C12.2788 12.437 12.5331 12.5424 12.7207 12.7299C12.9083 12.9173 13.014 13.1715 13.0146 13.4367V13.4367ZM8.0591 13.4367C8.0591 13.7019 7.95374 13.9563 7.76621 14.1438C7.57867 14.3313 7.32432 14.4367 7.0591 14.4367C6.79388 14.4367 6.53953 14.3313 6.35199 14.1438C6.16446 13.9563 6.0591 13.7019 6.0591 13.4367C6.05878 13.3054 6.0844 13.1753 6.13448 13.0539C6.18456 12.9325 6.25812 12.8221 6.35093 12.7292C6.44375 12.6363 6.554 12.5626 6.67535 12.5124C6.7967 12.4622 6.92677 12.4365 7.0581 12.4367C7.32334 12.4369 7.57768 12.5423 7.76533 12.7298C7.95298 12.9172 8.05862 13.1714 8.0591 13.4367V13.4367ZM18.0137 13.4367C18.0137 13.7019 17.9083 13.9563 17.7208 14.1438C17.5333 14.3313 17.2789 14.4367 17.0137 14.4367C16.7485 14.4367 16.4941 14.3313 16.3066 14.1438C16.1191 13.9563 16.0137 13.7019 16.0137 13.4367C16.0136 13.3054 16.0394 13.1754 16.0895 13.0541C16.1397 12.9328 16.2133 12.8226 16.306 12.7297C16.3988 12.6369 16.509 12.5632 16.6302 12.5129C16.7515 12.4626 16.8814 12.4367 17.0127 12.4367C17.2779 12.4369 17.5323 12.5423 17.7199 12.7298C17.9076 12.9172 18.0132 13.1714 18.0137 13.4367ZM8.0142 17.4367C8.0142 17.7019 7.90884 17.9563 7.72131 18.1438C7.53377 18.3313 7.27942 18.4367 7.0142 18.4367C6.74898 18.4367 6.49463 18.3313 6.30709 18.1438C6.11956 17.9563 6.0142 17.7019 6.0142 17.4367C6.014 17.3054 6.0397 17.1753 6.08982 17.054C6.13995 16.9326 6.21351 16.8224 6.3063 16.7295C6.39909 16.6366 6.50929 16.5629 6.63059 16.5127C6.75189 16.4624 6.88191 16.4366 7.0132 16.4367C7.27837 16.4368 7.53266 16.5422 7.72031 16.7295C7.90796 16.9169 8.01364 17.171 8.0142 17.4362V17.4367ZM13.0142 17.4367C13.0142 17.7019 12.9088 17.9563 12.7213 18.1438C12.5338 18.3313 12.2794 18.4367 12.0142 18.4367C11.749 18.4367 11.4946 18.3313 11.3071 18.1438C11.1196 17.9563 11.0142 17.7019 11.0142 17.4367C11.014 17.3054 11.0397 17.1753 11.0898 17.054C11.1399 16.9326 11.2135 16.8224 11.3063 16.7295C11.3991 16.6366 11.5093 16.5629 11.6306 16.5127C11.7519 16.4624 11.8819 16.4366 12.0132 16.4367C12.2784 16.4368 12.5328 16.5421 12.7205 16.7295C12.9082 16.9168 13.014 17.171 13.0146 17.4362L13.0142 17.4367Z" fill="#22313F"/>
</svg>
