<svg xmlns="http://www.w3.org/2000/svg" width="40" height="41" fill="none" viewBox="0 0 40 41">
  <path fill="#fff" d="M28.31 5.913H11.69a6.453 6.453 0 00-6.453 6.454v16.62a6.453 6.453 0 006.453 6.453h16.62a6.453 6.453 0 006.453-6.453v-16.62a6.453 6.453 0 00-6.453-6.454z"/>
  <path fill="#D6EEFF" d="M12.774 28.009h14.372s-.744-3.784-6.65-3.86c-7.21-.094-7.722 3.86-7.722 3.86zM20 19.114a3.022 3.022 0 100-6.045 3.022 3.022 0 000 6.045z"/>
  <path fill="#2A66F4" d="M20 20.84a4.746 4.746 0 11.007-9.491A4.746 4.746 0 0120 20.84zm0-7.497a2.752 2.752 0 10-.003 5.504A2.752 2.752 0 0020 13.343z"/>
  <path fill="#2F6BFF" d="M28.333 36.677H11.667A7.675 7.675 0 014 29.01V12.343a7.675 7.675 0 017.666-7.666h16.667A7.676 7.676 0 0136 12.343V29.01a7.676 7.676 0 01-7.667 7.667zm-16.666-30A5.673 5.673 0 006 12.343V29.01a5.673 5.673 0 005.666 5.667h16.667A5.673 5.673 0 0034 29.01V12.343a5.673 5.673 0 00-5.667-5.666H11.667z"/>
  <path fill="#2A66F4" d="M28.19 28.088a5.816 5.816 0 00-5.763-4.93h-4.854a5.798 5.798 0 00-5.682 4.61.986.986 0 00-.055.217c-.006.035-.02.067-.026.103 0 .007.002.014.001.02-.001.024-.013.043-.013.067v.154a.927.927 0 00.028.141l.005.023a.974.974 0 00.954.824h14.416a1.065 1.065 0 00.976-.934c.002-.018.011-.034.011-.054v-.154l-.002-.01c-.002-.026.008-.05.004-.077zm-13.991-.9a3.808 3.808 0 013.375-2.03h4.853a3.81 3.81 0 013.375 2.03H14.2z"/>
</svg>
