<svg xmlns="http://www.w3.org/2000/svg" width="40" height="41" fill="none" viewBox="0 0 40 41">
  <path fill="#D6EEFF" d="M32 9.84c0 2.21-5.373 4-12 4-6.628 0-12-1.79-12-4 0-2.208 5.372-4 12-4 6.627 0 12 1.792 12 4z"/>
  <path fill="#2A66F4" fill-rule="evenodd" d="M9.895 9.15c-.47.396-.562.69-.562.857 0 .167.092.462.562.859.466.393 1.199.792 2.192 1.146 1.977.706 4.775 1.162 7.913 1.162s5.936-.456 7.913-1.162c.993-.354 1.726-.754 2.192-1.146.47-.397.562-.692.562-.859 0-.167-.092-.46-.562-.858-.466-.393-1.199-.792-2.192-1.146C25.936 7.297 23.138 6.84 20 6.84s-5.936.456-7.913 1.162c-.993.354-1.726.753-2.192 1.146zm-2.562.857v13.334c0 .984.561 1.786 1.272 2.386.715.604 1.691 1.103 2.81 1.502 2.016.72 4.67 1.178 7.585 1.264V30.9a3.5 3.5 0 00-2.273 2.273H6.667a1 1 0 100 2H16.69a3.499 3.499 0 006.744 0h9.9a1 1 0 100-2h-9.937a3.5 3.5 0 00-.949-1.498l-.001-.001a3.5 3.5 0 00-1.447-.81v-2.372c2.915-.086 5.57-.544 7.586-1.264 1.118-.4 2.094-.898 2.81-1.502.71-.6 1.27-1.402 1.27-2.386V10.007c0-.983-.56-1.786-1.27-2.386-.716-.604-1.692-1.102-2.81-1.502-2.245-.801-5.28-1.278-8.586-1.278-3.305 0-6.34.476-8.586 1.278-1.118.4-2.094.898-2.809 1.502-.71.6-1.272 1.403-1.272 2.386zm2 13.334v-3.755c.6.375 1.306.7 2.081.976 2.245.802 5.28 1.279 8.586 1.279 3.305 0 6.34-.477 8.586-1.279.775-.277 1.482-.601 2.08-.976v3.755c0 .167-.091.46-.561.858-.466.393-1.199.792-2.192 1.146-1.977.707-4.775 1.162-7.913 1.162s-5.936-.455-7.913-1.162c-.993-.354-1.726-.753-2.192-1.146-.47-.397-.562-.691-.562-.858zM30.667 12.92v3.754c0 .167-.092.461-.562.858-.466.393-1.199.792-2.192 1.147-1.977.706-4.775 1.162-7.913 1.162s-5.936-.456-7.913-1.162c-.993-.355-1.726-.754-2.192-1.147-.47-.397-.562-.691-.562-.858V12.92c.6.374 1.306.699 2.081.976 2.245.801 5.28 1.278 8.586 1.278 3.305 0 6.34-.477 8.586-1.278.775-.277 1.482-.602 2.08-.976z" clip-rule="evenodd"/>
</svg>
