<svg xmlns="http://www.w3.org/2000/svg" width="40" height="41" fill="none" viewBox="0 0 40 41">
  <path fill="#4285F4" d="M37 21.096c0-1.398-.116-2.418-.366-3.476H20.347v6.309h9.56c-.193 1.568-1.233 3.929-3.546 5.515l-.033.212 5.15 3.91.356.034C35.111 30.634 37 26.271 37 21.096z"/>
  <path fill="#34A853" d="M20.347 37.718c4.684 0 8.616-1.511 11.488-4.118l-5.474-4.155c-1.465 1-3.431 1.7-6.014 1.7-4.587 0-8.48-2.966-9.868-7.065l-.204.017-5.355 4.061-.07.191c2.853 5.553 8.713 9.37 15.497 9.37z"/>
  <path fill="#FBBC05" d="M10.478 24.08a10.276 10.276 0 01-.578-3.362c0-1.171.212-2.304.56-3.362l-.01-.225-5.422-4.127-.178.083A16.739 16.739 0 003 20.718c0 2.739.675 5.327 1.85 7.631l5.628-4.269z"/>
  <path fill="#EB4335" d="M20.347 10.291c3.257 0 5.454 1.38 6.707 2.531l4.896-4.684c-3.007-2.739-6.92-4.42-11.603-4.42-6.785 0-12.644 3.816-15.497 9.369l5.61 4.269c1.406-4.1 5.3-7.065 9.887-7.065z"/>
</svg>
