<svg xmlns="http://www.w3.org/2000/svg" width="192" height="192" viewBox="0 0 192 192">
  <g fill="none" fill-rule="evenodd">
    <rect width="192" height="192"/>
    <g transform="translate(1 30.5)">
      <path fill="#F0F0F0" fill-rule="nonzero" d="M17.73,129.388 C17.73,129.388 -12.17,101.238 19.1145,88.292 C50.399,75.346 52.3365,22.7075 107.983,29.1815 C163.6295,35.6555 167.2285,77.3145 167.2285,77.3145 C167.2285,77.3145 203.219,94.4845 178.0285,129.1065 L17.73,129.388 Z"/>
      <path fill="#FFF" fill-rule="nonzero" d="M32.115,107.5745 C34.603,113.8935 36.315,121.0675 36.138,128.6895 L39.1135,128.7605 C39.1803408,125.639804 38.9710253,122.519312 38.488,119.4355 C42.03,115.0525 48.956,105.406 43.0955,103.4145 C39.081,102.05 37.5065,107.147 36.9155,112.29 C35.9503441,108.938498 34.7280504,105.666455 33.2595,102.503 C34.5,97.557 36.0955,88.816 32.032,88.323 C29.3455,87.9975 29.265,91.894 29.9265,96.094 C27.9345133,92.6648826 25.7071727,89.3780014 23.2605,86.257 C22.3695,86.765 21.4528333,87.2385 20.5105,87.6775 C21.6605,89.1385 22.958,90.8815 24.2975,92.8705 C22.355,90.9835 20.1935,89.6835 19.0255,91.6145 C17.042,94.8925 24.345,96.862 27.198,97.4935 C28.6824909,100.035192 30.0171016,102.661507 31.195,105.359 C26.6865,102.959 19.39,99.783 18.006,103.492 C16.462,107.6325 26.991,107.7535 32.115,107.5745 Z"/>
      <path fill="#F0F0F0" fill-rule="nonzero" d="M101.204 66.613L100.508 65.117C100.508 65.117 91.2335 64.5305 90.958 64.437 90.79 64.38 91.385 65.337 91.88 66.0975 92.0310212 66.3284927 92.0770745 66.6126668 92.0067362 66.879533 91.9363979 67.1463991 91.7562579 67.3709552 91.511 67.4975 87.3695 69.594 71.225 77.7055 67.933 78.4405 65.796 78.917 62.7765 78.7055 60.5525 78.4315 60.183 81.3315 62.8575 83.413 62.8575 83.413L63.365 88.713 83.575 87.163 81.637 82.378 75.2695 78.719C77.7615 78.156 94.1415 67.5535 94.1415 67.5535 95.7115 67.977 98.894 67.2595 101.204 66.613zM5.056 122.163L34.039 122.163C35.7856005 122.163 37.2015 123.578899 37.2015 125.3255L37.2015 125.38C37.2015 127.126601 35.7856005 128.5425 34.039 128.5425L5.056 128.5425 5.056 122.1625 5.056 122.163z"/>
      <path fill="#FFF" fill-rule="nonzero" d="M166.072,126.56 L156.0955,126.56 C153.852819,126.56 152.03438,124.74268 152.033,122.5 L152.033,112.85 L170.133,112.85 L170.133,122.5 C170.13162,124.742095 168.314095,126.559173 166.072,126.56 Z"/>
      <path fill="#F0F0F0" fill-rule="nonzero" d="M168.0395,112.85 C166.818,118.1215 161.895,122.0655 156.0045,122.0655 C154.655941,122.066026 153.315705,121.854268 152.033,121.438 L152.033,123.233 C152.033,125.07 153.839,126.559 156.0665,126.559 L166.1,126.559 C168.3275,126.559 170.1335,125.07 170.1335,123.233 L170.1335,112.85 L168.0395,112.85 Z"/>
      <path fill="#FFF" fill-rule="nonzero" d="M32.6225 120.233L9.957 120.233 9.957 115.65 32.6225 115.65C33.8775671 115.65 34.895 116.667433 34.895 117.9225L34.895 117.9615C34.8944479 119.216177 33.8771767 120.233 32.6225 120.233zM142.242 96.677C140.2195 88.421 143.022 84.285 144.1945 82.984 144.292978 82.8703245 144.324906 82.7134583 144.278697 82.5703335 144.232488 82.4272088 144.114859 82.3186284 143.9685 82.284 141.6875 81.713 140.508 83.4725 140.1815 84.067 140.119391 84.1842203 140.004111 84.2638717 139.8725 84.2805 138.35536 84.4935936 136.86229 84.8524193 135.414 85.352 133.0305 86.16 129.594 86.1885 128.831 86.184 128.731889 86.1815545 128.636956 86.1435813 128.5635 86.077 126.3925 84.204 121.2025 87.097 121.2025 87.097 121.2025 87.097 121.3585 87.071 121.3295 87.2925L121.0175 87.3455C120.791356 87.3824142 120.577431 87.2310414 120.537 87.0055L119.124 79.563C119.10351 79.4532195 119.126844 79.3397806 119.189 79.247 120.439025 77.3255294 121.261747 75.157976 121.6015 72.891 121.629891 72.6630078 121.836776 72.5005345 122.065 72.527 123.5215 72.7145 128.312 72.9 127.915 67.1475 127.5545 61.9075 122.45 63.8145 121.2705 64.3275 121.124331 64.3946688 121.027878 64.5378061 121.0205 64.6985 120.901895 65.6204165 120.661289 66.5224807 120.305 67.381 120.234501 67.568057 120.041428 67.6790167 119.844313 67.6457581 119.647198 67.6124995 119.50122 67.444333 119.496 67.2445 119.443 65.8855 119.301 64.331 119.2335 63.6405 119.212154 63.4337266 119.04357 63.2732012 118.836 63.262 115.155 62.986 112.0995 59.1495 111.157 57.8375 111.082511 57.7348611 110.965134 57.6719704 110.838419 57.6668043 110.711704 57.6616382 110.589597 57.7147653 110.507 57.811 108.514 60.028 105.589 61.561 103.007 62.571 102.81669 62.6447965 102.601091 62.5671726 102.5015 62.389 100.4625 58.897 96.9015 54.7445 95.993 53.703 95.8682374 53.5548611 95.6562872 53.5153166 95.4865 53.6085 92.4115 55.38 90.4935 61.7515 90.1365 63.0235 90.0992978 63.161557 89.9930983 63.2704068 89.856 63.311 88.106 63.8355 76.229 67.456 67.147 71.875 56.306 77.1495 61.8075 82.5045 62.7355 83.3105 62.816741 83.3820915 62.8673931 83.4821429 62.877 83.59L63.0135 85.0165C63.0257438 85.1351535 62.9874413 85.2534761 62.9079871 85.3424457 62.8285329 85.4314153 62.7152775 85.4828014 62.596 85.484L43.57 85.484C42.6138905 85.4905659 41.7113275 85.9263828 41.1116286 86.6710638 40.5119298 87.4157447 40.278566 88.3904743 40.476 89.326L46.85 120.381C47.3354627 122.80153 49.4567857 124.546486 51.9255 124.556L82.109 124.556C82.2266516 124.556987 82.3385765 124.60693 82.4178901 124.693834 82.4972038 124.780737 82.5367392 124.896748 82.527 125.014L82.488 125.5425C82.473355 125.763116 82.2910939 125.935131 82.07 125.937L48.74 125.937C47.9291543 125.943875 47.2773447 126.606652 47.284 127.4175L47.284 127.4175C47.2802703 127.807233 47.4316255 128.182463 47.7047247 128.460533 47.9778238 128.738602 48.3502629 128.8967 48.74 128.9L82.237 128.9 82.2285 129.0145 138.9025 129.0145C139.618799 129.005201 140.283057 128.638526 140.672644 128.037367 141.062232 127.436208 141.125596 126.680117 140.8415 126.0225L139.725 123.378C139.67618 123.265683 139.679659 123.137503 139.7345 123.028 140.5195 121.49 138.909 112.7625 138.676 111.528 138.658051 111.433415 138.672865 111.335537 138.718 111.2505L140.8245 107.214C140.917985 107.037183 141.123298 106.950956 141.315 107.008 145.048 108.0925 146.96 106.891 147.7995 106.0135 147.908864 105.900673 147.947238 105.736803 147.89934 105.587149 147.851442 105.437495 147.725052 105.32636 147.5705 105.298 146.358 105.1125 143.981 103.776 142.242 96.677zM94.3065 67.5955C95.4567746 67.7346713 96.6223705 67.6763324 97.753 67.423 97.9750484 67.3816868 98.1896267 67.5246652 98.237 67.7455 98.5065 68.9955 98.7935 70.4755 99.02 72.0015 100.1275 79.4605 102.7965 84.737 110.6825 83.9645 111.8325 83.8515 112.9895 83.286 113.897 82.933 114.098135 82.8602842 114.321674 82.9515269 114.414476 83.1442199 114.507278 83.3369128 114.439251 83.568575 114.257 83.6805 112.957 84.5465 111.083 84.7835 109.3465 84.89 109.2327 84.8976046 109.126793 84.9508421 109.0528 85.0376375 108.978807 85.1244329 108.943 85.2374302 108.9535 85.351L109.188 88.1835C109.199318 88.3064101 109.156386 88.4281324 109.070464 88.5167458 108.984541 88.6053593 108.864201 88.6520231 108.741 88.6445L104.73 88.3625C104.73 88.3625 104.7195 88.459 104.712 88.631 104.707645 88.745881 104.657096 88.8541387 104.571813 88.9312323 104.48653 89.0083259 104.373736 89.0477256 104.259 89.0405 104.0505 89.025 103.9055 89.0135 103.836 89.008 103.80566 89.0060183 103.775725 88.999964 103.747 88.99 103.4695 88.8995 101.879 88.3785 99.7885 87.6805 99.7100795 87.6537327 99.6414676 87.6041022 99.5915 87.538 98.6178846 86.2456607 97.0945429 85.4847302 95.4765 85.4825L93.4 85.4825C93.3533825 85.482381 93.3071006 85.4746111 93.263 85.4595 90.697 84.563 88.441 83.7365 87.5885 83.3195 85.6557047 82.4740433 83.6704222 81.7540506 81.645 81.164 81.178521 81.0210256 80.6727397 81.0909021 80.2625 81.355 80.1359752 81.4307654 79.9780248 81.4307654 79.8515 81.355L76.058 79.175C75.9192995 79.0952872 75.8366317 78.9448775 75.843681 78.785058 75.8507303 78.6252385 75.9463198 78.4826914 76.0915 78.4155 79.971 76.678 92.511 68.608 93.9965 67.649 94.0886695 67.5908136 94.2001593 67.5715726 94.3065 67.5955L94.3065 67.5955z"/>
      <path fill="#FFF" fill-rule="nonzero" d="M109.367,85.15 L109.644,89.1375 L104.843994,88.762 C104.843994,88.762 104.79,97.4275 114.718,97.582 C126.807,97.7695 125.077,86.956 125.077,86.956 L119.934,88.05 L119.161,81.15 L118.3185,78.0185 C116.3805,83.1315 113.3955,84.941 109.367,85.15 Z"/>
      <path fill="#F0F0F0" fill-rule="nonzero" d="M148.35,105.2635 C148.35,105.2635 146.7325,108.7345 140.983,106.9075 L138.647,111.3835 C138.647,111.3835 140.7135,122.0705 139.6355,123.1665 L141.091,126.6165 C141.318571,127.143357 141.267781,127.74909 140.955653,128.230694 C140.643524,128.712299 140.111357,129.006049 139.5375,129.0135 L100.9065,129.0135 L98.2935,128.075 L98.502,124.557 L103.9565,124.557 C104.881256,124.550663 105.754226,124.129141 106.334255,123.408878 C106.914285,122.688614 107.139982,121.745843 106.949,120.841 L103.696,104.983 C108.227,108.745 116.099,114.6135 123.5775,116.9415 C126.772124,117.9399 130.210956,116.408413 131.606,113.366 L133.2685,109.779 C133.2685,109.779 114.904,112.594 106.7835,96.456 L107.805,96.006 C109.3175,97.2095 111.555,98.078 114.8695,98.109 C122.831,98.184 124.8695,93.172 125.332,89.7395 C129.7185,89.9395 137.8875,89.6005 138.982,84.4195 C139.6765,84.2935 140.0855,84.255 140.0855,84.255 C140.0855,84.255 141.433,81.1495 144.6675,82.5195 C144.6675,82.5195 139.728,86.416 142.2415,96.6775 C144.6735,106.6 148.35,105.2635 148.35,105.2635 Z M119.544,81.7825 L119.191,79.922 L118.6145,79.1245 C118.6145,79.1245 117.5645,81.419 114.292,82.9935 C114.398197,83.0789443 114.456841,83.2102326 114.449609,83.3463433 C114.442378,83.4824541 114.370152,83.6067893 114.2555,83.6805 C112.846,84.6185 110.7665,84.819 108.916,84.9145 L109.2275,88.679 L104.7275,88.3625 C104.574413,90.4941996 105.124894,92.6172575 106.2945,94.406 C110.45,94.6525 117.241,93.187 119.5455,81.7825 L119.544,81.7825 Z M100.033,74.761 C101.677,74.592 102.953,73.8865 102.883,73.185 C102.813,72.4835 101.424,72.052 99.78,72.221 C99.5415652,72.2458701 99.3045804,72.2830867 99.07,72.3325 C99.203,73.1825 99.357,74.0065 99.5385,74.793 C99.7,74.7875 99.8665,74.7785 100.0345,74.761 L100.033,74.761 Z M114.8445,74.198 C116.4885,74.029 117.7645,73.3235 117.6945,72.622 C117.6245,71.9205 116.2355,71.489 114.5915,71.658 C112.9475,71.827 111.671,72.5325 111.7415,73.234 C111.812,73.9355 113.2,74.367 114.846,74.2 L114.8445,74.198 Z"/>
      <path fill="#FFF" fill-rule="nonzero" d="M112.576,128.4715 L170.391,79.1315 C169.371648,78.4671589 168.315822,77.8605387 167.2285,77.3145 C167.2285,77.3145 163.6285,35.6555 107.983,29.1815 C105.587,28.903 103.297,28.741 101.0935,28.6735 C100.301919,29.2243676 99.5445244,29.8228026 98.8255,30.4655 L42.2825,84.7825 L112.576,128.4715 Z"/>
      <path fill="#95979A" fill-rule="nonzero" d="M166.65,108.9115 C166.784,108.92 169.9235,109.0815 170.7645,106.4075 C170.832381,106.186218 170.985924,106.001265 171.190938,105.893827 C171.395952,105.78639 171.635414,105.765389 171.856,105.8355 C172.315057,105.989632 172.565496,106.483609 172.4185,106.945 C171.4795,109.9275 168.565,110.684 166.8825,110.684 C166.7595,110.684 166.644,110.680333 166.536,110.673 C166.049575,110.64152 165.68077,110.221675 165.71225,109.73525 C165.74373,109.248825 166.163575,108.88002 166.65,108.9115 L166.65,108.9115 Z M189.967032,129.6075 C189.968997,129.839653 189.878652,130.063083 189.715854,130.2286 C189.553057,130.394117 189.331154,130.488151 189.099,130.49 L139.873,130.49 C139.734152,130.510057 139.594243,130.521911 139.454,130.5255 L82.2285,130.5255 C82.1275314,130.524225 82.0269775,130.512326 81.9285,130.49 L1.104,130.49 C0.616608766,130.49 0.221500149,130.094891 0.221500149,129.6075 C0.221500149,129.120109 0.616608766,128.725 1.104,128.725 L3.338,128.725 C3.32895952,128.66484 3.32295192,128.604264 3.32,128.5435 L3.32,122.163 C3.31600537,121.698694 3.49669594,121.251834 3.82229105,120.9208 C4.14788616,120.589766 4.59169176,120.401697 5.056,120.398 L8.2375,120.398 C8.2325,120.343 8.221,120.2895 8.221,120.233 L8.221,115.65 C8.21700537,115.185694 8.39769594,114.738834 8.72329105,114.4078 C9.04888616,114.076766 9.49269176,113.888697 9.957,113.885 L32.6405,113.885 C34.8616811,113.905897 36.6468129,115.720777 36.631,117.942 C36.6316603,118.942348 36.2643387,119.907991 35.599,120.655 C37.1814935,121.207259 38.380033,122.518523 38.7882028,124.144153 C39.1963727,125.769783 38.7594155,127.491694 37.6255,128.726 L46.0755,128.726 C45.8660049,128.322019 45.7567651,127.87357 45.757,127.4185 L45.757,127.3465 C45.7539274,126.188994 46.4582545,125.147074 47.5335,124.7185 C46.3106288,123.702133 45.4699038,122.299984 45.1495,120.7425 L38.7765,89.6845 C38.4742757,88.2296304 38.8366987,86.7157765 39.765,85.5555 C40.6859737,84.3937588 42.0874904,83.716758 43.57,83.7175 L61.02,83.7175 C60.083,82.6715 58.813,80.7795 59.0575,78.3845 C59.361,75.414 61.8655,72.764 66.5015,70.5085 C75.056,66.3465 85.8575,62.944 88.867,62.0285 C88.991,61.614 89.162,61.0785 89.376,60.4715 L89.387,60.477 C88.6905211,60.0949348 88.031461,59.6483073 87.4185,59.143 L85.3435,57.4045 L87.756,56.1965 C88.6844571,55.7265967 89.5849606,55.2033898 90.453,54.6295 L86.608,51.2475 C86.608,51.2475 103.182,39.591 111.6955,39.5905 L111.6955,39.5905 C113.477237,39.5961288 115.246363,39.8895762 116.9345,40.4595 C116.8115,39.185 117.0255,38.3175 118.1905,39.315 C120.8205,41.565 120.3705,41.8835 120.3705,41.8835 C120.3705,41.8835 122.343,41.637 122.689,43.115 C122.72366,43.2684981 122.747716,43.4241991 122.761,43.581 C124.243608,44.7057996 125.544471,46.0518569 126.618,47.572 C126.627409,46.4911954 127.195969,45.4923839 128.1205,44.9325 C128.339091,44.8095165 128.585687,44.74494 128.8365,44.745 C129.322214,44.7457154 129.776661,44.9847112 130.0525,45.3845 L133.836,50.8265 L133.945,51.009 C134.3245,51.7645 136.2005,55.564 136.555,57.489 C137.003393,58.7628541 137.584065,59.9862037 138.2875,61.139 C139.603,62.4765 156.828,74.5125 159.3875,76.0025 C161.892914,77.5164006 163.625909,80.0350179 164.1445,82.916 C164.604741,85.3197236 163.970226,87.8035317 162.4135,89.692 L162.249,89.892 C159.214478,93.6624554 155.538041,96.8674894 151.389,99.3595 C151.461,105.719 149.0585,107.5475 147.5835,108.0695 C146.509021,108.67035 145.294373,108.975393 144.0635,108.9535 C143.28317,108.947613 142.505846,108.856065 141.7455,108.6805 L140.2095,111.6245 C140.38,112.5495 140.7355,114.553 141.022,116.6585 C141.5345,120.429 141.5125,122.2175 141.264,123.1845 L142.461,126.0205 C142.827084,126.891809 142.797723,127.878989 142.3805,128.727 L152.365,128.727 C152.094085,128.530848 151.933919,128.21647 151.9345,127.882 C151.930936,127.334312 152.357202,126.879907 152.904,126.8485 C151.474394,125.731598 150.639941,124.017676 150.6425,122.2035 L150.6425,113.112 C150.638372,112.647608 150.819003,112.200619 151.144613,111.869477 C151.470222,111.538334 151.914104,111.350197 152.3785,111.3465 L155.198,111.3465 C155.548,110.165 156.81,107.565 161.1685,107.0855 C162.8185,106.9045 163.9885,106.4275 164.458,105.744 C164.630412,105.507735 164.710924,105.216788 164.6845,104.9255 C164.566346,104.455906 164.848206,103.978706 165.3165,103.8555 C165.541489,103.800109 165.779289,103.837081 165.97684,103.958167 C166.174391,104.079252 166.315255,104.274376 166.368,104.5 C166.521308,105.287029 166.345094,106.102494 165.8805,106.756 C165.098,107.8965 163.575,108.5985 161.3545,108.843 C158.5845,109.1475 157.4885,110.4725 157.06,111.3485 L169.79,111.3485 C170.254396,111.352197 170.698278,111.540334 171.023887,111.871477 C171.349497,112.202619 171.530128,112.649608 171.526,113.114 L171.526,122.2 C171.528559,124.014176 170.694106,125.728098 169.2645,126.845 C169.81138,126.876398 170.237796,127.330729 170.2345,127.8785 C170.234883,128.213041 170.07454,128.527401 169.8035,128.7235 L189.0965,128.7235 C189.328917,128.725347 189.551049,128.819587 189.713889,128.98543 C189.87673,129.151272 189.967032,129.375089 189.9645,129.6075 L189.967032,129.6075 Z M9.957,120.233 L32.6405,120.233 C33.8876822,120.206948 34.8851226,119.188454 34.8851226,117.941 C34.8851226,116.693546 33.8876822,115.675052 32.6405,115.649 L9.957,115.649 L9.957,120.233 Z M37.2,125.3535 C37.21442,123.606158 35.8098382,122.17785 34.0625,122.163 L5.056,122.163 L5.056,128.5435 L34.0645,128.5435 C35.8116413,128.52865 37.2161423,127.100647 37.2021059,125.3535 L37.2,125.3535 Z M129.116,52.3565 C129.055,52.3195 128.9905,52.2895 128.9295,52.2535 C129.560144,54.283047 129.866414,56.3994334 129.837,58.5245 C129.806155,60.8702702 129.469996,63.2020389 128.837,65.461 C129.9215,65.9555 131.2475,66.2545 131.8825,67.0875 C138.126,75.2785 143.6325,79.7425 146.1735,81.5685 C147.581,82.489 149.4325,83.188 150.431,83.7185 L146.7395,83.384 L144.2225,85.6065 C144.146,85.7565 144.0725,85.9145 143.997,86.0825 C143.566,87.3435 142.5215,91.472 144.397,98.0635 C144.566424,98.6990793 144.998659,99.2323468 145.585396,99.5296766 C146.172133,99.8270064 146.85777,99.8602219 147.4705,99.621 C155.429,96.3885 159.8345,90.443 161.2705,88.7145 C164.316,85.0555 162.424,79.52 158.6405,77.3145 C156.018,75.786 138.707,63.7095 137.2305,62.2085 C136.4425,61.4085 135.108,57.8925 135.108,57.8925 C134.8775,56.2035 132.6165,51.7 132.6165,51.7 L128.833,46.258 C126.9935,47.29 129.116,52.3565 129.116,52.3565 Z M127.4245,71.997 C126.333521,73.1059157 124.820667,73.695774 123.267,73.618 C122.962891,73.6176129 122.658998,73.6017591 122.3565,73.5705 C122.089269,75.105868 121.621956,76.599589 120.9665,78.0135 C120.7665,78.4415 120.5435,78.8455 120.3115,79.2365 C120.6115,80.9695 120.9265,83.5055 121.1455,85.429 C122.249,84.89 124.4985,83.929 126.5495,83.929 C127.487508,83.8971236 128.412636,84.154414 129.1995,84.666 C131.140056,84.6837358 133.073576,84.4302864 134.944,83.913 C136.320216,83.4427044 137.733056,83.0873205 139.168,82.8505 C139.943584,81.6645654 141.198046,80.8760985 142.603,80.6915 C138.179828,76.9194079 134.190416,72.6665396 130.7085,68.0115 C130.26314,67.6596831 129.753717,67.3976697 129.2085,67.24 C129.0755,67.19 128.9395,67.136 128.8025,67.0815 C128.938,69.197 128.4755,70.85 127.4245,71.997 L127.4245,71.997 Z M118.48,67.5255 L115.763,69.1615 C115.835989,69.3181699 115.881162,69.4863443 115.8965,69.6585 C115.974648,70.5784129 115.918391,71.5048036 115.7295,72.4085 C115.566516,73.1873431 114.948617,73.790225 114.166,73.934 C113.18744,74.1167733 112.193982,74.2080007 111.1985,74.2065 C110.6425,74.2065 110.082,74.179 109.517,74.124 C108.596306,74.03339 107.807339,73.4269245 107.483,72.5605 C107.342217,72.1859953 107.22253,71.8038965 107.1245,71.416 C106.551547,70.9169549 105.798971,70.6747716 105.0425,70.746 C104.71708,70.8011227 104.408954,70.9312206 104.1425,71.126 C104.094458,71.5927061 104.019837,72.0562922 103.919,72.5145 C104.25554,72.1955194 104.654147,71.9492405 105.09,71.791 C105.12139,71.7796733 105.156412,71.7920806 105.173671,71.8206426 C105.190929,71.8492047 105.185626,71.8859785 105.161,71.9085 C104.564878,72.4150357 104.350828,73.2412297 104.626,73.9735 C104.840276,74.4260786 105.245532,74.7592688 105.731,74.882 C105.790477,74.9023726 105.828129,74.9609808 105.821932,75.0235442 C105.815735,75.0861076 105.767318,75.1361909 105.705,75.1445 C105.062,75.219 104.078,75.1805 103.6745,74.3605 C103.568138,74.1525861 103.500374,73.9271024 103.4745,73.695 C103.123775,74.2165799 102.583521,74.5808747 101.9685,74.7105 C101.311177,74.8603359 100.64525,74.9695426 99.9745,75.0375 C101.1465,79.8005 103.343,83.15 108.0245,83.6535 C110.632031,83.8687087 113.245417,83.3143226 115.541,82.059 C115.627714,82.0132292 115.734823,82.0370731 115.793933,82.1153063 C115.853042,82.1935394 115.846719,82.3030879 115.779,82.374 C114.0745,84.224 111.953,85.0075 109.416,85.147 L109.6435,89.138 L104.8435,88.7625 C104.8435,88.7625 109.271,102.951 118.699,100.47 C122.6755,99.4235 125.1065,91.5095 125.1605,88.5455 C125.169972,88.1564815 125.001342,87.7844187 124.702561,87.5351098 C124.40378,87.2858009 124.007535,87.1865207 123.6265,87.2655 L119.932,88.052 L118.614,79.126 C119.82,77.9615 120.618,74.316 120.93,72.645 C121.009432,72.1980899 121.436074,71.9001568 121.883,71.9795 C122.339132,72.0616818 122.801529,72.1041741 123.265,72.1065 C125.175,72.1065 127.6015,71.304 127.315,67.136 C127.295374,66.8425568 127.258309,66.550541 127.204,66.2615 C126.960075,66.0895444 126.736475,65.8904345 126.5375,65.668 L125.193,64.196 C125.0215,64.2025 124.832,64.206 124.619,64.206 C124.354,64.206 124.0655,64.201 123.7565,64.196 L123.29,64.2715 C122.575293,64.5487334 121.896975,64.9119023 121.27,65.353 C121.27,67.164 120.239,68.8385 119.5035,69.803 C119.402056,69.9380989 119.227333,69.9959214 119.065324,69.9480094 C118.903315,69.9000974 118.788146,69.7565437 118.7765,69.588 C118.723,68.996 118.6095,68.2665 118.48,67.5255 L118.48,67.5255 Z M101.77,73.721 C102.304499,73.6048617 102.72914,73.1995219 102.87,72.671 C102.92,72.4755 102.966,72.271 103.0065,72.059 C102.958982,72.0835388 102.907228,72.0988105 102.854,72.104 C102.358,72.1315 101.9075,71.237 101.831,70.095 C101.5975,70.084 101.3685,70.0765 101.1435,70.0765 C100.455767,70.0807696 99.7688925,70.1258489 99.0865,70.2115 C99.173,70.688 99.256,71.178 99.3315,71.685 C99.452,72.4975 99.589,73.285 99.748,74.041 C100.428573,73.9810919 101.104186,73.8741699 101.77,73.721 L101.77,73.721 Z M108.4075,72.1935 C108.603456,72.7037549 109.068937,73.0610737 109.6125,73.1185 C111.071241,73.2659489 112.543508,73.2061896 113.9855,72.941 C114.368704,72.8701243 114.672775,72.5776574 114.7585,72.1975 C114.927362,71.3916259 114.977893,70.5654462 114.9085,69.745 C114.88565,69.499505 114.683441,69.3095191 114.437,69.302 C113.4965,69.2665 112.654,69.2595 111.887,69.2775 C111.7725,70.3775 111.287,71.212 110.745,71.182 C110.245,71.154 109.8695,70.3985 109.8175,69.415 C109.297215,69.4725029 108.78104,69.5625122 108.272,69.6845 C108.003048,69.7618105 107.838553,70.032705 107.894,70.307 C108.009146,70.9497579 108.180984,71.5810568 108.4075,72.1935 L108.4075,72.1935 Z M98.062,65.69 C98.296,66.544 98.607,67.776 98.898,69.2205 C99.883621,69.0921566 100.878397,69.0481636 101.8715,69.089 C101.983,68.3775 102.266,67.873 102.6265,67.853 C103.067,67.8285 103.4735,68.5315 103.612,69.489 C103.794606,69.6409308 103.93999,69.832666 104.037,70.0495 C104.286064,69.8805411 104.573825,69.7773393 104.8735,69.7495 C105.568732,69.6457366 106.278902,69.7684517 106.899,70.0995 C106.932594,69.4360716 107.392303,68.8709456 108.035,68.703 C108.642774,68.5572144 109.259667,68.452478 109.8815,68.3895 C110.049,67.453 110.493,66.776 110.9815,66.803 C111.428,66.828 111.7745,67.436 111.8815,68.267 C112.667,68.2485 113.5235,68.2555 114.476,68.2925 C114.668964,68.3003628 114.858453,68.346418 115.0335,68.428 L118.291,66.4665 C118.08,65.329 117.8805,64.3085 117.8595,63.896 C117.1025,63.7555 114.804,62.446 113.9945,61.775 C113.611036,61.6585962 113.242011,61.4990768 112.8945,61.2995 C112.187602,60.9259653 111.7385,60.1988287 111.721,59.3995 C111.395378,58.9847267 111.093719,58.5516877 110.8175,58.1025 C107.6,62.05 101.6,63.65 98.975,64.1805 C98.6479206,64.2496106 98.3641047,64.4511732 98.1910921,64.7372219 C98.0180796,65.0232706 97.9713414,65.3682264 98.062,65.69 L98.062,65.69 Z M96.9044912,70.9435 C96.9214896,71.7662665 97.0582593,72.5821687 97.3105,73.3655 C97.4358461,73.733996 97.7693225,73.9918791 98.1575,74.0205 L98.2245,74.0245 C98.083,73.316 97.9635,72.6075 97.86,71.9105 C97.7925,71.4545 97.7185,71.0105 97.641,70.5775 L97.3385,70.592 L97.221,70.4865 C97.0298156,70.5570176 96.9032771,70.7397288 96.9044912,70.9435 L96.9044912,70.9435 Z M95.3045,69.1935 C95.0190027,69.1947126 94.7336798,69.179186 94.45,69.147 C91.6205,70.973 83.263,76.319 78.5325,78.8585 L80.096,79.7585 C80.4347326,79.6389015 80.791274,79.5775338 81.1505,79.577 C81.4642255,79.5771528 81.7761681,79.6241717 82.076,79.7165 C84.175274,80.3277169 86.2321905,81.0759902 88.2335,81.9565 C88.922,82.2935 90.697,82.9565 92.8625,83.718 L95.476,83.718 C97.6415658,83.7278073 99.6773587,84.7519962 100.976,86.485 C102.1675,86.8815 103.226,87.231 104.0365,87.4955 C104.276619,87.33551 104.558464,87.2496177 104.847,87.2485 C104.885,87.2485 104.923,87.25 104.961,87.253 L108.061,87.4955 L107.928,85.1635 C101.958,84.5385 99.584,79.9205 98.447,75.049 C98.328,75.042 98.2115,75.0365 98.0835,75.0265 C97.290477,74.9695269 96.6117648,74.4360975 96.369,73.679 C96.0858812,72.8013091 95.932265,71.887023 95.913,70.965 C95.9038494,70.5060002 96.1053975,70.0680846 96.46,69.7765 C96.31,69.6225 96.12,69.423 95.903,69.1765 C95.697,69.188 95.497,69.195 95.305,69.195 L95.3045,69.1935 Z M87.588,83.318 C86.0538834,82.6312004 84.478504,82.0405584 82.871,81.5495 C82.439,81.4105 82.021,81.2785 81.6445,81.1625 C81.5690696,81.1405827 81.4922218,81.1238767 81.4145,81.1125 C81.381,81.1075 81.3475,81.1055 81.3145,81.1025 C81.2815,81.0995 81.234,81.0945 81.194,81.0935 C81.154,81.0925 81.123,81.0935 81.0875,81.0965 C81.0312441,81.0989765 80.9751627,81.1044845 80.9195,81.113 C80.8174882,81.1276691 80.7170577,81.1517725 80.6195,81.185 L80.611,81.185 C80.419072,81.2535924 80.2405677,81.3551115 80.0835,81.485 L80.0835,81.485 C79.7120898,81.787787 79.4911712,82.237475 79.4785,82.7165 C79.4695,83.044 79.4785,83.3785 79.4925,83.7165 L88.514,83.7165 C88.1225,83.562 87.808,83.4265 87.5885,83.3195 L87.588,83.318 Z M62.856,83.4115 L62.885,83.716 L78,83.716 C77.985,83.366 77.979,83.016 77.9885,82.675 C78.0047141,81.9541743 78.2646802,81.2601088 78.726,80.706 L76.846,79.625 C75.212,80.275 72.6495,80.809 70.19,79.3125 C72.0841967,79.3731071 73.9750495,79.1138037 75.783,78.5455 C79.449,77.0655 94.143,67.555 94.143,67.555 C94.3323766,67.6030672 94.5253443,67.6356744 94.72,67.6525 C93.4882394,65.9238391 92.7010694,63.9184788 92.428,61.8135 C91.9455,61.6485 91.3595,61.4265 90.728,61.145 C90.299,62.372 90.0725,63.2425 90.0725,63.2425 C90.0725,63.2425 76.9725,67.09 67.1435,71.872 C55.3815,77.596 62.8565,83.413 62.8565,83.413 L62.856,83.4115 Z M51.4,124.5265 L104.363,124.5265 C105.207855,124.406878 105.965391,123.942568 106.455409,123.244018 C106.945426,122.545468 107.124126,121.675117 106.949,120.84 L100.55,89.6575 C100.064537,87.2369697 97.9432143,85.4920138 95.4745,85.4825 L43.57,85.4825 C42.6138905,85.4890659 41.7113275,85.9248828 41.1116286,86.6695638 C40.5119298,87.4142447 40.278566,88.3889743 40.476,89.3245 L46.85,120.381 C47.2988457,122.608067 49.1408818,124.286344 51.4,124.5265 Z M47.494,127.4175 C47.4892857,127.994728 47.9532742,128.46655 48.5305,128.4715 L112.5805,128.4715 C113.157726,128.46655 113.621714,127.994728 113.617036,127.4175 L113.617036,127.3455 C113.621714,126.768272 113.157726,126.29645 112.5805,126.2915 L48.528,126.2915 C47.9507742,126.29645 47.4867857,126.768272 47.4914644,127.3455 L47.494,127.4175 Z M115.351,127.3455 L115.351,127.4175 C115.350199,127.872985 115.239391,128.321538 115.028,128.725 L136.521,128.725 C137.738,127.6135 138.6095,125.6185 138.085,122.249 C138.06295,122.13008 138.119187,122.010342 138.224785,121.951374 C138.330383,121.892407 138.461825,121.907343 138.5515,121.9885 L139.711,123.065 C140.616,121.5505 138.651,111.3835 138.651,111.3835 L140.987,106.9075 C141.979627,107.241644 143.017797,107.420912 144.065,107.439 C144.2445,107.439 144.415,107.4295 144.58,107.4175 C144.6825,107.41 144.78,107.3975 144.876,107.3855 C144.9545,107.376 145.034,107.3675 145.109,107.3555 C145.203,107.3405 145.292,107.322 145.381,107.303 C145.452,107.288 145.5235,107.274 145.5915,107.257 C145.6765,107.2355 145.758,107.2115 145.8415,107.187 C145.9055,107.1675 145.9695,107.148 146.0305,107.127 C146.108,107.1 146.1805,107.0715 146.2545,107.0425 C146.312,107.0195 146.3695,106.996 146.424,106.9715 C146.493,106.9405 146.5595,106.9085 146.624,106.876 C146.674,106.85 146.7265,106.8235 146.774,106.7965 C146.8355,106.7625 146.895,106.7285 146.952,106.6935 C146.9975,106.665 147.042,106.637 147.0855,106.608 C147.139,106.5725 147.1915,106.5365 147.2415,106.5 C147.2815,106.471 147.3205,106.4415 147.358,106.412 C147.4045,106.3755 147.4505,106.339 147.4935,106.3025 C147.5285,106.273 147.5615,106.2435 147.5935,106.2135 C147.6255,106.1835 147.6725,106.142 147.709,106.1065 C147.7455,106.071 147.767,106.048 147.7945,106.019 C147.822,105.99 147.8605,105.951 147.89,105.919 C147.9195,105.887 147.94,105.862 147.963,105.8345 C147.986,105.807 148.013,105.7725 148.039,105.743 C148.065,105.7135 148.0795,105.693 148.0985,105.665 C148.1175,105.637 148.1395,105.6105 148.157,105.586 C148.1745,105.5615 148.189,105.5395 148.204,105.517 C148.219,105.4945 148.234,105.473 148.246,105.454 C148.258,105.435 148.2695,105.415 148.2805,105.397 C148.2915,105.379 148.3005,105.3645 148.3075,105.352 C148.3145,105.3395 148.3245,105.3215 148.331,105.309 L148.343,105.287 L148.3545,105.2645 L148.3325,105.271 L148.316,105.2755 C148.3005,105.28 148.2805,105.2845 148.2555,105.29 C148.242,105.293 148.228,105.295 148.2115,105.298 C148.195,105.301 148.1615,105.306 148.135,105.3095 C148.1085,105.313 148.0815,105.315 148.051,105.3175 C148.0205,105.32 148.001,105.3205 147.9745,105.321 C147.948,105.3215 147.93,105.3245 147.9035,105.3245 C147.1205,105.3245 145.44,104.8545 143.8425,101.4275 C144.003258,101.116144 144.059032,100.761153 144.0015,100.4155 C143.785,99.0075 143.0515,97.7025 142.8015,96.248 C142.5175,94.598 141.9355,89.1145 141.7065,88.829 C141.823462,87.9881351 142.019326,87.1601487 142.2915,86.356 C142.1795,86.681 142.1965,86.6105 142.296,86.343 C142.524576,85.6768201 142.816407,85.0340543 143.1675,84.4235 L143.1675,84.4235 C143.556672,83.7079212 144.065528,83.064283 144.672,82.5205 C144.176934,82.299109 143.64223,82.1800591 143.1,82.1705 C140.9945,82.1705 140.09,84.255 140.09,84.255 C139.204763,86.0901956 138.702396,88.0863957 138.6135,90.122 C138.185906,88.2739648 138.171224,86.3543596 138.5705,84.5 C137.501342,84.7159782 136.447038,84.9998872 135.414,85.35 C133.134,86.123 129.89,86.1825 128.945,86.1825 C128.7735,86.1825 128.6775,86.1825 128.6775,86.1825 C128.095281,85.6621646 127.328804,85.3968872 126.5495,85.446 C126.219343,85.4484786 125.889868,85.4763945 125.564,85.5295 C125.690384,85.572984 125.810305,85.6333648 125.9205,85.709 C126.257056,85.9448828 126.483214,86.3074924 126.547,86.7135 C126.5805,86.921 126.528,100.4135 117.6545,101.9 C113.2125,102.6445 109.4915,99.528 107.5105,96.9755 C110.165,101.645 114.4605,105.62 120.186,108.989 C111.472,105.754 107.3,100.35 105.336,96.3865 C104.133663,94.0176237 103.392834,91.4416887 103.153,88.796 C102.856,88.6985 102.4695,88.5715 102.003,88.418 L102.003,88.418 C102.105548,88.7057014 102.189061,88.9998363 102.253,89.2985 L108.65,120.4795 C108.945968,121.90369 108.591238,123.38567 107.6825,124.5215 L107.678,124.5265 L112.578,124.5265 C114.120887,124.541894 115.360547,125.802573 115.35,127.3455 L115.351,127.3455 Z M169.790135,122.2 L169.790135,113.112 L152.377362,113.112 L152.377362,122.2 C152.359198,124.44421 154.163295,126.278525 156.4075,126.2975 L165.7575,126.2975 C166.835658,126.289047 167.86628,125.852558 168.622556,125.084091 C169.378832,124.315624 169.798787,123.278155 169.790135,122.2 L169.790135,122.2 Z M109.117,74.741 C107.535,75.3445 107.0555,77.6555 107.036,77.7535 L107.491,77.8475 C107.771429,77.9064585 108.051356,77.7451775 108.141,77.473 C108.3515,76.8385 108.7835,75.9455 109.467,75.685 C110.021773,75.533611 110.615471,75.6543914 111.067,76.0105 C111.313896,76.1682541 111.64061,76.1094455 111.817,75.8755 L112.094,75.5065 C111,74.661 110,74.4 109.117,74.741 Z M101.754,66.665 C102.773,66.665 103.5995,65.923 103.5995,65.586 C103.5995,65.249 102.773,65.4455 101.754,65.4455 C100.735,65.4455 99.908,65.7185 99.908,66.0555 C99.908,66.3925 100.7345,66.665 101.754,66.665 Z M111.0745,65.07 C112.094,65.07 112.92,64.797 112.92,64.4605 C112.92,64.124 112.07,64.0705 111.0745,63.8505 C110.013,63.616 108.906,62.6305 108.6745,63.3815 C108.259,64.735 110.055,65.07 111.0745,65.07 L111.0745,65.07 Z"/>
      <path fill="#FFF" fill-rule="nonzero" d="M158.6465,77.3145 C156.024,75.786 138.713,63.7095 137.2365,62.2085 C136.4485,61.4085 135.114,57.8925 135.114,57.8925 C134.8835,56.2035 132.6225,51.7 132.6225,51.7 L128.839,46.258 C126.9935,47.29 129.116,52.358 129.116,52.358 C123.7635,49.0745 116.196,50.4815 114.535,51.889 C113.835,52.4805 118.5955,53.484 118.5955,53.484 C118.5955,53.484 111.213,55.267 111.4895,56.205 C111.766,57.143 116.196,57.331 116.196,57.331 C116.196,57.331 111.8125,58.881 113.6585,60.005 C114.130211,60.2481866 114.631598,60.4288742 115.15,60.5425 C115.9,61.476 117.95,62.773 121.9175,62.679 C123.6265,62.6385 124.9985,62.7675 125.7865,62.6205 L127.6395,64.6495 C128.643,65.7995 130.974,65.8945 131.8845,67.089 C140.4665,78.348 147.6645,82.57 147.6645,82.57 L144.158,85.6665 L142.2875,86.3555 C141.5035,88.622 141.0915,91.982 142.242,96.6785 C142.58952,98.1634309 143.061179,99.616541 143.652,101.0225 C153.586,98.296 159.6575,90.661 161.2765,88.7155 C164.322,85.055 162.43,79.5195 158.6465,77.3145 Z"/>
      <path fill="#F0F0F0" fill-rule="nonzero" d="M161.2285,88.8395 C159.6095,90.785 153.0285,98.8895 143.0965,101.6155 C142.6055,100.4835 141.5965,99.076 141.157,97.284 C140.223506,93.6914769 140.32002,89.9087453 141.4355,86.3685 L144.112,85.671 L147.6415,82.5745 L150.3855,83.8435 L148.99,84.5205 C147.936803,85.0395656 147.283229,86.12534 147.3175,87.299 C147.328982,89.2961537 147.618942,91.2819476 148.179,93.199 C148.391219,93.8839933 148.911173,94.4305707 149.584724,94.6767025 C150.258276,94.9228343 151.008131,94.8402755 151.612,94.4535 C154.888,92.3215 161.0855,87.899 162.716,84.0035 C162.881992,85.7490676 162.346817,87.4889714 161.2285,88.8395 Z M124.771,60.795 C124.2325,60.745 123.7405,60.695 123.348,60.6605 C121.318,60.4725 124.64,59.769 124.64,59.769 C120.6035,60.013 114.7695,59.729 113.28,59.6485 C113.374478,59.7966375 113.504619,59.9186984 113.6585,60.0035 C114.130211,60.2466866 114.631598,60.4273742 115.15,60.541 C115.9,61.4745 117.95,62.7715 121.9175,62.6775 C123.6265,62.637 124.9985,62.766 125.7865,62.619 L127.6395,64.648 C128.643,65.798 130.974,65.893 131.8845,67.0875 C132.2425,67.557 132.597,68.01 132.9495,68.4555 L132.0945,66.3245 C130.879186,63.2570392 128.054003,61.1239274 124.771,60.795 L124.771,60.795 Z M132.415,53.95 C131.513159,52.3083162 130.109015,50.9987978 128.4085,50.2135 C128.597944,50.941669 128.83427,51.6568274 129.116,52.3545 L132.415,53.95 Z"/>
      <path fill="#95979A" fill-rule="nonzero" d="M148.576 102.366L144.25 102.225C143.005203 100.040058 142.193066 97.6357322 141.858 95.1435 141.032 89.207 142.5545 85.6885 142.5545 85.6885L144.2155 85.3715C142.8645 93.728 144.136 99.284 148.576 102.366zM146.026 83.716C147.0645 84.232 151.212 84.362 151.212 84.362L147.641 82.5725C147.641 82.5725 144.9885 83.2 146.0265 83.718L146.026 83.716zM115.735 54.116L116.6115 53.389 118.788 52.918C120.204829 52.6120494 121.676962 52.6809856 123.059 53.118L125.932 54.024C122.679 53.459 115.735 54.116 115.735 54.116zM114.143 57.224C114.143 57.224 112.447 59.0535 113.762 58.4905 115.00222 58.0288216 116.291048 57.7100954 117.6035 57.5405 119.718415 57.3160555 121.844252 57.2103897 123.971 57.224 122.179222 56.8873659 120.361067 56.7106706 118.538 56.696 116.826 56.716 113.866 57.1535 114.143 57.224zM115.4235 61.763L119.6105 60.5315 115.15 60.541 115.4235 61.763z"/>
      <path fill="#F75959" fill-rule="nonzero" d="M81.8745,21.924 C80.648,24.517 79.0095,27.6195 80.6155,30.4075 C82.072,32.936 78.212,35.2175 76.761,32.6985 C74.8955,29.4605 75.3295,25.867 76.6995,22.531 C78.0695,19.195 81.911,13.7425 77.9495,10.8275 C74.978,8.6405 69.8995,8.9005 67.0275,11.1075 C63.392,13.9 65.6025,19.2455 68.4635,21.5575 C70.7135,23.3755 67.533,26.5665 65.307,24.767 C61.407,21.617 59.5455,15.894 61.5305,11.112 C63.504,6.3585 69.4115,4.4245 74.1305,4.9065 C79.052,5.4065 83.9215,8.3235 84.116,13.8445 C84.221,16.734 83.0785,19.3795 81.8745,21.924 Z M85.9385,36.578 C85.7439338,36.3617588 85.4962589,36.2000894 85.22,36.109 C84.9565296,35.9670969 84.6594275,35.8995188 84.3605,35.9135 L83.767,35.9945 C83.3934282,36.0998398 83.0538747,36.3009865 82.782,36.578 L82.432,37.0375 C82.2315114,37.3859272 82.1263172,37.7810091 82.127,38.183 L82.127,38.3235 C82.1134026,38.6268343 82.1797878,38.9284131 82.3195,39.198 C82.40818,39.4770301 82.5670987,39.7285796 82.781,39.9285 C83.2108331,40.3315443 83.7708237,40.5672831 84.3595,40.593 L84.9525,40.512 C85.3261271,40.4067893 85.665712,40.2056241 85.9375,39.9285 L86.2875,39.469 C86.4879228,39.1205457 86.5931122,38.7254817 86.5925,38.3235 L86.5925,38.183 C86.6060974,37.8796657 86.5397122,37.5780869 86.4,37.3085 C86.3116494,37.0293167 86.1526812,36.7776887 85.9385,36.578 Z M94.085,19.825 C92.7806169,13.7257552 91.0599218,7.72303526 88.935,1.859 C87.95,-0.859 83.635,0.316 84.6305,3.0655 C86.7554884,8.92968384 88.4761846,14.9325747 89.7805,21.032 C90.391,23.8845 94.6955,22.6775 94.085,19.825 Z M94.785,29.4455 C91.9125,29.4455 91.9075,33.9845 94.785,33.9845 C97.6625,33.9845 97.664,29.4455 94.7865,29.4455 L94.785,29.4455 Z"/>
      <path fill="#F0F0F0" fill-rule="nonzero" d="M156.3395,19.9095 L140.3265,30.9095 C139.583684,31.4200714 139.259555,32.3546099 139.526712,33.2154732 C139.793869,34.0763366 140.590135,34.6631763 141.4915,34.6635002 L171.187,34.6635002 C172.088741,34.6638823 172.885654,34.0770476 173.152922,33.2158251 C173.42019,32.3546026 173.095525,31.4197024 172.352,30.9095 L156.3395,19.9095 Z"/>
      <line x1="156.247" x2="156.247" y1="24.303" y2="11.543" stroke="#F0F0F0" stroke-width="4"/>
      <path fill="#F0F0F0" fill-rule="nonzero" d="M43.02,30.754 C39.908135,28.6444994 36.0784891,27.8755054 32.3935017,28.6201962 C28.7085143,29.3648871 25.4780096,31.5606509 23.4295,34.713 C19.1042617,41.3083598 20.8328481,50.1501636 27.3235,54.631 C30.435365,56.7405006 34.2650109,57.5094946 37.9499983,56.7648038 C41.6349857,56.0201129 44.8654904,53.8243491 46.914,50.672 C51.2389574,44.0765851 49.5104125,35.2349933 43.02,30.754 L43.02,30.754 Z M45.341,49.604 C43.5692635,52.3369976 40.7712448,54.2410223 37.5787319,54.8861483 C34.386219,55.5312743 31.0684241,54.8631007 28.3745,53.0325 C22.7467078,49.1561293 21.2486877,41.4927705 25.0025,35.7825 C26.7739576,33.0493135 29.5719037,31.1451149 32.7644196,30.4999693 C35.9569354,29.8548236 39.2747386,30.5231478 41.9685,32.354 C47.5963999,36.2300272 49.0946602,43.8932567 45.341,49.6035 L45.341,49.604 Z M35.6375,41.963 L41.9925,42.2985 L41.8925,44.2195 L33.825,43.7935 L33.3215,32.7615 L35.211,32.672 L35.6375,41.963 Z" opacity=".4"/>
      <path fill="#F0F0F0" fill-rule="nonzero" d="M106.95,120.84 L104.185,107.3625 C102.891,107.798 101.56,108.2175 100.203,108.622 L99.657,105.713 C99.4788149,104.752539 98.8044921,103.958692 97.8855,103.6275 C96.9700387,103.305819 95.9522335,103.503301 95.2235,104.144 L92.3195,106.694 C91.7392631,107.205212 91.3986122,107.93532 91.3796293,108.708399 C91.3606463,109.481479 91.6650528,110.227426 92.2195,110.7665 C74.586,115.0435 54.829,117.152 46.3415,117.9165 L46.8465,120.3795 C47.3319627,122.80003 49.4532857,124.544986 51.922,124.5545 L103.9565,124.5545 C104.881108,124.548369 105.754046,124.127176 106.334242,123.407238 C106.914437,122.687299 107.1405,121.744791 106.95,120.84 L106.95,120.84 Z M93.864,109.44 C93.629813,109.354351 93.4580625,109.15167 93.4120035,108.906604 C93.3659445,108.661537 93.452389,108.410329 93.6395,108.2455 L96.5435,105.6955 C96.7284227,105.530557 96.9887269,105.479915 97.222,105.5635 C97.4566531,105.64687 97.6284745,105.84981 97.672,106.095 L98.252,109.185 C97.3,109.454 96.3365,109.7155 95.3615,109.9695 L93.864,109.44 Z"/>
      <path fill="#E0E0E0" fill-rule="nonzero" d="M79.595,102.507 L78.3735,102.507 L79.295,106.5645 L80.5165,106.5645 C81.636,106.5645 82.231,105.7775 81.949,104.536 C81.752202,103.382802 80.7646116,102.531561 79.595,102.507 Z M84.9665,104.1955 C84.3455,101.462 81.881,99.4005 79.233,99.4005 L77.03,99.4005 C76.6324571,99.4033691 76.2451751,99.5269994 75.9195,99.755 C75.6012145,99.5254183 75.2189443,99.4014341 74.8265,99.4005 L74.0265,99.4005 C73.4508761,99.4001515 72.9075971,99.6666204 72.5555,100.122 C72.2465797,100.52146 72.108181,101.026885 72.1705,101.528 C71.7827021,101.39396 71.3753095,101.325357 70.965,101.325 C70.5813789,101.321727 70.1997635,101.380658 69.835,101.4995 C69.7385813,101.47979 69.6404127,101.469906 69.542,101.47 L68.5665,101.47 C68.4512225,101.472601 68.3364187,101.485654 68.2235,101.509 C68.2142121,101.424976 68.2003583,101.341519 68.182,101.259 C67.9020515,100.052488 66.8426176,99.1872667 65.6045,99.1539968 C65.2029387,99.1533199 64.8086748,99.2613019 64.4635,99.4665 C64.3093757,99.4260084 64.1508457,99.4046808 63.9915,99.403 L63.013,99.403 C62.1480113,99.4115332 61.4144573,100.040866 61.2745,100.8945 L61.054,100.473 C60.7159622,99.8177884 60.0412697,99.4052621 59.304,99.403 L58.29,99.403 C57.6619899,99.4061713 57.0829673,99.742808 56.7695,100.287 C56.4538646,100.83683 56.446104,101.511051 56.749,102.068 L60.261,108.484 C60.6572273,109.214262 61.4201763,109.670306 62.251,109.6735 L63.1455,109.6735 C63.9909719,109.672724 64.765304,109.2001 65.1525,108.4485 C65.5120135,109.195801 66.2672197,109.67169 67.0965,109.6735 L67.6255,109.6735 C67.9551474,109.670752 68.2777098,109.577529 68.558,109.404 C68.850279,109.579902 69.1848719,109.673056 69.526,109.6735 L70.168,109.6735 C70.680296,109.673953 71.171067,109.467512 71.529,109.101 C71.8847706,109.467663 72.3741045,109.674259 72.885,109.6735 L73.527,109.6735 C73.8772383,109.670329 74.2196824,109.569743 74.516,109.383 C74.815342,109.572036 75.1619668,109.67273 75.516,109.6735 L76.26,109.6735 C76.6705902,109.671989 77.069527,109.536845 77.3965,109.2885 C77.7611346,109.53787 78.1922519,109.671995 78.634,109.6735 L80.884,109.6735 C82.1792387,109.711373 83.4171637,109.139154 84.2275,108.128 C85.0609088,106.998568 85.333045,105.550428 84.9665,104.1955 L84.9665,104.1955 Z M66.73,101.5955 C66.7975763,101.816686 66.7549429,102.056864 66.6153692,102.24128 C66.4757955,102.425695 66.2562256,102.53196 66.025,102.527 C65.976518,102.525743 65.9282065,102.520728 65.8805,102.512 L65.9645,101.6075 C65.991276,101.297934 65.9469827,100.986341 65.835,100.6965 C66.2728727,100.814759 66.6141825,101.157975 66.73,101.5965 L66.73,101.5955 Z M63.141,108.157 L62.2465,108.157 C61.9583842,108.155983 61.6937928,107.997803 61.5565,107.7445 L58.0445,101.329 C57.9966921,101.242789 57.9976492,101.137809 58.0470211,101.052484 C58.0963931,100.967158 58.1869317,100.914013 58.2855,100.9125 L59.3,100.9125 C59.4845814,100.913032 59.6535669,101.016119 59.7385,101.18 L62.3885,106.2425 L62.7385,101.173 C62.7476724,101.027488 62.8677049,100.913785 63.0135,100.9125 L63.4385,100.9125 C63.3688554,101.25056 63.3729484,101.599665 63.4505,101.936 C63.5437944,102.3411 63.729843,102.719016 63.994,103.04 C63.9559811,103.280691 63.9642968,103.52643 64.0185,103.764 L64.198,104.5555 L63.93,107.43 C63.8952915,107.840413 63.5528749,108.156357 63.141,108.158 L63.141,108.157 Z M67.091,108.157 C66.7655404,108.155005 66.4848534,107.927881 66.415,107.61 L65.7,104.455 L65.8375,102.983 L66.3405,102.983 C66.4590488,102.986099 66.5746511,103.020607 66.6755,103.083 C66.6270094,103.343679 66.6310892,103.611419 66.6875,103.8705 L67.6595,108.1505 C67.6471955,108.154263 67.6346721,108.157269 67.622,108.1595 L67.091,108.157 Z M72.8795,108.157 C72.6828569,108.155758 72.5132682,108.018551 72.471,107.8265 L71.8765,105.2075 C71.7925846,104.665045 71.3254071,104.264971 70.7765,104.2655 C70.2165,104.2655 69.9045,104.5965 70.0715,105.3315 L70.589,107.611 C70.6201779,107.742218 70.5899513,107.880494 70.5068656,107.986735 C70.4237799,108.092975 70.2968646,108.155635 70.162,108.157 L69.52,108.157 C69.4879522,108.155311 69.456224,108.149771 69.4255,108.1405 C69.4739762,107.887264 69.4704037,107.626811 69.415,107.375 L68.465,103.1885 C68.452,103.129 68.428,103.0755 68.41,103.018 C68.458481,102.996554 68.5105391,102.984344 68.5635,102.982 L69.539,102.982 L69.6495,103.469 C69.9271775,103.021362 70.4388989,102.774956 70.962,102.837 C71.5866254,102.847063 72.1802868,103.110772 72.6065,103.5675 L73.6425,108.1285 C73.6040172,108.144075 73.5633827,108.153686 73.522,108.157 L72.8795,108.157 Z M75.509,108.157 C75.4728519,108.155441 75.4370562,108.149223 75.4025,108.1385 C75.4650863,107.85242 75.4638913,107.556066 75.399,107.2705 L74.799,104.6395 C74.654934,103.986265 74.3707172,103.372111 73.966,102.8395 L73.639,101.398 C73.6111605,101.280799 73.6381819,101.157299 73.712421,101.062433 C73.78666,100.967566 73.9000436,100.91165 74.0205,100.9105 L74.8205,100.9105 C74.9108773,100.910786 74.9986785,100.940638 75.0705,100.9955 C75.0063377,101.29087 75.0077031,101.596715 75.0745,101.8915 L76.4395,107.901 C76.4525,107.9595 76.4755,108.013 76.4925,108.0695 C76.4226581,108.122772 76.337809,108.152688 76.25,108.155 L75.509,108.157 Z M80.877,108.157 L78.627,108.157 C78.452648,108.156343 78.284041,108.094598 78.1505,107.9825 C78.1871323,107.745902 78.1801847,107.504599 78.13,107.2705 L76.712,101.0245 C76.8015711,100.951695 76.9135731,100.912124 77.029,100.912497 L79.232,100.912497 C81.3142329,101.013663 83.0699783,102.498474 83.5155,104.535 C83.982,106.5845 82.843,108.158 80.878,108.158 L80.877,108.157 Z"/>
      <path fill="#FFF" fill-rule="nonzero" d="M64.4835,101.4655 L63.927,107.431 C63.8919102,107.839879 63.5513695,108.154857 63.141,108.158 L62.2465,108.158 C61.9583842,108.156983 61.6937928,107.998803 61.5565,107.7455 L58.0445,101.33 C57.9966921,101.243789 57.9976492,101.138809 58.0470211,101.053484 C58.0963931,100.968158 58.1869317,100.915013 58.2855,100.9135 L59.3,100.9135 C59.4845814,100.914032 59.6535669,101.017119 59.7385,101.181 L62.3885,106.2435 L62.7385,101.174 C62.7476724,101.028488 62.8677049,100.914785 63.0135,100.9135 L63.992,100.9135 C64.1326471,100.915127 64.2661038,100.975921 64.3596395,101.08097 C64.4531751,101.186019 64.4981377,101.325607 64.4835,101.4655 L64.4835,101.4655 Z M66.73,101.5965 C66.5961916,101.073903 66.1404547,100.697354 65.602,100.6645 C65.3707341,100.659711 65.1511942,100.766097 65.0116459,100.950578 C64.8720977,101.135059 64.8294634,101.375263 64.897,101.5965 C65.0309928,102.1189 65.4866869,102.495211 66.025,102.528 C66.2562256,102.53296 66.4757955,102.426695 66.6153692,102.24228 C66.7549429,102.057864 66.7975763,101.817686 66.73,101.5965 Z M66.3395,102.983 L65.8105,102.983 C65.7014609,102.984181 65.598869,103.034857 65.531666,103.120733 C65.4644629,103.206609 65.4399344,103.318374 65.465,103.4245 L66.415,107.611 C66.4848534,107.928881 66.7655404,108.156005 67.091,108.158 L67.62,108.158 C67.7290391,108.156819 67.831631,108.106143 67.898834,108.020267 C67.9660371,107.934391 67.9905656,107.822626 67.9655,107.7165 L67.0155,103.53 C66.9456466,103.212119 66.6649596,102.984995 66.3395,102.983 Z M70.9625,102.838 C70.4393989,102.775956 69.9276775,103.022362 69.65,103.47 L69.5395,102.983 L68.564,102.983 C68.4291167,102.984403 68.3021857,103.047049 68.2190279,103.153257 C68.1358701,103.259466 68.1055043,103.397719 68.1365,103.529 L69.1125,107.829 C69.1548096,108.021232 69.3246693,108.158491 69.5215,108.1595 L70.1635,108.1595 C70.2983646,108.158135 70.4252799,108.095475 70.5083656,107.989235 C70.5914513,107.882994 70.6216779,107.744718 70.5905,107.6135 L70.073,105.334 C69.906,104.599 70.218,104.268 70.778,104.268 C71.3269071,104.267471 71.7940846,104.667545 71.878,105.21 L72.4725,107.829 C72.5147682,108.021051 72.6843569,108.158258 72.881,108.1595 L73.523,108.1595 C73.6578142,108.157908 73.7846196,108.095214 73.8677361,107.989058 C73.9508526,107.882902 73.9812959,107.744759 73.9505,107.6135 L73.353,104.9825 C73.1677613,103.790023 72.1680171,102.89316 70.9625,102.838 Z M74.8265,100.913499 L74.0265,100.913499 C73.9060436,100.91465 73.79266,100.970566 73.718421,101.065433 C73.6441819,101.160299 73.6171605,101.283799 73.645,101.401 L75.104,107.8275 C75.1462682,108.019551 75.3158569,108.156758 75.5125,108.158 L76.2565,108.158 C76.3913142,108.156408 76.5181196,108.093714 76.6012361,107.987558 C76.6843526,107.881402 76.7147959,107.743259 76.684,107.612 L75.2375,101.244 C75.1953683,101.050827 75.0242137,100.913196 74.8265,100.913499 L74.8265,100.913499 Z M80.8765,108.158 L78.6265,108.158 C78.2727354,108.155778 77.9676181,107.908986 77.8915,107.5635 L76.527,101.554 C76.4907548,101.400255 76.5262172,101.238369 76.6234166,101.113857 C76.7206161,100.989344 76.8690555,100.915652 77.027,100.9135 L79.23,100.9135 C81.3122329,101.014663 83.0679783,102.499474 83.5135,104.536 C83.982,106.5845 82.843,108.158 80.878,108.158 L80.8765,108.158 Z M81.9475,104.536 C81.750702,103.382802 80.7631116,102.531561 79.5935,102.507 L78.372,102.507 L79.2935,106.5645 L80.515,106.5645 C81.636,106.5645 82.231,105.7775 81.95,104.536 L81.9475,104.536 Z"/>
      <path fill="#F0F0F0" fill-rule="nonzero" d="M54.405,89.303 C54.59,89.267 54.731,89.2925 54.805,89.403 C55.4155,90.303 55.3895,91.747 55.3085,92.587 C55.5787388,92.9378957 55.7626885,93.3474149 55.8455,93.7825 C56.216,95.7555 54.3905,97.767 51.7685,98.2755 C49.1465,98.784 46.7185,97.5975 46.3505,95.6255 C46.246929,95.0456637 46.320277,94.4480775 46.561,93.9105 C46.211,93.139 45.832,92.0235 46.04,91.104 C46.0695,90.973 46.19,90.8965 46.3765,90.861 C47.054,90.7295 48.5725,91.1445 49.4345,91.411 C49.7575195,91.2921355 50.0895949,91.1995022 50.4275,91.134 C50.8430144,91.0528083 51.265641,91.0136111 51.689,91.017 C52.3775,90.4575 53.703,89.441 54.404,89.305 M54.0845,87.601 C53.7755,87.661 52.991,87.813 51.076,89.301 C50.7510486,89.3238531 50.4277862,89.3664316 50.108,89.4285 C49.8746667,89.4741667 49.6425,89.53 49.4115,89.596 C47.1355,88.946 46.3615,89.096 46.057,89.157 C45.231379,89.2846717 44.5664344,89.9017102 44.3775,90.7155 C44.1768664,91.8156287 44.3025297,92.9504221 44.739,93.98 C44.5756472,94.6245087 44.5538135,95.2967498 44.675,95.9505 C45.23,98.9085 48.4865,100.6785 52.088,99.98 C55.6895,99.2815 58.0765,96.4165 57.5215,93.458 C57.4344082,92.9933501 57.2749704,92.5452371 57.049,92.13 C57.1598415,90.8363186 56.8667083,89.5401035 56.21,88.42 C55.7388753,87.7338695 54.8944523,87.4078996 54.0845,87.5995 L54.0845,87.601 Z"/>
      <path fill="#95979A" fill-rule="nonzero" d="M123.5845,42.25 C123.5845,42.25 126.445,42.4595 128.1895,43.715 C128.1895,43.715 123.445,44.622 124.352,46.9245 C124.9745,48.504 122.6745,47.0955 121.169,46.0555 C121.14,46.338 121.104,46.6205 121.056,46.9015 C121.002,47.2185 120.5205,47.0835 120.574,46.7685 C120.633,46.4225 120.671,46.074 120.6995,45.7255 C120.2565,45.409 119.957,45.1805 119.957,45.1805 L119.75,41.55 C119.946156,41.5815182 120.147021,41.5389211 120.3135,41.4305 C119.76948,39.3507682 118.709615,37.4418763 117.232,35.8805 C117.01,35.648 117.363,35.294 117.586,35.527 C119.061293,37.0838966 120.136433,38.9757733 120.719,41.04 C121.056,40.5665 121.3655,39.676 121.4245,37.9925 C121.422,37.992 124.9105,40.364 123.5845,42.25 Z M98.281,43.333 C96.1345,43.586 93.317,43.6115 91.701,42.3895 C91.701,42.3895 92.4685,47.622 98.538,47.134 C103.538,46.7315 102.1,44.058 101.438,43.128 L104.515,41.9945 C104.515,41.9945 96.236,41.5289957 95.865,41.5289957 C95.6045,41.5265 97.197,42.6105 98.281,43.3305 L98.281,43.333 Z M98.306,54.1995 C94.4111521,54.8207285 90.4257227,54.5407222 86.656,53.381 C85.5765624,53.048438 84.5204046,52.6445491 83.4945,52.172 C83.204,52.038 82.95,52.469 83.2445,52.6035 C87.9891004,54.8014831 93.2839934,55.5255249 98.4445,54.682 C98.7555,54.6285 98.621,54.1465 98.306,54.197 L98.306,54.1995 Z M78.8695,47.5565 C77.6550304,49.0060282 77.2322077,50.9606246 77.739,52.7825 C77.786427,52.9547913 77.9221677,53.0886931 78.0950899,53.1337658 C78.268012,53.1788384 78.4518447,53.1282344 78.5773399,53.0010158 C78.702835,52.8737971 78.750927,52.6892913 78.7035,52.517 C78.2831774,51.0417329 78.6092369,49.454176 79.577,48.264 C79.7651288,48.0656852 79.7651288,47.7548148 79.577,47.5565 C79.3812551,47.3630001 79.0666075,47.3618883 78.8695,47.554 L78.8695,47.5565 Z M76.28,46.6785 C74.9821067,48.803758 74.6404566,51.3777519 75.339,53.768 C75.4124539,54.0343393 75.6879107,54.1907038 75.95425,54.1172499 C76.2205893,54.0437961 76.3769538,53.7683393 76.3035,53.502 C75.6759651,51.3719807 75.9810495,49.0757615 77.143,47.1835 C77.4815,46.6315 76.617,46.1285 76.28,46.676 L76.28,46.6785 Z M133.1965,40.05 C132.958051,39.9106862 132.651814,39.9910511 132.5125,40.2295 C132.373186,40.4679489 132.453551,40.7741862 132.692,40.9135 C134.026428,41.6770066 134.936018,43.0113428 135.159,44.5325 C135.233867,44.7979052 135.508132,44.9538642 135.7745,44.8825 C136.03685,44.8040731 136.191057,44.5331098 136.1245,44.2675 C135.833795,42.4923156 134.758093,40.9428703 133.1965,40.05 Z M138.5765,44.5545 C137.588323,40.9272403 135.045391,37.9233543 131.631,36.35 C131.0495,36.087 130.5405,36.95 131.1265,37.2135 C134.31302,38.6591213 136.690334,41.4485974 137.6125,44.824 C137.660195,44.996202 137.796136,45.1298783 137.969114,45.1746742 C138.142093,45.2194702 138.325831,45.1685803 138.451114,45.0411742 C138.576398,44.9137682 138.624195,44.729202 138.5765,44.557 L138.5765,44.5545 Z M109.538,80.95 C109.401263,80.9531689 109.291169,81.0632629 109.288,81.2 L109.2415,82.0835 C109.2415,82.2215712 109.353429,82.3335 109.4915,82.3335 C109.628564,82.3310972 109.739097,82.2205636 109.7415,82.0835 L109.788,81.2 C109.788,81.1336959 109.761661,81.0701074 109.714777,81.0232233 C109.667893,80.9763392 109.604304,80.95 109.538,80.95 Z M108.5985,81.442 C108.500875,81.3444045 108.342625,81.3444045 108.245,81.442 L108.206,81.492 C108.183711,81.5302489 108.171978,81.5737305 108.172,81.618 L108.1255,82.0365 C108.128194,82.1022637 108.15405,82.1649577 108.1985,82.2135 C108.296125,82.3110955 108.454375,82.3110955 108.552,82.2135 L108.5915,82.1635 C108.613875,82.1251047 108.625611,82.0814391 108.6255,82.037 L108.672,81.6185 C108.673339,81.5851716 108.665926,81.5520737 108.6505,81.5225 C108.640786,81.4920968 108.623392,81.4647142 108.6,81.443 L108.5985,81.442 Z M111.1105,81.5815 L111.0605,81.5425 C111.022154,81.5199501 110.978485,81.5080404 110.934,81.508 L110.8875,81.508 C110.854016,81.5067125 110.82077,81.5141197 110.791,81.5295 C110.760581,81.5392346 110.73308,81.5564229 110.711,81.5795 C110.687645,81.6015518 110.670416,81.6292903 110.661,81.66 C110.645574,81.6895737 110.638161,81.7226716 110.6395,81.756 L110.6485,81.8225 C110.660157,81.8642601 110.68237,81.9023151 110.713,81.933 L110.763,81.972 C110.801249,81.9942894 110.84473,82.0060225 110.889,82.006 L110.9355,82.006 C110.969026,82.0077712 111.002397,82.0003361 111.032,81.9845 C111.123165,81.9445649 111.182999,81.8554969 111.1855,81.756 L111.1765,81.6895 C111.16416,81.6487094 111.141414,81.6118337 111.1105,81.5825 L111.1105,81.5815 Z M111.7575,80.5165 C111.735266,80.4933691 111.707589,80.4761789 111.677,80.4665 C111.647319,80.4508752 111.614007,80.4434533 111.5805,80.445 C111.442429,80.445 111.33049,80.5569288 111.33049,80.695 C111.329912,80.7613935 111.356461,80.825148 111.404,80.8715 L111.8645,81.249 C111.886552,81.2723552 111.91429,81.289584 111.945,81.299 C111.97477,81.3143803 112.008016,81.3217875 112.0415,81.3205 C112.107661,81.3199229 112.170985,81.2935527 112.218,81.247 C112.264918,81.200229 112.291353,81.1367479 112.291507,81.0705 C112.291993,81.0039786 112.265469,80.9401051 112.218,80.8935 L111.7575,80.5165 Z M118.5705,76.1665 C118.592609,76.1897845 118.620328,76.207001 118.651,76.2165 C118.712146,76.2451408 118.782854,76.2451408 118.844,76.2165 C118.874672,76.207001 118.902391,76.1897845 118.9245,76.1665 L118.9635,76.1165 C118.985875,76.0781047 118.997611,76.0344391 118.997501,75.99 L118.9885,75.924 C118.977092,75.8822475 118.955039,75.8441721 118.9245,75.8135 L118.878,75.767 C118.778911,75.6725237 118.623089,75.6725237 118.524,75.767 L118.485,75.817 C118.462711,75.8552489 118.450978,75.8987305 118.451,75.943 L118.46,76.0095 C118.471555,76.0511911 118.493587,76.0892313 118.524,76.12 L118.5705,76.1665 Z M120.7205,75.0985 L119.5135,74.8115 C119.380399,74.7747731 119.242727,74.8528994 119.206,74.986 C119.169273,75.1191006 119.247399,75.2567731 119.3805,75.2935 L120.588,75.581 C120.721239,75.6175888 120.858911,75.5392387 120.8955,75.406 C120.932089,75.2727613 120.853739,75.1350889 120.7205,75.0985 L120.7205,75.0985 Z M119.618,77.7735 C119.467129,77.7040611 119.321716,77.6233317 119.183,77.532 C119.1505,77.5105 119.1185,77.4885 119.0865,77.4655 L119.0335,77.427 L119.022,77.4185 C118.9565,77.366 118.8925,77.3125 118.8305,77.2555 C118.767731,77.1905109 118.674781,77.1644469 118.587373,77.1873257 C118.499966,77.2102046 118.431705,77.2784658 118.408826,77.3658732 C118.385947,77.4532805 118.412011,77.5462314 118.477,77.609 C118.740525,77.8527028 119.040467,78.0537887 119.366,78.205 C119.424803,78.2370486 119.493461,78.2459652 119.5585,78.23 C119.655202,78.2031057 119.726444,78.1209838 119.739417,78.021453 C119.75239,77.9219223 119.704578,77.824283 119.618,77.7735 L119.618,77.7735 Z M104.2575,81.4235 C104.124842,81.3901792 103.989424,81.4670261 103.95,81.598 C103.9395,81.627 103.928,81.655 103.917,81.683 C103.839893,81.8607878 103.741688,82.0286593 103.6245,82.183 C103.599,82.2145 103.5745,82.246 103.547,82.2765 C103.452257,82.3745947 103.453612,82.5305212 103.550045,82.6269546 C103.646479,82.7233881 103.802405,82.7247431 103.9005,82.63 C104.13401,82.3670544 104.314487,82.0614481 104.432,81.73 C104.449639,81.6660828 104.441163,81.5977764 104.408438,81.5401085 C104.375712,81.4824406 104.321418,81.4401354 104.2575,81.4225 L104.2575,81.4235 Z"/>
    </g>
  </g>
</svg>
