<svg xmlns="http://www.w3.org/2000/svg" width="192" height="192" viewBox="0 0 192 192">
  <g fill="none" transform="translate(3 21)">
    <path fill="#F0F0F0" d="M175.04,148.09 L18.67,148.09 C18.67,148.09 -26.75,89.92 25.64,79.61 C25.64,79.61 35.67,45.75 63.08,28.19 L42.52,33.23 C37.21,32.63 34.97,30.37 33.75,26.78 C31.53,20.27 36.65,12.59 48.4,8.59 C60.15,4.59 68.25,6.84 72.34,12.91 C74.23,15.73 74.68,20.01 71.41,23.66 C84.28,17.81 100.29,15.64 120.01,20.81 C191.43,39.54 159.79,98.19 159.79,98.19 C159.79,98.19 181.75,89.14 187.26,110.91 C192.76,132.69 175.04,148.09 175.04,148.09 Z"/>
    <g transform="translate(81 94)">
      <path fill="#FFF" d="M91.18,7.04 C91.18,3.5 88.31,0.63 84.77,0.63 L7.06,0.63 C3.52,0.63 0.65,3.5 0.65,7.04 C0.65,10.58 3.52,13.45 7.06,13.45 L6.33,13.45 L6.33,54.17 L85.5,54.17 L85.5,13.45 L84.77,13.45 C88.31,13.45 91.18,10.58 91.18,7.04 Z"/>
      <path fill="#F0F0F0" d="M28.78,25.41 L28.78,30.26 C28.78,30.9 28.26,31.42 27.62,31.42 L13.16,31.42 C12.52,31.42 12,30.9 12,30.26 L12,25.41 C12,24.77 12.52,24.25 13.16,24.25 L27.62,24.25 C28.26,24.25 28.78,24.77 28.78,25.41 Z M58.2,41.88 L43.74,41.88 C43.1,41.88 42.58,42.4 42.58,43.04 L42.58,47.89 C42.58,48.53 43.1,49.05 43.74,49.05 L58.2,49.05 C58.84,49.05 59.3601392,48.53 59.3601392,47.89 L59.3601392,43.04 C59.37,42.4 58.84,41.88 58.2,41.88 Z M70.65,20.94 L70.65,24.11 C70.65,25.22 71.55,26.11 72.65,26.11 L80.61,26.11 L80.61,18.93 L72.65,18.93 C71.55,18.94 70.65,19.84 70.65,20.94 Z M85.92,0.64 L54.12,0.64 C57.03,0.64 59.38,3 59.38,5.9 L59.38,8.18 C59.38,11.09 57.02,13.44 54.12,13.44 L85.92,13.44 C88.83,13.44 91.18,11.08 91.18,8.18 L91.18,5.9 C91.18,2.99 88.83,0.64 85.92,0.64 Z"/>
    </g>
    <path fill="#F0F0F0" d="M64.11,31.66 C63.85,32.4 63.53,33.17 63.16,33.94 C63.16,33.94 63.15,33.94 63.15,33.94 C61.43,33.54 60.16,32.68 60.32,32.02 C60.48,31.36 61.99,31.15 63.71,31.55 C63.84,31.59 63.98,31.63 64.11,31.66 Z M51.19,28.63 C49.47,28.23 47.95,28.44 47.8,29.1 C47.65,29.76 48.92,30.62 50.63,31.02 C52.35,31.42 53.87,31.21 54.02,30.55 C54.17,29.88 52.9,29.02 51.19,28.63 Z"/>
    <path fill="#FFF" d="M95.65,73.6 C92.49,70.69 89.11,72.85 88.29,73.45 L88.59,71.67 C88.59,71.67 71.65,67.16 70.68,66.77 C69.71,66.38 60.71,52.79 60.71,52.79 C58.77,50.27 49.81,44.59 49.81,44.59 L50.35,41.88 C51.47,42.27 52.72,42.36 54.12,42 C64.19,39.37 65.4,26.18 65.4,26.18 C63.51,24.53 64.03,23.05 63.93,19.76 C60.5,20.85 57.14,21.23 53.86,20.66 C53.86,20.66 50.08,24.68 45.46,24.82 C45.46,24.82 45.41,18.34 40.73,22.76 C37.38,25.92 40.39,33.41 43.02,32.03 C43.02,32.03 43.17,32.58 43.49,33.43 L42.13,33.3 L39.89,39.16 L37.38,39.72 C37.38,39.72 37.45,40.31 37.63,41.21 C37.58,41.13 37.53,41.04 37.48,40.97 C37.4,40.2 37.38,39.71 37.38,39.71 C37.38,39.71 37.37,40.11 37.33,40.78 C35.19,38.07 32.4,40.52 32.4,40.52 C25.91,42.97 21.3,48.78 20.39,55.66 C18.31,71.4 13.92,99.79 7.86,113.36 C11.73,117.23 28.96,119.36 28.96,119.36 C28.96,119.36 29.64,105.35 30.95,87.81 C32.64,89.53 34.36,91.09 36.01,92.47 C35.09,99.38 34.88,108.41 35.88,120.72 C35.88,120.72 54.42,121.74 54.9,118.4 C55.22,116.17 53.41,101.15 52.42,91.31 C56.67,91.43 62.24,90.21 63.34,85.58 C64.39,81.18 58.72,82.44 58.72,82.44 C56.5,79.58 53.53,80.24 52.11,80.79 C53.07,75.91 56.01,69.81 56.01,69.81 C62.5,82.28 73.2,88 85.23,91.57 L87.72,76.8 L86.94,83.46 C90.42,84.04 100.3,82.44 100.73,75.91 C101.03,71.41 95.65,73.6 95.65,73.6 Z"/>
    <path fill="#95979A" d="M83.4,23.41 C83.86,23.59 84.08,24.11 83.9,24.57 C83.76,24.92 83.43,25.13 83.07,25.13 C82.96,25.13 82.85,25.11 82.74,25.07 L78.87,23.52 C78.41,23.34 78.19,22.82 78.37,22.36 C78.55,21.9 79.07,21.68 79.53,21.86 L83.4,23.41 Z M78.81,13.71 C78.9,13.71 78.99,13.7 79.08,13.67 L84.5,11.93 C84.97,11.78 85.23,11.28 85.08,10.81 C84.93,10.34 84.43,10.08 83.96,10.23 L78.54,11.97 C78.07,12.12 77.81,12.62 77.96,13.09 C78.09,13.47 78.44,13.71 78.81,13.71 Z M73.06,6.48 C73.17,6.52 73.28,6.54 73.39,6.54 C73.74,6.54 74.08,6.33 74.22,5.98 L75.77,2.11 C75.95,1.65 75.73,1.13 75.27,0.95 C74.81,0.77 74.29,0.99 74.11,1.45 L72.56,5.32 C72.38,5.78 72.6,6.3 73.06,6.48 Z M148,119.58 L148,124.09 C148,125.32 147,126.32 145.77,126.32 L132.88,126.32 C131.65,126.32 130.65,125.32 130.65,124.09 L130.65,119.58 C130.65,118.35 131.65,117.35 132.88,117.35 L145.77,117.35 C147,117.36 148,118.36 148,119.58 Z M146.21,119.58 C146.21,119.33 146.01,119.13 145.76,119.13 L132.87,119.13 C132.62,119.13 132.42,119.33 132.42,119.58 L132.42,124.09 C132.42,124.34 132.62,124.54 132.87,124.54 L145.76,124.54 C146.01,124.54 146.21,124.34 146.21,124.09 L146.21,119.58 L146.21,119.58 Z M62.86,27.01 C62.82,26.47 62.65,26.09 62.35,26 C61.8,25.84 61.06,26.75 60.68,28.03 C60.31,29.31 60.45,30.47 60.99,30.63 C61.54,30.79 62.28,29.88 62.66,28.6 C62.74,28.32 62.79,28.05 62.83,27.8 C63.76,27.39 63.25,26.41 63.25,26.41 C63.25,26.41 63.15,26.76 62.86,27.01 Z M183.54,148.17 C183.54,148.66 183.14,149.06 182.65,149.06 L166.51,149.06 L87.34,149.06 L53.19,149.06 C53.12,149.08 53.05,149.11 52.97,149.11 L12.71,149.11 C12.63,149.11 12.56,149.08 12.48,149.06 L9.07,149.06 C8.58,149.06 8.18,148.66 8.18,148.17 C8.18,147.68 8.58,147.28 9.07,147.28 L11.85,147.28 L13.21,117.01 C10.62,116.17 8.39,115.17 7.23,114.01 C6.97,113.75 6.9,113.35 7.05,113.02 C13.06,99.56 17.44,71.25 19.51,55.57 C20.46,48.36 25.28,42.29 32.09,39.72 C32.1,39.72 32.1,39.72 32.11,39.71 C34.1,38.91 36.12,38.56 37.69,38.75 L39.22,38.41 L39.88,36.69 C36.7,36.78 36.09,33.58 35.99,31.79 C34.59,30.66 33.58,29.13 32.89,27.09 C31.68,23.54 32.47,19.68 35.11,16.23 C37.84,12.66 42.33,9.73 48.09,7.77 C53.91,5.79 59.06,5.23 63.4,6.12 C67.5,6.96 70.84,9.15 73.05,12.44 C74.64,14.81 75.1,17.7 74.31,20.37 C73.78,22.15 72.48,24.49 69.42,26.56 C69.21,28.66 68.2,34.06 63.36,35.48 C61.2,39.35 58.12,41.9 54.34,42.89 C53.67,43.06 53.01,43.15 52.37,43.15 C51.92,43.15 51.47,43.09 51.04,43.01 C51.04,43.01 51.04,43.01 51.04,43.01 L50.82,44.12 C58.32,47.75 64.23,54.09 70.98,65.77 L88.65,71.23 C88.96,71.33 89.18,71.58 89.25,71.88 C91.03,71.09 93.52,70.78 95.83,72.61 C96.83,72.29 98.98,71.79 100.4,72.81 C101.02,73.26 101.73,74.17 101.61,76 C101.47,78.11 100.47,79.91 98.65,81.35 C95.85,83.57 91.51,84.49 88.51,84.49 C88.07,84.49 87.67,84.46 87.29,84.42 L86.11,91.73 C86.07,91.98 85.92,92.21 85.7,92.34 C85.48,92.48 85.22,92.51 84.97,92.44 C78.01,90.38 72.62,87.94 68.03,84.78 C63.02,81.33 59.09,77.08 56.08,71.82 C55.29,73.63 54.04,76.69 53.3,79.54 C55.1,79.23 57.3,79.51 59.07,81.49 C60.11,81.34 62.32,81.21 63.55,82.45 C64.09,82.99 64.63,84.02 64.21,85.8 C63.72,87.85 62.44,89.46 60.4,90.58 C58.37,91.7 55.78,92.16 53.41,92.22 C53.64,94.5 53.91,96.99 54.18,99.45 C55.3,109.91 56.02,116.89 55.79,118.54 C55.66,119.44 54.96,120.46 51.63,121.1 L53.79,147.28 L86.45,147.28 L86.45,143.75 L86.45,136.57 L86.45,108.31 C83.28,108.06 80.77,105.41 80.77,102.18 L80.77,99.9 C80.77,96.51 83.53,93.74 86.93,93.74 L166.93,93.74 C170.32,93.74 173.09,96.5 173.09,99.9 L173.09,102.18 C173.09,105.41 170.58,108.07 167.41,108.31 L167.41,147.27 L182.66,147.27 C183.14,147.28 183.54,147.68 183.54,148.17 Z M52.04,81.8 L49.6,90.11 C52.15,90.69 56.59,90.63 59.55,89.01 C61.13,88.14 62.12,86.92 62.48,85.38 C62.67,84.59 62.6,84.02 62.28,83.7 C61.59,83 59.72,83.14 58.91,83.32 C58.57,83.39 58.22,83.27 58.01,83 C55.9,80.25 52.97,81.35 52.04,81.8 Z M87.93,82.68 C90.54,82.82 94.91,82.03 97.56,79.93 C98.97,78.81 99.74,77.44 99.85,75.86 C99.9,75.05 99.74,74.5 99.38,74.23 C98.53,73.61 96.6,74.17 96,74.42 C95.68,74.55 95.32,74.48 95.06,74.25 C92.55,71.94 89.86,73.45 88.98,74.06 L88.89,74.64 L87.93,82.68 Z M49.71,63.82 C48.56,66.19 47.17,68.17 45.71,70.27 C45.35,70.78 45,71.29 44.64,71.81 C44.13,72.56 44.39,73.59 45.19,74.02 C46.87,74.92 48.7,75.73 50.71,76.47 C51.52,76.76 52.41,76.35 52.7,75.54 C53.84,72.32 55.13,69.63 55.23,69.43 C55.38,69.13 55.68,68.93 56.02,68.93 C56.36,68.93 56.67,69.11 56.82,69.41 C63.58,82.39 75.03,87.51 84.53,90.43 L87.12,74.39 L87.23,73.49 C87.24,73.4 87.27,73.31 87.31,73.23 L87.4,72.67 L70.14,67.33 C69.92,67.26 69.74,67.11 69.63,66.92 C63.46,56.18 58.08,50.05 51.55,46.44 C51.83,47.32 52.1,48.43 52.28,49.75 C52.68,52.92 52.58,57.93 49.71,63.82 Z M46.44,66 C47.04,65.05 47.6,64.08 48.11,63.05 C49.57,60.06 51.15,55.41 50.52,50.21 C48.7,54.73 46.16,62.09 46.44,66 Z M64.47,26.51 C64.09,26.13 63.82,25.75 63.62,25.36 L61.3,23.91 C62.14,23.75 62.74,23.83 63.18,24.02 C63.05,23.28 63.05,22.48 63.06,21.57 C63.06,21.37 63.06,21.15 63.07,20.93 C59.91,21.79 56.99,22.01 54.19,21.6 C53.12,22.63 49.67,25.57 45.51,25.7 C45.27,25.71 45.04,25.62 44.86,25.45 C44.69,25.28 44.59,25.06 44.59,24.82 C44.58,23.85 44.26,22.38 43.7,22.14 C43.37,22 42.58,22.26 41.36,23.4 C39.5,25.16 40.07,28.76 41.29,30.46 C41.52,30.78 42.11,31.5 42.63,31.23 C42.76,31.16 42.9,31.13 43.04,31.13 C43.16,31.13 43.28,31.15 43.39,31.2 C43.64,31.31 43.82,31.52 43.89,31.78 C43.9,31.81 44.72,34.71 46.43,37.3 C48.59,40.56 51.1,41.85 53.91,41.11 C62.28,38.94 64.16,28.72 64.47,26.51 Z M40.11,31.86 C40.01,31.75 39.92,31.63 39.82,31.5 C38.57,29.75 37.82,26.52 38.86,23.98 C38.86,23.98 38.86,23.97 38.86,23.97 C39,22.79 39.22,21.01 40.83,19.85 C42.84,18.4 46.58,18.3 52.57,19.53 C57.86,20.62 62.23,19.19 65.42,18.15 C68.01,17.3 70.24,16.57 71.04,18.54 C71.49,19.65 71.35,21.32 70.68,22.81 C70.57,23.05 70.45,23.28 70.32,23.51 C71.43,22.4 72.21,21.18 72.61,19.85 C73.25,17.69 72.88,15.35 71.58,13.43 C67.42,7.25 59.29,5.84 48.67,9.45 C38.17,13.03 32.38,20.05 34.58,26.51 C35.57,29.39 37.25,31.04 40.11,31.86 Z M38.4,40.41 C38.82,42.81 40.41,49.83 44.87,50.52 C47.2,50.31 48.46,49.43 49.12,48.64 C49.68,47.01 48.99,44.89 48.98,44.87 C48.97,44.85 48.97,44.82 48.97,44.8 C48.96,44.77 48.96,44.74 48.95,44.71 C48.94,44.65 48.94,44.59 48.94,44.53 C48.94,44.5 48.94,44.48 48.95,44.45 C48.95,44.43 48.95,44.42 48.95,44.4 L49.35,42.41 L49.35,42.41 C47.73,41.65 46.24,40.25 44.93,38.25 C44,36.84 43.33,35.38 42.88,34.25 C42.88,34.25 42.88,34.25 42.88,34.25 L42.74,34.24 L40.75,39.47 C40.64,39.75 40.4,39.96 40.11,40.02 L38.4,40.41 Z M32.12,61.63 C32.12,61.63 35.98,47.94 36.36,42.48 C36.44,41.38 35.4,40.54 34.34,40.84 C34.33,40.84 34.32,40.85 34.31,40.85 C33.68,41.03 33.22,41.57 33.16,42.23 C32.83,45.53 32.12,61.63 32.12,61.63 Z M30.11,88.42 C23.53,81.81 20.42,75.64 19.16,70.43 C16.8,85.28 13.32,102.96 8.95,113.14 C11.25,114.9 16.85,116.35 21.8,117.32 C25.26,118 28.54,115.55 28.87,112.04 C29.43,106.19 30.07,97.46 30.11,88.42 Z M42.29,96.12 C43,96.61 43.87,96.72 44.68,96.43 C45.49,96.14 46.1,95.51 46.34,94.68 L51.14,78.52 C40.13,74.76 33.46,68.59 28.25,57.42 C28.04,56.97 28.23,56.44 28.68,56.24 C29.13,56.03 29.66,56.22 29.86,56.67 C29.93,56.82 30,56.95 30.07,57.09 C30.53,50.81 31.1,44.69 31.37,41.94 C25.9,44.53 22.08,49.72 21.28,55.79 C20.96,58.19 20.59,60.89 20.17,63.78 C20.19,63.85 20.21,63.92 20.21,63.99 C20.07,71.64 23.79,83.41 42.29,96.12 Z M45.2,119.93 C53.6,119.64 54.02,118.29 54.03,118.28 C54.25,116.73 53.28,107.65 52.41,99.63 C52.13,97.02 51.86,94.48 51.62,92.17 C50.67,92.11 49.79,91.98 49.05,91.8 L48.11,94.97 C47.7,96.34 46.75,97.52 45.42,98.05 C44.88,98.26 44.33,98.37 43.78,98.37 C42.9,98.37 42.04,98.1 41.28,97.59 C39.64,96.46 38.12,95.34 36.7,94.23 C36.07,99.94 35.95,106.6 36.35,114.33 C36.52,117.51 39.14,120 42.32,119.99003 C43.26,119.98 44.23,119.96 45.2,119.93 Z M160.14,116.56 C160.14,112.93 158.01,109.81 154.94,108.34 L88.23,108.34 L88.23,135.68 L101.38,135.68 C102.71,135.68 103.8,136.76 103.8,138.1 L103.8,142.23 C103.8,143.56 102.72,144.65 101.38,144.65 L88.23,144.65 L88.23,147.28 L154.16,147.28 C157.69,145.7 160.15,142.16 160.15,138.04 L160.15,116.56 L160.14,116.56 Z M101.37,142.86 C101.72,142.86 102,142.58 102,142.23 L102,138.1 C102,137.75 101.72,137.47 101.37,137.47 L88.23,137.47 L88.23,142.87 L101.37,142.87 L101.37,142.86 Z M163.99,99.9 C163.99,98.08 163.06,96.47 161.65,95.53 L86.92,95.53 C84.51,95.53 82.55,97.49 82.55,99.9 L82.55,102.18 C82.55,104.59 84.51,106.55 86.92,106.55 L87.33,106.55 L161.65,106.55 C163.06,105.61 163.99,104 163.99,102.18 L163.99,99.9 L163.99,99.9 Z M58.2,32.32 C60.72,31.92 58.39,29.46 58.39,29.46 C58.76,30.54 58.8,31.52 58.2,32.32 Z M53.39,23.21 L57.65,23.27 C54.97,21.17 53.39,23.21 53.39,23.21 Z M54.71,24.08 C54.34,24.02 53.95,24.4 53.64,25.03 C53.22,24.71 53.17,24.12 53.17,24.12 C53.17,24.12 52.37,25.08 53.39,25.71 C53.32,25.93 53.27,26.16 53.23,26.4 C53,27.78 53.3,28.98 53.89,29.08 C54.48,29.18 55.14,28.13 55.37,26.75 C55.6,25.38 55.3,24.18 54.71,24.08 Z M56.72,34.38 C56.2,34.17 55.5,34.7 55.16,35.56 C54.81,36.42 54.95,37.29 55.47,37.49 C55.99,37.7 56.69,37.17 57.03,36.31 C57.37,35.46 57.24,34.59 56.72,34.38 Z"/>
    <path fill="#F35A58" d="M76.4,51.76 L83.57,44.63 L84.61,40.15 C86.43,32.3 93.45,26.68 101.64,26.51 L159.25,25.31 C169.5,25.1 177.83,33.4 177.47,43.47 L177.47,43.47 C177.13,52.99 169.12,60.51 159.43,60.4 L98.43,59.74 C93.42,59.69 88.66,57.56 85.32,53.89 L85.15,53.7 L76.4,51.76 Z"/>
    <path fill="#FFF" d="M140.19,41.65 C139.93,41.41 139.92,41.01 140.16,40.75 L142.15,38.61 C142.28,38.47 142.47,38.4 142.66,38.41 C142.85,38.43 143.03,38.53 143.14,38.69 C143.49,39.21 144.18,40.13 144.54,40.4 C144.82,40.61 144.88,41 144.68,41.29 C144.47,41.57 144.07,41.63 143.79,41.43 C143.4,41.14 142.9,40.53 142.55,40.06 L141.09,41.63 C140.97,41.76 140.8,41.83 140.64,41.83 C140.48,41.83 140.32,41.77 140.19,41.65 Z M108.74,46.52 C108.75,47.19 108.52,47.79 108.01,48.33 C107.61,48.79 106.95,49.17 106.1,49.36 C105.78,49.44 105.37,49.5 104.99,49.5 C104.99,49.5 104.96,49.5 104.91,49.5 C104.88,49.5 104.88,49.5 104.85,49.52 C104.49,49.57 104.18,49.37 104.09,49.02 C103.8,47.55 103.64,46.15 103.57,44.89 L103.49,44.89 C103.16,44.9 102.86,44.63 102.85,44.28 C102.84,43.92 103.13,43.64 103.46,43.63 L103.54,43.63 C103.55,41.59 103.73,40.25 103.73,40.25 L103.73,40.2 C103.65,40.2 103.58,40.2 103.52,40.17 C103.17,40.13 102.94,39.85 102.93,39.51 C103,39.13 103.31,38.89 103.63,38.9 C104.96,39.03 106.01,39.4 106.85,39.92 C107.79,40.54 108.34,41.34 108.35,42.16 C108.36,42.89 107.77,44.12 107.07,44.29 C107.96,44.77 108.72,45.53 108.74,46.52 Z M106.54,43.13 C106.92,42.89 107.09,42.56 107.09,42.19 C107.07,41.31 105.65,40.73 105,40.45 C104.96,40.74 104.85,41.96 104.85,43.6 C105.59,43.59 106.15,43.38 106.54,43.13 Z M106.3,45.31 C105.92,45.18 105.44,45.04 104.88,44.94 C104.93,45.97 105.06,47.07 105.28,48.22 C105.48,48.22 105.64,48.17 105.83,48.13 C106.41,47.97 106.83,47.74 107.1,47.45 C107.88,46.45 107.17,45.73 106.3,45.31 Z M114.98,45.67 C115.02,47.45 114.03,49.22 112.18,49.36 C110.86,49.45 110.02,48.66 109.57,47.6 C108.85,45.58 109.73,42.77 112.12,42.59 C113.91,42.6 114.95,44.06 114.98,45.67 Z M113.7,45.7 C113.68,44.77 113.15,43.85 112.17,43.87 C110.69,44.16 110.25,45.98 110.77,47.15 C110.99,47.71 111.41,48.13 112.07,48.08 C113.26,47.99 113.72,46.65 113.7,45.7 Z M110.88,42.05 L112.54,40.68 C112.83,41.2 113.24,41.87 113.59,42.2 C113.72,42.32 113.88,42.38 114.04,42.38 C114.2,42.38 114.36,42.31 114.48,42.19 C114.72,41.94 114.71,41.54 114.46,41.29 C114.13,40.98 113.57,39.97 113.29,39.41 C113.2,39.24 113.04,39.11 112.85,39.07 C112.66,39.03 112.46,39.08 112.31,39.2 L110.05,41.06 C109.78,41.28 109.74,41.68 109.96,41.95 C110.22,42.23 110.61,42.27 110.88,42.05 Z M163.25,36 C162.85,36.12 162.64,36.54 162.74,36.93 C162.74,36.93 163.74,40.16 162.81,43.78 C162.7,44.18 162.95,44.62 163.35,44.71 C163.73,44.8 164.14,44.59 164.24,44.15 C165.29,40.13 164.17,36.51 164.13,36.51 C164.04,36.12 163.63,35.9 163.25,36 Z M163.28,46.37 C162.2,46.37 162.23,48.17 163.35,48.17 C164.37,48.17 164.37,46.37 163.28,46.37 Z M117.1,39.81 C117.37,39.59 117.42,39.19 117.2,38.92 C116.98,38.64 116.58,38.6 116.31,38.82 L114.99,39.88 C114.72,40.1 114.67,40.5 114.89,40.77 C115.02,40.93 115.21,41.01 115.4,41.01 C115.53,41.01 115.67,40.96 115.78,40.87 L117.1,39.81 Z M157.83,36.15 C154.5,36.51 155.06,39.43 155.06,39.43 C155.11,39.84 155.45,40.09 155.88,40.06 C156.29,39.96 156.54,39.62 156.49,39.24 C156.49,39.24 156.19,37.81 157.97,37.58 C158.97,37.63 159.46,38.06 159.46,39.11 C159.46,40.37 158.82,41.27 157.83,41.95 C156.28,43.07 156.45,43.51 156.45,45.02 C156.4,45.41 156.7,45.73 157.13,45.73 C157.54,45.73 157.83,45.44 157.86,45.07 C157.86,44.07 157.66,43.81 158.66,43.12 C160.05,42.12 160.88,40.84 160.94,39.11 C160.94,37.41 159.63,36.03 157.83,36.15 Z M169.42,35.93 C165.99,36.3 166.57,39.3 166.57,39.3 C166.62,39.72 166.97,39.98 167.41,39.95 C167.83,39.85 168.09,39.5 168.04,39.11 C168.04,39.11 167.73,37.64 169.56,37.4 C170.59,37.45 171.1,37.89 171.1,38.97 C171.1,40.26 170.44,41.19 169.42,41.89 C167.83,43.04 168,43.5 168,45.05 C167.95,45.45 168.26,45.78 168.7,45.78 C169.12,45.78 169.42,45.48 169.45,45.1 C169.45,44.07 169.24,43.81 170.27,43.09 C171.7,42.06 172.56,40.75 172.610055,38.96 C172.62,37.22 171.27,35.81 169.42,35.93 Z M168.7,46.26 C167.65,46.26 167.65,48.06 168.75,48.06 C169.79,48.07 169.79,46.26 168.7,46.26 Z M127.37,45.11 C127.58,47.49 127.87,50.67 126.91,52.1 C126.23,53.18 125.06,53.43 123.23,52.22 C122.91,52.01 122.82,51.62 123.03,51.31 C123.25,51.02 123.62,50.93 123.92,51.13 C124.98,51.81 125.58,51.8 125.83,51.43 C126.22,50.87 126.32,49.81 126.29,48.64 C125.52,49.11 124.58,49.3 123.76,49.01 C123.07,48.69 122.64,48.22 122.41,47.67 L120.83,48.99 C120.8,49.01 120.77,49.01 120.77,49.05 C120.64,49.16 120.45,49.22 120.24,49.21 C119.88,49.17 119.64,48.86 119.66,48.51 C119.82,47.32 119.79,45.86 119.47,44.85 C119.26,44.26 118.98,43.7 118.31,43.81 C117.9,43.91 117.39,44.25 116.78,44.83 C116.73,44.86 116.71,44.86 116.71,44.91 C116.75,46.69 116.93,47.67 117.1,48.63 C117.2,48.96 116.94,49.3 116.57,49.36 C116.24,49.44 115.9,49.19 115.86,48.86 C115.45,46.78 115.33,44.91 115.46,43.13 C115.5,42.81 115.77,42.52 116.15,42.54 C116.49,42.58 116.78,42.85 116.76,43.2 C117.21,42.87 117.63,42.71 118.01,42.58 C118.74,42.43 119.35,42.6 119.77,42.96 C120.22,43.33 120.52,43.84 120.7,44.46 C120.96,45.26 121.05,46.23 121.07,47.18 L122.09,46.29 C122.14,46.25 122.19,46.24 122.24,46.22 C122.29,45.71 122.43,45.19 122.66,44.71 C123.36,43.33 124.66,42.08 126.16,42.39 C126.26,42.3 126.43,42.23 126.6,42.23 C126.97,42.27 127.26,42.57 127.24,42.9 C127.19,43.34 127.28,44.15 127.37,45.11 Z M126.22,46.73 C126.09,45.68 126,44.66 125.93,43.65 C124.98,43.41 124.14,44.54 123.82,45.26 C123.43,46.04 123.22,47.42 124.24,47.79 C124.95,48.08 125.99,47.4 126.22,46.73 Z M152.87,45.71 C153.1,45.99 153.07,46.41 152.78,46.64 L150.94,48.14 C150.72,48.3 150.43,48.58 150.16,48.58 C149.83,48.63 149.49,48.46 149.43,47.99 C148.87,48.4 148.38,48.62 147.91,48.67 C147.29,48.73 146.78,48.51 146.39,48.14 C146.12,47.89 145.94,47.58 145.79,47.23 L144.24,48.54 C144.12,48.63 143.95,48.7 143.82,48.73 C143.46,48.8 143.15,48.61 143.07,48.3 C142.32,48.62 141.53,48.97 140.58,48.67 C139.9,48.36 139.48,47.88 139.24,47.34 C137.59,48.75 137.46,48.83 137.31,48.85 C136.96,48.92 136.61,48.7 136.55,48.35 C135.77,48.9 134.77,49.1 133.93,48.8 C132.15,47.97 132.05,45.99 132.81,44.49 C133.49,43.24 134.56,42.05 136,42.1 C136,41.8 136.01,41.52 136.02,41.26 C134.65,41.25 133.38,41.09 133.29,41.07 C132.94,41.02 132.7,40.71 132.74,40.36 C132.79,40.01 133.1,39.77 133.45,39.81 C133.47,39.81 134.75,39.97 136.08,39.98 C136.13,39.24 136.19,38.8 136.19,38.79 C136.23,38.44 136.54,38.21 136.89,38.23 C137.26,38.27 137.51,38.6 137.48,38.95 C137.47,38.95 137.42,39.31 137.37,39.94 C137.6,39.92 137.82,39.88 138.02,39.84 C138.36,39.76 138.7,39.97 138.78,40.31 C138.86,40.65 138.65,40.99 138.31,41.07 C138.01,41.14 137.66,41.18 137.31,41.21 C137.27,42.66 137.31,44.7 137.64,46.98 L138.9,45.94 C138.94,45.91 138.98,45.9 139.02,45.88 C139.07,45.29 139.26,44.69 139.57,44.16 C140.28,42.87 141.62,41.62 143.15,42.13 C143.51,41.64 144.24,42.09 144.25,42.6 C144.26,43.03 144.22,43.39 144.2,43.79 C144.14,44.7 144.07,45.72 144.17,46.94 L145.45,45.88 C145.33,44.63 145.58,43.26 145.9,42.36 C146.05,42.02 146.41,41.83 146.74,41.96 C147.06,42.09 147.25,42.42 147.12,42.8 C146.76,43.8 146.42,46.5 147.25,47.24 C147.91,47.76 148.84,46.89 149.3,46.45 C149.25,45.25 149.14,43.93 149.4,42.37 C149.44,41.99 149.77,41.75 150.1,41.79 C150.47,41.87 150.72,42.19 150.68,42.51 C150.42,44.13 150.51,45.5 150.63,46.76 L151.95,45.64 C152.26,45.45 152.62,45.49 152.87,45.71 Z M136.27,46.68 C136.11,45.51 136.04,44.43 136.02,43.43 C135.03,43.27 134.35,44.35 133.95,45.05 C133.6,45.86 133.35,47.21 134.38,47.58 C135.15,47.86 135.96,47.31 136.27,46.68 Z M142.9,43.4 C141.98,42.98 141.07,44.04 140.72,44.74 C140.27,45.65 139.96,47.02 141.02,47.47 C141.66,47.59 142.61,47.3 142.86,46.72 C142.78,45.62 142.85,44.62 142.9,43.4 Z M157.13,46.19 C156.11,46.19 156.11,47.94 157.18,47.94 C158.19,47.94 158.19,46.19 157.13,46.19 Z M98.17,41 C98.68,42.08 98.84,43.55 98.87,44.98 C98.9,46.42 98.71,47.83 98.23,48.94 C97.56,50.26 96.46,51.11 95.04,51.14 C93.32,51.03 92.48,49.48 92.14,48.03 C91.95,47.14 91.82,46.18 91.85,45.22 C91.88,44.24 91.92,42.89 92.25,41.73 C92.8,40.19 93.75,39.1 95.26,39.07 C96.16,39 96.85,39.28 97.37,39.79 C97.81,39.6 98,39.4 98.02,39.27 C98.07,38.98 97.6,38.46 97.32,38.25 C97,38.01 96.94,37.56 97.18,37.25 C97.42,36.93 97.87,36.87 98.18,37.11 C98.33,37.22 99.65,38.26 99.43,39.52 C99.32,40.14 98.9,40.63 98.17,41 Z M97.42,45.02 C97.39,43.72 97.24,42.47 96.81,41.55 C96.52,40.92 96.12,40.5 95.4,40.54 C94.42,40.56 93.94,41.31 93.67,42.14 C93.39,43.18 93.34,44.34 93.31,45.24 C93.28,46.08 93.4,46.97 93.54,47.69 C93.71,48.48 94.19,49.72 95.11,49.69 C96,49.67 96.55,49.04 96.9,48.36 C97.3,47.47 97.44,46.29 97.42,45.02 Z M100.06,49.11 C99.75,49.01 99.43,49.18 99.34,49.49 C99.19,49.91 99.05,50.36 98.92,50.78 C98.81,51.08 98.96,51.39 99.26,51.54 C99.57,51.64 99.9,51.46 100,51.16 C100.16,50.7 100.3,50.25 100.45,49.81 C100.54,49.53 100.33,49.18 100.06,49.11 Z"/>
  </g>
</svg>
