<svg xmlns="http://www.w3.org/2000/svg" width="192" height="192" fill="none" viewBox="0 0 192 192">
  <path fill="#F0F0F0" d="M96 176.472c50.064 0 90.65-3.605 90.65-8.051 0-4.447-40.586-8.051-90.65-8.051-50.065 0-90.65 3.604-90.65 8.051 0 4.446 40.585 8.051 90.65 8.051z"/>
  <path fill="#949699" d="M163.407 124v22.854a17.821 17.821 0 01-10.007 16.015c-2.548 1.243-4.617 2.187-4.749 2.045-.355-.382 0-31.309 0-31.309L163.407 124z"/>
  <path fill="#fff" d="M11.77 131.156s125.767 1.341 142.535 2.449v22.768a8.538 8.538 0 01-8.541 8.541H20.311a8.54 8.54 0 01-8.54-8.541v-25.217z"/>
  <path fill="#949699" d="M41.463 119.801s-29.438 11.116-29.438 13.18l142.135-.342 9.248-8.639-121.945-4.199z"/>
  <path fill="#949699" d="M154.159 133.602h-.017l-142.133.342c-.525-.009-1-1.014-.915-1.532.245-1.498 29.913-13.565 29.913-13.565.368-.149 122.017 4.18 122.424 4.19a.957.957 0 01.865.593.956.956 0 01-.19 1.031l-9.249 8.64a.955.955 0 01-.698.301zM14.414 132.06l139.338-.391 7.468-6.76-126.38-2.467c-7.32 2.974-17.21 7.639-20.426 9.618z"/>
  <path fill="#F0F0F0" d="M11.77 139.382c23.273-.028 116.166.054 121.747 1.361 10.143 2.376 14.862 13.018 7.473 24.171h4.774a8.54 8.54 0 008.541-8.541v-22.768c-16.768-1.108-142.535-.509-142.535-.509v6.286z"/>
  <path fill="#949699" d="M145.764 165.877H20.312a9.518 9.518 0 01-9.503-9.504v-23.277a.967.967 0 01.285-.684.87.87 0 01.688-.278c1.257.013 125.985-.587 142.587.511a.96.96 0 01.898.96v22.768a9.513 9.513 0 01-9.503 9.504zm-133.03-31.808v22.304a7.585 7.585 0 007.578 7.578h125.452a7.585 7.585 0 007.578-7.578v-21.861c-18.755-1.032-129.032-.317-140.608-.443z"/>
  <path fill="#fff" d="M142.911 127.611c.108-.174 8.842-3.882 10.554-6.995-21.759.613-110.518 0-110.518 0l-15.522 6.217c55.296 5.722 115.414.894 115.486.778z"/>
  <path fill="#fff" d="M41.235 54.108s101.372-2.004 114.663.573c0 0 1.881 49.409-1.47 65.935l-12.331.11c-27.809.422-99.15-.11-99.15-.11-.303-12.964-.368-54.177-1.712-66.508"/>
  <path fill="#C1C1C1" d="M110.022 121.85c-31.634 0-66.55-.268-67.082-.271l-.934-.007-.021-.933c-.306-13.074-.446-54.853-1.707-66.427l.939-1.067c4.041-.076 101.627-1.974 114.864.59l.721.957c.182 1.897 1.91 49.638-1.43 66.115l-.402.76s-32.325.283-44.948.283zm-66.14-2.19c8.884-.336 84.25.608 109.746.009 2.796-15.629 1.855-58.825 1.321-64.709-14.626-2.214-102.182-.735-112.672-.544 1.349 12.424 1.152 51.683 1.605 65.244z"/>
  <path fill="#949699" d="M155.027 55.939l-11.083 6.722c1.832.686-.216 64.082-.869 64.963l11.331-6.898c3.922-16.299.621-64.787.621-64.787z" opacity=".3"/>
  <path fill="#949699" d="M143.074 128.574a1.27 1.27 0 01-.604-.149.882.882 0 01-.459-1.115c.286-1.324.92-15.645 1.293-31.792.503-21.781.181-30.945-.258-32.282a.84.84 0 01-.213-.738.828.828 0 01.184-.378l12.188-7.7c.27-.328.315-.905.768-.805a1.014 1.014 0 01.838.828c.212 1.87 2.608 50.221-1.301 66.471a.89.89 0 01-.161.33l-11.33 6.899a1.21 1.21 0 01-.423.324 1.204 1.204 0 01-.522.107zm2.152-65.806c.892 3.145.578 22.436.307 33.79-.058 2.421-.477 19.449-1.012 27.455l8.821-3.653c3.238-13.87 2.587-52.998 1.576-62.864l-9.692 5.272zm-1.744.76h.003-.003zm-.002-.002h.001-.001z"/>
  <path fill="#F0F0F0" d="M41.235 54.108s1.337 50.491 1.712 66.508l-15.522 6.218s-1.816-59.891-1.017-65.093l14.827-7.633z" opacity=".5"/>
  <path fill="#C1C1C1" d="M27.425 127.796a.964.964 0 01-.958-.873c-.238-2.463-1.818-60.37-1.01-65.656a.966.966 0 01.46-.686l15.07-7.49a1.083 1.083 0 01.98.04c.292.147.189.192.225.518.053.478 1.346 50.954 1.717 66.909a.967.967 0 01-.395.804l-15.522 6.248a.957.957 0 01-.567.186zm-.108-65.799c-.358 5.747-1.07 42.48.904 63.051l13.75-4.949c-.418-14.684-.637-56.637-1.528-64.746l-13.126 6.644z"/>
  <path fill="#949699" d="M26.407 62.69h117.246c1.565.687-.185 64.079-.743 64.96-.557.882-67.704 4.109-115.486-.766 0 0-1.574-59.063-1.017-64.193z" opacity=".2"/>
  <path fill="#949699" d="M91.893 129.612c-15.242 0-41.044.617-64.567-1.783l-.786-.081-.074-.776c-.228-2.416-1.576-59.216-1.015-64.382l.439-.69 117.967-.159.187.082a1.265 1.265 0 01.664.824c.814 2.618.539 22.387.303 33.939-.064 3.124-.641 30.552-1.283 31.567-.317.5-.508.802-11.702 1.383-7.781.405-35.585.076-40.133.076zm-63.583-3.593c48.427 3.606 110.054 1.437 113.746.874.263-2.825.754-16.292 1.051-31.347.401-20.324.189-29.662-.146-31.906H27.329c-.05 6.923-.045 41.939.98 62.379z"/>
  <path fill="#2F6DA0" d="M141.163 82.15a1.043 1.043 0 00-1.267.751c-.033.14-.92 3.386-4.203 3.386a14.747 14.747 0 00-4.117.385 30.018 30.018 0 002.255-5.13 7.194 7.194 0 003.926-5.473 1.045 1.045 0 00-.822-1.199 1.044 1.044 0 00-1.221.788 5.858 5.858 0 01-1.596 3.181 13.922 13.922 0 00-1.663-5.526 1.034 1.034 0 00-.602-.525 1.045 1.045 0 00-1.321.66 1.027 1.027 0 00.057.797c1.866 3.732 1.743 5.721.807 7.994a4.268 4.268 0 01-1.959-3.258 1.05 1.05 0 00-.308-.736 1.038 1.038 0 00-1.137-.222 1.05 1.05 0 00-.64.966 6.36 6.36 0 003.155 5.145 38.658 38.658 0 00-2.305 5.25 17.217 17.217 0 00-2.357-1.876c-2.316-1.543-.755-4.788-.687-4.925a1.054 1.054 0 00.055-.797 1.049 1.049 0 00-.524-.602 1.044 1.044 0 00-1.399.47c-.863 1.726-1.682 5.536 1.398 7.589a13.963 13.963 0 012.84 2.46c-.05.208-.104.403-.152.617a25.072 25.072 0 00-.605 4.71 15.142 15.142 0 00-2.085-1.247 2.665 2.665 0 01-1.505-2.208 1.049 1.049 0 00-.309-.736 1.046 1.046 0 00-1.137-.22 1.046 1.046 0 00-.562.567 1.032 1.032 0 00-.077.4 4.75 4.75 0 002.662 4.066 12.337 12.337 0 013.108 2.162c.071.733.183 1.461.337 2.182a4.27 4.27 0 01-4.327-.801 1.043 1.043 0 00-1.475 1.474 6.318 6.318 0 004.302 1.691 6.429 6.429 0 002.052-.356 13.794 13.794 0 001.824 3.671 1.038 1.038 0 001.098.414 1.051 1.051 0 00.788-.87 1.04 1.04 0 00-.209-.782 13.103 13.103 0 01-1.94-4.623 6.9 6.9 0 013.502-1.999 1.044 1.044 0 00.766-1.266 1.04 1.04 0 00-.479-.643 1.04 1.04 0 00-.793-.113 9.374 9.374 0 00-3.382 1.578 20.23 20.23 0 01-.007-3.311c.104.005.208.02.313.02a9.084 9.084 0 006.157-2.795 2.648 2.648 0 012.967-.846 1.042 1.042 0 00.932-1.867 4.692 4.692 0 00-5.374 1.239 7.08 7.08 0 01-4.729 2.168 24.313 24.313 0 011.072-4.155c1.428-1.438 2.953-1.452 5.432-1.452a6.523 6.523 0 006.224-4.96 1.04 1.04 0 00-.754-1.262z" opacity=".1"/>
  <path fill="#949699" d="M77.528 125.403c-11.055-5.818-6.835-15.166-.451-15.166a6.394 6.394 0 016.391 6.392v8.788l-5.94-.014z" opacity=".3"/>
  <path fill="#95979A" d="M64.205 103.622c.001.624-.243 1.223-.679 1.67a11.752 11.752 0 01-5.776 3.092.776.776 0 00-.6.823c.04.615.057 1.246.057 1.853a38.113 38.113 0 01-1.742 11.792l-9.691-3.068a20.738 20.738 0 002.564-6.175 11.378 11.378 0 01-7.118-3.02 2.46 2.46 0 01-.423-3.14 2.392 2.392 0 012.802-.93c.334.119.638.311.889.562a6.53 6.53 0 003.93 1.726.8.8 0 00.871-.759c.028-.383.036-.767.024-1.15a17.442 17.442 0 00-.583-4.522.813.813 0 00-.807-.592c-1.937.1-3.862-.361-5.545-1.326a2.465 2.465 0 01-.942-3.116 2.4 2.4 0 013.483-.95c.17.106.35.197.535.271a.798.798 0 001.047-.998 31.072 31.072 0 01-1.238-4.682 2.405 2.405 0 014.641-1.199l.008.032c.449 1.247.988 2.46 1.614 3.627a3.15 3.15 0 001.71-1.965 2.381 2.381 0 011.726-1.813 2.414 2.414 0 012.94 2.916 7.83 7.83 0 01-3.484 4.737.214.214 0 00-.048.04.799.799 0 00-.231.967c.104.216.231.48.36.76.007.015.015.039.023.055.344.727.735 1.59.975 2.205.216.559.415 1.127.583 1.702a.794.794 0 00.368.49.813.813 0 00.607.085 6.682 6.682 0 003.068-1.694 2.342 2.342 0 012.588-.527 2.38 2.38 0 011.494 2.221z" opacity=".3"/>
  <path fill="#F0F0F0" d="M52.365 107.808a.8.8 0 01-.63.935 11.484 11.484 0 01-3.165.064.796.796 0 00.72-.759c.015-.28.023-.543.031-.775.705.041 1.412.009 2.11-.096a.797.797 0 01.934.631zm2.133-8.724a5.94 5.94 0 01-2.165.607h-.024a.799.799 0 11-.024-1.598 5.56 5.56 0 002.086-.735.799.799 0 00-.232.967c.104.216.231.48.36.759zM51.583 115.166a.797.797 0 01.783.955.796.796 0 01-.627.628.802.802 0 01-.82-.34.798.798 0 01.664-1.243zm2.396-3.195a.802.802 0 01.565 1.364.805.805 0 01-.87.173.804.804 0 01-.493-.738.799.799 0 01.798-.799zm0-6.392a.798.798 0 01.565 1.364.799.799 0 11-.565-1.364zm-1.597-3.994a.797.797 0 01.564 1.363.798.798 0 11-.564-1.363zm-3.995-3.995a.8.8 0 110 1.598.8.8 0 010-1.598z"/>
  <path fill="#949699" d="M74.52 122.725a4.811 4.811 0 00-4.35-6.801 4.808 4.808 0 00-4.43 6.75l8.78.051z" opacity=".3"/>
  <path fill="#fff" d="M50.168 75.788a2.397 2.397 0 110 4.794 2.397 2.397 0 010-4.794zm-8.788 3.196a1.598 1.598 0 110 3.195 1.598 1.598 0 010-3.195zm3.196-2.397a.799.799 0 110 1.598.799.799 0 010-1.598z"/>
  <path fill="#F0F0F0" d="M83.442 126.55c-.075 1.375-1.072 1.322-2.447 1.246l-43.33-1.264a2.49 2.49 0 01-2.354-2.364 2.491 2.491 0 012.104-2.589 2.502 2.502 0 012.212.766 3.205 3.205 0 01-.028-.701 4.15 4.15 0 017.84-1.667l.009.001a7.12 7.12 0 011.557-.63 9.861 9.861 0 013.049-.341c.058-.003.116-.003.174.002a9.38 9.38 0 014.075 1.122 5.75 5.75 0 011.335 1.014l.008.009a7.822 7.822 0 014.668-2.099 15.796 15.796 0 013.237-.147c1.917.07 3.797.545 5.517 1.394a6.76 6.76 0 011.444.978l.008.009a4.152 4.152 0 014.462-.619 4.153 4.153 0 012.404 3.809 2.487 2.487 0 013.73.691c.24.418.354.898.326 1.38z"/>
  <path fill="#949699" d="M49.643 122.121a.835.835 0 01-.565.73.817.817 0 01-.635-.044.843.843 0 01-.417-.481.827.827 0 01-.04-.321 3.108 3.108 0 00-.226-1.439 3.677 3.677 0 00-.313-.588 7.124 7.124 0 011.558-.631c.487.84.71 1.806.638 2.774zm22.869-.841a3.391 3.391 0 00-1.371 1.93.83.83 0 01-.85.611.836.836 0 01-.778-.716.83.83 0 01.02-.324 5.075 5.075 0 011.534-2.479 6.761 6.761 0 011.445.978zm-14.875-.135a1.69 1.69 0 00-.55 1.077.83.83 0 01-.874.767h-.009a.82.82 0 01-.735-.561.819.819 0 01-.04-.322c.06-.738.368-1.434.874-1.975a5.75 5.75 0 011.334 1.014z" opacity=".3"/>
  <path fill="#949699" d="M107.861 53.778c21.002 0 41.352.37 46.686 1.362l-10.859 6.693H27.321l14.768-7.414s34.828-.641 65.772-.641zm.006-1.834v1.834l-.002-1.834c-30.612 0-65.464.635-65.812.642-.329.006-.65.093-.937.255l-14.769 7.413a1.802 1.802 0 00-.87 2.063 1.9 1.9 0 001.844 1.35h116.367a1.939 1.939 0 001.571-.79c-.143-1.129 11.252-7.906 11.621-7.66-.244-.574-.273-1.484-.906-1.602-4.712-.877-22.361-1.671-48.107-1.671z"/>
  <path fill="#fff" d="M75.367 26.1S88.832 14.636 96 33.754c0 0 5.212.096 8.177 3.884a12.176 12.176 0 01-1.672 16.521 21.413 21.413 0 01-5.104 3.419s1.684 14.615-17.052 10.545c0 0-11.816 6.763-20.679-3.717 0 0-16.381 1.418-10.764-16.307 0 0-8.564-6.38-2.36-15.42 0 0 3.533-5.318 11.427-3.546 0 0 0-7.807 8.957-7.622 0 0 6.467.158 8.436 4.589z"/>
  <path fill="#F35A58" d="M71.705 71.204a16.123 16.123 0 01-12.456-5.812c-1.703.06-7.255-.105-10.38-4.008-2.378-2.97-2.738-7.33-1.07-12.962-1.87-1.69-7.738-7.995-2.047-16.289.145-.217 3.666-5.362 11.369-4.143a8.987 8.987 0 012.476-4.947c1.754-1.72 4.236-2.547 7.353-2.494.27.006 6.107.197 8.722 4.116 1.878-1.305 6.335-3.851 11.137-2.605 4.157 1.076 7.475 4.7 9.87 10.777 1.59.162 5.661.894 8.255 4.207a13.217 13.217 0 01-1.781 17.827 22.358 22.358 0 01-4.752 3.283c.045 1.653-.184 5.9-3.408 8.82-3.088 2.797-7.968 3.525-14.508 2.162a20.69 20.69 0 01-8.78 2.068zm-11.622-7.798l.322.379c8.225 9.726 19.012 3.76 19.466 3.502l.32-.182.362.078c6.06 1.316 10.478.768 13.136-1.626 3.261-2.94 2.761-7.822 2.756-7.871l-.075-.676.612-.299a20.537 20.537 0 004.875-3.264 11.15 11.15 0 001.562-15.216c-2.637-3.368-7.391-3.513-7.44-3.514l-.65-.015-.23-.61c-2.174-5.797-5.122-9.218-8.762-10.166-5.225-1.363-10.297 2.865-10.348 2.908l-.98.83-.522-1.173c-1.703-3.83-7.522-4.016-7.58-4.017a7.983 7.983 0 00-5.963 1.944 7.279 7.279 0 00-2.01 4.715v1.203l-1.173-.264c-7.111-1.598-10.285 2.948-10.416 3.143-5.599 8.158 1.818 13.874 2.137 14.113l.545.41-.204.652c-1.671 5.275-1.489 9.239.543 11.784 2.993 3.75 9.16 3.281 9.222 3.273l.495-.041zM86.397 77.567a.962.962 0 01-.805-1.492 81.332 81.332 0 001.904-3.034c-1.007.133-2.366.332-3.623.528a.964.964 0 11-.297-1.902c5.19-.81 5.525-.727 5.727-.676a1.028 1.028 0 01.685.605c.158.404.271.695-1.442 3.445l3.184-.84a.963.963 0 01.492 1.86l-5.58 1.474a.963.963 0 01-.245.032zM79.01 92.124a1.082 1.082 0 01-.81-.364c-.386-.465-.753-.907 3.01-9.989l-4.512 1.875a.962.962 0 11-.739-1.778l6.674-2.773a.962.962 0 011.256 1.264c-1.474 3.487-3 7.353-3.668 9.371a261.193 261.193 0 005.112-1.974.962.962 0 11.71 1.789c-.996.395-6.008 2.378-6.838 2.559a.932.932 0 01-.195.02z"/>
  <path fill="#F0F0F0" d="M60.633 55.117s-.169-16.86 16.606-14.584a64.672 64.672 0 0117.787 6.491s-2.192-9.357-5.816-12.307c0 0-3.12 15.258-8.201 19.894-3.926 3.582-11.525 6.49-20.376.506z"/>
  <path fill="#fff" d="M77.888 56.79c-.094-10.54-5.726-14.105-9.56-15.305-7.791 3.486-7.695 13.632-7.695 13.632 6.897 4.664 13.024 3.92 17.255 1.672z"/>
  <path fill="#F35A58" d="M70.89 59.522a19.186 19.186 0 01-10.796-3.607.964.964 0 01-.424-.789c-.003-.322-.02-7.965 5.152-12.528 3.077-2.714 7.3-3.731 12.547-3.018a65.188 65.188 0 018.913 2.47c1.26-4.033 1.97-7.455 1.985-7.526a.961.961 0 011.55-.554c3.836 3.122 6.054 12.44 6.147 12.835a.963.963 0 01-1.415 1.055 51.905 51.905 0 00-7.058-3.304c-1.43 4.15-3.403 8.55-5.834 10.766a16.009 16.009 0 01-10.766 4.2zm-9.28-4.913c7.757 4.997 14.75 2.942 18.75-.709 2.163-1.973 3.977-6.082 5.32-10.01a65.618 65.618 0 00-8.617-2.41c-4.622-.625-8.329.233-10.967 2.562-3.817 3.367-4.397 8.89-4.485 10.567zm26.486-11.892a57.271 57.271 0 015.41 2.394c-.705-2.357-2.014-6.12-3.752-8.42a88.53 88.53 0 01-1.658 6.026z"/>
  <path fill="#F35A58" d="M70.836 59.518a19.008 19.008 0 01-10.742-3.604.963.963 0 01-.424-.788c-.004-.44-.007-10.819 8.265-14.52a.966.966 0 01.68-.04c3.78 1.183 10.134 4.861 10.236 16.215a.963.963 0 01-.511.859 16.038 16.038 0 01-7.504 1.878zm-9.223-4.907c6.772 4.365 12.306 3.025 15.301 1.592-.266-8.906-4.678-12.366-8.524-13.684-5.863 2.873-6.668 10.123-6.777 12.092z"/>
  <path fill="#F35A58" d="M71.467 50.835l-1.824-.537.544-1.95a.963.963 0 10-1.854-.518l-.538 1.924-2.232-.657a.962.962 0 10-.544 1.847l2.258.665-.43 1.542a.964.964 0 101.855.518l.423-1.516 1.798.53a.963.963 0 00.543-1.847z"/>
  <path fill="#F0F0F0" d="M161.861 104.209s12.258 3.25 15.179 19.537c2.921 16.288.354 25.759 3.364 33.018 3.009 7.258 6.108 14.694 2.301 15.402-3.806.708-6.993 0-11.596-19.828a278.867 278.867 0 01-5.93-35.408l-3.318-12.721z"/>
  <path fill="#B7B7B7" d="M182.705 172.166c3.807-.708.709-8.144-2.301-15.402-2.419-5.833-1.24-13.103-2.198-24.182a14.78 14.78 0 01-10.928.257 297.867 297.867 0 003.831 19.499c4.603 19.828 7.79 20.536 11.596 19.828z"/>
  <path fill="#F0F0F0" d="M168.128 137.8a293.464 293.464 0 002.982 14.538c4.603 19.828 7.79 20.536 11.596 19.828 3.806-.708.708-8.144-2.302-15.402-1.961-4.73-1.557-10.406-1.845-18.291-4.942 1.309-8.195.498-10.431-.673z"/>
  <path fill="#B7B7B7" d="M178.673 142.947c-3.174 1.012-6.975.111-9.762-.967a288.702 288.702 0 002.198 10.358c4.603 19.828 7.79 20.536 11.596 19.828 3.807-.708.709-8.144-2.301-15.402-1.569-3.784-1.625-8.176-1.731-13.817z"/>
  <path fill="#F0F0F0" d="M178.796 147.535a10.961 10.961 0 01-9.022-1.276c.412 1.971.852 3.995 1.336 6.079 4.603 19.828 7.79 20.536 11.596 19.828 3.807-.708.708-8.144-2.301-15.402a26.77 26.77 0 01-1.609-9.229z"/>
  <path fill="#B7B7B7" d="M179.028 150.833c-2.863 1.578-6.201.836-8.237.092.106.472.208.935.319 1.413 4.603 19.828 7.789 20.536 11.596 19.828 3.806-.708.708-8.144-2.302-15.402a21.082 21.082 0 01-1.376-5.931z"/>
  <path fill="#F0F0F0" d="M172.083 156.323c4.092 15.927 7.091 16.5 10.623 15.843 3.806-.708.708-8.144-2.302-15.402-.094-.227-.167-.463-.25-.694a12.215 12.215 0 01-8.071.253z"/>
  <path fill="#B7B7B7" d="M181.732 159.999c-2.631 2.532-5.875 2.065-8.322 1.079 3.438 11.274 6.157 11.672 9.296 11.088 3.239-.602 1.477-6.077-.974-12.167z"/>
  <path fill="#949699" d="M176.04 137.589c.218 6.657 1.473 11.478 3.215 14.979-1.107-6.724.177-15.487-2.215-28.822-2.921-16.287-15.179-19.537-15.179-19.537l.624 2.391c2.943 1.656 12.828 8.846 13.555 30.989z" opacity=".3"/>
  <path fill="#949699" d="M178.989 150.471c-8.581-.372-8.892-19.362-8.892-19.362l-3.179-.546c.922 5.971 2.271 13.5 4.191 21.775 4.603 19.828 7.79 20.536 11.596 19.828 3.807-.708.709-8.144-2.301-15.402a21.595 21.595 0 01-1.415-6.293z" opacity=".3"/>
  <path fill="#949699" d="M181.303 156.49l-.036-.084c-1.472-3.554-1.551-7.792-1.65-13.157.004-6.591-.55-13.17-1.657-19.668-2.982-16.633-15.729-20.241-15.855-20.274a.935.935 0 00-.903.24.943.943 0 00-.245.899l3.297 12.625a283.558 283.558 0 005.947 35.479c4.004 17.256 7.151 20.723 10.93 20.723a9.547 9.547 0 001.745-.188 2.845 2.845 0 002.068-1.454c1.494-2.755-1-8.77-3.641-15.141zm-9.283-4.363a278.77 278.77 0 01-5.91-35.273.967.967 0 00-.027-.161l-2.86-10.966a20.165 20.165 0 014.589 2.906c2.989 2.498 6.856 7.177 8.309 15.279 1.087 6.4 1.632 12.88 1.628 19.372.103 5.564.184 9.958 1.792 13.835l.036.089c2.135 5.15 4.793 11.56 3.725 13.531a.986.986 0 01-.322.348.98.98 0 01-.446.16c-2.731.507-5.825 1.084-10.514-19.12z"/>
  <path fill="#F0F0F0" d="M171.652 148.231a23.147 23.147 0 01-1.671-11.547c2.963-11.168 1.823-16.41 1.823-16.41-3.039-16.713-13.978-18.232-20.815-19.068-6.837-.835-17.625 2.963-25.374 4.482-2.293.45-5.827-.608-5.827-.608-1.899-3.768-4.699-6.873-8.601-7.167a41.646 41.646 0 00-1.525-.062c-8.66-6.09-21.86-6.647-21.86-6.647-.305 6.154 3.095 13.953 3.095 13.953-4.187 3.122-3.742 8.685-3.742 8.685-4.857 4.228-8.599 17.57-7.799 18.713.8 1.142 5.208-.027 5.417.017.209.045 63.792-.155 63.792-.155-.92 16.596 12.326 17.69 13.856 18.802 1.53 1.113.139 6.259 1.669 13.214s6.335 4.922 6.335 4.922c3.402-.332 3.073-16.566 1.227-21.124z"/>
  <path fill="#fff" d="M171.301 130.709c-5.935.071-11.891-.742-14.846-3.753-7.074-7.21-10.552-2.449-10.552-2.449s-.053 3.566-.095 7.918l2.757-.008c-.92 16.596 12.326 17.69 13.856 18.802 1.53 1.113.139 6.26 1.669 13.214 1.53 6.955 6.335 4.922 6.335 4.922 3.402-.332 3.073-16.566 1.227-21.124a23.147 23.147 0 01-1.671-11.547 70.047 70.047 0 001.32-5.975z"/>
  <path fill="#949699" d="M170.841 145.909c-9.507-.644-16.496-6.158-17.241-12.219-1.154-9.387-6.935-7.755-6.935-7.755l-1.831 6.493 3.731-.011c-.92 16.596 12.326 17.69 13.856 18.802 1.53 1.113.139 6.26 1.669 13.214 1.53 6.955 6.335 4.922 6.335 4.922 3.401-.332 3.073-16.566 1.227-21.124a25.24 25.24 0 01-.811-2.322z" opacity=".3"/>
  <path fill="#fff" d="M130.59 123.852s-6.11 2.974.425 8.739l17.55-.174 1.895-1.999-2.497-4.547-6.429-2.39-10.944.371zM96.872 118.615s-6.334-1.913-4.858-6.842c1.476-4.93 7.025-3.22 9.419-1.371l-.561-3.59 1.947-2.505 1.657-.608s8.595 2.74 9.477-5.05c0 0 8.587 3.892 9.113 19.215 0 0 .287 12.717 3.494 14.488l-28.524.239s-3.755-2.658-2.643-6.45c0 0-3.674-1.207-2.813-3.456.862-2.25 4.636-3.663 4.636-3.663l-.344-.407z"/>
  <path fill="#949699" d="M148.544 133.136l.021-.026c4.041-5.47-11.076-5.641-33.036-3.668-21.96 1.972-28.372-8.817-25.642-17.158 2.715-8.297 2.435-7.069.783-7.679.138.344.227.552.227.552-4.187 3.122-3.742 8.685-3.742 8.685-4.857 4.228-8.599 17.57-7.799 18.713.8 1.142 5.208-.027 5.417.017.209.045 63.792-.155 63.792-.155-.013.246-.014.479-.021.719z" opacity=".3"/>
  <path fill="#949699" d="M87.61 114.365l-.637-.353c-4.767 4.398-8.407 17.414-7.617 18.543a.78.78 0 00.164.161c.172-.403.32-.818.443-1.239 2.525-8.516 4.904-9.305 6.725-11.375 1.82-2.071.922-5.737.922-5.737z" opacity=".3"/>
  <path fill="#fff" d="M79.963 132.23s6.616-9.694 7.828-9.825c1.212-.132 2.068 9.937 5.621 10.331H82.95l-2.633.083-.353-.589z"/>
  <path fill="#949699" d="M87.791 91.975c.148.643 3.427 14.584 8.056 12.398 4.699-2.219 7.596-5.856 18.105-5.724a7.803 7.803 0 00-2.765-.736 41.646 41.646 0 00-1.525-.062c-8.661-6.09-21.861-6.647-21.861-6.647-.012.254-.01.513-.01.771z" opacity=".3"/>
  <path fill="#fff" d="M88.535 92.88s13.77 1.123 17.362 5.314c0 0-8.541 1.572-11.08 3.892 0 0-5.459-5.164-6.282-9.205z"/>
  <path fill="#949699" d="M149.285 126.166c-3.519-4.242-9.542-3.778-13.149-3.497l-.147.011c-.476.037-.899.069-1.257.08-2.799.094-6.879-.092-6.916-.094a.893.893 0 00-.894.524.936.936 0 00-.087.365.932.932 0 00.884.976c.032.002 4.193.192 7.077.098.415-.014.917-.052 1.486-.098 3.241-.25 8.662-.671 11.565 2.827 1.116 1.345 1.612 2.496 1.396 3.242a1.532 1.532 0 01-.852.882H93.133c-2.003-1.893-3.875-7.397-4.432-9.381a.942.942 0 00-.48-.583.95.95 0 00-.755-.037c-1.315.507-5.875 6.73-8.477 10.394a.936.936 0 00.22 1.302.957.957 0 001.303-.22c2.7-3.801 5.424-7.366 6.824-8.938.79 2.421 2.614 7.342 4.87 9.13.165.131.369.202.58.202h55.78a.95.95 0 00.275-.041 3.49 3.49 0 002.19-2.168c.419-1.403-.169-3.077-1.746-4.976zM111.258 96.981a29.206 29.206 0 00-16.26 4.006c-1.854-1.094-4.854-6.765-6.34-10.158a.93.93 0 00-.517-.495.934.934 0 00-1.195 1.245c.766 1.75 4.743 10.517 7.898 11.358a.933.933 0 00.76-.125 27.304 27.304 0 0115.513-3.967c8.14.612 11.209 15.122 11.021 19.443a.937.937 0 00.882.972l.053.002a.931.931 0 00.932-.894c.214-4.908-3.215-20.669-12.747-21.387z"/>
  <path fill="#949699" d="M127.727 113.032c4.285 3.403 6.176-1.89 6.176-4.348.106-1.733.352-3.455.736-5.149-2.781.699-5.502 1.408-7.97 1.934-.911 2.085-1.692 5.379 1.058 7.563zM140.141 120.09c6.743-.567 4.474-6.176 4.726-10.398.168-2.804 1.722-6.432 2.749-8.56a56.945 56.945 0 00-9.567 1.572c-1.082 5.003-3.342 17.843 2.092 17.386zM150.989 101.206c-.161-.019-.333-.024-.498-.039-1.549 3.458-3.194 9.051 1.119 11.117 4.622 2.215 6.213-5.245 6.743-9.61a37.355 37.355 0 00-7.364-1.468z" opacity=".3"/>
  <path fill="#949699" d="M101.433 110.522a.815.815 0 00.76-1.107 4.682 4.682 0 01-.014-3.215 2.99 2.99 0 011.892-1.51.826.826 0 00.473-.407.818.818 0 00-.361-1.095.813.813 0 00-.622-.046 4.56 4.56 0 00-2.857 2.37 6.278 6.278 0 00-.028 4.492.808.808 0 00.757.518zM96.988 120.12a.818.818 0 00.75-.852.811.811 0 00-.83-.774l-.046.001a5.404 5.404 0 00-3.923 1.771 4.762 4.762 0 00-1.033 3.299.814.814 0 001.62-.162 3.157 3.157 0 01.674-2.105 3.88 3.88 0 012.788-1.178zM109.51 123.576a.804.804 0 00-.348-.517 11.452 11.452 0 00-3.899-1.686 3.32 3.32 0 00.443-3.783 3.234 3.234 0 001.325-.416 3.176 3.176 0 001.431-2.793 5.401 5.401 0 00-.942-3.484.8.8 0 00-.232-.217.81.81 0 00-1.232.557.825.825 0 00.141.606 3.83 3.83 0 01.639 2.464 1.66 1.66 0 01-.64 1.468c-.912.548-2.748-.091-3.368-.377a2.331 2.331 0 00-.576-2.285.751.751 0 00-.931-.075 4.856 4.856 0 00-1.876 3.778.727.727 0 00.515.732 1.952 1.952 0 002.03-.601l1.486.588c.302.113.552.335.699.623.591 1.245.297 2.061-1.048 2.912a.463.463 0 00-.097.085 10.827 10.827 0 00-6.666 2.613.819.819 0 00-.03 1.15.816.816 0 001.15.033 8.635 8.635 0 0110.779-.535.813.813 0 00.291.122.82.82 0 00.957-.643.816.816 0 00-.001-.319z"/>
  <path fill="#949699" d="M139.644 105.866c12.901-4.503 28.015.764 32.214 17.023.053.205.106.399.159.592a16.721 16.721 0 00-.213-3.207c-3.039-16.713-13.978-18.232-20.816-19.068-6.837-.835-17.624 2.963-25.373 4.482-2.294.45-5.827-.608-5.827-.608l1.688 3.993s5.267 1.297 18.168-3.207z" opacity=".3"/>
  <path fill="#949699" d="M172.518 147.88a22.879 22.879 0 01-1.631-10.969l.001-.002c2.987-11.263 1.883-16.588 1.836-16.802-3.195-17.574-15.181-19.041-21.622-19.829-5-.609-11.751 1.099-18.299 2.757-2.634.667-5.123 1.297-7.368 1.737a13.53 13.53 0 01-5.003-.485c-2.369-4.506-5.54-7.032-9.174-7.306a35.663 35.663 0 00-1.292-.056c-8.773-6.023-21.583-6.631-22.124-6.654a.934.934 0 00-.973.888c-.262 5.314 2.07 11.647 2.898 13.71a11.442 11.442 0 00-3.561 8.578c-4.287 4.168-9.082 17.547-7.615 19.645.817 1.166 2.9 1.04 5.777.493l.114-.022c.157-.03.274-.053.335-.059l.02-.003c1.156.019 9.314.021 62.757-.146-.134 5.788 1.458 10.358 4.734 13.583a20.027 20.027 0 008.274 4.573c.434.126.858.281 1.271.464.398.29.427 2.222.45 3.779a42.712 42.712 0 00.855 8.88c.596 2.712 1.748 4.525 3.422 5.391a4.88 4.88 0 002.266.541 5.262 5.262 0 001.767-.296 2.525 2.525 0 001.749-1.332c2.336-3.858 1.807-16.931.136-21.058zm-23.275-16.108a.937.937 0 00-.677-.29h-.003c-28.375.089-62.464.188-63.7.16a2.985 2.985 0 00-.845.107c-2.817.535-3.652.383-3.843.322-.225-1.636 3.01-13.533 7.593-17.524a.942.942 0 00.319-.779c-.004-.05-.348-5.091 3.369-7.862a.932.932 0 00.298-1.123c-.03-.069-2.966-6.87-3.036-12.578 3.337.28 13.438 1.51 20.406 6.41a.937.937 0 00.518.17c.009 0 .98.023 1.475.06 3.853.29 6.389 3.78 7.837 6.655a.953.953 0 00.566.475c.154.046 3.782 1.12 6.275.631 2.304-.452 4.819-1.09 7.522-1.774 6.049-1.531 12.898-3.27 17.559-2.698 6.38.779 17.059 2.082 20.015 18.336.043.212 1.021 5.29-1.83 16.055-.479 4.1.116 8.255 1.726 12.056 1.619 4.002 1.889 16.265-.003 19.389-.196.322-.361.447-.449.455-.092.01-.181.032-.266.066a3.442 3.442 0 01-2.624-.134c-1.15-.601-1.971-1.989-2.442-4.125-.57-2.8-.842-5.653-.811-8.511-.04-2.662-.067-4.419-1.221-5.257a6.982 6.982 0 00-1.791-.729c-3.714-1.211-12.414-4.045-11.68-17.266a.957.957 0 00-.257-.697z"/>
  <path fill="#949699" d="M104.208 121.01l.923-3.147-2.472-4.196s-2.849 2.865-2.032 3.458c2.602 1.889 1.309 3.417-1.389 5.278-4.66 3.214 4.97-1.393 4.97-1.393z" opacity=".3"/>
  <path fill="#F0F0F0" d="M111.309 107.924c.469-1.175.231-2.374-.531-2.678-.763-.305-1.761.401-2.23 1.576-.469 1.175-.232 2.374.531 2.678.763.305 1.761-.401 2.23-1.576z"/>
  <path fill="#fff" d="M109.175 81.429a.753.753 0 01-.753-.753v-1.04a.736.736 0 01.219-.535.75.75 0 01.823-.164.757.757 0 01.464.698v1.04a.75.75 0 01-.753.754zm0 4.986a.753.753 0 01-.753-.753v-1.04a.736.736 0 01.219-.535.75.75 0 01.823-.164.757.757 0 01.464.698v1.04a.75.75 0 01-.753.754zm3.013-3.013h-1.04a.75.75 0 01-.699-.465.754.754 0 01.699-1.042h1.04a.755.755 0 01.531 1.285.755.755 0 01-.531.222zm-4.986 0h-1.04a.751.751 0 01-.751-.753.752.752 0 01.751-.754h1.04a.755.755 0 01.531 1.285.755.755 0 01-.531.222z"/>
  <path fill="#F0F0F0" d="M43.796 19.848a1.278 1.278 0 01-1.278-1.277v-1.765a1.278 1.278 0 112.556 0v1.765a1.276 1.276 0 01-1.278 1.277zm0 8.457a1.278 1.278 0 01-1.278-1.277v-1.765a1.278 1.278 0 012.556 0v1.765a1.278 1.278 0 01-1.278 1.277zm5.11-5.11h-1.764a1.278 1.278 0 110-2.556h1.765a1.278 1.278 0 010 2.556zm-8.456 0h-1.765a1.277 1.277 0 010-2.556h1.765a1.278 1.278 0 010 2.556z"/>
  <path fill="#fff" d="M74.244 101.621a.75.75 0 01-.754-.753v-1.04a.754.754 0 011.507 0v1.04a.751.751 0 01-.753.753zm0 4.986a.754.754 0 01-.754-.753v-1.041a.75.75 0 01.754-.75.752.752 0 01.753.75v1.041a.751.751 0 01-.753.753zm3.013-3.013h-1.04a.751.751 0 01-.75-.753.752.752 0 01.75-.753h1.04a.735.735 0 01.534.219.749.749 0 01.164.823.755.755 0 01-.698.464zm-4.986 0h-1.04a.761.761 0 01-.756-.753.753.753 0 01.756-.753h1.04a.75.75 0 01.75.753.752.752 0 01-.75.753z"/>
</svg>
