<svg xmlns="http://www.w3.org/2000/svg" width="192" height="192" viewBox="0 0 192 192">
  <g fill="none" transform="translate(-1 40)">
    <path fill="#F0F0F0" d="M174.9,120.5 C168.1,119.9 165.6,125.8 165.6,125.8 C164.4,123.1 159.6,123.2 158.3,123.6 C152.6,116.5 142.1,127.1 142.1,127.1 L120.5,127.7 C120.5,127.7 109.7,122.3 109.3,122.2 C108.9,122.1 104.1,123.1 104.1,123.1 L98,125.7 L94.9,127.8 L73.9,127.2 C68.4,117.5 58,122.1 58,122.1 C58,122.1 15.7,108.7 38.9,84.6 C62,60.6 20.2,49 41.2,23.5 C63.2,-3.1 97.4,-7.5 118,13 C134.7,29.5 135.7,56.9 161.2,62.6 C176.2,66 216.1,72.7 174.9,120.5 Z M160.2,58.1 C162.6,58.9 164.9,56.4 163.7,54.1 C161.2,49 156.1,42.2 147.4,42.6 C145.4,42.6 144,45.1 145.2,47 C147.3,50.3 151.6,55.1 160.2,58.1 Z"/>
    <g transform="translate(0 7)">
      <g transform="translate(0 4)">
        <path fill="#F75959" d="M67.9,30.8 L44,40.1 L63,90.6 C63.6,92.2 62.8,93.9 61.3,94.6 C59.8,95.2 58,94.5 57.4,92.9 L38.6,42.3 L14.7,51.6 C12.8,52.3 10.6,51.4 9.9,49.4 L1.2,26.7 C0.5,24.7 1.4,22.6 3.3,21.8 L56.6,1 C58.5,0.3 60.7,1.2 61.4,3.2 L70,25.9 C70.7,27.9 69.8,30.1 67.9,30.8 Z"/>
        <path fill="#C63030" d="M67.9,30.8 L44.1,40.1 L49.8,55.5 C47.2,54.7 44.7,53.8 42.5,53 L38.6,42.3 L14.7,51.6 C13.1,52.2 11.4,51.6 10.4,50.4 C10.8,50.4 11.3,50.3 11.7,50.2 L64.9,29.4 C66.8,28.7 67.7,26.5 67,24.5 L58.4,1.7 C58.3,1.4 58.1,1.1 57.9,0.8 C59.4,0.8 60.7,1.7 61.4,3.2 L70,25.9 C70.7,27.9 69.8,30.1 67.9,30.8 Z"/>
        <path fill="#FFF" d="M11.6,27.7 C10.4,27.7 9.3,27.6 8,27.6 C8.4,28.6 8.7,29.7 9.1,30.7 C9.3,31.3 8.4,31.6 8.2,31.1 C7.8,29.9 7.4,28.8 7,27.6 C6.5,27.6 3.7,27.7 6.3,25.6 C6.2,24.9 5.9,24.4 5.7,23.6 C5.5,23 6.4,22.7 6.6,23.2 C6.7,23.7 7,24.2 7.1,24.8 C8,24 8.9,23.3 9.8,22.6 C10.3,22.3 10.9,23 10.4,23.4 C9.4,24.1 8.3,24.8 7.3,25.7 C7.4,26 7.5,26.3 7.6,26.6 C8,26.6 10.7,26.7 11.7,26.7 C12.4,26.8 12.2,27.7 11.6,27.7 Z M15.3,22.6 C14.3,22.5 13.6,23.4 13.1,24.4 C12.5,23 11.9,21.6 11.4,20.3 C11.2,19.7 10.3,20.1 10.5,20.7 C11.4,23.1 12.5,25.4 13.6,27.8 C13.9,28.3 14.8,28 14.5,27.4 C14.2,26.9 14,26.4 13.8,25.8 C14,24.9 14.8,23.1 15.9,24.1 C16.7,24.8 17.4,25.8 17.8,26.7 C18,27.3 19,26.9 18.7,26.3 C18,25 16.8,22.8 15.3,22.6 Z M44.7,17.5 C45,18 45.9,17.7 45.6,17.1 C45.3,16.6 45.1,16.1 44.9,15.5 C45.1,14.6 45.9,12.8 47,13.8 C47.8,14.5 48.5,15.5 48.9,16.4 C49.1,17 50.1,16.6 49.8,16 C49.2,14.8 48.1,12.6 46.5,12.4 C45.5,12.3 44.8,13.2 44.3,14.2 C43.7,12.8 43.1,11.4 42.6,10.1 C42.4,9.5 41.5,9.9 41.7,10.5 C42.6,12.8 43.6,15.1 44.7,17.5 Z M21.7,26.1 C20.5,26.3 18.9,25.7 18.4,24.3 C18,22.8 19.3,21.8 20.5,21.5 C20.7,21.5 20.9,21.5 21,21.6 C22.2,21.7 23.4,22.3 23.6,23.7 C24,25 22.9,26 21.7,26.1 Z M22.8,23.7 C22.5,22 19.3,21.7 19.4,24 C19.5,24.9 20.6,25.3 21.4,25.2 C22.1,25.3 22.9,24.6 22.8,23.7 Z M25.2,24.5 C25.6,24.9 26.1,24.3 25.9,23.8 C25.8,23.5 25.5,23.2 25.4,22.9 C25.3,22.5 25.4,22.1 25.5,21.7 C25.7,21.2 26.3,20.2 27,20.7 C27.8,21.1 28.5,22.8 28.8,23.6 C29.1,24.1 30,23.8 29.7,23.2 C29.1,22 27.7,18.5 25.8,19.8 C25.1,20.2 24.7,20.8 24.4,21.6 C24.3,21.3 24.1,21.1 24,20.8 C23.7,20.3 22.9,20.8 23.2,21.4 C23.6,22.3 25.2,24.5 25.2,24.5 Z M29.8,22.7 C29.1,22 28.9,20.6 29.5,19.7 C30.2,18.8 31.5,18.2 32.6,17.8 C33.8,17.3 36.5,23.3 37.7,26 C37.8,26.2 37.6,26.5 37.4,26.6 C36.4,26.9 34.5,27.3 33.7,26.2 C32.8,24.8 34.1,23.6 34.7,22.5 C34.7,22.4 34.7,22.4 34.7,22.4 C34.3,21.7 33.8,20.9 33.4,20.2 C33.5,21.1 33.3,21.9 32.6,22.6 C31.8,23.4 30.6,23.6 29.8,22.7 Z M35.2,23.4 C34.9,23.8 34.5,24.3 34.4,24.9 C34,26.1 35.4,26.1 36.4,25.9 C36.1,25 35.6,24.3 35.2,23.4 Z M30.1,21.5 C30.4,22.4 31.4,22.7 32.1,21.9 C32.8,21.1 32.5,19.9 32.2,19.1 C31.1,19.4 29.8,20.2 30.1,21.5 Z M18.3,21.3 C18.3,21.1 18.4,19.6 18.6,19.4 C18.7,19.4 20.7,19.7 21.4,19.8 C22,19.9 22.1,18.9 21.5,18.9 C20.8,18.8 18.6,18.4 18.2,18.5 C17.5,18.7 17.3,20.8 17.3,21.4 C17.4,22 18.3,21.9 18.3,21.3 Z M36.5,17.6 C37.1,15.2 39.8,12.8 42.1,14.7 C43.7,16.1 43.3,18.4 41.6,19.1 C42.3,20 43,21.1 43.6,22 C43.9,22.5 43.1,23.1 42.8,22.6 C42.1,21.5 41.3,20.4 40.5,19.3 C40.2,19.3 40.1,19 40.1,18.8 C39.5,18 38.9,17 38.4,16 C37.9,16.4 37.5,17.2 37.4,17.9 C37.2,18.4 36.2,18.3 36.5,17.6 Z M39.1,15.4 C39.7,16.4 40.3,17.4 40.9,18.4 C41.8,18.3 42.3,17.4 42,16.4 C41.7,15.6 40.9,15.2 40.1,15.2 C39.8,15.1 39.4,15.3 39.1,15.4 Z M55.8,13.1 C55.9,13.2 55.9,13.5 55.8,13.6 C55.8,13.7 55.7,13.7 55.7,13.8 C54.9,14.6 53.9,15.2 52.7,15.3 C51.9,15.4 50.6,15.4 50.3,14.5 C50,13.6 50.9,12.7 51.5,12.2 C52.1,11.8 52.8,11.5 53.5,11.5 C53.2,11.2 52.8,10.8 52.3,10.8 C51.8,10.7 51.2,11.1 51.3,11.7 C51.4,12.3 50.4,12.4 50.4,11.8 C50.3,10.6 51.5,9.6 52.7,9.9 C54.3,10.3 54.8,11.9 55.8,13.1 Z M54.8,13.4 C54.6,13.1 54.4,12.9 54.2,12.6 C53.6,12.5 53,12.7 52.5,13 C52.1,13.1 51.2,13.8 51.3,14.2 C51.5,14.6 52.8,14.4 53.3,14.3 C53.9,14.1 54.4,13.8 54.8,13.4 Z M57.9,12.2 C57,11.3 56.2,10.2 55.4,9.1 C55,8.6 54.3,9.2 54.6,9.7 C55.3,10.8 56.2,11.9 57.1,12.8 C57.5,13.1 58.3,12.6 57.9,12.2 Z M54.7,8.4 C55.3,8.3 55.2,7.4 54.6,7.5 C54,7.4 54.1,8.5 54.7,8.4 Z M49.9,7.6 C50.1,7 50.8,7.1 50.9,7.7 C50.9,8.3 50.4,8.9 50.4,9.2 C50.4,9.5 50.8,9.7 51.1,9.5 C51.3,9.4 51.5,8.9 51.6,8.7 C51.8,8.1 52,7.5 51.7,7 C51.1,5.9 49.4,6.1 48.9,7.3 C48.8,7.7 49.7,8.1 49.9,7.6 Z M33.3,36.7 C31.6,38.9 28.8,40.4 26,39.5 C23.8,38.8 22.3,36.4 23.1,34.1 C23.7,32.1 26.2,30.8 27.9,32.5 C29.5,34.2 28.8,36.5 27.5,38.1 C27.9,38.1 28.2,38.1 28.5,38 C30,37.7 31,36.8 32,35.6 C32.7,34.9 34,36 33.3,36.7 Z M26.8,33.9 C26,33.1 25,33.5 24.6,34.4 C24.3,35 24.4,35.8 24.6,36.4 C24.8,37 25.3,37.3 25.7,37.6 C26.6,36.7 27.9,35.1 26.8,33.9 Z M44.9,28.5 C44,27.4 42.8,26.6 41.3,26.5 C39.6,26.4 38.2,27.7 37.8,29.2 C37.7,29.1 36.4,27.4 34,28.5 C33.3,28.9 32.8,29.4 32.5,30.2 C32.4,30.1 32.4,30.1 32.3,30 C31.6,29.2 30.3,30.1 31,30.9 C31.6,31.6 33.8,35.4 34.1,36.2 C34.5,37.1 36,36.6 35.6,35.6 C35.2,34.4 34.6,33.3 34,32.3 C33.7,31.4 34.1,30 35.2,29.8 C36.4,29.6 37.1,31 37.7,31.9 C38.4,32.8 39,33.9 39.7,34.8 C40.3,35.7 41.6,34.7 41,33.9 C40.5,33.2 40.1,32.3 39.5,31.6 C38.6,29.9 39.6,28.3 40.8,28.1 C41.9,28 42.8,28.7 43.4,29.5 C44.1,30.4 44.5,31.7 45.3,32.5 C46,33.2 47,32 46.3,31.3 C46.1,30.7 45.5,29.3 44.9,28.5 Z M48.8,26.9 L46.4,21.2 C46.3,20.8 45.8,20.7 45.5,20.8 C45.2,20.9 45,21.4 45.1,21.7 L47.5,27.4 C47.9,28.3 49.3,28.2 48.8,26.9 Z M50,29.6 C50,29.1 49.6,28.7 49.1,28.7 C48.6,28.7 48.2,29.1 48.2,29.6 C48.2,30.1 48.6,30.5 49.1,30.5 C49.6,30.5 50,30.1 50,29.6 Z"/>
      </g>
      <g transform="translate(26)">
        <path fill="#FFF" d="M101.6,71.1 C100.8,85.4 93.8,119.4 93.8,119.4 C93.8,119.4 84.8,113 80.6,114.7 C76.2,117.6 70.1,119.6 70.1,119.6 L53.7,120 L52.5,100.1 C52.5,100.1 53.3,98 55,96.9 L55.4,92.5 L73.3,92.4 C73.3,92.4 91.9,87.7 91.7,74.3 L62,74 L48.9,71.8 L38.3,68.1 L25.4,59 L20.3,53.2 L21.8,50.5 L52.7,50.1 C52.7,50.1 52.9,32.4 68.6,34.8 C84.3,37.2 81.9,50 81.9,50 C81.9,50 102.4,57 101.6,71.1 Z"/>
        <path fill="#E7E8E9" d="M87.2,78.1 L53.2,78.3 C53.2,78.3 46,77.9 46.5,72 C46.5,72 47.5,72.2 49.2,72.5 C39.5,69.7 28.9,64 20.8,52.6 C20.8,52.6 58.5,73.1 76.9,74.1 C76.9,74.2 87.2,78.1 87.2,78.1 Z M54.1,120.2 L71.6,119.1 L71.8,118.4 C59.6,117.9 53.4,113.1 53.4,113.1 L54.1,120.2 Z M54.9,49.5 C54.9,42.3 60.6,36.5 67.7,36.5 C74.8,36.5 80.5,42.3 80.5,49.5 C80.5,56.7 74.8,62.5 67.7,62.5 C60.6,62.5 54.9,56.7 54.9,49.5 Z M58.1,49.5 C58.1,54.9 62.4,59.2 67.7,59.2 C73,59.2 77.3,54.8 77.3,49.5 C77.3,44.1 73,39.8 67.7,39.8 C62.4,39.8 58.1,44.2 58.1,49.5 Z M37.1,58 C38.1,58 38.9,57.1 38.9,56.1 C38.9,55.1 38.1,54.2 37.1,54.2 C36.1,54.2 35.3,55.1 35.3,56.1 C35.3,57.1 36.1,58 37.1,58 Z"/>
        <path fill="#949699" d="M76.9,56.5 C75.4,58.5 73.3,60 70.9,60.7 C70.5,60.8 70.2,61.3 70.3,61.7 C70.4,62.1 70.7,62.3 71.1,62.3 C71.2,62.3 71.2,62.3 71.4,62.2 C74,61.5 76.5,59.7 78.2,57.5 C78.5,57.1 78.4,56.6 78.1,56.3 C77.7,56.1 77.2,56.2 76.9,56.5 Z M67.7,46.4 C66,46.4 64.6,47.8 64.6,49.5 C64.6,51.2 66,52.6 67.7,52.6 C69.4,52.6 70.8,51.2 70.8,49.5 C70.7,47.8 69.4,46.4 67.7,46.4 Z M93.9,70.1 L91.5,70.1 C91.1,70.1 90.7,70.5 90.7,70.9 C90.7,71.3 91.1,71.7 91.5,71.7 L93.9,71.7 C94,71.7 94.2,71.8 94.3,71.9 C94.4,72 94.4,72.2 94.4,72.3 C94.3,74.4 94,75.4 93.7,75.7 C93.4,76.1 93.4,76.6 93.8,76.9 C94,77 94.2,77.1 94.4,77.1 C94.6,77.1 94.8,77 95,76.9 C95.2,76.7 95.9,75.9 96.1,72.4 C96.1,71.7 95.9,71.2 95.4,70.7 C95.1,70.3 94.6,70.1 93.9,70.1 Z M147.1,98.6 C146.9,99.6 146.1,100.4 145.1,100.6 C142.1,101.1 140.9,103.1 140.3,104.7 C140.2,105 139.9,105.1 139.6,105.2 C139.6,105.2 139.6,105.2 139.5,105.2 C139.2,105.2 139,105.1 138.8,104.8 C137.7,102.7 136.8,98 141.1,95.7 C143.7,94.2 145.2,95 145.9,95.5 C146.9,96.1 147.3,97.4 147.1,98.6 Z M145.1,96.6 C144.8,96.4 144.4,96.2 144,96.2 C143.4,96.2 142.6,96.4 141.8,96.9 C139.2,98.4 139.2,100.9 139.6,102.5 C140.7,100.7 142.5,99.5 144.7,99.1 C145.4,99 145.6,98.5 145.6,98.2 C145.8,97.6 145.6,97 145.1,96.6 Z M138.7,29 C138.4,29.4 138.4,29.9 138.7,30.2 C139.1,30.5 139.6,30.5 139.9,30.2 C140.6,29.5 141.6,29 142.7,29 C144.9,29 146.7,30.8 146.7,33.1 C146.7,33.5 147.1,33.9 147.5,33.9 C147.9,33.9 148.3,33.5 148.3,33.1 C148.3,30.8 150,29 152.3,29 C153.3,29 154.3,29.4 155.1,30.2 C155.5,30.5 156,30.5 156.3,30.2 C156.6,29.8 156.6,29.3 156.3,29 C155.2,28 153.8,27.3 152.3,27.3 C150.3,27.3 148.5,28.4 147.5,30.1 C146.6,28.4 144.7,27.3 142.7,27.3 C141.1,27.3 139.7,27.9 138.7,29 Z M15.1,98.8 C14,97.1 13.8,95.1 15,93.6 C15.8,92.5 17.3,91.9 18.6,91.9 C20.3,91.8 22.5,92.9 23.8,94.7 C26.1,97.5 25.8,102.1 25.8,102.3 C25.8,102.6 25.6,102.9 25.2,103 C25.1,103 25,103 24.9,103 C24.7,103 24.5,102.9 24.3,102.7 C23.6,101.9 21.3,99.9 19.4,100.4 C17.8,100.8 16.1,100.2 15.1,98.8 Z M16.4,97.8 C16.8,98.5 17.8,99.2 18.8,98.8 C19.2,98.7 19.6,98.6 20,98.6 C21.5,98.6 22.9,99.4 24,100.2 C23.9,98.8 23.5,96.9 22.5,95.6 C21.4,94.2 19.9,93.3 18.5,93.4 C17.7,93.4 17,93.8 16.5,94.4 C15.6,95.7 15.9,97 16.4,97.8 Z M158.6,119.4 C158.6,119.8 158.2,120.2 157.8,120.2 C157.2,120.2 157,119.7 157,119.7 C155.6,116 152.1,113.6 148.2,113.6 C144.7,113.6 141.5,115.6 139.9,118.6 L139.3,119.6 L138.5,118.7 C137.5,117.5 136,116.7 134.3,116.7 C133.8,116.7 133.3,116.8 132.8,116.9 L132.4,117 L132,116.7 C130.5,115.2 128.5,114.4 126.5,114.4 C124.2,114.4 121.9,115.4 120.4,117.3 C118.7,119.4 116.1,120.6 113.5,120.6 L103,120.6 L98.1,120.6 L97.1,120.6 L97,120.6 C93.7,120.6 90.5,119.5 87.8,117.4 C86.1,116 84.1,115.3 81.9,115.3 C79.8,115.3 77.7,116 76,117.4 C73.5,119.5 70.1,120.6 66.8,120.6 L47.1,120.6 L46.9,120.2 C45.1,116.6 41.3,114.2 37.2,114.2 C36.1,114.2 35,114.3 33.9,114.7 C30.7,115.7 27.3,115 24.8,112.7 C22.8,111 20.3,110 17.7,110 C13.4,110 9.6,112.5 7.7,116.5 C6.6,118.9 4.3,120.5 1.7,120.5 L1.6,120.5 L1.6,120.5 L1.6,120.5 C1.2,120.5 0.8,120.1 0.8,119.7 C0.8,119.3 1.2,118.9 1.6,118.9 L1.6,118.9 L1.6,118.9 L1.7,118.9 C3.6,118.9 5.4,117.7 6.2,115.9 C8.2,111.3 12.7,108.4 17.6,108.4 C20.6,108.4 23.5,109.5 25.7,111.5 C27.7,113.3 30.6,113.9 33.2,113.1 C34.4,112.7 35.7,112.5 37.1,112.5 C41.7,112.5 45.8,115 48,118.9 L53.5,118.9 L52.9,114.7 C42.2,111.2 35.1,102.5 31.6,97.3 C30.6,95.7 31.8,93.7 33.6,94 L52.7,97.2 C52.9,97 53.1,96.8 53.4,96.5 L53.4,95 C53.4,93.7 54.2,92.5 55.4,92 L57.7,87.1 L59.7,91.7 L61.1,91.7 L63.1,87.1 L65.1,91.7 L66.5,91.7 L68.5,87.1 L70.5,91.7 L71.9,91.7 L73.9,87.1 L75.7,91.2 C76.1,91.1 76.5,90.8 76.9,90.6 C77.3,90.4 77.7,90.2 78.1,90 L79.4,87.1 L80.1,88.8 C82.2,87.4 84.1,85.8 85.8,83.9 C85.9,83.7 86.1,83.5 86.2,83.3 L86.3,83.2 C86.4,83.1 86.4,83 86.5,82.8 L85.4,80.4 L82.6,86.5 L79.8,80.3 L77,86.5 L74.2,80.3 L71.4,86.5 L68.6,80.3 L65.8,86.5 L63,80.3 L60.2,86.5 L57.4,80.3 L54.6,86.5 L51,78.4 C47.9,78 45.4,75.2 45.3,71.9 C42.8,71.1 40.4,70.1 38.1,68.9 C30.5,65.2 23.8,59.5 18.7,52.8 L18.3,52.4 L18.5,52 C22.3,44.1 28.2,37.4 35.4,32.7 C43,27.8 52.4,23.5 67.5,24.3 C67.8,24.3 86.5,24.5 101.1,42.7 C107.2,50.3 110.6,59.5 111.2,69 C111.4,72.1 113,74.9 115.6,76.7 C126.3,84.2 133.9,95.8 136.3,109.1 C136.7,110.9 134.8,112.4 133,111.9 C127.2,109.9 121.1,108.6 114.8,107.8 C109.4,107.1 104.4,110.7 103.3,116.1 L102.9,118.9 L113.2,118.9 C115.3,118.9 117.4,118 118.9,116.1 C120.7,113.8 123.4,112.7 126.2,112.7 C128.5,112.7 130.7,113.5 132.5,115.1 C133,115 133.4,115 134,115 C135.7,115 137.4,115.7 138.7,116.8 C140.7,113.7 144.2,111.9 147.9,111.9 C152.6,111.9 156.6,114.7 158.3,119.1 C158.6,119.1 158.6,119.4 158.6,119.4 Z M89.8,77 C89.7,75.8 88.6,74.9 87.4,74.9 L84.2,74.9 L62.9,74.9 L62.8,74.9 C62.3,74.9 61.7,74.9 61.1,74.9 C56.4,74.8 51.7,74 47.2,72.6 C47.6,75.1 49.7,77 52.2,77 L89.8,77 L89.8,77 Z M55.2,95.9 C55.8,95.7 56.4,95.6 56.9,95.6 L56.9,95.6 C61.8,95.3 65.8,94.7 69.8,93.4 L56.8,93.5 C55.9,93.5 55.2,94.2 55.2,95.2 C55.2,95.2 55.2,95.9 55.2,95.9 Z M99,75.4 C99,74.7 98.9,73.9 98.9,73.2 C98.9,73.1 98.8,72.8 98.8,72.7 C98.8,72.4 98.7,72 98.7,71.8 C98.6,71.6 98.6,71.4 98.6,71.2 C98.5,70.8 98.5,70.5 98.4,70.2 C98.3,69.8 98.2,69.5 98.1,69.2 C98.1,69.1 98,68.8 98,68.7 C97.8,68.2 97.6,67.8 97.4,67.2 C97.3,66.9 97.1,66.5 97,66.3 C96.9,66.1 96.8,65.9 96.6,65.6 C96.5,65.4 96.4,65.2 96.3,65.1 C96.2,64.9 96.1,64.7 95.9,64.4 C95.8,64.1 95.6,63.8 95.4,63.5 C94.5,62 93.4,60.7 92.1,59.4 C91.5,58.9 90.9,58.3 90.2,57.7 L90.1,57.6 C89.7,57.3 89.4,57.1 89,56.8 C89,56.7 88.9,56.7 88.9,56.7 C87.1,55.5 85,54.4 82.8,53.8 C81.2,53.3 80.1,51.8 80.2,50.1 C80.2,50 80.2,49.9 80.2,49.7 C80.2,46.9 79.3,44.2 77.7,42.1 C77.4,41.7 77.2,41.4 76.9,41.2 C76.8,41.1 76.6,40.9 76.5,40.8 C76.2,40.5 75.9,40.2 75.6,40 C75.1,39.6 74.6,39.3 74.1,39 C73.4,38.6 72.7,38.3 71.9,38 C71.7,38 71.5,37.9 71.3,37.9 C70.1,37.5 68.8,37.4 67.4,37.5 C64.5,37.6 61.7,38.9 59.7,40.7 C57.4,42.9 55.8,45.9 55.6,49.3 C55.6,49.4 55.6,49.4 55.6,49.4 C55.5,51.3 54.1,52.7 52.3,53 L52,53 C51.9,53 51.8,53 51.6,53 L20.6,53 C22.8,55.8 25.3,58.3 27.9,60.6 C28.3,61 28.6,61.3 29,61.5 C29,61.6 29.1,61.6 29.1,61.6 C29.5,61.9 29.8,62.2 30.2,62.5 C30.3,62.5 30.3,62.6 30.3,62.6 C30.7,62.9 31,63.1 31.4,63.4 C31.4,63.5 31.5,63.5 31.5,63.5 C31.8,63.7 32.2,64 32.5,64.2 C32.6,64.3 32.6,64.3 32.7,64.3 C33.1,64.5 33.4,64.7 33.7,65 C33.8,65.1 33.9,65.1 34.1,65.2 C34.5,65.4 34.8,65.6 35,65.8 C35.1,65.9 35.3,65.9 35.4,66 C35.7,66.2 36,66.4 36.3,66.5 C36.4,66.6 36.7,66.7 36.8,66.8 C37.1,66.9 37.3,67.1 37.6,67.2 C37.8,67.3 38,67.4 38.2,67.5 C38.4,67.6 38.7,67.7 38.9,67.9 C41.4,69.1 44,70.2 46.7,71 L46.8,71 L47,71.1 C50.1,72 53.3,72.8 56.6,73.1 C56.7,73.1 56.8,73.1 57,73.2 C57.4,73.3 57.9,73.3 58.4,73.3 C58.6,73.3 58.8,73.3 59.1,73.4 C59.5,73.4 60,73.5 60.4,73.5 C60.5,73.5 60.7,73.5 60.8,73.5 C61.5,73.5 62,73.6 62.7,73.6 L84.7,73.6 L92,73.6 L92.1,73.6 L92.1,74.4 C92.1,74.6 92,79.9 87.4,85.3 C85.7,87.4 83.5,89.3 81.1,90.8 C79.9,91.6 78.5,92.4 76.9,93.1 C74.4,94.3 71.7,95.1 68.6,95.9 C65,96.8 61.2,97.4 56.7,97.7 C56,97.8 55.2,98 54.6,98.4 L53.7,99 C53.6,99.1 53.6,99.1 53.5,99.2 C52.8,100 52.5,101 52.5,102 C52.5,102.3 52.6,102.5 52.6,102.7 L54.9,119.3 L66.7,119.3 C69.6,119.3 72.6,118.3 74.8,116.5 C76.7,114.9 79.2,114.1 81.6,114.1 C84,114.1 86.5,114.9 88.4,116.5 L88.4,116.5 L88.4,116.5 C89.2,117.2 90.1,117.7 91.2,118.2 L98.3,80.7 C98.6,79.3 98.7,78 98.7,76.7 C99,76.2 99,75.8 99,75.4 Z M129.9,3.4 C130.6,2.7 131.6,2.2 132.7,2.2 C134.9,2.2 136.7,4 136.7,6.3 C136.7,6.7 137.1,7.1 137.5,7.1 C137.9,7.1 138.3,6.7 138.4,6.4 C138.4,6.3 138.4,6.3 138.4,6.3 L138.4,6.3 C138.4,4 140.1,2.2 142.4,2.2 C143.4,2.2 144.4,2.6 145.2,3.4 C145.6,3.7 146.1,3.7 146.4,3.4 C146.7,3 146.7,2.5 146.4,2.2 C145.4,1.2 143.9,0.5 142.4,0.5 C140.4,0.5 138.5,1.6 137.5,3.3 C136.5,1.7 134.7,0.6 132.7,0.6 C131.2,0.6 129.8,1.2 128.7,2.3 C128.4,2.7 128.4,3.2 128.7,3.5 C129.1,3.7 129.6,3.7 129.9,3.4 Z M111.3,16.2 C113,14.5 115.2,13.6 117.6,13.6 C122.5,13.6 126.4,17.7 126.4,22.5 C126.4,22.9 126.8,23.3 127.2,23.3 C127.6,23.3 127.9,22.9 127.9,22.6 C127.9,22.5 127.9,22.5 127.9,22.5 C127.9,17.6 131.9,13.6 136.7,13.6 C139,13.6 141.3,14.5 143,16.2 C143.4,16.5 143.9,16.5 144.2,16.2 C144.5,15.8 144.5,15.3 144.2,15 C142.3,13 139.6,11.9 136.9,11.9 C132.5,11.9 128.8,14.7 127.2,18.5 C125.7,14.6 121.9,11.8 117.5,11.8 C114.7,11.8 112.1,12.9 110.2,14.9 C109.9,15.3 109.9,15.8 110.2,16.1 C110.5,16.5 111,16.5 111.3,16.2 Z"/>
        <path fill="#FFF" d="M96.8,111.1 C96.7,111.6 96.2,111.9 95.8,111.9 C95.7,111.9 95.6,111.9 95.5,111.8 C89.6,110.1 84.8,103.9 81.3,93.6 C81.1,93 81.4,92.4 82,92.2 C82.6,92 83.2,92.3 83.4,92.9 C85.7,99.5 89.7,107.8 96.1,109.7 C96.6,110 96.9,110.6 96.8,111.1 Z M105.2,87 C101.2,86.9 98.7,89.5 98.4,89.9 C96,88.2 93.5,86.3 91.4,84.7 C90.9,84.3 90.2,84.4 89.9,84.9 C89.6,85.4 89.6,86.1 90.1,86.4 C93.4,88.9 97.5,92 101,94.4 C101.2,94.5 101.4,94.6 101.6,94.6 C102,94.6 102.3,94.5 102.5,94.1 C102.9,93.6 102.7,92.9 102.2,92.6 C101.5,92.2 100.8,91.7 100.1,91.1 C100.7,90.6 102.4,89.1 105,89.1 C105.1,89.1 105.1,89.1 105.1,89.1 C105.7,89.1 106.2,88.6 106.2,88 C106.3,87.5 105.8,87 105.2,87 Z"/>
      </g>
      <g transform="translate(65 29)">
        <path fill="#949699" d="M63.2,77.2 C66.2,73.4 70.5,71.2 61.7,65.1 C56,61.2 48.9,55.6 45,52.8 C43.3,51.6 40.9,53.2 41.4,55.2 C43.2,63.4 47.7,78 57,80.8 C58.6,81.2 60.3,80.7 61.4,79.4 L63.2,77.2 Z"/>
        <path fill="#FFF" d="M56.5,24.5 C56.5,26.7 54.8,28.4 52.7,28.4 C50.6,28.4 48.9,26.7 48.9,24.5 C48.9,22.3 52.7,16 52.7,16 C52.7,16 56.5,22.4 56.5,24.5 Z"/>
        <path fill="#E7E8E9" d="M83.8,61 C83.7,61.1 83.6,61.1 83.4,61.1 C83.1,61.1 82.8,61 82.7,60.7 C80.7,56.9 75.9,54.1 75.8,54.1 C75.4,53.9 75.3,53.4 75.5,53 C75.7,52.6 76.2,52.5 76.6,52.7 C76.8,52.8 81.8,55.7 84.1,60 C84.3,60.3 84.2,60.8 83.8,61 Z M7.9,0.8 C5,1.4 0.6,4.3 0.5,4.4 C0.1,4.6 0.1,5.1 0.3,5.5 C0.4,5.7 0.7,5.9 1,5.9 C1.1,5.9 1.3,5.9 1.5,5.8 C1.6,5.8 5.7,2.9 8.3,2.5 C8.7,2.4 9,2 9,1.6 C8.7,1 8.3,0.7 7.9,0.8 Z"/>
        <path fill="#949699" d="M41,79.7 C41.2,80.1 41.1,80.6 40.8,80.9 C40.7,81 40.7,81 40.5,81.1 C39.9,81.3 39.3,81.1 39,80.5 C38.9,80.3 37,75.8 39.6,70.7 C39.9,70.1 40.5,70 41.1,70.3 C41.7,70.6 41.8,71.2 41.6,71.8 C39.4,75.9 41,79.6 41,79.7 Z M42.9,72.3 C41.3,75.5 42.5,78.3 42.5,78.6 C42.7,79.2 43.4,79.4 44,79.2 C44.1,79.1 44.2,79.1 44.3,79 C44.7,78.6 44.8,78.2 44.5,77.6 C44.5,77.6 43.7,75.6 44.8,73.4 C45.1,72.8 44.9,72.2 44.3,71.9 C43.8,71.6 43.1,71.7 42.9,72.3 Z"/>
      </g>
    </g>
  </g>
</svg>
