<svg width="64" height="64" viewBox="0 0 64 64" fill="none" xmlns="http://www.w3.org/2000/svg">
<path d="M32.0275 8.00002C26.4738 7.99364 21.0898 9.91355 16.7932 13.4325C12.4966 16.9514 9.55339 21.8515 8.46523 27.2976C7.37707 32.7436 8.21133 38.3985 10.8258 43.2983C13.4403 48.1981 17.6732 52.0396 22.8029 54.1678C27.9326 56.2961 33.6417 56.5794 38.9569 54.9696C44.2722 53.3597 48.8646 49.9563 51.9514 45.3394C55.0382 40.7225 56.4283 35.178 55.8847 29.651C55.3412 24.124 52.8976 18.9565 48.9705 15.0294C44.4781 10.5328 38.3838 8.00435 32.0275 8.00002V8.00002Z" fill="#D9F9D4"/>
<path d="M32.023 12C27.3949 11.9947 22.9082 13.5946 19.3277 16.527C15.7472 19.4595 13.2945 23.5429 12.3877 28.0813C11.4809 32.6197 12.1761 37.3321 14.3548 41.4153C16.5336 45.4984 20.0609 48.6996 24.3357 50.4732C28.6105 52.2467 33.368 52.4829 37.7974 51.1413C42.2268 49.7998 46.0538 46.9636 48.6262 43.1162C51.1985 39.2688 52.3569 34.6484 51.9039 30.0425C51.451 25.4367 49.4147 21.1304 46.1421 17.8579C42.3985 14.1106 37.3198 12.0036 32.023 12V12Z" fill="#29BC64"/>
<path d="M40.6653 28.031L30.6653 38.031C30.384 38.3123 30.0025 38.4703 29.6047 38.4703C29.2069 38.4703 28.8254 38.3123 28.5441 38.031L22.5441 32.031C22.275 31.7473 22.1273 31.3697 22.1325 30.9787C22.1377 30.5877 22.2954 30.2141 22.572 29.9377C22.8486 29.6613 23.2222 29.5038 23.6132 29.4988C24.0042 29.4938 24.3817 29.6417 24.6653 29.911L29.6053 34.851L38.5453 25.911C38.8296 25.646 39.2057 25.5018 39.5943 25.5087C39.9829 25.5155 40.3537 25.6729 40.6285 25.9478C40.9034 26.2226 41.0608 26.5934 41.0676 26.982C41.0745 27.3706 40.9303 27.7467 40.6653 28.031V28.031Z" fill="white"/>
</svg>
