<svg width="64" height="64" viewBox="0 0 64 64" fill="none" xmlns="http://www.w3.org/2000/svg">
<path d="M43 41.5541V43.4941H21V41.5541H43ZM21 48.5477H43V46.6077H21V48.5477Z" fill="#FFE9A4"/>
<path d="M51.994 22.7284C51.9922 22.5505 51.9743 22.3731 51.9406 22.1984L51.9375 22.1874C51.9008 22.0181 51.8495 21.8523 51.7841 21.6919C51.7648 21.6434 51.7421 21.5971 51.7203 21.5497C51.6651 21.43 51.602 21.314 51.5314 21.2026C51.5036 21.1585 51.4774 21.114 51.4472 21.0712C51.3445 20.9232 51.2288 20.7847 51.1014 20.6574L51.1 20.6561L39.1042 8.88321C38.9601 8.74191 38.8023 8.61526 38.6332 8.50511C38.5498 8.45061 38.4582 8.41321 38.3705 8.36741C38.2811 8.32061 38.1959 8.26591 38.1024 8.22811C37.993 8.18854 37.8814 8.15516 37.7682 8.12811C37.6882 8.10581 37.6115 8.07371 37.5297 8.05811C37.3325 8.01954 37.132 8.00008 36.931 8.00001H18.636C16.893 7.98577 15.2155 8.66344 13.9714 9.88438C12.7274 11.1053 12.0184 12.7698 12 14.5128V49.4873C12.0185 51.2303 12.7275 52.8947 13.9715 54.1156C15.2155 55.3365 16.893 56.0142 18.636 56H45.364C47.107 56.0142 48.7845 55.3365 50.0285 54.1156C51.2725 52.8947 51.9815 51.2303 52 49.4873V22.7882C52 22.7679 51.9944 22.7486 51.994 22.7284ZM48.9277 49.4873C48.9188 50.4236 48.5384 51.3181 47.8701 51.974C47.2018 52.6299 46.3003 52.9934 45.364 52.9847H18.636C17.6997 52.9934 16.7982 52.6299 16.1299 51.974C15.4616 51.3181 15.0812 50.4236 15.0723 49.4873V14.5128C15.0812 13.5765 15.4616 12.682 16.1299 12.0261C16.7982 11.3702 17.6997 11.0066 18.636 11.0153H32.8353C33.1043 11.0128 33.3633 11.1172 33.5554 11.3056C33.7474 11.494 33.8568 11.751 33.8594 12.02V20.7777C33.872 22.1232 34.4186 23.4085 35.3789 24.351C36.3392 25.2935 37.6345 25.8159 38.98 25.8034H47.9036C48.1727 25.8009 48.4317 25.9054 48.6238 26.0939C48.8158 26.2824 48.9251 26.5394 48.9277 26.8085V49.4873ZM38.98 22.7882C38.4419 22.7932 37.9238 22.5843 37.5397 22.2073C37.1556 21.8304 36.9369 21.3163 36.9318 20.7782V11.0153L48.9277 22.7882H38.98Z" fill="#FFCA3F"/>
<path d="M22.0557 33.2C22.027 33.6097 22.0839 34.0208 22.2227 34.4073C22.3615 34.7938 22.5792 35.1472 22.862 35.445C23.1448 35.7428 23.4864 35.9785 23.8652 36.1371C24.244 36.2957 24.6517 36.3738 25.0623 36.3663C25.5567 36.3775 26.0444 36.2498 26.4699 35.9977C26.8953 35.7455 27.2415 35.3791 27.4691 34.94L28.6667 35.6592C28.3139 36.3056 27.7923 36.8443 27.1576 37.2177C26.5228 37.5912 25.7987 37.7855 25.0623 37.78C24.4698 37.7804 23.8833 37.6608 23.3383 37.4282C22.7934 37.1957 22.3012 36.8551 21.8915 36.4271C21.4818 35.999 21.1631 35.4924 20.9547 34.9377C20.7462 34.3831 20.6524 33.7919 20.6788 33.2C20.6522 32.608 20.746 32.0167 20.9543 31.4619C21.1627 30.9072 21.4813 30.4004 21.891 29.9722C22.3007 29.544 22.793 29.2033 23.338 28.9707C23.8831 28.7381 24.4697 28.6185 25.0623 28.6189C25.7969 28.6139 26.5194 28.8069 27.1537 29.1777C27.7879 29.5484 28.3106 30.0832 28.6667 30.7258L27.4691 31.4584C27.2403 31.0203 26.8938 30.6547 26.4687 30.4028C26.0435 30.1509 25.5564 30.0226 25.0623 30.0323C24.6516 30.0249 24.2438 30.1031 23.865 30.2618C23.4861 30.4206 23.1445 30.6564 22.8617 30.9543C22.5789 31.2522 22.3612 31.6058 22.2224 31.9924C22.0837 32.379 22.0269 32.7902 22.0557 33.2V33.2ZM33.08 32.5051C31.859 32.1013 31.3919 31.8115 31.3919 31.1292C31.3919 30.4614 31.9068 30.0319 32.7094 30.0319C33.0965 30.0227 33.4763 30.1379 33.7931 30.3606C34.1099 30.5833 34.3469 30.9017 34.4694 31.269L35.6309 30.5621C35.3967 29.9813 34.9923 29.4849 34.4709 29.138C33.9495 28.7911 33.3354 28.61 32.7092 28.6185C32.3618 28.5962 32.0136 28.6458 31.6862 28.7641C31.3589 28.8823 31.0594 29.0668 30.8065 29.3059C30.5536 29.5451 30.3526 29.8338 30.2162 30.154C30.0798 30.4742 30.0109 30.8191 30.0137 31.1672C30.0137 32.8328 31.2837 33.3384 32.5892 33.7545C33.8346 34.1583 34.4938 34.4234 34.4938 35.2045C34.4938 35.8488 34.0267 36.3656 32.9364 36.3656C32.4706 36.3961 32.0085 36.2645 31.6286 35.9932C31.2488 35.7218 30.9745 35.3274 30.8524 34.8768L29.6666 35.6083C29.8901 36.2765 30.3286 36.8519 30.9135 37.2447C31.4984 37.6376 32.1969 37.8258 32.9 37.78C34.6486 37.78 35.8705 36.7956 35.8705 35.18C35.8705 33.4268 34.4691 32.9716 33.08 32.5051ZM42.33 28.7824L40.09 35.8615L37.8627 28.7824H36.3527L39.2636 37.6154H40.9167L43.8267 28.7824H42.33Z" fill="#F09223"/>
</svg>
