<svg width="64" height="64" viewBox="0 0 64 64" fill="none" xmlns="http://www.w3.org/2000/svg">
<path d="M43 41.5541V43.4941H21V41.5541H43ZM21 48.5477H43V46.6077H21V48.5477Z" fill="#B8F0BD"/>
<path d="M25.6617 33.0945L28.5705 37.7305H26.8305L24.7846 34.4725L22.74 37.7305H21L23.9218 33.0945L21.173 28.7155H22.8989L24.7847 31.7167L26.6706 28.7155H28.4106L25.6617 33.0945ZM31.5626 28.7155H30.0357V37.7305H35.3473V36.3138H31.5626V28.7155ZM39.9052 32.5146C38.5513 32.1025 38.0334 31.8068 38.0334 31.1105C38.0334 30.429 38.6043 29.9905 39.4943 29.9905C39.9106 29.9717 40.3223 30.0832 40.6722 30.3095C41.0221 30.5358 41.2926 30.8657 41.4461 31.2531L42.734 30.5316C42.4465 29.9208 41.9865 29.4075 41.4108 29.0549C40.8351 28.7024 40.1688 28.526 39.494 28.5476C39.1247 28.5108 38.7517 28.55 38.3981 28.6627C38.0444 28.7754 37.7176 28.9592 37.4376 29.2029C37.1577 29.4466 36.9305 29.745 36.7702 30.0797C36.6098 30.4144 36.5196 30.7784 36.5051 31.1493C36.5051 32.8493 37.913 33.365 39.361 33.7893C40.7418 34.2014 41.4728 34.472 41.4728 35.2699C41.4728 35.9274 40.9549 36.4549 39.7459 36.4549C39.2459 36.4986 38.7457 36.3723 38.3264 36.0964C37.907 35.8206 37.593 35.4114 37.4351 34.9349L36.1202 35.6816C36.4015 36.3864 36.9018 36.9823 37.5474 37.3812C38.193 37.7801 38.9497 37.961 39.7059 37.8973C41.6448 37.8973 42.9997 36.8927 42.9997 35.2443C43 33.4553 41.4461 32.9907 39.9052 32.5146Z" fill="#028043"/>
<path d="M51.994 22.7284C51.9922 22.5505 51.9743 22.3731 51.9406 22.1984L51.9375 22.1874C51.9008 22.0181 51.8495 21.8523 51.7841 21.6919C51.7648 21.6434 51.7421 21.5971 51.7203 21.5497C51.6651 21.43 51.602 21.314 51.5314 21.2026C51.5036 21.1585 51.4774 21.114 51.4472 21.0712C51.3445 20.9232 51.2288 20.7847 51.1014 20.6574L51.1 20.6561L39.1042 8.88321C38.9601 8.74191 38.8023 8.61526 38.6332 8.50511C38.5498 8.45061 38.4582 8.41321 38.3705 8.36741C38.2811 8.32061 38.1959 8.26591 38.1024 8.22811C37.993 8.18854 37.8814 8.15516 37.7682 8.12811C37.6882 8.10581 37.6115 8.07371 37.5297 8.05811C37.3325 8.01954 37.132 8.00008 36.931 8.00001H18.636C16.893 7.98577 15.2155 8.66344 13.9714 9.88438C12.7274 11.1053 12.0184 12.7698 12 14.5128V49.4873C12.0185 51.2303 12.7275 52.8947 13.9715 54.1156C15.2155 55.3365 16.893 56.0142 18.636 56H45.364C47.107 56.0142 48.7845 55.3365 50.0285 54.1156C51.2725 52.8947 51.9815 51.2303 52 49.4873V22.7882C52 22.7679 51.9944 22.7486 51.994 22.7284ZM48.9277 49.4873C48.9188 50.4236 48.5384 51.3181 47.8701 51.974C47.2018 52.6299 46.3003 52.9934 45.364 52.9847H18.636C17.6997 52.9934 16.7982 52.6299 16.1299 51.974C15.4616 51.3181 15.0812 50.4236 15.0723 49.4873V14.5128C15.0812 13.5765 15.4616 12.682 16.1299 12.0261C16.7982 11.3702 17.6997 11.0066 18.636 11.0153H32.8353C33.1043 11.0128 33.3633 11.1172 33.5554 11.3056C33.7474 11.494 33.8568 11.751 33.8594 12.02V20.7777C33.872 22.1232 34.4186 23.4085 35.3789 24.351C36.3392 25.2935 37.6345 25.8159 38.98 25.8034H47.9036C48.1727 25.8009 48.4317 25.9054 48.6238 26.0939C48.8158 26.2824 48.9251 26.5394 48.9277 26.8085V49.4873ZM38.98 22.7882C38.4419 22.7932 37.9238 22.5843 37.5397 22.2073C37.1556 21.8304 36.9369 21.3163 36.9318 20.7782V11.0153L48.9277 22.7882H38.98Z" fill="#29BC64"/>
</svg>
