<svg width="64" height="64" viewBox="0 0 64 64" fill="none" xmlns="http://www.w3.org/2000/svg">
<path d="M32 56C45.2548 56 56 45.2548 56 32C56 18.7452 45.2548 8 32 8C18.7452 8 8 18.7452 8 32C8 45.2548 18.7452 56 32 56Z" fill="#FFD2CF"/>
<path d="M32 52C43.0457 52 52 43.0457 52 32C52 20.9543 43.0457 12 32 12C20.9543 12 12 20.9543 12 32C12 43.0457 20.9543 52 32 52Z" fill="#F14747"/>
<path d="M39.5226 37.4026C39.67 37.5399 39.7882 37.7055 39.8701 37.8895C39.9521 38.0735 39.9962 38.2721 39.9998 38.4735C40.0033 38.6749 39.9663 38.875 39.8908 39.0618C39.8154 39.2486 39.7031 39.4182 39.5607 39.5607C39.4182 39.7031 39.2486 39.8154 39.0618 39.8908C38.875 39.9663 38.6749 40.0033 38.4735 39.9998C38.2721 39.9962 38.0735 39.9521 37.8895 39.8701C37.7055 39.7882 37.5399 39.67 37.4026 39.5226L31.9626 34.0836L26.5226 39.5226C26.2382 39.7875 25.8621 39.9318 25.4735 39.9249C25.0849 39.9181 24.7142 39.7607 24.4393 39.4858C24.1645 39.211 24.0071 38.8402 24.0002 38.4516C23.9934 38.063 24.1376 37.6869 24.4026 37.4026L29.8426 31.9626L24.4026 26.5226C24.1376 26.2382 23.9934 25.8621 24.0002 25.4735C24.0071 25.0849 24.1645 24.7142 24.4393 24.4393C24.7142 24.1645 25.0849 24.0071 25.4735 24.0002C25.8621 23.9934 26.2382 24.1376 26.5226 24.4026L31.9626 29.8426L37.4026 24.4026C37.6869 24.1376 38.063 23.9934 38.4516 24.0002C38.8402 24.0071 39.211 24.1645 39.4858 24.4393C39.7607 24.7142 39.9181 25.0849 39.9249 25.4735C39.9318 25.8621 39.7875 26.2382 39.5226 26.5226L34.0836 31.9626L39.5226 37.4026Z" fill="white"/>
</svg>
