<svg width="64" height="64" viewBox="0 0 64 64" fill="none" xmlns="http://www.w3.org/2000/svg">
<path d="M31.6053 7.97099C26.0452 7.96461 20.655 9.88673 16.3534 13.4097C12.0519 16.9327 9.10526 21.8384 8.01584 27.2907C6.92643 32.7431 7.76165 38.4045 10.3791 43.3099C12.9966 48.2154 17.2344 52.0612 22.37 54.1919C27.5057 56.3226 33.2213 56.6063 38.5427 54.9946C43.864 53.3828 48.4618 49.9755 51.5521 45.3533C54.6425 40.7312 56.0341 35.1803 55.49 29.6469C54.9458 24.1135 52.4994 18.9401 48.5678 15.0085C44.0702 10.5067 37.9688 7.97534 31.6053 7.97099V7.97099Z" fill="#FFE5D1"/>
<path d="M31.6053 11.971C26.9719 11.9657 22.48 13.5674 18.8954 16.5032C15.3108 19.439 12.8553 23.5272 11.9474 28.0708C11.0396 32.6144 11.7356 37.3322 13.9168 41.4201C16.098 45.5079 19.6295 48.7128 23.9092 50.4884C28.1889 52.264 32.9519 52.5004 37.3864 51.1573C41.8209 49.8142 45.6523 46.9748 48.2276 43.123C50.8029 39.2712 51.9627 34.6454 51.5092 30.0343C51.0557 25.4231 49.017 21.1119 45.7407 17.8356C41.9927 14.084 36.9083 11.9746 31.6053 11.971V11.971Z" fill="#FF8B21"/>
<path fill-rule="evenodd" clip-rule="evenodd" d="M33.7172 38.72C33.7005 39.0579 33.5851 39.3834 33.3852 39.6562C33.1853 39.9291 32.9097 40.1373 32.5926 40.2551C32.2756 40.3729 31.9309 40.3951 31.6013 40.3189C31.2718 40.2427 30.9718 40.0715 30.7386 39.8265C30.5054 39.5815 30.3492 39.2734 30.2894 38.9405C30.2295 38.6076 30.2687 38.2644 30.402 37.9535C30.5353 37.6427 30.7568 37.3777 31.0392 37.1915C31.3216 37.0053 31.6525 36.9061 31.9907 36.9061C32.2261 36.9017 32.4599 36.9463 32.6772 37.037C32.8945 37.1278 33.0906 37.2627 33.2529 37.4333C33.4153 37.6039 33.5404 37.8063 33.6203 38.0278C33.7003 38.2494 33.7332 38.4851 33.7172 38.72V38.72ZM32.67 33.6069C33.4451 31.1428 33.9335 28.5975 34.1255 26.0215C34.1255 22.6069 29.8739 22.6233 29.8739 26.0215C30.0532 28.5977 30.5358 31.1438 31.3118 33.6069C31.5864 34.5127 32.4092 34.4974 32.67 33.6069Z" fill="white"/>
</svg>
