<svg width="557" height="421" viewBox="0 0 557 421" fill="none" xmlns="http://www.w3.org/2000/svg">
<path d="M527.561 264.37C527.228 252.121 528.178 231.23 517.451 222.629C508.027 215.077 500.7 225.326 498.055 233.594C491.648 253.651 494.655 275.767 494.675 296.471C494.675 296.785 494.675 297.099 494.675 297.452C494.175 312.693 492.343 329.18 494.009 344.392C494.009 344.392 492.373 329.151 480.421 335.683C468.47 342.215 486.397 376.493 486.397 376.493C486.397 376.493 472.271 366.155 465.747 374.865C459.222 383.574 473.897 393.362 473.897 393.362C473.897 393.362 460.31 389.557 460.31 393.362C460.31 397.168 464.659 400.434 477.159 402.071H544.538C544.538 402.071 555.412 396.079 553.237 389.557C551.063 383.035 539.64 386.791 539.64 386.791C539.64 386.791 557.038 365.567 555.951 356.318C554.864 347.069 532.577 357.956 532.577 357.956C532.577 357.956 549.965 313.88 546.703 294.294C544.137 278.866 532.175 289.39 525.661 295.353C527.194 285.101 527.83 274.734 527.561 264.37Z" fill="#B1B2B4" stroke="white" stroke-linecap="round" stroke-linejoin="round"/>
<path opacity="0.5" d="M527.561 264.37C527.228 252.121 528.178 231.23 517.451 222.629C508.027 215.077 500.7 225.326 498.055 233.594C491.648 253.651 494.655 275.767 494.675 296.471C494.675 296.785 494.675 297.099 494.675 297.452C494.175 312.693 492.343 329.18 494.009 344.392C494.009 344.392 492.373 329.151 480.421 335.683C468.47 342.215 486.397 376.493 486.397 376.493C486.397 376.493 472.271 366.155 465.747 374.865C459.222 383.574 473.897 393.362 473.897 393.362C473.897 393.362 460.31 389.557 460.31 393.362C460.31 397.168 464.659 400.434 477.159 402.071H544.538C544.538 402.071 555.412 396.079 553.237 389.557C551.063 383.035 539.64 386.791 539.64 386.791C539.64 386.791 557.038 365.567 555.951 356.318C554.864 347.069 532.577 357.956 532.577 357.956C532.577 357.956 549.965 313.88 546.703 294.294C544.137 278.866 532.175 289.39 525.661 295.353C527.194 285.101 527.83 274.734 527.561 264.37Z" fill="white"/>
<path d="M505.941 401.483L510.839 251.846" stroke="white" stroke-linecap="round" stroke-linejoin="round"/>
<path d="M508.664 338.909L534.203 314.969" stroke="white" stroke-linecap="round" stroke-linejoin="round"/>
<path d="M520.616 328.023L526.053 312.791" stroke="white" stroke-linecap="round" stroke-linejoin="round"/>
<path d="M487.465 357.407L507.028 378.631" stroke="white" stroke-linecap="round" stroke-linejoin="round"/>
<path d="M539.64 369.382L507.028 386.252" stroke="white" stroke-linecap="round" stroke-linejoin="round"/>
<path d="M522.251 379.17L534.203 378.631" stroke="white" stroke-linecap="round" stroke-linejoin="round"/>
<path d="M505.941 401.483L510.839 251.846" stroke="#B1B2B4" stroke-linecap="round" stroke-linejoin="round"/>
<path d="M508.664 338.909L534.203 314.969" stroke="#B1B2B4" stroke-linecap="round" stroke-linejoin="round"/>
<path d="M520.616 328.023L526.053 312.791" stroke="#B1B2B4" stroke-linecap="round" stroke-linejoin="round"/>
<path d="M487.465 357.407L507.028 378.631" stroke="#B1B2B4" stroke-linecap="round" stroke-linejoin="round"/>
<path d="M539.64 369.382L507.028 386.252" stroke="#B1B2B4" stroke-linecap="round" stroke-linejoin="round"/>
<path d="M522.251 379.17L534.203 378.631" stroke="#B1B2B4" stroke-linecap="round" stroke-linejoin="round"/>
<g opacity="0.8">
<path opacity="0.8" d="M505.941 401.483L510.839 251.846" stroke="white" stroke-linecap="round" stroke-linejoin="round"/>
<path opacity="0.8" d="M508.664 338.909L534.203 314.969" stroke="white" stroke-linecap="round" stroke-linejoin="round"/>
<path opacity="0.8" d="M520.616 328.023L526.053 312.792" stroke="white" stroke-linecap="round" stroke-linejoin="round"/>
<path opacity="0.8" d="M487.465 357.407L507.028 378.631" stroke="white" stroke-linecap="round" stroke-linejoin="round"/>
<path opacity="0.8" d="M539.64 369.382L507.028 386.252" stroke="white" stroke-linecap="round" stroke-linejoin="round"/>
<path opacity="0.8" d="M522.252 379.17L534.203 378.631" stroke="white" stroke-linecap="round" stroke-linejoin="round"/>
</g>
<path d="M412.582 371.246C412.582 386.457 424.622 398.796 424.622 398.796C424.622 398.796 436.661 386.457 436.661 371.246C436.661 356.034 424.622 343.696 424.622 343.696C424.622 343.696 412.582 356.024 412.582 371.246Z" fill="#B1B2B4"/>
<path d="M404.236 394.716C410.113 401.316 420.047 402.032 420.047 402.032C420.047 402.032 420.527 392.038 414.688 385.437C408.85 378.837 398.877 378.121 398.877 378.121C398.877 378.121 398.387 388.115 404.236 394.716Z" fill="#B1B2B4"/>
<path d="M434.918 385.212C428.775 391.538 428.815 401.542 428.815 401.542C428.815 401.542 438.797 401.277 444.93 394.941C451.062 388.605 451.043 378.611 451.043 378.611C451.043 378.611 441.05 378.876 434.918 385.212Z" fill="#B1B2B4"/>
<g opacity="0.5">
<path opacity="0.5" d="M412.583 371.246C412.583 386.457 424.622 398.796 424.622 398.796C424.622 398.796 436.662 386.457 436.662 371.246C436.662 356.034 424.622 343.696 424.622 343.696C424.622 343.696 412.583 356.024 412.583 371.246Z" fill="white"/>
<path opacity="0.5" d="M424.622 398.796V343.696" stroke="white" stroke-linecap="round" stroke-linejoin="round"/>
<path opacity="0.5" d="M424.622 363.282L417.882 357.387" stroke="white" stroke-linecap="round" stroke-linejoin="round"/>
<path opacity="0.5" d="M424.73 372.383L433.076 360.281" stroke="white" stroke-linecap="round" stroke-linejoin="round"/>
<path opacity="0.5" d="M424.622 377.631L414.669 368.745" stroke="white" stroke-linecap="round" stroke-linejoin="round"/>
<path opacity="0.5" d="M424.73 384.702L434.575 375.924" stroke="white" stroke-linecap="round" stroke-linejoin="round"/>
<path opacity="0.5" d="M424.73 390.812L417.02 384.702" stroke="white" stroke-linecap="round" stroke-linejoin="round"/>
<path opacity="0.5" d="M404.236 394.716C410.114 401.316 420.047 402.032 420.047 402.032C420.047 402.032 420.527 392.038 414.689 385.437C408.85 378.837 398.877 378.121 398.877 378.121C398.877 378.121 398.387 388.115 404.236 394.716Z" fill="white"/>
<path opacity="0.5" d="M420.047 402.032L398.877 378.121" stroke="white" stroke-linecap="round" stroke-linejoin="round"/>
<path opacity="0.5" d="M406.401 386.624L401.209 386.664" stroke="white" stroke-linecap="round" stroke-linejoin="round"/>
<path opacity="0.5" d="M409.947 390.528L408.918 382.064" stroke="white" stroke-linecap="round" stroke-linejoin="round"/>
<path opacity="0.5" d="M411.916 392.852L404.187 392.823" stroke="white" stroke-linecap="round" stroke-linejoin="round"/>
<path opacity="0.5" d="M414.679 395.873L415.57 388.272" stroke="white" stroke-linecap="round" stroke-linejoin="round"/>
<path opacity="0.5" d="M417.03 398.521L411.338 398.845" stroke="white" stroke-linecap="round" stroke-linejoin="round"/>
<path opacity="0.5" d="M434.918 385.212C428.775 391.538 428.815 401.542 428.815 401.542C428.815 401.542 438.797 401.277 444.93 394.941C451.062 388.605 451.043 378.611 451.043 378.611C451.043 378.611 441.05 378.876 434.918 385.212Z" fill="white"/>
<path opacity="0.5" d="M428.815 401.542L451.043 378.611" stroke="white" stroke-linecap="round" stroke-linejoin="round"/>
<path opacity="0.5" d="M443.137 386.762L442.716 381.583" stroke="white" stroke-linecap="round" stroke-linejoin="round"/>
<path opacity="0.5" d="M439.512 390.596L447.869 388.929" stroke="white" stroke-linecap="round" stroke-linejoin="round"/>
<path opacity="0.5" d="M437.348 392.734L436.799 385.016" stroke="white" stroke-linecap="round" stroke-linejoin="round"/>
<path opacity="0.5" d="M434.536 395.716L442.177 396.05" stroke="white" stroke-linecap="round" stroke-linejoin="round"/>
<path opacity="0.5" d="M432.078 398.256L431.332 392.607" stroke="white" stroke-linecap="round" stroke-linejoin="round"/>
</g>
<path d="M424.622 398.796V343.696" stroke="#B1B2B4" stroke-linecap="round" stroke-linejoin="round"/>
<path d="M424.622 363.282L417.882 357.387" stroke="#B1B2B4" stroke-linecap="round" stroke-linejoin="round"/>
<path d="M424.729 372.383L433.076 360.281" stroke="#B1B2B4" stroke-linecap="round" stroke-linejoin="round"/>
<path d="M424.622 377.631L414.669 368.745" stroke="#B1B2B4" stroke-linecap="round" stroke-linejoin="round"/>
<path d="M424.729 384.702L434.575 375.924" stroke="#B1B2B4" stroke-linecap="round" stroke-linejoin="round"/>
<path d="M424.729 390.812L417.02 384.702" stroke="#B1B2B4" stroke-linecap="round" stroke-linejoin="round"/>
<g opacity="0.7">
<path opacity="0.7" d="M424.622 398.796V343.696" stroke="white" stroke-linecap="round" stroke-linejoin="round"/>
<path opacity="0.7" d="M424.622 363.282L417.882 357.387" stroke="white" stroke-linecap="round" stroke-linejoin="round"/>
<path opacity="0.7" d="M424.729 372.383L433.076 360.281" stroke="white" stroke-linecap="round" stroke-linejoin="round"/>
<path opacity="0.7" d="M424.622 377.631L414.669 368.745" stroke="white" stroke-linecap="round" stroke-linejoin="round"/>
<path opacity="0.7" d="M424.729 384.702L434.575 375.924" stroke="white" stroke-linecap="round" stroke-linejoin="round"/>
<path opacity="0.7" d="M424.729 390.812L417.02 384.702" stroke="white" stroke-linecap="round" stroke-linejoin="round"/>
</g>
<path d="M420.047 402.032L398.877 378.121" stroke="#B1B2B4" stroke-linecap="round" stroke-linejoin="round"/>
<path d="M406.401 386.624L401.209 386.663" stroke="#B1B2B4" stroke-linecap="round" stroke-linejoin="round"/>
<path d="M409.947 390.528L408.918 382.064" stroke="#B1B2B4" stroke-linecap="round" stroke-linejoin="round"/>
<path d="M411.916 392.852L404.187 392.823" stroke="#B1B2B4" stroke-linecap="round" stroke-linejoin="round"/>
<path d="M414.679 395.873L415.57 388.272" stroke="#B1B2B4" stroke-linecap="round" stroke-linejoin="round"/>
<path d="M417.03 398.521L411.338 398.845" stroke="#B1B2B4" stroke-linecap="round" stroke-linejoin="round"/>
<g opacity="0.7">
<path opacity="0.7" d="M420.047 402.032L398.877 378.121" stroke="white" stroke-linecap="round" stroke-linejoin="round"/>
<path opacity="0.7" d="M406.401 386.624L401.208 386.663" stroke="white" stroke-linecap="round" stroke-linejoin="round"/>
<path opacity="0.7" d="M409.947 390.528L408.918 382.064" stroke="white" stroke-linecap="round" stroke-linejoin="round"/>
<path opacity="0.7" d="M411.916 392.852L404.187 392.823" stroke="white" stroke-linecap="round" stroke-linejoin="round"/>
<path opacity="0.7" d="M414.679 395.873L415.57 388.272" stroke="white" stroke-linecap="round" stroke-linejoin="round"/>
<path opacity="0.7" d="M417.03 398.521L411.338 398.845" stroke="white" stroke-linecap="round" stroke-linejoin="round"/>
</g>
<path d="M428.815 401.542L451.043 378.611" stroke="#B1B2B4" stroke-linecap="round" stroke-linejoin="round"/>
<path d="M443.137 386.762L442.715 381.583" stroke="#B1B2B4" stroke-linecap="round" stroke-linejoin="round"/>
<path d="M439.512 390.596L447.868 388.929" stroke="#B1B2B4" stroke-linecap="round" stroke-linejoin="round"/>
<path d="M437.348 392.734L436.799 385.016" stroke="#B1B2B4" stroke-linecap="round" stroke-linejoin="round"/>
<path d="M434.536 395.716L442.177 396.05" stroke="#B1B2B4" stroke-linecap="round" stroke-linejoin="round"/>
<path d="M432.078 398.256L431.332 392.607" stroke="#B1B2B4" stroke-linecap="round" stroke-linejoin="round"/>
<g opacity="0.7">
<path opacity="0.7" d="M428.815 401.542L451.043 378.611" stroke="white" stroke-linecap="round" stroke-linejoin="round"/>
<path opacity="0.7" d="M443.137 386.762L442.716 381.583" stroke="white" stroke-linecap="round" stroke-linejoin="round"/>
<path opacity="0.7" d="M439.512 390.596L447.868 388.929" stroke="white" stroke-linecap="round" stroke-linejoin="round"/>
<path opacity="0.7" d="M437.348 392.735L436.799 385.016" stroke="white" stroke-linecap="round" stroke-linejoin="round"/>
<path opacity="0.7" d="M434.535 395.716L442.177 396.05" stroke="white" stroke-linecap="round" stroke-linejoin="round"/>
<path opacity="0.7" d="M432.077 398.256L431.332 392.607" stroke="white" stroke-linecap="round" stroke-linejoin="round"/>
</g>
<path d="M29.4387 264.37C29.7619 252.121 28.8215 231.23 39.5485 222.629C48.9725 215.077 56.3001 225.326 58.9353 233.594C65.3519 253.651 62.3347 275.767 62.3249 296.471C62.3249 296.785 62.3249 297.099 62.3249 297.452C62.8343 312.693 64.6564 329.18 63.0008 344.392C63.0008 344.392 64.627 329.151 76.5883 335.683C88.5496 342.215 70.6028 376.493 70.6028 376.493C70.6028 376.493 84.7388 366.155 91.2632 374.865C97.7875 383.574 83.1322 393.323 83.1322 393.323C83.1322 393.323 96.7197 389.517 96.7197 393.323C96.7197 397.128 92.3701 400.394 79.8701 402.032H12.4617C12.4617 402.032 1.58776 396.04 3.76254 389.517C5.93732 382.995 17.35 386.791 17.35 386.791C17.35 386.791 -0.0384363 365.567 1.04895 356.318C2.13634 347.069 24.4229 357.956 24.4229 357.956C24.4229 357.956 7.0247 313.88 10.2869 294.323C12.8535 278.896 24.8246 289.419 31.3293 295.383C29.7974 285.12 29.1648 274.743 29.4387 264.37V264.37Z" fill="#B1B2B4" stroke="white" stroke-linecap="round" stroke-linejoin="round"/>
<path opacity="0.5" d="M29.4387 264.37C29.7619 252.121 28.8215 231.23 39.5485 222.629C48.9725 215.077 56.3001 225.326 58.9353 233.594C65.3519 253.651 62.3347 275.767 62.3249 296.471C62.3249 296.785 62.3249 297.099 62.3249 297.452C62.8343 312.693 64.6564 329.18 63.0008 344.392C63.0008 344.392 64.627 329.151 76.5883 335.683C88.5496 342.215 70.6028 376.493 70.6028 376.493C70.6028 376.493 84.7388 366.155 91.2632 374.865C97.7875 383.574 83.1322 393.323 83.1322 393.323C83.1322 393.323 96.7197 389.517 96.7197 393.323C96.7197 397.128 92.3701 400.394 79.8701 402.032H12.4617C12.4617 402.032 1.58776 396.04 3.76254 389.517C5.93732 382.995 17.35 386.791 17.35 386.791C17.35 386.791 -0.0384363 365.567 1.04895 356.318C2.13634 347.069 24.4229 357.956 24.4229 357.956C24.4229 357.956 7.0247 313.88 10.2869 294.323C12.8535 278.896 24.8246 289.419 31.3293 295.383C29.7974 285.12 29.1648 274.743 29.4387 264.37V264.37Z" fill="white"/>
<path d="M51.0492 401.483L46.1609 251.846" stroke="white" stroke-linecap="round" stroke-linejoin="round"/>
<path d="M48.3359 338.909L22.7871 314.969" stroke="white" stroke-linecap="round" stroke-linejoin="round"/>
<path d="M36.3744 328.023L30.9375 312.791" stroke="white" stroke-linecap="round" stroke-linejoin="round"/>
<path d="M69.5254 357.407L49.9622 378.631" stroke="white" stroke-linecap="round" stroke-linejoin="round"/>
<path d="M17.3501 369.382L49.962 386.252" stroke="white" stroke-linecap="round" stroke-linejoin="round"/>
<path d="M34.7484 379.17L22.7871 378.631" stroke="white" stroke-linecap="round" stroke-linejoin="round"/>
<path d="M51.0492 401.483L46.1609 251.846" stroke="#B1B2B4" stroke-linecap="round" stroke-linejoin="round"/>
<path d="M48.3359 338.909L22.7871 314.969" stroke="#B1B2B4" stroke-linecap="round" stroke-linejoin="round"/>
<path d="M36.3744 328.023L30.9375 312.791" stroke="#B1B2B4" stroke-linecap="round" stroke-linejoin="round"/>
<path d="M69.5254 357.407L49.9622 378.631" stroke="#B1B2B4" stroke-linecap="round" stroke-linejoin="round"/>
<path d="M17.3501 369.382L49.962 386.252" stroke="#B1B2B4" stroke-linecap="round" stroke-linejoin="round"/>
<path d="M34.7484 379.17L22.7871 378.631" stroke="#B1B2B4" stroke-linecap="round" stroke-linejoin="round"/>
<g opacity="0.8">
<path opacity="0.8" d="M51.0492 401.483L46.1609 251.846" stroke="white" stroke-linecap="round" stroke-linejoin="round"/>
<path opacity="0.8" d="M48.3359 338.91L22.7871 314.969" stroke="white" stroke-linecap="round" stroke-linejoin="round"/>
<path opacity="0.8" d="M36.3747 328.023L30.9377 312.792" stroke="white" stroke-linecap="round" stroke-linejoin="round"/>
<path opacity="0.8" d="M69.5251 357.407L49.9619 378.631" stroke="white" stroke-linecap="round" stroke-linejoin="round"/>
<path opacity="0.8" d="M17.3501 369.382L49.962 386.252" stroke="white" stroke-linecap="round" stroke-linejoin="round"/>
<path opacity="0.8" d="M34.7484 379.17L22.7871 378.631" stroke="white" stroke-linecap="round" stroke-linejoin="round"/>
</g>
<path d="M146.377 371.246C146.377 386.457 134.338 398.796 134.338 398.796C134.338 398.796 122.318 386.457 122.318 371.246C122.318 356.034 134.357 343.696 134.357 343.696C134.357 343.696 146.377 356.024 146.377 371.246Z" fill="#B1B2B4"/>
<path d="M154.714 394.716C148.836 401.316 138.903 402.032 138.903 402.032C138.903 402.032 138.423 392.038 144.271 385.437C150.12 378.837 160.082 378.121 160.082 378.121C160.082 378.121 160.523 388.115 154.714 394.716Z" fill="#B1B2B4"/>
<path d="M124.042 385.212C130.174 391.538 130.145 401.542 130.145 401.542C130.145 401.542 120.162 401.277 114.02 394.941C107.878 388.605 107.917 378.611 107.917 378.611C107.917 378.611 117.899 378.876 124.042 385.212Z" fill="#B1B2B4"/>
<g opacity="0.5">
<path opacity="0.5" d="M146.377 371.246C146.377 386.457 134.337 398.796 134.337 398.796C134.337 398.796 122.317 386.457 122.317 371.246C122.317 356.034 134.357 343.696 134.357 343.696C134.357 343.696 146.377 356.024 146.377 371.246Z" fill="white"/>
<path opacity="0.5" d="M134.337 398.796V343.696" stroke="white" stroke-linecap="round" stroke-linejoin="round"/>
<path opacity="0.5" d="M134.337 363.282L141.077 357.387" stroke="white" stroke-linecap="round" stroke-linejoin="round"/>
<path opacity="0.5" d="M134.23 372.383L125.883 360.281" stroke="white" stroke-linecap="round" stroke-linejoin="round"/>
<path opacity="0.5" d="M134.337 377.631L144.29 368.745" stroke="white" stroke-linecap="round" stroke-linejoin="round"/>
<path opacity="0.5" d="M134.23 384.702L124.384 375.924" stroke="white" stroke-linecap="round" stroke-linejoin="round"/>
<path opacity="0.5" d="M134.23 390.812L141.93 384.702" stroke="white" stroke-linecap="round" stroke-linejoin="round"/>
<path opacity="0.5" d="M154.714 394.716C148.836 401.316 138.903 402.032 138.903 402.032C138.903 402.032 138.423 392.038 144.271 385.437C150.119 378.837 160.082 378.121 160.082 378.121C160.082 378.121 160.523 388.115 154.714 394.716Z" fill="white"/>
<path opacity="0.5" d="M138.903 402.032L160.082 378.121" stroke="white" stroke-linecap="round" stroke-linejoin="round"/>
<path opacity="0.5" d="M152.558 386.624L157.741 386.664" stroke="white" stroke-linecap="round" stroke-linejoin="round"/>
<path opacity="0.5" d="M149.012 390.528L150.041 382.064" stroke="white" stroke-linecap="round" stroke-linejoin="round"/>
<path opacity="0.5" d="M147.033 392.852L154.773 392.823" stroke="white" stroke-linecap="round" stroke-linejoin="round"/>
<path opacity="0.5" d="M144.271 395.873L143.379 388.272" stroke="white" stroke-linecap="round" stroke-linejoin="round"/>
<path opacity="0.5" d="M141.929 398.521L147.621 398.845" stroke="white" stroke-linecap="round" stroke-linejoin="round"/>
<path opacity="0.5" d="M124.041 385.212C130.174 391.538 130.145 401.542 130.145 401.542C130.145 401.542 120.162 401.277 114.02 394.941C107.878 388.605 107.917 378.611 107.917 378.611C107.917 378.611 117.899 378.876 124.041 385.212Z" fill="white"/>
<path opacity="0.5" d="M130.145 401.542L107.917 378.611" stroke="white" stroke-linecap="round" stroke-linejoin="round"/>
<path opacity="0.5" d="M115.812 386.762L116.244 381.583" stroke="white" stroke-linecap="round" stroke-linejoin="round"/>
<path opacity="0.5" d="M119.447 390.596L111.091 388.929" stroke="white" stroke-linecap="round" stroke-linejoin="round"/>
<path opacity="0.5" d="M121.603 392.734L122.162 385.016" stroke="white" stroke-linecap="round" stroke-linejoin="round"/>
<path opacity="0.5" d="M124.414 395.716L116.773 396.05" stroke="white" stroke-linecap="round" stroke-linejoin="round"/>
<path opacity="0.5" d="M126.882 398.256L127.618 392.607" stroke="white" stroke-linecap="round" stroke-linejoin="round"/>
</g>
<path d="M134.338 398.796V343.696" stroke="#B1B2B4" stroke-linecap="round" stroke-linejoin="round"/>
<path d="M134.338 363.282L141.077 357.387" stroke="#B1B2B4" stroke-linecap="round" stroke-linejoin="round"/>
<path d="M134.23 372.383L125.884 360.281" stroke="#B1B2B4" stroke-linecap="round" stroke-linejoin="round"/>
<path d="M134.338 377.631L144.291 368.745" stroke="#B1B2B4" stroke-linecap="round" stroke-linejoin="round"/>
<path d="M134.23 384.702L124.384 375.924" stroke="#B1B2B4" stroke-linecap="round" stroke-linejoin="round"/>
<path d="M134.23 390.812L141.93 384.702" stroke="#B1B2B4" stroke-linecap="round" stroke-linejoin="round"/>
<g opacity="0.7">
<path opacity="0.7" d="M134.338 398.796V343.696" stroke="white" stroke-linecap="round" stroke-linejoin="round"/>
<path opacity="0.7" d="M134.338 363.282L141.077 357.387" stroke="white" stroke-linecap="round" stroke-linejoin="round"/>
<path opacity="0.7" d="M134.23 372.383L125.883 360.281" stroke="white" stroke-linecap="round" stroke-linejoin="round"/>
<path opacity="0.7" d="M134.338 377.63L144.291 368.745" stroke="white" stroke-linecap="round" stroke-linejoin="round"/>
<path opacity="0.7" d="M134.23 384.702L124.384 375.924" stroke="white" stroke-linecap="round" stroke-linejoin="round"/>
<path opacity="0.7" d="M134.23 390.812L141.93 384.702" stroke="white" stroke-linecap="round" stroke-linejoin="round"/>
</g>
<path d="M138.903 402.032L160.082 378.121" stroke="#B1B2B4" stroke-linecap="round" stroke-linejoin="round"/>
<path d="M152.559 386.624L157.741 386.663" stroke="#B1B2B4" stroke-linecap="round" stroke-linejoin="round"/>
<path d="M149.012 390.528L150.041 382.064" stroke="#B1B2B4" stroke-linecap="round" stroke-linejoin="round"/>
<path d="M147.034 392.852L154.773 392.823" stroke="#B1B2B4" stroke-linecap="round" stroke-linejoin="round"/>
<path d="M144.271 395.873L143.379 388.272" stroke="#B1B2B4" stroke-linecap="round" stroke-linejoin="round"/>
<path d="M141.93 398.521L147.621 398.845" stroke="#B1B2B4" stroke-linecap="round" stroke-linejoin="round"/>
<g opacity="0.7">
<path opacity="0.7" d="M138.903 402.032L160.082 378.121" stroke="white" stroke-linecap="round" stroke-linejoin="round"/>
<path opacity="0.7" d="M152.559 386.624L157.741 386.663" stroke="white" stroke-linecap="round" stroke-linejoin="round"/>
<path opacity="0.7" d="M149.012 390.528L150.041 382.064" stroke="white" stroke-linecap="round" stroke-linejoin="round"/>
<path opacity="0.7" d="M147.034 392.852L154.773 392.823" stroke="white" stroke-linecap="round" stroke-linejoin="round"/>
<path opacity="0.7" d="M144.271 395.873L143.379 388.272" stroke="white" stroke-linecap="round" stroke-linejoin="round"/>
<path opacity="0.7" d="M141.929 398.521L147.621 398.845" stroke="white" stroke-linecap="round" stroke-linejoin="round"/>
</g>
<path d="M130.145 401.542L107.917 378.611" stroke="#B1B2B4" stroke-linecap="round" stroke-linejoin="round"/>
<path d="M115.812 386.762L116.244 381.583" stroke="#B1B2B4" stroke-linecap="round" stroke-linejoin="round"/>
<path d="M119.447 390.596L111.091 388.929" stroke="#B1B2B4" stroke-linecap="round" stroke-linejoin="round"/>
<path d="M121.603 392.734L122.162 385.016" stroke="#B1B2B4" stroke-linecap="round" stroke-linejoin="round"/>
<path d="M124.414 395.716L116.773 396.05" stroke="#B1B2B4" stroke-linecap="round" stroke-linejoin="round"/>
<path d="M126.883 398.256L127.618 392.607" stroke="#B1B2B4" stroke-linecap="round" stroke-linejoin="round"/>
<g opacity="0.7">
<path opacity="0.7" d="M130.145 401.542L107.917 378.611" stroke="white" stroke-linecap="round" stroke-linejoin="round"/>
<path opacity="0.7" d="M115.812 386.762L116.244 381.583" stroke="white" stroke-linecap="round" stroke-linejoin="round"/>
<path opacity="0.7" d="M119.447 390.596L111.091 388.929" stroke="white" stroke-linecap="round" stroke-linejoin="round"/>
<path opacity="0.7" d="M121.603 392.735L122.162 385.016" stroke="white" stroke-linecap="round" stroke-linejoin="round"/>
<path opacity="0.7" d="M124.414 395.716L116.773 396.05" stroke="white" stroke-linecap="round" stroke-linejoin="round"/>
<path opacity="0.7" d="M126.883 398.256L127.618 392.607" stroke="white" stroke-linecap="round" stroke-linejoin="round"/>
</g>
<path d="M417.56 110.546H152.736C152.657 110.547 152.578 110.532 152.505 110.503C152.431 110.474 152.364 110.43 152.307 110.374C152.251 110.318 152.206 110.252 152.175 110.179C152.145 110.105 152.129 110.027 152.129 109.947C152.129 109.786 152.193 109.631 152.307 109.517C152.421 109.403 152.575 109.339 152.736 109.339H417.56C417.639 109.339 417.718 109.355 417.791 109.386C417.864 109.417 417.93 109.461 417.986 109.518C418.042 109.575 418.085 109.642 418.115 109.715C418.144 109.789 418.159 109.868 418.157 109.947C418.157 110.106 418.094 110.258 417.982 110.37C417.87 110.483 417.718 110.546 417.56 110.546Z" fill="#B1B2B4"/>
<g opacity="0.3">
<path opacity="0.3" d="M417.56 110.546H152.736C152.657 110.547 152.578 110.532 152.505 110.503C152.431 110.474 152.364 110.43 152.307 110.374C152.251 110.318 152.206 110.252 152.175 110.179C152.145 110.105 152.129 110.027 152.129 109.947C152.129 109.786 152.193 109.631 152.307 109.517C152.421 109.403 152.575 109.339 152.736 109.339H417.56C417.639 109.339 417.718 109.355 417.791 109.386C417.864 109.417 417.93 109.461 417.986 109.518C418.042 109.575 418.085 109.642 418.115 109.715C418.144 109.789 418.159 109.868 418.157 109.947C418.157 110.106 418.094 110.258 417.982 110.37C417.87 110.483 417.718 110.546 417.56 110.546Z" fill="white"/>
</g>
<path d="M417.029 215.704H152.206C152.126 215.706 152.048 215.691 151.974 215.662C151.9 215.632 151.833 215.588 151.777 215.533C151.72 215.477 151.675 215.411 151.645 215.337C151.614 215.264 151.598 215.186 151.598 215.106C151.598 214.945 151.662 214.79 151.776 214.676C151.89 214.562 152.045 214.498 152.206 214.498H417.029C417.109 214.498 417.187 214.514 417.26 214.545C417.333 214.575 417.4 214.62 417.455 214.677C417.511 214.733 417.555 214.8 417.584 214.874C417.614 214.948 417.628 215.027 417.627 215.106C417.627 215.185 417.611 215.263 417.581 215.335C417.551 215.408 417.507 215.474 417.452 215.529C417.396 215.585 417.331 215.629 417.258 215.659C417.186 215.689 417.108 215.704 417.029 215.704V215.704Z" fill="#B1B2B4"/>
<g opacity="0.3">
<path opacity="0.3" d="M417.029 215.704H152.206C152.126 215.706 152.048 215.691 151.974 215.662C151.9 215.632 151.833 215.588 151.777 215.533C151.72 215.477 151.675 215.411 151.645 215.337C151.614 215.264 151.598 215.186 151.598 215.106C151.598 214.945 151.662 214.79 151.776 214.676C151.89 214.562 152.045 214.498 152.206 214.498H417.029C417.109 214.498 417.187 214.514 417.26 214.545C417.333 214.575 417.4 214.62 417.455 214.677C417.511 214.733 417.555 214.8 417.584 214.874C417.614 214.948 417.628 215.027 417.627 215.106C417.627 215.185 417.611 215.263 417.581 215.335C417.551 215.408 417.507 215.474 417.452 215.529C417.396 215.585 417.331 215.629 417.258 215.659C417.186 215.689 417.108 215.704 417.029 215.704V215.704Z" fill="white"/>
</g>
<path d="M417.029 301.669H152.206C152.045 301.669 151.89 301.605 151.776 301.491C151.662 301.377 151.598 301.223 151.598 301.061C151.598 300.982 151.614 300.903 151.645 300.83C151.675 300.757 151.72 300.69 151.777 300.635C151.833 300.579 151.9 300.535 151.974 300.506C152.048 300.476 152.126 300.462 152.206 300.463H417.029C417.108 300.463 417.186 300.479 417.258 300.509C417.331 300.539 417.396 300.583 417.452 300.638C417.507 300.694 417.551 300.76 417.581 300.832C417.611 300.905 417.627 300.983 417.627 301.061C417.628 301.141 417.614 301.22 417.584 301.293C417.555 301.367 417.511 301.434 417.455 301.491C417.4 301.547 417.333 301.592 417.26 301.623C417.187 301.654 417.109 301.669 417.029 301.669Z" fill="#B1B2B4"/>
<g opacity="0.3">
<path opacity="0.3" d="M417.029 301.669H152.206C152.045 301.669 151.89 301.605 151.776 301.491C151.662 301.377 151.598 301.223 151.598 301.061C151.598 300.982 151.614 300.903 151.645 300.83C151.675 300.757 151.72 300.69 151.777 300.635C151.833 300.579 151.9 300.535 151.974 300.506C152.048 300.476 152.126 300.462 152.206 300.463H417.029C417.108 300.463 417.186 300.479 417.258 300.509C417.331 300.539 417.396 300.583 417.452 300.638C417.507 300.694 417.551 300.76 417.581 300.832C417.611 300.905 417.627 300.983 417.627 301.061C417.628 301.141 417.614 301.22 417.584 301.293C417.555 301.367 417.511 301.434 417.455 301.491C417.4 301.547 417.333 301.592 417.26 301.623C417.187 301.654 417.109 301.669 417.029 301.669Z" fill="white"/>
</g>
<path d="M208.506 316.214V405.681" stroke="#21252A" stroke-width="0.265171" stroke-miterlimit="10"/>
<path d="M221.27 316.214V405.681" stroke="#21252A" stroke-width="0.265171" stroke-miterlimit="10"/>
<path d="M234.034 316.214V405.681" stroke="#21252A" stroke-width="0.265171" stroke-miterlimit="10"/>
<path d="M246.799 316.214V405.681" stroke="#21252A" stroke-width="0.265171" stroke-miterlimit="10"/>
<path d="M259.564 316.214V405.681" stroke="#21252A" stroke-width="0.265171" stroke-miterlimit="10"/>
<path d="M272.329 316.214V405.681" stroke="#21252A" stroke-width="0.265171" stroke-miterlimit="10"/>
<path d="M285.093 316.214V405.681" stroke="#21252A" stroke-width="0.265171" stroke-miterlimit="10"/>
<path d="M297.857 316.214V405.681" stroke="#21252A" stroke-width="0.265171" stroke-miterlimit="10"/>
<path d="M310.622 316.214V405.681" stroke="#21252A" stroke-width="0.265171" stroke-miterlimit="10"/>
<path d="M323.387 316.214V405.681" stroke="#21252A" stroke-width="0.265171" stroke-miterlimit="10"/>
<path d="M336.151 316.214V405.681" stroke="#21252A" stroke-width="0.265171" stroke-miterlimit="10"/>
<path d="M348.916 316.214V405.681" stroke="#21252A" stroke-width="0.265171" stroke-miterlimit="10"/>
<path d="M209.143 324.522H348.28" stroke="#21252A" stroke-width="0.265171" stroke-miterlimit="10"/>
<path d="M209.143 336.664H348.28" stroke="#21252A" stroke-width="0.265171" stroke-miterlimit="10"/>
<path d="M209.143 348.805H348.28" stroke="#21252A" stroke-width="0.265171" stroke-miterlimit="10"/>
<path d="M209.143 360.948H348.28" stroke="#21252A" stroke-width="0.265171" stroke-miterlimit="10"/>
<path d="M209.143 373.09H348.28" stroke="#21252A" stroke-width="0.265171" stroke-miterlimit="10"/>
<path d="M209.143 385.232H348.28" stroke="#21252A" stroke-width="0.265171" stroke-miterlimit="10"/>
<path d="M209.143 397.374H348.28" stroke="#21252A" stroke-width="0.265171" stroke-miterlimit="10"/>
<path d="M238.374 347.599L219.703 405.229H258.809L240.128 347.599C240.068 347.413 239.951 347.251 239.794 347.136C239.636 347.021 239.446 346.959 239.251 346.959C239.056 346.959 238.866 347.021 238.709 347.136C238.551 347.251 238.434 347.413 238.374 347.599V347.599Z" fill="#B1B2B4" stroke="#21252A" stroke-width="1.06068" stroke-miterlimit="10"/>
<path d="M273.974 328.513L249.121 405.23H300.61L275.728 328.513C275.668 328.327 275.551 328.165 275.393 328.05C275.236 327.935 275.046 327.873 274.851 327.873C274.656 327.873 274.466 327.935 274.308 328.05C274.151 328.165 274.034 328.327 273.974 328.513V328.513Z" fill="#21252A" stroke="#21252A" stroke-width="1.06068" stroke-miterlimit="10"/>
<path d="M306.733 360.781L292.323 405.229H322.887L308.447 360.781C308.38 360.608 308.262 360.46 308.109 360.356C307.956 360.251 307.775 360.196 307.59 360.196C307.405 360.196 307.224 360.251 307.071 360.356C306.918 360.46 306.8 360.608 306.733 360.781V360.781Z" fill="#B1B2B4" stroke="#21252A" stroke-width="1.06068" stroke-miterlimit="10"/>
<path d="M326.472 376.042L317.019 405.23H337.679L328.226 376.042C328.166 375.856 328.049 375.694 327.892 375.579C327.734 375.464 327.544 375.402 327.349 375.402C327.154 375.402 326.964 375.464 326.807 375.579C326.649 375.694 326.532 375.856 326.472 376.042V376.042Z" fill="#21252A" stroke="#21252A" stroke-width="1.06068" stroke-miterlimit="10"/>
<path d="M206.82 287.939C201.219 287.939 195.743 286.276 191.086 283.16C186.429 280.044 182.799 275.616 180.655 270.435C178.512 265.254 177.951 259.553 179.043 254.053C180.136 248.553 182.834 243.5 186.794 239.535C190.755 235.569 195.801 232.869 201.295 231.775C206.789 230.681 212.483 231.242 217.658 233.388C222.833 235.535 227.257 239.169 230.369 243.832C233.481 248.494 235.142 253.976 235.142 259.584C235.134 267.102 232.147 274.309 226.838 279.625C221.528 284.941 214.329 287.931 206.82 287.939V287.939ZM206.82 239.557C202.864 239.559 198.998 240.735 195.709 242.937C192.421 245.139 189.859 248.267 188.346 251.927C186.834 255.587 186.439 259.613 187.212 263.498C187.985 267.382 189.891 270.949 192.689 273.749C195.487 276.549 199.051 278.456 202.931 279.228C206.811 280 210.833 279.602 214.488 278.086C218.142 276.57 221.266 274.003 223.464 270.71C225.661 267.417 226.834 263.545 226.834 259.584C226.829 254.273 224.719 249.18 220.966 245.425C217.214 241.67 212.126 239.56 206.82 239.557Z" fill="#21252A" stroke="#21252A" stroke-width="1.06068" stroke-miterlimit="10"/>
<path d="M206.821 287.938C202.998 287.95 199.214 287.181 195.699 285.679C192.183 284.176 189.011 281.972 186.376 279.2L192.381 273.443C194.241 275.401 196.482 276.958 198.965 278.019C201.448 279.08 204.121 279.622 206.821 279.612C209.448 279.612 212.049 279.094 214.476 278.087C216.903 277.081 219.108 275.605 220.966 273.746C222.823 271.886 224.297 269.678 225.302 267.248C226.307 264.819 226.825 262.214 226.825 259.584C226.825 256.954 226.307 254.35 225.302 251.92C224.297 249.49 222.823 247.282 220.966 245.423C219.108 243.563 216.903 242.088 214.476 241.081C212.049 240.075 209.448 239.557 206.821 239.557V231.23C210.54 231.23 214.223 231.963 217.659 233.388C221.095 234.813 224.217 236.902 226.847 239.535C229.477 242.168 231.563 245.293 232.986 248.734C234.409 252.174 235.142 255.861 235.142 259.584C235.142 263.308 234.409 266.995 232.986 270.435C231.563 273.875 229.477 277.001 226.847 279.634C224.217 282.267 221.095 284.355 217.659 285.78C214.223 287.205 210.54 287.938 206.821 287.938V287.938Z" fill="#B1B2B4" stroke="#21252A" stroke-width="1.06068" stroke-miterlimit="10"/>
<path d="M276.668 287.938C271.066 287.94 265.59 286.279 260.931 283.165C256.272 280.05 252.641 275.623 250.496 270.442C248.351 265.261 247.788 259.559 248.88 254.059C249.972 248.558 252.668 243.505 256.629 239.538C260.589 235.572 265.635 232.87 271.13 231.776C276.624 230.681 282.318 231.242 287.494 233.387C292.67 235.533 297.093 239.167 300.206 243.83C303.318 248.493 304.979 253.976 304.979 259.584C304.972 267.1 301.987 274.306 296.679 279.622C291.372 284.937 284.175 287.928 276.668 287.938V287.938ZM276.668 239.557C272.713 239.561 268.847 240.739 265.56 242.942C262.273 245.145 259.712 248.274 258.201 251.934C256.69 255.594 256.296 259.62 257.07 263.503C257.844 267.387 259.751 270.954 262.55 273.753C265.348 276.552 268.912 278.457 272.792 279.228C276.672 279.999 280.693 279.602 284.347 278.085C288.002 276.569 291.125 274.002 293.322 270.709C295.519 267.416 296.692 263.544 296.692 259.584C296.684 254.272 294.571 249.179 290.817 245.424C287.063 241.67 281.975 239.559 276.668 239.557V239.557Z" fill="#21252A" stroke="#21252A" stroke-width="1.06068" stroke-miterlimit="10"/>
<path d="M287.689 285.702L284.456 278.042C288.705 276.24 292.2 273.022 294.352 268.935C296.503 264.849 297.177 260.143 296.261 255.615C295.345 251.088 292.894 247.016 289.324 244.09C285.753 241.163 281.282 239.562 276.668 239.557V231.23C283.203 231.231 289.536 233.494 294.595 237.636C299.653 241.777 303.125 247.543 304.423 253.955C305.72 260.367 304.763 267.031 301.713 272.817C298.663 278.603 293.708 283.156 287.689 285.702V285.702Z" fill="#B1B2B4" stroke="#21252A" stroke-width="1.06068" stroke-miterlimit="10"/>
<path d="M346.506 287.938C340.905 287.938 335.429 286.276 330.772 283.16C326.114 280.044 322.484 275.616 320.341 270.435C318.197 265.254 317.636 259.553 318.729 254.053C319.822 248.552 322.519 243.5 326.48 239.535C330.441 235.569 335.487 232.869 340.981 231.775C346.475 230.681 352.169 231.242 357.344 233.388C362.519 235.534 366.942 239.169 370.054 243.831C373.166 248.494 374.827 253.976 374.827 259.584C374.82 267.102 371.833 274.309 366.524 279.625C361.214 284.941 354.015 287.931 346.506 287.938V287.938ZM346.506 239.557C342.55 239.557 338.682 240.731 335.393 242.932C332.103 245.133 329.539 248.261 328.025 251.92C326.511 255.58 326.115 259.606 326.887 263.491C327.658 267.376 329.564 270.945 332.361 273.746C335.159 276.547 338.723 278.454 342.604 279.227C346.484 280 350.506 279.603 354.161 278.087C357.817 276.571 360.941 274.004 363.139 270.711C365.337 267.417 366.51 263.545 366.51 259.584C366.505 254.274 364.396 249.183 360.645 245.428C356.895 241.674 351.81 239.562 346.506 239.557V239.557Z" fill="#21252A" stroke="#21252A" stroke-width="1.06068" stroke-miterlimit="10"/>
<path d="M366.118 255.592C365.189 251.073 362.734 247.012 359.166 244.092C355.598 241.172 351.134 239.57 346.526 239.557V231.23C353.053 231.247 359.375 233.513 364.43 237.648C369.484 241.783 372.962 247.534 374.279 253.935L366.118 255.592Z" fill="#B1B2B4" stroke="#21252A" stroke-width="1.06068" stroke-miterlimit="10"/>
<path d="M218.115 199.835H351.12" stroke="#21252A" stroke-width="1.06068" stroke-miterlimit="10"/>
<path d="M218.115 199.835V197.001" stroke="#21252A" stroke-width="1.06068" stroke-miterlimit="10"/>
<path d="M244.712 199.835V197.001" stroke="#21252A" stroke-width="1.06068" stroke-miterlimit="10"/>
<path d="M271.319 199.835V197.001" stroke="#21252A" stroke-width="1.06068" stroke-miterlimit="10"/>
<path d="M297.916 199.835V197.001" stroke="#21252A" stroke-width="1.06068" stroke-miterlimit="10"/>
<path d="M324.513 199.835V197.001" stroke="#21252A" stroke-width="1.06068" stroke-miterlimit="10"/>
<path d="M351.12 199.835V197.001" stroke="#21252A" stroke-width="1.06068" stroke-miterlimit="10"/>
<path d="M240.99 161.987H221.838V184.692H240.99V161.987Z" fill="#B1B2B4" stroke="#21252A" stroke-width="1.06068" stroke-miterlimit="10"/>
<path d="M267.587 135.497H248.435V188.478H267.587V135.497Z" fill="#B1B2B4" stroke="#21252A" stroke-width="1.06068" stroke-miterlimit="10"/>
<path d="M294.194 98.4135H275.042V157.456H294.194V98.4135Z" fill="#B1B2B4" stroke="#21252A" stroke-width="1.06068" stroke-miterlimit="10"/>
<path d="M320.791 153.67H301.639V165.028H320.791V153.67Z" fill="#B1B2B4" stroke="#21252A" stroke-width="1.06068" stroke-miterlimit="10"/>
<path d="M347.387 146.854H328.236V176.375H347.387V146.854Z" fill="#B1B2B4" stroke="#21252A" stroke-width="1.06068" stroke-miterlimit="10"/>
<path d="M240.99 184.702H221.838V199.845H240.99V184.702Z" fill="#21252A" stroke="#21252A" stroke-width="1.06068" stroke-miterlimit="10"/>
<path d="M267.587 188.488H248.435V199.845H267.587V188.488Z" fill="#21252A" stroke="#21252A" stroke-width="1.06068" stroke-miterlimit="10"/>
<path d="M294.194 157.446H275.042V199.836H294.194V157.446Z" fill="#21252A" stroke="#21252A" stroke-width="1.06068" stroke-miterlimit="10"/>
<path d="M320.791 165.018H301.639V199.835H320.791V165.018Z" fill="#21252A" stroke="#21252A" stroke-width="1.06068" stroke-miterlimit="10"/>
<path d="M347.387 176.375H328.236V199.835H347.387V176.375Z" fill="#21252A" stroke="#21252A" stroke-width="1.06068" stroke-miterlimit="10"/>
<path d="M386.563 87.6936C386.333 87.6953 386.106 87.6397 385.903 87.5318C385.699 87.424 385.526 87.2673 385.397 87.0758L344.194 26.915L302.393 71.5403L259.711 43.6862L218.419 53.2782L176.481 87.3798C176.19 87.6165 175.817 87.7278 175.444 87.6892C175.072 87.6505 174.729 87.4652 174.493 87.1738C174.256 86.8825 174.145 86.5091 174.184 86.1357C174.222 85.7623 174.408 85.4196 174.698 85.1829L217.146 50.6694L260.25 40.6556L301.962 67.882L344.547 22.4132L387.729 85.4771C387.875 85.6887 387.961 85.9364 387.977 86.1934C387.993 86.4503 387.939 86.7068 387.82 86.935C387.701 87.1632 387.522 87.3545 387.302 87.4882C387.082 87.6219 386.83 87.693 386.573 87.6936H386.563Z" fill="#21252A"/>
<path d="M179.136 86.2813C179.136 86.9738 178.931 87.6507 178.547 88.2265C178.162 88.8023 177.616 89.2511 176.977 89.5161C176.338 89.7811 175.635 89.8505 174.957 89.7154C174.278 89.5803 173.655 89.2468 173.166 88.7571C172.677 88.2674 172.344 87.6436 172.209 86.9644C172.074 86.2852 172.143 85.5812 172.408 84.9414C172.673 84.3016 173.121 83.7547 173.696 83.37C174.271 82.9853 174.947 82.7799 175.639 82.7799C176.566 82.7799 177.456 83.1488 178.112 83.8054C178.768 84.4621 179.136 85.3527 179.136 86.2813Z" fill="#B1B2B4"/>
<path d="M217.782 55.4752C219.714 55.4752 221.28 53.9075 221.28 51.9738C221.28 50.04 219.714 48.4724 217.782 48.4724C215.851 48.4724 214.285 50.04 214.285 51.9738C214.285 53.9075 215.851 55.4752 217.782 55.4752Z" fill="#B1B2B4"/>
<path d="M259.975 45.6674C261.907 45.6674 263.472 44.0998 263.472 42.166C263.472 40.2323 261.907 38.6647 259.975 38.6647C258.044 38.6647 256.478 40.2323 256.478 42.166C256.478 44.0998 258.044 45.6674 259.975 45.6674Z" fill="#B1B2B4"/>
<path d="M302.168 73.2076C304.099 73.2076 305.665 71.64 305.665 69.7062C305.665 67.7725 304.099 66.2048 302.168 66.2048C300.236 66.2048 298.67 67.7725 298.67 69.7062C298.67 71.64 300.236 73.2076 302.168 73.2076Z" fill="#B1B2B4"/>
<path d="M347.858 24.669C347.858 25.3615 347.653 26.0384 347.268 26.6142C346.884 27.19 346.338 27.6388 345.699 27.9038C345.06 28.1688 344.357 28.2382 343.678 28.1031C343 27.968 342.377 27.6345 341.888 27.1448C341.398 26.6551 341.065 26.0313 340.93 25.3521C340.796 24.6729 340.865 23.9688 341.129 23.3291C341.394 22.6893 341.842 22.1424 342.418 21.7577C342.993 21.373 343.669 21.1676 344.361 21.1676C345.288 21.1676 346.178 21.5365 346.833 22.1931C347.489 22.8498 347.858 23.7404 347.858 24.669V24.669Z" fill="#B1B2B4"/>
<path d="M390.05 86.2813C390.05 86.9738 389.845 87.6507 389.461 88.2265C389.077 88.8023 388.531 89.2511 387.892 89.5161C387.252 89.7811 386.549 89.8505 385.871 89.7154C385.192 89.5803 384.569 89.2468 384.08 88.7571C383.591 88.2674 383.258 87.6436 383.123 86.9644C382.988 86.2852 383.057 85.5812 383.322 84.9414C383.587 84.3016 384.035 83.7547 384.61 83.37C385.185 82.9853 385.861 82.7799 386.553 82.7799C387.481 82.7799 388.37 83.1488 389.026 83.8054C389.682 84.4621 390.05 85.3527 390.05 86.2813Z" fill="#B1B2B4"/>
<path d="M461.975 420C499.317 420 529.589 415.929 529.589 410.908C529.589 405.887 499.317 401.816 461.975 401.816C424.633 401.816 394.361 405.887 394.361 410.908C394.361 415.929 424.633 420 461.975 420Z" fill="#B1B2B4"/>
<path opacity="0.7" d="M461.975 420C499.317 420 529.589 415.929 529.589 410.908C529.589 405.887 499.317 401.816 461.975 401.816C424.633 401.816 394.361 405.887 394.361 410.908C394.361 415.929 424.633 420 461.975 420Z" fill="white"/>
<path d="M91.5372 420C125.996 420 153.93 415.929 153.93 410.908C153.93 405.887 125.996 401.816 91.5372 401.816C57.0787 401.816 29.1445 405.887 29.1445 410.908C29.1445 415.929 57.0787 420 91.5372 420Z" fill="#B1B2B4"/>
<path opacity="0.7" d="M91.5372 420C125.996 420 153.93 415.929 153.93 410.908C153.93 405.887 125.996 401.816 91.5372 401.816C57.0787 401.816 29.1445 405.887 29.1445 410.908C29.1445 415.929 57.0787 420 91.5372 420Z" fill="white"/>
<path d="M442.892 90.6163C442.892 90.6163 468.578 88.1251 470.047 92.4111C471.517 96.6971 471.027 106.485 471.027 106.485C472.321 106.822 473.583 107.272 474.798 107.829C475.141 108.162 478.942 110.653 475.396 114.743C474.47 115.78 473.348 116.624 472.095 117.225C470.531 117.918 469.043 118.772 467.657 119.775L462.504 125.63L463.484 133.172C463.484 133.172 465.786 134.839 468.597 140.655C468.597 140.655 475.239 144.579 479.138 146.805C482.344 148.492 485.679 149.921 489.111 151.081C489.111 151.081 490.894 151.66 490.766 152.945C490.639 154.229 481.891 183.349 481.891 183.349L477.287 198.06C477.199 199.868 476.963 201.666 476.581 203.435C475.925 206.603 473.456 208.682 470.899 208.035L471.154 218.823C471.154 218.823 459.144 224.835 439.336 223.815C439.336 223.815 430.01 222.913 423.113 217.803L422.986 192.597L391.206 186.438C391.206 186.438 387.18 185.585 389.247 181.956C391.314 178.327 398.26 169.324 398.26 169.324L420.586 141.979C420.586 141.979 422.124 140.165 422.692 139.586C423.26 139.008 424.651 138.606 430.166 138.145C435.682 137.684 441.863 136.615 441.863 136.615C441.863 136.615 445.213 133.731 445.693 133.731C446.173 133.731 446.271 129.416 446.271 129.416C444.577 128.192 443.168 126.614 442.142 124.792C441.115 122.971 440.495 120.947 440.325 118.863C439.845 111.86 442.911 95.4515 442.911 95.4515L442.892 90.6163Z" fill="white"/>
<path d="M423.505 217.705C423.505 217.705 420.801 257.917 420.801 277.16C420.801 296.403 422.006 311.987 422.604 325.502C423.201 339.017 420.801 348.325 422.898 358.231C424.994 368.137 429.804 396.971 429.804 396.971L435.457 400.385C435.457 400.385 436.436 377.444 438.493 369.343C440.551 361.242 441.197 327.003 442.412 316.489C443.627 305.975 447.516 268.745 447.516 268.745C447.516 268.745 462.514 307.78 466.129 323.099C469.744 338.419 482.028 372.942 484.742 381.348C487.455 389.753 491.638 402.209 491.638 402.209C492.909 402.581 494.245 402.681 495.557 402.503C496.124 402.457 496.67 402.268 497.143 401.952C497.616 401.636 498.001 401.205 498.261 400.698C498.261 400.698 494.274 375.551 492.52 363.331C490.355 348.217 486.828 325.502 484.683 317.097C482.538 308.692 479.285 295.471 479.285 289.165C479.285 282.858 471.193 219.529 471.193 219.529C471.193 219.529 443 231.819 423.505 217.705Z" fill="#21252A"/>
<path d="M447.496 268.745L435.467 254.7" stroke="white" stroke-width="0.530341" stroke-miterlimit="10" stroke-linecap="round"/>
<path d="M432.39 255.73L442.294 264.959" stroke="white" stroke-width="0.530341" stroke-miterlimit="10" stroke-linecap="round"/>
<path d="M453.56 256.76C456.096 250.336 460.809 245.01 466.873 241.715" stroke="white" stroke-width="0.530341" stroke-miterlimit="10" stroke-linecap="round"/>
<path d="M467.549 222.923C467.549 222.923 466.188 228.043 467.892 231.122C469.597 234.202 471.311 234.202 471.311 234.202C471.311 234.202 474.377 250.944 474.377 260.516C474.377 270.088 472.33 271.108 474.377 281.701C476.425 292.293 477.796 295.716 477.796 301.866C477.796 308.015 480.52 312.125 482.91 315.881C485.3 319.637 485.986 330.593 485.986 335.016C485.986 339.439 487.348 344.245 488.719 348.688C488.719 348.688 489.042 358.653 490.767 360.987C492.491 363.321 492.814 371.246 492.814 371.246" stroke="white" stroke-width="0.530341" stroke-miterlimit="10" stroke-linecap="round"/>
<path d="M445.028 267.352C445.028 267.352 445.703 275.198 443.313 288.88C440.923 302.562 439.218 306.309 438.876 322.03C438.533 337.752 439.904 340.489 439.218 348.688C438.533 356.887 434.438 369.843 434.438 375.728C434.438 381.613 435.065 400.424 435.065 400.424" stroke="white" stroke-width="0.530341" stroke-miterlimit="10" stroke-linecap="round"/>
<path d="M437.514 224.973L438.199 227.709L442.637 228.729L441.951 225.316" stroke="white" stroke-width="0.530341" stroke-miterlimit="10" stroke-linecap="round"/>
<path d="M442.657 228.729C442.657 228.729 450.846 228.386 454.941 227.023L453.962 224.286" stroke="white" stroke-width="0.530341" stroke-miterlimit="10" stroke-linecap="round"/>
<path d="M457.655 223.6L458.635 227.023C458.635 227.023 465.188 226.65 466.168 225.669" stroke="white" stroke-width="0.530341" stroke-miterlimit="10" stroke-linecap="round"/>
<path d="M438.199 227.709C435.935 227.638 433.718 227.051 431.714 225.993L428.638 224.286L429.618 221.893" stroke="white" stroke-width="0.530341" stroke-miterlimit="10" stroke-linecap="round"/>
<path d="M429.804 396.971C429.804 396.971 415.109 406.573 413.003 411.075C410.897 415.577 419.302 413.782 425.298 411.379C431.293 408.976 435.094 400.385 435.094 400.385L429.804 396.971Z" fill="white" stroke="#21252A" stroke-width="1.06068" stroke-miterlimit="10" stroke-linecap="round"/>
<path d="M492.109 402.336C492.85 406.45 494.309 410.401 496.419 414.007C499.652 419.039 505.755 423.354 505.755 415.439C505.755 407.525 498.222 400.728 498.222 400.728C498.222 400.728 494.479 402.758 492.109 402.336Z" fill="white" stroke="#21252A" stroke-width="1.06068" stroke-miterlimit="10" stroke-linecap="round"/>
<path d="M442.804 96.0498C442.804 96.0498 439.62 115.822 440.697 120.726C443.156 131.701 451.787 131.23 457.184 129.131C462.23 127.17 467.265 120.236 467.911 119.324C467.957 119.259 468.022 119.211 468.098 119.186C468.901 118.961 473.887 117.372 476.082 113.517C478.482 109.31 473.985 107.515 473.985 107.515" fill="white"/>
<g style="mix-blend-mode:multiply" opacity="0.5">
<path d="M463.229 124.414L467.99 119.176C467.99 119.176 473.623 117.44 476.082 113.468C477.522 111.144 476.728 109.114 475.857 108.564C474.662 107.917 473.428 107.344 472.163 106.848L470.567 110.369L469.205 110.604C469.205 110.604 469.773 106.976 468.127 104.828C466.481 102.68 466.109 96.4617 466.109 96.4617C466.109 96.4617 463.807 108.859 463.523 114.047C463.45 116.934 462.549 119.74 460.927 122.129C460.927 122.129 461.221 125.296 461.789 128.464C461.858 128.837 461.926 129.396 461.995 130.092L462.778 128.837L463.209 130.034C462.72 127.974 462.494 125.787 463.229 124.414Z" fill="#B1B2B4"/>
</g>
<path d="M442.804 96.0498C442.804 96.0498 439.62 115.822 440.697 120.726C443.156 131.701 451.787 131.23 457.184 129.131C462.23 127.17 467.265 120.236 467.911 119.324C467.957 119.259 468.022 119.211 468.098 119.186C468.901 118.961 473.887 117.372 476.082 113.517C478.482 109.31 473.985 107.515 473.985 107.515" stroke="#21252A" stroke-width="1.06068" stroke-miterlimit="10" stroke-linecap="round"/>
<path d="M454.99 106.103C454.804 106.887 454.99 107.594 455.353 107.682C455.715 107.77 456.205 107.221 456.391 106.446C456.577 105.671 456.391 104.965 456.029 104.867C455.666 104.769 455.177 105.328 454.99 106.103Z" fill="#21252A"/>
<path d="M446.575 104.053C446.389 104.838 446.575 105.544 446.938 105.632C447.3 105.72 447.79 105.171 447.976 104.396C448.162 103.621 447.976 102.905 447.614 102.817C447.251 102.729 446.752 103.268 446.575 104.053Z" fill="#21252A"/>
<path d="M460.211 102.67C459.749 101.855 459.09 101.168 458.294 100.673C457.498 100.178 456.591 99.8899 455.656 99.8356" stroke="#21252A" stroke-width="1.06068" stroke-miterlimit="10" stroke-linecap="round"/>
<path d="M449.21 99.9827C448.439 99.6452 447.584 99.5508 446.758 99.712C445.932 99.8732 445.174 100.282 444.586 100.885" stroke="#21252A" stroke-width="1.06068" stroke-miterlimit="10" stroke-linecap="round"/>
<path d="M449.778 103.553C449.797 104.867 449.699 106.179 449.485 107.476C449.161 109.114 447.888 109.437 448.211 110.703C448.534 111.968 450.17 112.095 450.17 112.095" stroke="#21252A" stroke-width="1.06068" stroke-miterlimit="10" stroke-linecap="round"/>
<path d="M451.875 117.205C452.568 117.426 453.301 117.494 454.024 117.405C454.746 117.315 455.44 117.069 456.058 116.685" stroke="#21252A" stroke-width="1.06068" stroke-miterlimit="10" stroke-linecap="round"/>
<path d="M467.392 82.2405C467.392 82.2405 460.799 76.5323 454.5 76.5323C448.201 76.5323 443.097 80.1416 439.198 80.4555C435.3 80.7693 432.606 77.1502 430.205 81.956C427.805 86.7618 436.808 94.8729 442.804 96.0694C448.799 97.2659 457.194 95.4711 459.594 95.1671C461.894 95.0093 464.201 95.0093 466.501 95.1671C466.501 95.1671 464.698 100.875 466.501 102.68C468.303 104.484 468.597 105.681 468.597 106.878C468.7 108.198 468.9 109.509 469.195 110.801L470.997 111.409L471.899 108.104C474.33 105.507 475.993 102.284 476.699 98.796C477.59 93.3919 473.094 88.0074 473.094 88.0074L467.392 82.2405Z" fill="#21252A"/>
<path d="M442.138 93.6077C442.138 93.6077 452.394 95.5692 460.427 92.2248C468.46 88.8803 461.534 82.2405 461.534 82.2405" stroke="white" stroke-width="0.530341" stroke-miterlimit="10" stroke-linecap="round"/>
<path d="M463.229 81.6815C464.062 81.6815 470.988 86.9482 469.597 90.8321C468.206 94.716 465.443 95.0004 465.443 95.0004" stroke="white" stroke-width="0.530341" stroke-miterlimit="10" stroke-linecap="round"/>
<path d="M462.092 200.816L453.433 196.246C451.207 196.122 448.993 195.834 446.81 195.383C444.792 194.804 424.083 192.823 424.083 192.823L423.769 197.727C423.769 197.727 447.388 200.904 452.277 201.483C457.165 202.062 461.495 204.367 462.357 205.808C463.219 207.25 464.953 208.692 464.091 212.674C463.229 216.656 457.469 222.482 457.469 222.482C457.194 222.07 471.321 221.05 471.183 219.539C470.88 216.538 469.283 207.77 469.283 207.77L462.092 200.816Z" fill="#B1B2B4"/>
<path opacity="0.5" d="M462.092 200.816L453.433 196.246C451.207 196.122 448.993 195.834 446.81 195.383C444.792 194.804 424.083 192.823 424.083 192.823L423.769 197.727C423.769 197.727 447.388 200.904 452.277 201.483C457.165 202.062 461.495 204.367 462.357 205.808C463.219 207.25 464.953 208.692 464.091 212.674C463.229 216.656 457.469 222.482 457.469 222.482C457.243 222.04 471.35 221.04 471.183 219.539C470.723 215.714 469.283 207.77 469.283 207.77L462.092 200.816Z" fill="white"/>
<path d="M490.659 152.837C489.894 149.247 484.193 149.728 480.755 147.737C477.316 145.746 468.999 141.136 468.999 141.136L464.973 135.075C464.246 133.441 463.659 131.748 463.219 130.014L462.788 128.818L462.004 130.073C462.504 135.448 462.984 149.208 462.984 149.208L464.708 157.858C464.708 157.858 471.34 186.399 473.064 192.744C474.789 199.09 474.789 203.405 473.642 205.426C472.496 207.446 472.878 208.368 472.878 208.368C472.878 208.368 477.375 204.886 477.1 201.434C476.738 197.374 491.197 155.269 490.659 152.837Z" fill="#B1B2B4"/>
<path opacity="0.5" d="M490.659 152.837C490.267 149.188 484.193 149.728 480.755 147.737C477.316 145.746 468.999 141.136 468.999 141.136L464.973 135.075C464.246 133.441 463.659 131.748 463.219 130.014L462.788 128.818L462.004 130.073C462.504 135.448 462.984 149.208 462.984 149.208L464.708 157.858C464.708 157.858 471.34 186.399 473.064 192.744C474.789 199.09 474.789 203.405 473.642 205.426C472.496 207.446 472.878 208.368 472.878 208.368C472.878 208.368 477.502 204.877 477.1 201.434C476.64 197.737 491.011 155.867 490.659 152.837Z" fill="white"/>
<path d="M465.492 149.237C465.492 149.237 463.689 133.025 462.788 128.817C461.887 124.61 462.494 122.217 458.595 122.217C454.696 122.217 449.896 121.609 450.758 123.717C451.62 125.826 457.615 124.012 458.595 124.914C459.575 125.816 458.889 127.915 458.889 127.915C458.889 127.915 451.052 128.523 451.052 130.622C451.052 132.721 451.356 138.468 452.854 139.027C454.353 139.586 454.951 136.33 454.951 136.33C454.951 136.33 455.255 143.196 456.753 145.638C457.708 147.146 458.814 148.553 460.055 149.835L465.492 149.237Z" fill="white" stroke="#21252A" stroke-width="1.06068" stroke-miterlimit="10" stroke-linecap="round"/>
<path d="M460.094 153.739C460.094 153.739 459.193 191.009 460.692 196.982C462.191 202.954 470.292 211.095 474.485 207.191C478.678 203.288 476.591 194.883 476.591 190.979C476.591 187.076 466.991 158.251 466.991 156.142C466.848 154.391 466.442 152.672 465.786 151.042" stroke="#21252A" stroke-width="1.06068" stroke-miterlimit="10" stroke-linecap="round"/>
<path d="M460.692 158.251L466.687 157.642" stroke="#21252A" stroke-width="1.06068" stroke-miterlimit="10" stroke-linecap="round"/>
<path d="M422.349 176.885L423.505 143.725C423.505 143.725 422.065 142.862 421.487 146.03C420.909 149.198 420.625 155.553 420.625 155.553C420.625 155.553 413.709 151.228 415.443 153.817C417.177 156.407 420.047 162.183 420.047 162.183L409.349 172.845L414.248 174.865L422.349 176.885Z" fill="#B1B2B4"/>
<path opacity="0.5" d="M422.349 176.885L423.505 143.725C423.505 143.725 422.065 142.862 421.487 146.03C420.909 149.198 420.625 155.553 420.625 155.553C420.625 155.553 413.709 151.228 415.443 153.817C417.177 156.407 420.047 162.183 420.047 162.183L409.349 172.845L414.248 174.865L422.349 176.885Z" fill="white"/>
<path d="M436.691 151.13C436.691 151.13 436.142 153.092 438.444 153.092C440.746 153.092 444.792 151.454 444.792 151.454L444.498 148.198C444.498 148.198 438.963 150.895 436.691 151.13Z" fill="#B1B2B4"/>
<path opacity="0.5" d="M436.691 151.13C436.691 151.13 436.142 153.092 438.444 153.092C440.746 153.092 444.792 151.454 444.792 151.454L444.498 148.198C444.498 148.198 438.963 150.895 436.691 151.13Z" fill="white"/>
<path d="M446.575 129.2C446.575 129.2 443.578 146.854 445.38 150.777C447.183 154.7 449.877 153.778 451.973 151.983C454.069 150.189 456.773 145.677 456.773 145.677" stroke="#21252A" stroke-width="1.06068" stroke-miterlimit="10" stroke-linecap="round"/>
<path d="M422.898 193.078L423.505 217.705C423.505 217.705 430.363 224.306 443.597 224.306C456.832 224.306 471.194 219.5 471.194 219.5V210.791" stroke="#21252A" stroke-width="1.06068" stroke-miterlimit="10" stroke-linecap="round"/>
<path d="M463.395 132.721C463.395 132.721 468.793 138.125 468.793 143.235C468.793 148.345 467.892 149.541 467.892 149.541" stroke="#21252A" stroke-width="1.06068" stroke-miterlimit="10" stroke-linecap="round"/>
<path d="M468.186 140.234C468.186 140.234 476.287 145.03 480.784 147.737C485.28 150.444 490.688 150.434 490.688 152.837C490.688 155.24 478.09 196.079 478.09 196.079" stroke="#21252A" stroke-width="1.06068" stroke-miterlimit="10" stroke-linecap="round"/>
<path d="M473.29 153.739L470.292 165.754" stroke="#21252A" stroke-width="1.06068" stroke-miterlimit="10" stroke-linecap="round"/>
<path d="M422.976 160.791L418.127 150.61" stroke="#21252A" stroke-width="0.530341" stroke-miterlimit="10" stroke-linecap="round"/>
<path d="M422.976 163.704L415.707 159.339" stroke="#21252A" stroke-width="0.530341" stroke-miterlimit="10" stroke-linecap="round"/>
<path d="M446.693 186.477L445.243 193.755" stroke="#21252A" stroke-width="0.530341" stroke-miterlimit="10" stroke-linecap="round"/>
<path d="M485.908 152.552C485.908 152.552 478.648 154.004 471.869 162.242" stroke="#21252A" stroke-width="0.530341" stroke-miterlimit="10" stroke-linecap="round"/>
<path d="M481.068 152.111C481.068 152.111 479.109 151.621 472.359 157.437" stroke="#21252A" stroke-width="0.530341" stroke-miterlimit="10" stroke-linecap="round"/>
<path d="M446.693 154.494L443.793 177.268L446.213 177.758L448.152 170.491" stroke="#21252A" stroke-width="0.530341" stroke-miterlimit="10" stroke-linecap="round"/>
<path d="M448.633 214.106C439.914 221.383 427.815 220.893 427.815 220.893" stroke="#21252A" stroke-width="0.530341" stroke-miterlimit="10" stroke-linecap="round"/>
<path d="M411.789 174.551C411.789 174.551 405.862 169.117 397.466 176.032" stroke="#21252A" stroke-width="0.530341" stroke-miterlimit="10" stroke-linecap="round"/>
<path d="M445.997 133.623C445.997 133.623 443.597 134.222 440.894 138.429C438.19 142.637 434.898 149.836 437.298 150.434C439.698 151.032 444.156 148.335 444.156 148.335" stroke="#21252A" stroke-width="1.06068" stroke-miterlimit="10" stroke-linecap="round"/>
<path d="M455.294 149.541L458.292 152.238" stroke="#21252A" stroke-width="1.06068" stroke-miterlimit="10" stroke-linecap="round"/>
<path d="M441.795 136.625C441.795 136.625 430.695 138.125 426.199 138.429C421.702 138.733 422.574 140.391 421.105 141.43C418.734 143.088 391.539 177.601 389.757 180.907C387.974 184.212 388.258 185.712 391.255 186.615C394.253 187.517 424.112 192.774 424.112 192.774L450.494 195.481L452.59 188.87C452.59 188.87 458.723 189.684 459.8 189.684" stroke="#21252A" stroke-width="1.06068" stroke-miterlimit="10" stroke-linecap="round"/>
<path d="M449.593 186.438C443.77 184.747 438.142 182.446 432.802 179.573" stroke="#21252A" stroke-width="1.06068" stroke-miterlimit="10" stroke-linecap="round"/>
<path d="M430.401 178.965C430.401 178.965 421.585 175.689 416.814 175.09C412.043 174.492 404.735 174.296 404.735 174.296" stroke="#21252A" stroke-width="1.06068" stroke-miterlimit="10" stroke-linecap="round"/>
<path d="M422.3 175.061L423.201 151.336" stroke="#21252A" stroke-width="1.06068" stroke-miterlimit="10" stroke-linecap="round"/>
<path d="M450.494 195.481C452.552 196.517 454.708 197.345 456.93 197.952" stroke="#21252A" stroke-width="1.06068" stroke-miterlimit="10" stroke-linecap="round"/>
<path d="M57.9851 176.366L61.5216 157.015L83.9061 148.188C83.9061 148.188 84.9935 142.176 86.0907 141.911C87.1879 141.646 88.2655 139.175 88.2655 139.175L87.7267 134.222C87.7267 134.222 89.7741 126.375 100.07 132.486C100.07 132.486 96.9548 134.565 97.4936 135.428C98.0324 136.291 96.896 139.037 98.2577 139.037C99.6194 139.037 102.372 140.773 103.763 142.176C104.737 143.223 105.597 144.37 106.33 145.599L117.919 146.266C119.107 146.275 120.289 146.437 121.436 146.746C121.632 141.077 120.936 136.752 119.565 133.388C114.578 121.246 105.487 116.911 104.184 110.83C102.882 104.749 103.538 104.112 103.538 104.112C104.863 102.763 105.833 101.107 106.361 99.2906C106.889 97.4745 106.959 95.5556 106.565 93.7057C105.272 87.2032 100.286 82.6426 82.3093 81.7795C64.3331 80.9164 66.9389 93.2644 66.9389 93.2644L67.1544 94.1275C67.1544 94.1275 55.6732 98.0506 57.8479 112.556C60.0227 127.062 66.2924 133.368 66.0768 137.919C65.8613 142.47 59.1411 144.206 49.6092 154.592C40.0774 164.979 38.1378 180.602 42.0367 190.793C43.996 195.805 47.8263 199.983 52.6363 203.101L57.9851 176.366Z" fill="#21252A"/>
<path d="M72.993 178.278V182.652L64.6956 208.319C69.8804 209.693 75.3179 209.807 80.5558 208.653C83.5125 207.881 86.3384 206.675 88.9414 205.073L72.993 178.278Z" fill="#21252A"/>
<path d="M96.8471 135.271L97.8267 139.685C97.8267 139.685 100.766 136.742 106.506 145.677C106.506 145.677 118.438 145.393 121.691 147.021C121.691 147.021 122.366 147.217 124.571 149.561C126.775 151.905 135.062 159.369 135.062 159.369C135.062 159.369 145.701 169.255 146.759 170.02C147.817 170.785 151.785 174.581 154.753 175.905L162.708 157.77L166.254 148.796L168.213 141.411H168.84L168.977 135.457L168.497 128.357C168.575 127.995 168.74 127.659 168.977 127.376C169.799 126.236 170.431 124.971 170.848 123.629C170.848 122.962 170.172 119.02 170.172 119.02C170.172 119.02 169.839 118.039 170.564 117.921C171.289 117.803 173.964 118.735 174.297 120.608L175.276 120.275C176.088 118.334 177.099 116.484 178.294 114.753C179.881 112.694 181.507 111.399 182.516 112.066C182.793 112.257 182.992 112.541 183.078 112.866C183.165 113.192 183.132 113.538 182.986 113.841L179.832 119.647C179.832 119.647 178.441 121.521 180.165 122.187C180.165 122.187 183.897 124.59 184.142 126.699C184.387 128.808 183.035 130.622 181.84 132.172C180.645 133.721 178.539 137.076 178.539 137.076L176.089 139.243L175.11 142.98L176.266 144.422L174.542 151.905L173.297 157.515L172.671 160.918L168.752 174.355L164.833 186.065C164.833 186.065 162.815 192.774 157.927 192.588C153.039 192.401 147.68 189.753 145.946 188.89C144.212 188.027 129.919 180.553 129.919 180.553L126.981 179.161C127.373 180.5 127.542 181.895 127.48 183.29C127.431 185.879 124.649 191.587 123.836 192.882L123.356 203.003C123.166 204.759 123.199 206.532 123.454 208.28C123.885 210.918 126.089 225.846 126.569 227.709C126.569 227.709 121.808 232.025 107.623 234.074C93.438 236.124 86.7961 232.799 86.7961 232.799L80.4775 229.082L88.2655 213.674C88.2655 213.674 90.2248 209.094 90.0289 207.888C89.8329 206.681 86.4826 201.483 86.4826 201.483L74.1882 179.573L73.6103 179.769L71.7 186.163L64.7936 207.848L55.7026 234.918C55.7026 234.918 53.2143 241.783 52.1857 243.813L49.3154 252.572C49.4748 254.136 49.8609 255.669 50.4616 257.123L43.2417 252.444L44.525 245.579L46.1218 235.34L48.0811 224.208L49.8052 214.998L52.558 202.719L53.5376 199.325L55.4969 189.734L58.9452 172.335L61.8841 157.437L82.4563 149.247L83.7396 148.266C84.025 146.37 84.7204 144.559 85.7773 142.96C86.5108 141.908 87.3842 140.961 88.3733 140.145C88.3733 140.145 88.2753 138.861 88.2067 137.644C88.1382 136.428 87.8247 134.192 87.8247 134.192C87.8247 134.192 94.1825 136.929 96.8471 135.271Z" fill="white"/>
<path d="M69.29 95.8537C69.29 95.8537 73.1008 87.4092 80.7223 87.4092C88.3439 87.4092 104.126 102.395 104.126 102.395" stroke="white" stroke-width="0.530341" stroke-miterlimit="10" stroke-linecap="round"/>
<path d="M72.5522 97.1875C72.5522 97.1875 77.1761 92.2836 82.8971 94.1863C88.6182 96.089 89.4313 102.905 89.4313 102.905" stroke="white" stroke-width="0.530341" stroke-miterlimit="10" stroke-linecap="round"/>
<path d="M68.7414 98.031C68.7414 98.031 61.9428 101.846 61.3942 108.937C60.8456 116.028 70.9162 124.463 72.2779 134.006C73.6396 143.549 66.5666 145.716 55.1343 153.621C43.702 161.526 45.6123 179.229 48.0614 183.045" stroke="white" stroke-width="0.530341" stroke-miterlimit="10" stroke-linecap="round"/>
<path d="M49.4233 185.232C49.4233 185.232 51.0495 188.772 53.4986 189.861" stroke="white" stroke-width="0.530341" stroke-miterlimit="10" stroke-linecap="round"/>
<path d="M69.5643 116.558C69.2424 117.25 69.098 118.011 69.1442 118.774C69.1903 119.536 69.4257 120.274 69.8289 120.922C71.1905 123.374 81.5844 135.634 80.7223 141.362C79.8603 147.089 74.4625 150.62 74.4625 150.62" stroke="white" stroke-width="0.530341" stroke-miterlimit="10" stroke-linecap="round"/>
<path d="M74.727 98.031C74.727 98.031 68.4671 100.758 68.7414 107.025C69.0157 113.292 70.3774 114.93 70.3774 114.93" stroke="white" stroke-width="0.530341" stroke-miterlimit="10" stroke-linecap="round"/>
<path d="M104.125 118.765C106.071 123.173 108.739 127.224 112.021 130.75C116.919 135.653 117.458 142.744 117.458 142.744" stroke="white" stroke-width="0.530341" stroke-miterlimit="10" stroke-linecap="round"/>
<path d="M109.837 134.271C109.837 134.271 112.286 139.998 112.286 143.539" stroke="white" stroke-width="0.530341" stroke-miterlimit="10" stroke-linecap="round"/>
<path d="M96.2885 135.791L88.5984 142.725C88.5984 142.725 87.7755 144.824 86.2277 148.188C84.6799 151.552 84.9346 157.996 84.9346 157.996L89.676 167.44C89.676 167.44 80.5556 156.966 80.0364 155.671C79.5172 154.377 69.9756 156.711 68.1731 157.486C66.3706 158.26 64.039 159.81 64.5582 162.134C65.0774 164.459 67.3992 167.548 66.3608 168.068C65.3224 168.588 62.4912 167.293 62.4912 168.843C62.4912 170.393 65.8514 176.336 64.3035 178.396C62.7557 180.455 52.9496 213.782 52.9496 213.782C52.9496 213.782 59.1409 208.613 57.5931 210.683C56.0452 212.752 48.5707 229.533 48.5707 229.533L45.7297 239.341L52.4402 204.484L58.1123 175.061L61.5214 157.015C64.8129 155.916 83.9059 148.188 83.9059 148.188C83.9059 148.188 85.4146 141.832 88.2653 139.174L87.7265 134.222C87.7265 134.222 92.9283 136.046 96.2885 135.791Z" fill="#B1B2B4"/>
<path opacity="0.5" d="M96.2885 135.791L88.5984 142.725C88.5984 142.725 87.7755 144.824 86.2277 148.188C84.6799 151.552 84.9346 157.996 84.9346 157.996L89.676 167.44C89.676 167.44 80.5556 156.966 80.0364 155.671C79.5172 154.377 69.9756 156.711 68.1731 157.486C66.3706 158.26 64.039 159.81 64.5582 162.134C65.0774 164.459 67.3992 167.548 66.3608 168.068C65.3224 168.588 62.4912 167.293 62.4912 168.843C62.4912 170.393 65.8514 176.336 64.3035 178.396C62.7557 180.455 52.9496 213.782 52.9496 213.782C52.9496 213.782 59.1409 208.613 57.5931 210.683C56.0452 212.752 48.5707 229.533 48.5707 229.533L45.7297 239.341L52.4402 204.484L58.1123 175.061L61.5214 157.015C64.8129 155.916 83.9059 148.188 83.9059 148.188C83.9059 148.188 84.3174 142.303 88.2751 140.244L87.7265 134.222C87.7265 134.222 92.9283 136.046 96.2885 135.791Z" fill="white"/>
<path d="M124.914 170.648C124.914 170.648 129.557 162.909 130.076 164.714C130.595 166.519 128.783 172.707 128.783 172.707C128.783 172.707 133.681 170.903 133.172 172.452C132.662 174.002 131.624 174.777 131.879 175.552C132.133 176.326 148.905 185.104 150.972 186.134C153.039 187.164 157.937 181.23 160.259 183.035C162.58 184.84 160.259 191.028 155.615 191.038C150.972 191.048 137.561 185.153 137.561 185.153L127 179.004" fill="#B1B2B4"/>
<path opacity="0.5" d="M124.914 170.648C124.914 170.648 129.557 162.909 130.076 164.714C130.595 166.519 128.783 172.707 128.783 172.707C128.783 172.707 133.681 170.903 133.172 172.452C132.662 174.002 131.624 174.777 131.879 175.552C132.133 176.326 148.905 185.104 150.972 186.134C153.039 187.164 157.937 181.23 160.259 183.035C162.58 184.84 160.259 191.028 155.615 191.038C150.972 191.048 137.561 185.153 137.561 185.153L127.039 179.024" fill="white"/>
<path d="M97.0625 201.895C97.0625 201.895 127.216 185.889 122.317 191.823C117.419 197.756 101.187 204.484 97.0625 201.895Z" fill="#B1B2B4"/>
<path opacity="0.5" d="M97.0625 201.895C97.0625 201.895 127.216 185.889 122.317 191.823C117.419 197.756 101.187 204.484 97.0625 201.895Z" fill="white"/>
<path d="M87.7268 134.271C87.7268 134.271 87.9423 138.39 88.5987 142.725C89.255 147.06 89.0297 147.06 93.1442 152.258C97.2586 157.456 101.589 161.801 102.235 160.938" stroke="#21252A" stroke-width="1.06068" stroke-miterlimit="10" stroke-linecap="round"/>
<path d="M102.45 159.418C102.45 159.418 102.881 151.827 101.373 146.844C99.8641 141.862 97.6893 140.116 97.6893 138.998C97.6161 137.833 97.4722 136.673 97.2583 135.526" stroke="#21252A" stroke-width="1.06068" stroke-miterlimit="10" stroke-linecap="round"/>
<path d="M87.7268 140.557C85.9964 142.117 84.786 144.171 84.2589 146.442C83.6124 149.904 82.9658 154.023 82.9658 154.023L89.6763 167.47C90.2606 165.128 91.1326 162.868 92.2723 160.742C92.8368 159.692 93.568 158.741 94.4373 157.927" stroke="#21252A" stroke-width="1.06068" stroke-miterlimit="10" stroke-linecap="round"/>
<path d="M103.969 155.73C104.443 155.611 104.935 155.588 105.418 155.662C105.901 155.736 106.364 155.906 106.78 156.162C108.514 157.034 111.982 161.585 111.982 161.585C111.982 161.585 109.602 150.306 105.487 144.461C101.373 138.615 98.5515 139.037 98.5515 139.037" stroke="#21252A" stroke-width="1.06068" stroke-miterlimit="10" stroke-linecap="round"/>
<path d="M82.3094 149.012L61.5216 157.015C61.5216 157.015 53.9491 198.423 51.1277 209.477C48.3064 220.53 43.5552 251.758 43.5552 251.758L49.1783 252.837L51.1375 247.207" stroke="#21252A" stroke-linecap="round" stroke-linejoin="round"/>
<path d="M52.2151 243.97C52.2151 243.97 53.5082 242.009 56.9761 231.22C60.444 220.432 69.7113 193.951 71.2689 188.723C72.8265 183.496 74.0804 180.053 74.0804 180.053" stroke="#21252A" stroke-width="1.06068" stroke-miterlimit="10" stroke-linecap="round"/>
<path d="M70.3972 173.688C70.3972 173.688 87.9326 205.073 89.451 206.426C90.9695 207.78 88.8045 211.409 88.3636 213.361" stroke="#21252A" stroke-width="1.06068" stroke-miterlimit="10" stroke-linecap="round"/>
<path d="M86.4239 217.303L80.8008 229.013C80.8008 229.013 84.4842 234.653 100.07 234.653C109.345 234.681 118.488 232.446 126.706 228.141C126.706 228.141 123.023 208.633 123.238 205.161C123.454 201.689 123.895 192.587 123.895 192.587C123.895 192.587 127.813 186.703 127.353 182.181C126.892 177.66 124.972 172.423 124.972 171.56C124.972 170.697 124.541 161.369 124.541 161.369" stroke="#21252A" stroke-width="1.06068" stroke-miterlimit="10" stroke-linecap="round"/>
<path d="M100.041 198.031L115.558 188.498" stroke="#21252A" stroke-width="0.530341" stroke-miterlimit="10" stroke-linecap="round"/>
<path d="M108.211 195.039L116.645 190.136" stroke="#21252A" stroke-width="0.530341" stroke-miterlimit="10" stroke-linecap="round"/>
<path d="M154.645 176.11L151.481 183.868" stroke="#21252A" stroke-width="0.530341" stroke-miterlimit="10" stroke-linecap="round"/>
<path d="M153.382 179.504L150.394 182.505" stroke="#21252A" stroke-width="0.530341" stroke-miterlimit="10" stroke-linecap="round"/>
<path d="M64.9306 207.034C64.9306 207.034 59.7581 213.027 56.2217 215.479" stroke="#21252A" stroke-width="0.530341" stroke-miterlimit="10" stroke-linecap="round"/>
<path d="M61.9429 208.662C61.9429 208.662 52.9597 215.744 50.7849 217.382" stroke="#21252A" stroke-width="0.530341" stroke-miterlimit="10" stroke-linecap="round"/>
<path d="M63.5398 158.251C66.2478 162.084 68.7021 166.091 70.887 170.246" stroke="#21252A" stroke-width="0.530341" stroke-miterlimit="10" stroke-linecap="round"/>
<path d="M71.739 172.148L73.6395 175.414" stroke="#21252A" stroke-width="0.530341" stroke-miterlimit="10" stroke-linecap="round"/>
<path d="M124.972 171.56L127.353 159.418" stroke="#21252A" stroke-width="0.530341" stroke-miterlimit="10" stroke-linecap="round"/>
<path d="M125.844 172.423L129.518 167.225" stroke="#21252A" stroke-width="0.530341" stroke-miterlimit="10" stroke-linecap="round"/>
<path d="M74.0804 180.014L63.6865 174.375" stroke="#21252A" stroke-width="0.530341" stroke-miterlimit="10" stroke-linecap="round"/>
<path d="M102.02 162.017C102.02 162.017 105.938 169.863 107.221 175.463" stroke="#21252A" stroke-width="0.530341" stroke-miterlimit="10" stroke-linecap="round"/>
<path d="M166.333 148.355C167.369 148.278 168.41 148.412 169.393 148.75C170.377 149.087 171.282 149.62 172.054 150.316" stroke="#21252A" stroke-width="0.530341" stroke-miterlimit="10" stroke-linecap="round"/>
<path d="M47.3169 246.373L50.0011 247.374" stroke="#21252A" stroke-width="0.530341" stroke-miterlimit="10" stroke-linecap="round"/>
<path d="M43.4864 252.15C43.5201 255.879 43.3238 259.607 42.8986 263.311C42.2521 267.872 42.4676 278.278 43.3297 281.524C44.1918 284.771 44.6326 285.447 45.4947 283.486C46.3567 281.524 48.9626 270.049 48.9626 270.049C48.9626 270.049 49.3936 277.631 51.3431 276.983C53.2925 276.336 52.2149 272.648 52.2149 269.392C52.2149 266.136 52.4305 265.057 52.2149 262.458C51.9994 259.859 49.1095 253.435 49.1095 253.435" fill="white"/>
<path d="M43.4864 252.15C43.5201 255.879 43.3238 259.607 42.8986 263.311C42.2521 267.872 42.4676 278.278 43.3297 281.524C44.1918 284.771 44.6326 285.447 45.4947 283.486C46.3567 281.524 48.9626 270.049 48.9626 270.049C48.9626 270.049 49.3936 277.631 51.3431 276.983C53.2925 276.336 52.2149 272.648 52.2149 269.392C52.2149 266.136 52.4305 265.057 52.2149 262.458C51.9994 259.859 49.1095 253.435 49.1095 253.435" stroke="#21252A" stroke-miterlimit="10" stroke-linecap="round"/>
<path d="M168.859 141.244C168.761 139.326 168.761 137.405 168.859 135.487C169.036 133.682 168.321 130.985 168.497 128.621C168.673 126.258 171.015 125.385 170.652 122.325C170.29 119.265 169.575 118.902 170.113 118.186C170.652 117.47 174.032 118.539 174.247 120.52C174.439 122.559 174.439 124.611 174.247 126.65C174.071 127.19 175.325 130.573 174.61 132.044C174.2 132.841 173.897 133.689 173.709 134.565" stroke="#21252A" stroke-width="0.880843" stroke-miterlimit="10" stroke-linecap="round"/>
<path d="M174.972 120.363C174.972 120.363 179.106 112.086 181.448 111.899C183.789 111.713 183.064 113.861 182.339 114.959C181.614 116.058 179.283 120 179.106 121.628C178.93 123.257 176.765 128.641 176.765 128.641" stroke="#21252A" stroke-width="0.880843" stroke-miterlimit="10" stroke-linecap="round"/>
<path d="M179.136 121.628C179.136 121.628 185.435 125.404 184.034 128.494C182.633 131.583 181.869 132.819 180.792 132.417C179.836 131.928 178.982 131.263 178.274 130.455" stroke="#21252A" stroke-width="0.880843" stroke-miterlimit="10" stroke-linecap="round"/>
<path d="M181.448 132.427C181.448 132.427 179.822 135.124 178.568 136.752C177.847 137.692 176.992 138.522 176.031 139.214L175.267 141.872" stroke="#21252A" stroke-width="0.880843" stroke-miterlimit="10" stroke-linecap="round"/>
<path d="M105.918 145.54C105.918 145.54 120.858 145.324 122.807 147.707C124.757 150.091 148.366 171.775 151.217 173.727C154.067 175.679 154.684 176.111 154.684 176.111C154.684 176.111 166.371 149.63 166.371 148.355C166.371 147.08 168.331 141.205 168.331 141.205C168.331 141.205 172.014 141.636 172.886 141.636C173.758 141.636 176.129 144.461 176.129 144.461C176.129 144.461 172.886 157.682 172.886 159.173C172.886 160.663 166.822 181.289 164.001 187.615C161.179 193.941 157.29 193.029 151.011 191.077C144.731 189.125 127.627 179.377 127.627 179.377" stroke="#21252A" stroke-width="1.06068" stroke-miterlimit="10" stroke-linecap="round"/>
<path d="M80.8007 229.014C80.8007 229.014 72.131 250.728 69.7897 265.508C67.4483 280.289 68.4476 314.851 67.7716 318.549C67.0957 322.246 57.7108 339.694 57.7108 348.09C57.7108 356.485 52.6853 399.786 52.6853 399.786L56.0356 401.797C56.0356 401.797 67.7912 365.508 72.131 356.142C76.4707 346.775 82.5249 324.59 84.2 320.226C85.8752 315.861 97.621 280.946 98.2871 276.581C98.9533 272.217 102.98 261.477 102.98 261.477C102.98 261.477 111.698 314.851 113.373 325.934C115.049 337.017 126.785 397.099 126.785 397.099C127.555 397.288 128.343 397.399 129.136 397.432C130.115 397.432 130.478 395.755 130.478 395.755C130.478 395.755 135.17 353.121 133.828 341.705C132.486 330.289 128.47 316.205 128.47 312.164C128.47 308.123 134.504 273.227 134.504 261.163C134.504 249.1 126.667 228.16 126.667 228.16C126.667 228.16 98.8553 242.205 80.8007 229.014Z" fill="#21252A"/>
<path d="M128.342 314.38C128.342 314.38 125.354 327.189 121.269 333.996" stroke="white" stroke-width="0.530341" stroke-miterlimit="10" stroke-linecap="round"/>
<path d="M127.529 327.464C127.529 327.464 125.08 336.722 120.182 341.087" stroke="white" stroke-width="0.530341" stroke-miterlimit="10" stroke-linecap="round"/>
<path d="M69.5645 323.374C69.5645 323.374 71.4649 334.545 73.6397 339.174" stroke="white" stroke-width="0.530341" stroke-miterlimit="10" stroke-linecap="round"/>
<path d="M69.0156 329.916C69.0156 329.916 70.6516 337.821 73.6395 342.45" stroke="white" stroke-width="0.530341" stroke-miterlimit="10" stroke-linecap="round"/>
<path d="M103.851 261.526L114.735 252.533" stroke="white" stroke-width="0.530341" stroke-miterlimit="10" stroke-linecap="round"/>
<path d="M109.024 257.711L121.818 251.983" stroke="white" stroke-width="0.530341" stroke-miterlimit="10" stroke-linecap="round"/>
<path d="M80.9868 242.45C80.9868 242.45 89.4312 247.894 94.3294 252.533" stroke="white" stroke-width="0.530341" stroke-miterlimit="10" stroke-linecap="round"/>
<path d="M53.0382 399.757C53.0382 399.757 40.303 410.545 40.303 415.9C40.303 421.255 45.3285 420.932 50.6969 415.9C56.0652 410.869 56.3395 400.502 56.3395 400.502L53.0382 399.757Z" fill="white" stroke="#21252A" stroke-width="1.06068" stroke-miterlimit="10" stroke-linecap="round"/>
<path d="M126.784 397.099C126.784 397.099 131.144 407.838 135.846 412.546C140.548 417.254 143.223 418.921 143.223 413.88C143.223 408.839 140.205 403.14 130.487 395.755C130.478 395.755 133.162 397.766 126.784 397.099Z" fill="white" stroke="#21252A" stroke-width="1.06068" stroke-miterlimit="10" stroke-linecap="round"/>
<path d="M81.7997 99.8356C80.9278 99.5119 80.1049 99.1196 79.2526 98.7568C78.4004 98.3939 76.8427 98.1977 76.255 100.875C75.3831 104.798 81.447 108.035 79.4975 111.281C78.2848 113.256 76.462 114.782 74.3055 115.626C73.9545 115.747 73.5887 115.819 73.2181 115.842C71.4842 116.058 68.6726 115.842 69.5347 118.872C70.3968 121.903 73.2181 124.512 74.9521 124.512H76.686C76.686 124.512 78.6453 130.397 85.9925 133.614C93.3397 136.83 98.3358 136.654 100.07 132.535C101.804 128.415 103.107 124.943 103.107 119.52C103.107 114.096 101.147 104.994 101.147 104.994C101.147 104.994 99.4135 107.388 92.703 104.347C88.2653 102.337 84.1116 100.708 81.7997 99.8356Z" fill="white"/>
<g style="mix-blend-mode:multiply" opacity="0.5">
<path d="M92.7129 104.347C92.7129 104.347 82.3582 103.769 80.8104 104.024C79.2625 104.279 81.0651 108.927 80.5556 113.576C80.0462 118.225 80.2912 125.718 82.3582 128.043C84.7974 130.439 87.382 132.683 90.0973 134.761C90.0973 134.761 82.1524 133.476 79.2625 130.112C76.3726 126.748 75.9122 124.943 75.9122 124.943C75.9122 124.943 69.2017 121.02 68.6825 117.97C68.1633 114.92 72.601 116.538 74.7268 115.028C75.922 114.204 80.8691 112.654 79.625 108.525C78.3809 104.396 76.3726 103.621 76.2943 100.856C76.2355 98.8941 77.9596 98.3252 79.0176 98.1487C79.4946 98.0683 79.9847 98.1404 80.4185 98.3546L92.7129 104.347Z" fill="#B1B2B4"/>
</g>
<path d="M81.7997 99.8356C80.9278 99.5119 80.1049 99.1196 79.2526 98.7568C78.4004 98.3939 76.8427 98.1977 76.255 100.875C75.3831 104.798 81.447 108.035 79.4975 111.281C78.2848 113.256 76.462 114.782 74.3055 115.626C73.9545 115.747 73.5887 115.819 73.2181 115.842C71.4842 116.058 68.6726 115.842 69.5347 118.872C70.3968 121.903 73.2181 124.512 74.9521 124.512H76.686C76.686 124.512 78.6453 130.397 85.9925 133.614C93.3397 136.83 98.3358 136.654 100.07 132.535C101.804 128.415 103.107 124.943 103.107 119.52C103.107 114.096 101.147 104.994 101.147 104.994C101.147 104.994 99.4135 107.388 92.703 104.347C88.2653 102.337 84.1116 100.708 81.7997 99.8356Z" stroke="#21252A" stroke-width="1.06068" stroke-miterlimit="10" stroke-linecap="round"/>
<path d="M89.4509 112.684C89.588 113.508 89.3627 114.233 88.9414 114.302C88.5202 114.371 88.0892 113.753 87.9618 112.929C87.8345 112.105 88.0598 111.37 88.4712 111.301C88.8827 111.232 89.3137 111.899 89.4509 112.684Z" fill="#21252A"/>
<path d="M98.4144 111.183C98.5418 112.007 98.3165 112.733 97.905 112.802C97.4936 112.87 97.0527 112.252 96.9254 111.428C96.798 110.605 97.0136 109.879 97.425 109.81C97.8364 109.741 98.2773 110.359 98.4144 111.183Z" fill="#21252A"/>
<path d="M84.2585 108.682C84.8067 107.866 85.5502 107.201 86.4212 106.747C87.2923 106.293 88.263 106.065 89.2449 106.083" stroke="#21252A" stroke-width="1.06068" stroke-miterlimit="10" stroke-linecap="round"/>
<path d="M95.9556 106.73C96.7877 106.439 97.6886 106.408 98.5388 106.641C99.389 106.874 100.148 107.36 100.717 108.035" stroke="#21252A" stroke-width="1.06068" stroke-miterlimit="10" stroke-linecap="round"/>
<path d="M95.0935 110.418C94.9738 111.789 94.9738 113.167 95.0935 114.537C95.309 116.273 96.6021 116.705 96.1711 118.009C95.74 119.314 94.0061 119.304 94.0061 119.304" stroke="#21252A" stroke-width="1.06068" stroke-miterlimit="10" stroke-linecap="round"/>
<path d="M91.8412 124.512C91.0993 124.687 90.3282 124.7 89.5809 124.55C88.8335 124.399 88.1275 124.088 87.5112 123.639" stroke="#21252A" stroke-width="1.06068" stroke-miterlimit="10" stroke-linecap="round"/>
</svg>
