<svg width="64" height="64" viewBox="0 0 64 64" fill="none" xmlns="http://www.w3.org/2000/svg">
<g filter="url(#filter0_d)">
<path d="M4 10C4 5.58172 7.58172 2 12 2H52C56.4183 2 60 5.58172 60 10V50C60 54.4183 56.4183 58 52 58H12C7.58172 58 4 54.4183 4 50V10Z" fill="#E8EDF3"/>
<path fill-rule="evenodd" clip-rule="evenodd" d="M37.7 41H24.3C21.9 41 20 39.1 20 36.7V23.3C20 20.9 21.9 19 24.3 19H37.7C40.1 19 42 20.9 42 23.3V36.7C42 39.1 40.1 41 37.7 41Z" fill="white"/>
<path fill-rule="evenodd" clip-rule="evenodd" d="M30.6 25.8002C30.8 24.3002 29.8 23.0002 28.3 22.7002C26.8 22.5002 25.5 23.5002 25.2 25.0002C25 26.5002 26 27.8002 27.5 28.1002C29 28.3002 30.4 27.3002 30.6 25.8002Z" fill="#E9EFF5"/>
<path fill-rule="evenodd" clip-rule="evenodd" d="M40.3 31.1C40.3 30.5 39.8 30 39.1 30C39 30 39 30 38.9 30C37.1 30.3 35.3 31.9 33.7 33.2C29.8 36.6 26.7 34 26.7 34C27.1 35.7 27.3 37.4 27.2 39.1L37.8 39C39.2 39 40.4 37.8 40.3 36.4V31.1Z" fill="#E0E8F1"/>
<path fill-rule="evenodd" clip-rule="evenodd" d="M40.3 35.8002C38.4 36.2002 35.4 36.4002 32.2 33.3002C28 29.2002 25 29.7002 22.8 30.7002C22.1 31.0002 21.7 31.8002 21.7 32.5002V36.6002C21.7 38.0002 22.9 39.2002 24.3 39.2002L37.7 39.0002C39.1 39.1002 40.3 38.0002 40.3 36.6002C40.3 36.5002 40.3 36.4002 40.3 36.3002V35.8002Z" fill="#E9EFF5"/>
</g>
<defs>
<filter id="filter0_d" x="0" y="0" width="64" height="64" filterUnits="userSpaceOnUse" color-interpolation-filters="sRGB">
<feFlood flood-opacity="0" result="BackgroundImageFix"/>
<feColorMatrix in="SourceAlpha" type="matrix" values="0 0 0 0 0 0 0 0 0 0 0 0 0 0 0 0 0 0 127 0"/>
<feOffset dy="2"/>
<feGaussianBlur stdDeviation="2"/>
<feColorMatrix type="matrix" values="0 0 0 0 0.00392157 0 0 0 0 0.0705882 0 0 0 0 0.133333 0 0 0 0.1 0"/>
<feBlend mode="normal" in2="BackgroundImageFix" result="effect1_dropShadow"/>
<feBlend mode="normal" in="SourceGraphic" in2="effect1_dropShadow" result="shape"/>
</filter>
</defs>
</svg>
